<?xml version="1.0" encoding="utf-8"?>
<!-- Generator: Adobe Illustrator 22.0.0, SVG Export Plug-In . SVG Version: 6.00 Build 0)  -->
<svg version="1.1"
	 id="svg2" xmlns:cc="http://creativecommons.org/ns#" xmlns:dc="http://purl.org/dc/elements/1.1/" xmlns:rdf="http://www.w3.org/1999/02/22-rdf-syntax-ns#" xmlns:svg="http://www.w3.org/2000/svg"
	 xmlns="http://www.w3.org/2000/svg" xmlns:xlink="http://www.w3.org/1999/xlink" x="0px" y="0px" viewBox="0 0 960 960"
	 style="enable-background:new 0 0 960 960;" xml:space="preserve">
<style type="text/css">
	.st0{fill:#DA13A1;}
	.st1{fill:#76E5C3;}
	.st2{fill:#63E6E1;}
	.st3{fill:#183794;}
	.st4{fill:#8A0D39;}
	.st5{fill:#6A00C7;}
	.st6{fill:#EADBE2;}
	.st7{fill:none;stroke:#EADBE2;stroke-width:3;stroke-miterlimit:10;}
	.st8{fill:none;stroke:#EADBE2;stroke-miterlimit:10;}
	.st9{clip-path:url(#SVGID_2_);}
	.st10{fill:#FFFFFF;}
	.st11{fill:none;stroke:#000000;stroke-miterlimit:10;}
	.st12{fill:none;stroke:#020000;stroke-miterlimit:10;}
	.st13{fill:none;stroke:#FFFFFF;stroke-width:3;stroke-miterlimit:10;}
	.st14{fill:none;stroke:#0A0101;stroke-miterlimit:10;}
</style>
<g id="图层_2">
	<rect y="0" width="960" height="960"/>
</g>
<g>
	<g id="g272" transform="translate(6.2289,1.7415)">
		<path id="path274" class="st0" d="M2.1,955.9l4.2,2.3h30.1l-19.2-10.7L2.1,955.9z"/>
	</g>
	<g id="g276" transform="translate(48.8664,20.8674)">
		<path id="path278" class="st1" d="M16.3,911.3l-12.4,7.6l12,6.7L36,936.7l4.4,2.4h25.3l-5.3-3l25.6-15.5l-12.3-6.8l-25.5,15.5
			l-19.9-11.2l25.4-15.4l-12.2-6.8L16.3,911.3z M88.7,939.1h23.6l2.9-1.7l0-0.7l-11.7-6.5L88.7,939.1z"/>
	</g>
	<g id="g284" transform="translate(685.5864)">
		<path id="path286" class="st0" d="M228.5,960h29.5l3.8-2.1l-14.8-8.2L228.5,960z"/>
	</g>
	<g id="g288" transform="translate(641.2275,26.6994)">
		<path id="path290" class="st1" d="M213.7,897.7l24.9,15.1l-19.6,11l-25-15.2l-12.1,6.7l25.1,15.2l-4.9,2.8H227l4-2.2l19.7-10.9
			l11.8-6.5l-12.1-7.4l-24.7-15.1L213.7,897.7z M153.4,931.1l0,0.7l2.5,1.5h23.2l-14.1-8.6L153.4,931.1z"/>
	</g>
	<g id="g300" transform="translate(64.7969,180.3887)">
		<path id="path302" class="st0" d="M21.6,539.1l-64-35.5L-27,495l64,35.5L21.6,539.1z"/>
	</g>
	<g id="g304" transform="translate(64.7969,113.0693)">
		<path id="path306" class="st0" d="M21.6,696.2l-64,35.5l15.4,8.5l64-35.5L21.6,696.2z"/>
	</g>
	<g id="g324" transform="translate(111.9902,220.2744)">
		<path id="path326" class="st2" d="M37.3,446L11,462l-17.6-9.9l26.2-15.9l-12.6-7l-26.1,15.9l-20.4-11.5l26-15.8l-12.5-6.9
			l-25.7,15.8l-12.7,7.8l12.3,6.8l20.6,11.4l12.6,7l17.8,9.8l12.6,7l12.2-7.4l25.8-15.7l0-0.7L37.3,446z"/>
	</g>
	<g id="g328" transform="translate(113.9883,90.0527)">
		<path id="path330" class="st2" d="M38,749.9L11,735l-17.2,10.6l26.9,14.8L8.3,768l-26.8-14.8l-19.9,12.3l26.6,14.7l-12.2,7.5
			l-26.4-14.7l-13-7.2l12-7.3l20.1-12.3l12.3-7.5l17.3-10.6l12.3-7.5l12.5,6.9L49.7,742l0,0.7L38,749.9z"/>
	</g>
	<g id="g352" transform="translate(657.2031,181.3887)">
		<path id="path354" class="st0" d="M219.1,536.8l64-35.5l-15.4-8.5l-64,35.5L219.1,536.8z"/>
	</g>
	<g id="g356" transform="translate(657.2031,114.0693)">
		<path id="path358" class="st0" d="M219.1,693.8l64,35.5l-15.4,8.5l-64-35.5L219.1,693.8z"/>
	</g>
	<g id="g376" transform="translate(610.0098,221.2744)">
		<path id="path378" class="st2" d="M203.3,443.7l26.4,16l17.6-9.9l-26.2-15.9l12.6-7l26.1,15.9l20.4-11.5l-26-15.8l12.5-6.9
			l25.7,15.8l12.7,7.8l-12.3,6.8l-20.6,11.4l-12.6,7l-17.8,9.8l-12.6,7l-12.2-7.4l-25.8-15.7l0-0.7L203.3,443.7z"/>
	</g>
	<g id="g380" transform="translate(608.0117,91.0527)">
		<path id="path382" class="st2" d="M202.7,747.5l27-14.9l17.2,10.6L220,758.1l12.3,7.5l26.8-14.8l19.9,12.3l-26.6,14.7l12.2,7.5
			l26.4-14.7l13-7.2l-12-7.3l-20.1-12.3l-12.3-7.5l-17.3-10.6l-12.3-7.5l-12.5,6.9L191,739.7l0,0.7L202.7,747.5z"/>
	</g>
	<g id="g400" transform="translate(2.2284,720)">
		<path id="path402" class="st0" d="M0.7-720l15,8.3l15-8.3H0.7z"/>
	</g>
	<g id="g404" transform="translate(99.2839,720)">
		<path id="path406" class="st2" d="M33.1-720l1.2,0.6l1-0.6H33.1z M-38.3-720l-14.7,9l-11.7,7.2l12.7,7.1l25.8,14.4l11.9-7.3
			l-26-14.3l19.5-12l26.1,14.4l12-7.3l-19.9-11H-38.3z"/>
	</g>
	<g id="g412" transform="translate(700.3586,720)">
		<path id="path414" class="st0" d="M233.5-720l19.9,11l6.3-3.5v-7.5H233.5z"/>
	</g>
	<g id="g416" transform="translate(659.8833,720)">
		<path id="path418" class="st2" d="M220-720l-24.8,13.6l12,7.3l26.1-14.4l19.5,12l-26,14.3l11.9,7.3l25.8-14.4l12.7-7.1l-11.7-7.2
			l-19-11.6H220z M172.9-720l5.4,3.3l6-3.3H172.9z"/>
	</g>
	<g id="g428" transform="translate(64.1143,394.7412)">
		<path id="path430" class="st0" d="M21.4,38.9L-41.1,4.3l15-8.3l62.5,34.7L21.4,38.9z"/>
	</g>
	<g id="g432" transform="translate(64.1143,324)">
		<path id="path434" class="st0" d="M21.4,204l-62.5,34.7l15,8.3l62.5-34.7L21.4,204z"/>
	</g>
	<g id="g452" transform="translate(110.2017,425.6914)">
		<path id="path454" class="st1" d="M36.7-33.3L11-17.7l-17.2-9.7l25.6-15.5L7.1-49.7l-25.5,15.5l-19.9-11.2L-13-60.8l-12.2-6.8
			l-25.1,15.4l-12.4,7.6l12,6.7l20.1,11.1l12.3,6.8L-1-10.4l12.3,6.8l11.9-7.2l25.2-15.3l0-0.7L36.7-33.3z"/>
	</g>
	<g id="g456" transform="translate(112.1523,298.5225)">
		<path id="path458" class="st1" d="M37.4,263.4L11,248.9l-16.8,10.4l26.3,14.5l-12,7.3l-26.1-14.4l-19.5,12l26,14.3l-11.9,7.3
			L-48.9,286l-12.7-7.1l11.7-7.2l19.6-12l12-7.3l16.9-10.3l12-7.3l12.2,6.7l25.9,14.2l0,0.7L37.4,263.4z"/>
	</g>
	<g id="g480" transform="translate(664.8857,394.7412)">
		<path id="path482" class="st0" d="M221.6,38.9l62.5-34.7l-15-8.3l-62.5,34.7L221.6,38.9z"/>
	</g>
	<g id="g484" transform="translate(664.8857,324)">
		<path id="path486" class="st0" d="M221.6,204l62.5,34.7l-15,8.3l-62.5-34.7L221.6,204z"/>
	</g>
	<g id="g504" transform="translate(618.7988,425.6919)">
		<path id="path506" class="st1" d="M206.3-33.3L232-17.7l17.2-9.7l-25.6-15.5l12.3-6.8l25.5,15.5l19.9-11.2L256-60.8l12.2-6.8
			l25.1,15.4l12.4,7.6l-12,6.7l-20.1,11.1L261.4-20L244-10.4l-12.3,6.8l-11.9-7.2l-25.2-15.3l0-0.7L206.3-33.3z"/>
	</g>
	<g id="g508" transform="translate(616.8477,298.5225)">
		<path id="path510" class="st1" d="M205.6,263.4l26.4-14.5l16.8,10.4l-26.3,14.5l12,7.3l26.1-14.4l19.5,12l-26,14.3l11.9,7.3
			l25.8-14.4l12.7-7.1l-11.7-7.2l-19.6-12l-12-7.3l-16.9-10.3l-12-7.3l-12.2,6.7l-25.9,14.2l0,0.7L205.6,263.4z"/>
	</g>
	<g id="g532" transform="translate(52.1143,530)">
		<path id="path534" class="st3" d="M17.4-276.7L-45.1-242l15,8.3l62.5-34.7L17.4-276.7z"/>
	</g>
	<g id="g536" transform="translate(52.1143,607.7412)">
		<path id="path538" class="st3" d="M17.4-458.1l-62.5-34.7l15-8.3l62.5,34.7L17.4-458.1z"/>
	</g>
	<g id="g556" transform="translate(99.9038,636.6914)">
		<path id="path558" class="st0" d="M33.3-525.6L7.5-510l-17.2-9.7L16-535.2L3.6-542l-25.5,15.5l-19.9-11.2l25.4-15.4l-12.2-6.8
			l-25.1,15.4l-12.4,7.6l12,6.7l20.1,11.1l12.3,6.8l17.3,9.6l12.3,6.8l11.9-7.2L45-518.4l0-0.7L33.3-525.6z"/>
	</g>
	<g id="g560" transform="translate(105.1523,505.522)">
		<path id="path562" class="st0" d="M35.1-219.6L8.7-234.1l-16.8,10.4l26.3,14.5l-12,7.3L-20-216.3l-19.5,12l26,14.3l-11.9,7.3
			L-51.2-197l-12.7-7.1l11.7-7.2l19.6-12l12-7.3l16.9-10.3l12-7.3l12.2,6.7l25.9,14.2l0,0.7L35.1-219.6z"/>
	</g>
	<g id="g584" transform="translate(662.301,523.7415)">
		<path id="path586" class="st3" d="M220.8-262.1l62.5,34.7l14.4-8v-0.7l-61.9-34.3L220.8-262.1z"/>
	</g>
	<g id="g588" transform="translate(662.301,613.9998)">
		<path id="path590" class="st3" d="M220.8-472.7l15,8.3l61.9-34.3v-0.7l-14.4-8L220.8-472.7z"/>
	</g>
	<g id="g608" transform="translate(625.7988,636.6919)">
		<path id="path610" class="st0" d="M208.6-525.6l25.8,15.6l17.2-9.7l-25.6-15.5l12.3-6.8l25.5,15.5l19.9-11.2l-25.4-15.4l12.2-6.8
			l25.1,15.4l12.4,7.6l-12,6.7L276-519.1l-12.3,6.8l-17.3,9.6l-12.3,6.8l-11.9-7.2l-25.2-15.3l0-0.7L208.6-525.6z"/>
	</g>
	<g id="g612" transform="translate(620.5498,505.522)">
		<path id="path614" class="st0" d="M206.8-219.6l26.4-14.5l16.8,10.4l-26.3,14.5l12,7.3l26.1-14.4l19.5,12l-26,14.3l11.9,7.3
			l25.8-14.4l12.7-7.1l-11.7-7.2l-19.6-12l-12-7.3l-16.9-10.3l-12-7.3l-12.2,6.7l-25.9,14.2l0,0.7L206.8-219.6z"/>
	</g>
</g>
<g>
	<g>
		<g id="g12" transform="translate(0,663.2531)">
			<path id="path14" class="st4" d="M0-587.6l34.7-18.6L0-624.7V-587.6z"/>
		</g>
		<g id="g28" transform="translate(0,670.7482)">
			<path id="path30" class="st4" d="M0-605.1l16-8.6l-16-8.6V-605.1z"/>
		</g>
		<g id="g44" transform="translate(0,479.0119)">
			<path id="path46" class="st5" d="M0-157.7v44.9l1.7,0.9l43.6-23.4L1.7-158.6L0-157.7z"/>
		</g>
		<g id="g60" transform="translate(0,453.2603)">
			<path id="path62" class="st5" d="M0-97.6l22.2-11.9L0-121.4V-97.6z"/>
		</g>
		<g id="g76" transform="translate(0,270.5078)">
			<path id="path78" class="st4" d="M0,328.8V367l12.2,6.5L60,347.9l-47.8-25.6L0,328.8z"/>
		</g>
		<g id="g92" transform="translate(0,242.2685)">
			<path id="path94" class="st4" d="M0,394.7l34.6-18.5L0,357.6V394.7z"/>
		</g>
		<g id="g108" transform="translate(0,60.5081)">
			<path id="path110" class="st5" d="M0,818.8V857l12.2,6.5L60,837.9l-47.8-25.6L0,818.8z"/>
		</g>
		<g id="g124" transform="translate(0,32.2682)">
			<path id="path126" class="st5" d="M0,884.7l34.6-18.5L0,847.6V884.7z"/>
		</g>
		<g id="g140" transform="translate(702.7686,675.1728)">
			<path id="path142" class="st4" d="M234.3-615.4l23,12.3v-24.6L234.3-615.4z"/>
		</g>
		<g id="g156" transform="translate(716.7681,675.1728)">
			<path id="path158" class="st4" d="M238.9-615.4l4.3,2.3v-4.6L238.9-615.4z"/>
		</g>
		<g id="g172" transform="translate(694.7685,460.1727)">
			<path id="path174" class="st5" d="M231.6-113.7l33.6,18v-36L231.6-113.7z"/>
		</g>
		<g id="g188" transform="translate(712.1214,460.1727)">
			<path id="path190" class="st5" d="M237.4-113.7l10.5,5.6v-11.2L237.4-113.7z"/>
		</g>
		<g id="g204" transform="translate(683.7687,254.1726)">
			<path id="path206" class="st4" d="M227.9,366.9l47.9,25.6l0.5-0.2v-50.7l-0.5-0.2L227.9,366.9z"/>
		</g>
		<g id="g220" transform="translate(702.7974,254.1726)">
			<path id="path222" class="st4" d="M234.3,366.9l22.9,12.3v-24.6L234.3,366.9z"/>
		</g>
		<g id="g236" transform="translate(683.7687,44.1729)">
			<path id="path238" class="st5" d="M227.9,856.9l47.9,25.6l0.5-0.2v-50.7l-0.5-0.2L227.9,856.9z"/>
		</g>
		<g id="g252" transform="translate(702.7974,44.1729)">
			<path id="path254" class="st5" d="M234.3,856.9l22.9,12.3v-24.6L234.3,856.9z"/>
		</g>
		<g id="g296" transform="translate(0,126.4058)">
			<path id="path298" class="st1" d="M0,665.1l41.2-22L0,621V665.1z"/>
		</g>
		<g id="g348" transform="translate(691.1127,143.9424)">
			<path id="path350" class="st1" d="M230.4,624.1l38.5,20.6v-41.2L230.4,624.1z"/>
		</g>
		<g id="g424" transform="translate(0,340.576)">
			<path id="path426" class="st0" d="M0,165.3l41.3-22.1L0,121.1V165.3z"/>
		</g>
		<g id="g476" transform="translate(698.0004,357.1731)">
			<path id="path478" class="st0" d="M232.7,126.6l29.3,15.7v-31.4L232.7,126.6z"/>
		</g>
		<g id="g528" transform="translate(0,552.5764)">
			<path id="path530" class="st2" d="M0-329.3l41.3-22.1L0-373.6V-329.3z"/>
		</g>
		<g id="g580" transform="translate(694.7019,569.1726)">
			<path id="path582" class="st2" d="M231.6-368.1l33.7,18.1v-36.1L231.6-368.1z"/>
		</g>
	</g>
	<g>
		<g id="g308" transform="translate(132.7417,167.5059)">
			<path id="path310" class="st0" d="M44.2,569.2l-28.5,15.3l-28.5-15.3l28.5-15.3L44.2,569.2z"/>
		</g>
		<g id="g312" transform="translate(135.8135,139.8711)">
			<path id="path314" class="st0" d="M45.3,633.6l-28.5,15.3l-28.5-15.3l28.5-15.3L45.3,633.6z"/>
		</g>
		<g id="g316" transform="translate(73.3491,167.5059)">
			<path id="path318" class="st3" d="M24.4,569.2L-4,584.4l-28.5-15.3L-4,553.9L24.4,569.2z"/>
		</g>
		<g id="g320" transform="translate(73.3491,134.751)">
			<path id="path322" class="st3" d="M24.4,645.6L-4,660.8l-28.5-15.3L-4,630.3L24.4,645.6z"/>
		</g>
		<g id="g360" transform="translate(589.2588,168.5059)">
			<path id="path362" class="st0" d="M196.4,566.8l28.5,15.3l28.5-15.3l-28.5-15.3L196.4,566.8z"/>
		</g>
		<g id="g364" transform="translate(586.1865,140.8711)">
			<path id="path366" class="st0" d="M195.4,631.3l28.5,15.3l28.5-15.3L223.9,616L195.4,631.3z"/>
		</g>
		<g id="g368" transform="translate(648.6504,168.5059)">
			<path id="path370" class="st3" d="M216.2,566.8l28.5,15.3l28.5-15.3l-28.5-15.3L216.2,566.8z"/>
		</g>
		<g id="g372" transform="translate(648.6504,135.751)">
			<path id="path374" class="st3" d="M216.2,643.2l28.5,15.3l28.5-15.3L244.7,628L216.2,643.2z"/>
		</g>
		<g id="g436" transform="translate(131.4663,377.1602)">
			<path id="path438" class="st3" d="M43.8,80L16,94.9L-11.8,80L16,65.1L43.8,80z"/>
		</g>
		<g id="g440" transform="translate(130.4663,348.1729)">
			<path id="path442" class="st3" d="M43.5,147.6l-27.8,14.9l-27.8-14.9l27.8-14.9L43.5,147.6z"/>
		</g>
		<g id="g488" transform="translate(597.5342,377.1602)">
			<path id="path490" class="st3" d="M199.2,80L227,94.9L254.8,80L227,65.1L199.2,80z"/>
		</g>
		<g id="g492" transform="translate(598.5342,348.1729)">
			<path id="path494" class="st3" d="M199.5,147.6l27.8,14.9l27.8-14.9l-27.8-14.9L199.5,147.6z"/>
		</g>
		<g id="g540" transform="translate(118.4663,584.1602)">
			<path id="path542" class="st4" d="M39.5-403l-27.8,14.9L-16.2-403l27.8-14.9L39.5-403z"/>
		</g>
		<g id="g544" transform="translate(118.4663,555.1729)">
			<path id="path546" class="st4" d="M39.5-335.4l-27.8,14.9l-27.8-14.9l27.8-14.9L39.5-335.4z"/>
		</g>
		<g>
			<g id="g444" transform="translate(73.4663,375.1602)">
				<path id="path446" class="st6" d="M24.5,84.6L-3.3,99.5l-27.8-14.9l27.8-14.9L24.5,84.6z"/>
			</g>
			<g id="g448" transform="translate(72.4663,344.1729)">
				<path id="path450" class="st6" d="M24.2,156.9l-27.8,14.9l-27.8-14.9L-3.7,142L24.2,156.9z"/>
			</g>
			<g id="g496" transform="translate(655.5342,375.1602)">
				<path id="path498" class="st6" d="M218.5,84.6l27.8,14.9l27.8-14.9l-27.8-14.9L218.5,84.6z"/>
			</g>
			<g id="g500" transform="translate(656.5342,344.1729)">
				<path id="path502" class="st6" d="M218.8,156.9l27.8,14.9l27.8-14.9L246.7,142L218.8,156.9z"/>
			</g>
			<g id="g548" transform="translate(63.4663,586.1602)">
				<path id="path550" class="st6" d="M21.2-407.7l-27.8,14.9l-27.8-14.9l27.8-14.9L21.2-407.7z"/>
			</g>
			<g id="g552" transform="translate(63.4663,549.1729)">
				<path id="path554" class="st6" d="M21.2-321.4l-27.8,14.9l-27.8-14.9l27.8-14.9L21.2-321.4z"/>
			</g>
			<g id="g600" transform="translate(662.2363,586.1602)">
				<path id="path602" class="st6" d="M220.7-407.7l27.8,14.9l27.8-14.9l-27.8-14.9L220.7-407.7z"/>
			</g>
			<g id="g604" transform="translate(662.2363,549.1729)">
				<path id="path606" class="st6" d="M220.7-321.4l27.8,14.9l27.8-14.9l-27.8-14.9L220.7-321.4z"/>
			</g>
			<g id="g596" transform="translate(607.2363,555.1729)">
				<path id="path598" class="st4" d="M202.4-335.4l27.8,14.9l27.8-14.9l-27.8-14.9L202.4-335.4z"/>
			</g>
			<g id="g592" transform="translate(607.2363,584.1602)">
				<path id="path594" class="st4" d="M202.4-403l27.8,14.9l27.8-14.9l-27.8-14.9L202.4-403z"/>
			</g>
		</g>
	</g>
</g>
<g>
	<g>
		<g id="g332" transform="translate(212.6255,138.0781)">
			<path id="path334" class="st4" d="M70.9,637.8l-12.7-6.6l-26.9-14l26.4-13.8l12.9-6.7L57.7,590l-69.6-36.3l-12.3,7l69.1,36.1
				l-26.4,13.8l-12.8,6.7l12.9,6.7l27.1,14.2l-64,34.9l12.2,6.9l64.5-35.2L70.9,637.8z"/>
		</g>
		<g id="g336" transform="translate(177.5791,132.9258)">
			<path id="path338" class="st4" d="M59.2,649.8l12.6-6.9l-12.7-6.6l-26.9-14l26.4-13.8l12.9-6.7l-12.8-6.7L6.8,568.1l-12.3,7
				l51.3,26.8l-26.4,13.8l-12.9,6.7l12.9,6.7l27.1,14.2l-46.6,25.4l12.2,6.9L59.2,649.8z"/>
		</g>
		<g id="g340" transform="translate(154.0273,132.9258)">
			<path id="path342" class="st2" d="M51.3,649.8l12.6-6.9l-12.7-6.6l-26.9-14l26.4-13.8l12.9-6.7l-12.8-6.7l-35.5-18.5l-12.3,7
				l35,18.3l-26.4,13.8l-12.9,6.7l12.9,6.7l27.1,14.2L8,659.9l12.2,6.9L51.3,649.8z"/>
		</g>
		<g id="g460" transform="translate(210,346.8945)">
			<path id="path462" class="st1" d="M70,150.6l-12-6.3l-25.4-13.3l24.9-13l12.2-6.4l-12.1-6.3L-13,68.5l-11.6,6.6l70.1,36.6l-25,13
				l-12.2,6.3l12.2,6.4l25.6,13.4l-61.8,33.7l11.5,6.5l62.3-34L70,150.6z"/>
		</g>
		<g id="g464" transform="translate(173.7246,342.0205)">
			<path id="path466" class="st1" d="M57.9,162l11.9-6.5l-12-6.3l-25.4-13.3l24.9-13l12.2-6.4l-12.1-6.3L5.8,83.3l-11.6,6.6
				l51.1,26.7l-25,13l-12.2,6.3l12.2,6.4l25.6,13.4L2.7,179.2l11.5,6.5L57.9,162z"/>
		</g>
		<g id="g564" transform="translate(205.4775,554.4224)">
			<path id="path566" class="st0" d="M68.5-333.7l-12.4-6.5l-26.2-13.7l25.7-13.4l12.6-6.6l-12.5-6.5L-18.5-419l-12,6.8l73.6,38.4
				l-25.8,13.4l-12.5,6.5l12.6,6.6l26.5,13.8l-68,37.1l11.9,6.8l68.5-37.4L68.5-333.7z"/>
		</g>
		<g id="g568" transform="translate(166.2529,549.3901)">
			<path id="path570" class="st0" d="M55.4-321.9l12.3-6.7l-12.4-6.5l-26.2-13.7l25.7-13.4l12.6-6.6l-12.5-6.5L1.6-403.1l-12,6.8
				l52.8,27.6l-25.8,13.4L4-348.8l12.6,6.6L43-328.4l-47.6,25.9l11.9,6.8L55.4-321.9z"/>
		</g>
		<g id="g572" transform="translate(141.2529,549.3901)">
			<path id="path574" class="st1" d="M47.1-321.9l12.3-6.7L47-335.1l-26.2-13.7l25.7-13.4l12.6-6.6l-12.5-6.5l-35.9-18.8l-12,6.8
				L34-368.7L8.2-355.3l-12.5,6.5l12.6,6.6l26.5,13.8L4.1-311.7l11.9,6.7L47.1-321.9z"/>
		</g>
		<g id="g468" transform="translate(150.9067,342.0205)">
			<path id="path470" class="st6" d="M50.3,162l11.9-6.5l-12-6.3l-25.4-13.3l24.9-13l12.2-6.4l-12.1-6.3L14,91.6L2.4,98.2l35.3,18.4
				l-25,13l-12.2,6.3l12.2,6.4l25.6,13.4l-27.7,15.1l11.5,6.5L50.3,162z"/>
		</g>
	</g>
	<g>
		<g id="g384" transform="translate(509.375,139.0781)">
			<path id="path386" class="st4" d="M169.8,635.5l12.7-6.6l26.9-14L183,601.1l-12.9-6.7l12.8-6.7l69.6-36.3l12.3,7l-69.1,36.1
				l26.4,13.8l12.9,6.7l-12.9,6.7l-27.1,14.2l64,34.9l-12.2,6.9l-64.5-35.2L169.8,635.5z"/>
		</g>
		<g id="g388" transform="translate(544.4209,133.9258)">
			<path id="path390" class="st4" d="M181.5,647.5l-12.6-6.9l12.7-6.6l26.9-14l-26.4-13.8l-12.9-6.7l12.8-6.7l51.9-27.1l12.3,7
				l-51.3,26.8l26.4,13.8l12.9,6.7l-12.9,6.7l-27.1,14.2l46.6,25.4l-12.2,6.9L181.5,647.5z"/>
		</g>
		<g id="g392" transform="translate(567.9727,133.9258)">
			<path id="path394" class="st2" d="M189.3,647.5l-12.6-6.9l12.7-6.6l26.9-14l-26.4-13.8l-12.9-6.7l12.8-6.7l35.5-18.5l12.3,7
				l-35,18.3l26.4,13.8L242,620l-12.9,6.7L202,640.9l30.6,16.7l-12.2,6.9L189.3,647.5z"/>
		</g>
		<g id="g512" transform="translate(519,346.8945)">
			<path id="path514" class="st1" d="M173,150.6l12-6.3l25.4-13.3l-24.9-13l-12.2-6.4l12.1-6.3L256,68.5l11.6,6.6l-70.1,36.6
				l24.9,13l12.2,6.3l-12.2,6.4l-25.6,13.4l61.8,33.7l-11.5,6.5l-62.3-34L173,150.6z"/>
		</g>
		<g id="g516" transform="translate(555.2754,342.0205)">
			<path id="path518" class="st1" d="M185.1,162l-11.9-6.5l12-6.3l25.4-13.3l-24.9-13l-12.2-6.4l12.1-6.3l51.6-26.9l11.6,6.6
				l-51.1,26.7l25,13l12.2,6.3l-12.2,6.4l-25.6,13.4l43.2,23.6l-11.5,6.5L185.1,162z"/>
		</g>
		<g id="g616" transform="translate(520.2246,554.4224)">
			<path id="path618" class="st0" d="M173.4-333.7l12.4-6.5l26.2-13.7l-25.7-13.4l-12.6-6.6l12.5-6.5l74.1-38.7l12,6.8l-73.6,38.4
				l25.8,13.4l12.5,6.5l-12.6,6.6l-26.5,13.8l68,37.1l-11.9,6.8l-68.5-37.4L173.4-333.7z"/>
		</g>
		<g id="g620" transform="translate(559.4492,549.3901)">
			<path id="path622" class="st0" d="M186.5-321.9l-12.3-6.7l12.4-6.5l26.2-13.7L187-362.2l-12.6-6.6l12.5-6.5l53.3-27.8l12,6.8
				l-52.8,27.6l25.8,13.4l12.5,6.5l-12.6,6.6l-26.5,13.8l47.6,25.9l-11.9,6.8L186.5-321.9z"/>
		</g>
		<g id="g624" transform="translate(584.4492,549.3901)">
			<path id="path626" class="st1" d="M194.8-321.9l-12.3-6.7l12.4-6.5l26.2-13.7l-25.7-13.4l-12.6-6.6l12.5-6.5l35.9-18.8l12,6.8
				l-35.4,18.5l25.8,13.4l12.5,6.5l-12.6,6.6l-26.5,13.8l30.6,16.7l-11.9,6.7L194.8-321.9z"/>
		</g>
		<g id="g520" transform="translate(578.0928,342.0205)">
			<path id="path522" class="st6" d="M192.7,162l-11.9-6.5l12-6.3l25.4-13.3l-24.9-13l-12.2-6.4l12.1-6.3L229,91.6l11.7,6.6
				l-35.3,18.4l25,13l12.2,6.3l-12.2,6.4l-25.6,13.4l27.7,15.1l-11.5,6.5L192.7,162z"/>
		</g>
	</g>
</g>
<g>
	<g id="g1284" transform="translate(261.9595,362.5)">
		<path id="path1286" class="st7" d="M87.3,114.2l-24.6,13.2l-24.6-13.2L62.7,101L87.3,114.2z"/>
	</g>
	<g id="g1288" transform="translate(252.5449,362.5)">
		<path id="path1290" class="st8" d="M84.2,114.2l-12.1,6.5l-12.1-6.5l12.1-6.5L84.2,114.2z"/>
	</g>
	<g id="g1292" transform="translate(99.9595,362.5)">
		<path id="path1294" class="st7" d="M33.3,114.2L8.7,127.3l-24.6-13.2L8.7,101L33.3,114.2z"/>
	</g>
	<g id="g1296" transform="translate(90.5449,362.5)">
		<path id="path1298" class="st8" d="M30.2,114.2l-12.1,6.5l-12.1-6.5l12.1-6.5L30.2,114.2z"/>
	</g>
	<g id="g1300" transform="translate(87.9595,570.5)">
		<path id="path1302" class="st7" d="M29.3-371.2L4.7-358l-24.6-13.2l24.6-13.2L29.3-371.2z"/>
	</g>
	<g id="g1304" transform="translate(78.5449,570.5)">
		<path id="path1306" class="st8" d="M26.2-371.2l-12.1,6.5l-12.1-6.5l12.1-6.5L26.2-371.2z"/>
	</g>
	<g id="g1308" transform="translate(260.9595,569.5)">
		<path id="path1310" class="st7" d="M87-368.8l-24.6,13.2l-24.6-13.2L62.4-382L87-368.8z"/>
	</g>
	<g id="g1312" transform="translate(251.5449,569.5)">
		<path id="path1314" class="st8" d="M83.8-368.8l-12.1,6.5l-12.1-6.5l12.1-6.5L83.8-368.8z"/>
	</g>
	<g id="g1316" transform="translate(498.959,569.5)">
		<path id="path1318" class="st7" d="M166.3-368.8l-24.6,13.2l-24.6-13.2l24.6-13.2L166.3-368.8z"/>
	</g>
	<g id="g1320" transform="translate(489.5449,569.5)">
		<path id="path1322" class="st8" d="M163.2-368.8l-12.1,6.5l-12.1-6.5l12.1-6.5L163.2-368.8z"/>
	</g>
	<g id="g1324" transform="translate(672.959,569.5)">
		<path id="path1326" class="st7" d="M224.3-368.8l-24.6,13.2l-24.6-13.2l24.6-13.2L224.3-368.8z"/>
	</g>
	<g id="g1328" transform="translate(663.5449,569.5)">
		<path id="path1330" class="st8" d="M221.2-368.8l-12.1,6.5l-12.1-6.5l12.1-6.5L221.2-368.8z"/>
	</g>
	<g id="g1332" transform="translate(505.959,362.5)">
		<path id="path1334" class="st7" d="M168.7,114.2L144,127.3l-24.6-13.2L144,101L168.7,114.2z"/>
	</g>
	<g id="g1336" transform="translate(496.5449,362.5)">
		<path id="path1338" class="st8" d="M165.5,114.2l-12.1,6.5l-12.1-6.5l12.1-6.5L165.5,114.2z"/>
	</g>
	<g id="g1340" transform="translate(664.959,362.5)">
		<path id="path1342" class="st7" d="M221.7,114.2L197,127.3l-24.6-13.2L197,101L221.7,114.2z"/>
	</g>
	<g id="g1344" transform="translate(655.5449,362.5)">
		<path id="path1346" class="st8" d="M218.5,114.2l-12.1,6.5l-12.1-6.5l12.1-6.5L218.5,114.2z"/>
	</g>
	<g id="g1348" transform="translate(655.959,154.5)">
		<path id="path1350" class="st7" d="M218.7,599.5L194,612.7l-24.6-13.2l24.6-13.2L218.7,599.5z"/>
	</g>
	<g id="g1352" transform="translate(646.5449,154.5)">
		<path id="path1354" class="st8" d="M215.5,599.5l-12.1,6.5l-12.1-6.5l12.1-6.5L215.5,599.5z"/>
	</g>
	<g id="g1356" transform="translate(496.959,154.5)">
		<path id="path1358" class="st7" d="M165.7,599.5L141,612.7l-24.6-13.2l24.6-13.2L165.7,599.5z"/>
	</g>
	<g id="g1360" transform="translate(487.5449,154.5)">
		<path id="path1362" class="st8" d="M162.5,599.5l-12.1,6.5l-12.1-6.5l12.1-6.5L162.5,599.5z"/>
	</g>
	<g id="g1364" transform="translate(261.9595,154.5)">
		<path id="path1366" class="st7" d="M87.3,599.5l-24.6,13.2l-24.6-13.2l24.6-13.2L87.3,599.5z"/>
	</g>
	<g id="g1368" transform="translate(252.5449,154.5)">
		<path id="path1370" class="st8" d="M84.2,599.5L72.1,606l-12.1-6.5l12.1-6.5L84.2,599.5z"/>
	</g>
	<g id="g1372" transform="translate(104.9595,154.5)">
		<path id="path1374" class="st7" d="M35,599.5l-24.6,13.2l-24.6-13.2l24.6-13.2L35,599.5z"/>
	</g>
	<g id="g1376" transform="translate(95.5449,154.5)">
		<path id="path1378" class="st8" d="M31.8,599.5L19.8,606l-12.1-6.5l12.1-6.5L31.8,599.5z"/>
	</g>
</g>
<g>
	<g id="g268" transform="translate(59.0931,41.5548)">
		<path id="path270" class="st6" d="M19.7,863l-78.8,45.1v10.3h2.4l86.9-49.7l92.3,49.7h21.4l-10.2-5.5l-93.1-50.2l-10.5-5.7
			L19.7,863z"/>
	</g>
	<g id="g280" transform="translate(643.3497,40.833)">
		<path id="path282" class="st6" d="M214.4,864.7l-91.3,49.2l-9.7,5.2h21l90.2-48.6l85,48.6h7.1v-7.4L234.9,865l-10.2-5.8
			L214.4,864.7z"/>
	</g>
	<g id="g292" transform="translate(55.5588,256.9977)">
		<path id="path294" class="st6" d="M18.5,360.3l-74.1,42.4v12l84.8-48.5l95.3,51.4l-22.6,13l-10.6,6.1l-41.8,25.6l10.4,5.2l42.1-25
			l10.6-6.1l22.6-13L241,480.2l-22.7,13l-10.6,6.1l10.8,5.8l22.8,12.3l-96.6,55.4l-22.9-12.4l-10.7-5.8l-50.9-26.3l-10.4,5.2
			l50.7,27.2l10.7,5.8l22.9,12.4l-93.6,53.7L-47,585.3l53.5-30.6l11.2-6.4l-11.3-6.1l-18.8-10.1l-11.3-6.1l-11.2,6.4l-20.7,11.8
			v12.6l32-18.3l18.8,10.1l-50.7,29v14.8l85.4,46.1l10.7,5.8l10.6-6.1l93.6-53.7l10.6-6.1l96.6-55.4l10.6-6.1l-10.7-5.8L229,499
			l22.7-13l11.1-5.8l-2.8-1.5l-8.4-4.5l-105.7-56.9l-10.7-5.8l-95.3-51.4l-10.8-5.8L18.5,360.3z M-55.6,435.2l42.9,23.2l-16.9,9.7
			l-26-14v12.4l14.8,8l11.3,6.1l11.2-6.4l16.9-9.7l11.2-6.4l-11.3-6.1l-54.1-29.2V435.2z"/>
	</g>
	<g id="g344" transform="translate(650.4156,258.201)">
		<path id="path346" class="st6" d="M216.8,357.5l-95.3,51.4l-10.7,5.8L5.1,471.6l-8.4,4.5l-2.8,1.5L5,483.5l22.7,13L4.9,508.8
			l-10.7,5.8l10.6,6.1l96.6,55.4l10.6,6.1l93.6,53.7l10.6,6.1l10.7-5.8l82.7-44.7v-17.8l-48.1-27.5l18.8-10.1l29.3,16.8v-12.6
			l-18-10.3l-11.2-6.4l-11.3,6.1l-18.8,10.1l-11.3,6.1l11.2,6.4l53.5,30.6L216.3,630l-93.6-53.7l22.9-12.4l10.7-5.8L207,531
			l-10.4-5.2l-50.9,26.3l-10.7,5.8l-22.9,12.4l-96.6-55.4l22.8-12.3l10.8-5.8l-10.6-6.1l-22.7-13l105.6-56.9l22.6,13l10.6,6.1
			l42.1,25l10.4-5.2l-41.8-25.6l-10.6-6.1l-22.6-13l95.3-51.4l82.2,47v-12l-71.4-40.9l-10.6-6.1L216.8,357.5z M258.2,449.4
			l-11.3,6.1l11.2,6.4l16.9,9.7l11.2,6.4l11.3-6.1l12.1-6.6v-12.4l-23.3,12.6l-16.9-9.7l40.2-21.7v-12.4L258.2,449.4z"/>
	</g>
	<g id="g396" transform="translate(121.9827,720)">
		<path id="path398" class="st6" d="M40.7-720l-86.8,49.8l-75.8-40.9v12.1l64.9,35l11,6l10.9-6.2l96.2-55.2l1-0.6H40.7z"/>
	</g>
	<g id="g408" transform="translate(587.2123,720)">
		<path id="path410" class="st6" d="M195.7-720l5.7,3.3l96.2,55.2l10.9,6.2l11-6l53.2-28.7v-12.1l-64.1,34.6L217.2-720H195.7z"/>
	</g>
	<g id="g420" transform="translate(55.0926,463.554)">
		<path id="path422" class="st6" d="M18.4-121.6l-73.5,42v11.7l84-48L122-65.8l-22,12.7l-10.3,5.9l-40.8,25l10.1,5.1l41.2-24.4
			l10.3-5.9l22-12.7L235.6-4.5L213.4,8.2l-10.4,5.9l10.5,5.7l22.3,12l-94.3,54.1l-22.4-12.1l-10.5-5.7L58.9,42.4l-10.1,5.1L98.3,74
			l10.5,5.7l22.4,12.1l-91.4,52.4l-85.3-46.1L6.6,68.2L17.5,62L6.5,56l-18.3-9.9l-11.1-6l-10.9,6.2l-21.3,12.2v12.3l32.3-18.5
			l18.3,9.9l-50.7,29v13.2l84.5,45.6l10.5,5.7l10.3-5.9l91.4-52.4l10.3-5.9l94.3-54.1l10.3-5.9l-10.5-5.7l-22.3-12l22.2-12.7
			l10.8-5.7l-2.8-1.5l-8.2-4.4L142.8-66.1l-10.5-5.7l-93.1-50.2l-10.5-5.7L18.4-121.6z M-55.1-49.1l43,23.2l-16.5,9.5l-26.5-14.3
			v12.1l15.6,8.4l11,6l10.9-6.2L-1-20l10.9-6.2l-11-6l-53.9-29.1L-55.1-49.1z"/>
	</g>
	<g id="g472" transform="translate(658.2582,463.7529)">
		<path id="path474" class="st6" d="M219.4-122.1l-93.1,50.2l-10.5,5.7L12.7-10.7L4.5-6.3L1.7-4.8l10.8,5.7l22.2,12.7l-22.3,12
			L2,31.3l10.3,5.9l94.3,54.1l10.3,5.9l91.4,52.4l10.3,5.9l10.5-5.7l72.5-39.1V99.2L218.9,144l-91.4-52.4l22.4-12.1l10.5-5.7
			l49.5-26.5l-10.1-5.1L150,67.9l-10.5,5.7l-22.4,12.1L22.8,31.6l22.3-12l10.5-5.7L45.2,8L23-4.7l103.1-55.6l22,12.7l10.3,5.9
			l41.2,24.4l10.1-5.1l-40.8-25l-10.3-5.9l-22-12.7l93.1-50.2l72,41.2v-11.7l-61.5-35.2l-10.4-5.9L219.4-122.1z M259.8-32.4l-11,6
			l10.9,6.2l16.5,9.5l10.9,6.2l11-6l3.6-1.9v-12.1l-14.5,7.8l-16.5-9.5l31-16.7V-55L259.8-32.4z M270.5,46l-18.3,9.9l-11.1,6L252,68
			l49.7,28.5V84.2l-38.7-22.1l18.3-9.9l20.3,11.6V51.5l-9.3-5.3L281.6,40L270.5,46z"/>
	</g>
	<g id="g576" transform="translate(664.2666,676.7181)">
		<path id="path578" class="st6" d="M221.4-619l-98,52.8l-11,5.9L3.8-501.7l-8.6,4.6l-2.9,1.6l11.4,6L27-476.1L3.6-463.5l-11,6
			l10.9,6.2l99.3,56.9l10.9,6.2l96.2,55.2l10.9,6.2l11-6l64-34.5v-12.1l-74.9,40.4l-96.2-55.2l23.5-12.7l11-6l52.1-27.9l-10.7-5.3
			l-52.3,27l-11,6l-23.5,12.7l-99.3-56.9l23.5-12.7l11.1-6l-10.9-6.2l-23.4-13.4L123.3-554l23.2,13.4l10.9,6.3l43.3,25.6l10.7-5.3
			l-43-26.3l-10.9-6.3l-23.2-13.4l98-52.8l63.4,36.3v-12.3l-52.3-30l-10.9-6.2L221.4-619z M264.1-530.7l-11,6l10.9,6.2l16.5,9.5
			l10.9,6.2l4.4-2.4v-12.1l-4.2,2.3l-16.5-9.5l20.7-11.2v-12.1L264.1-530.7z M280.1-440.3l-18.3,9.9l-11.1,6l10.9,6.2l34.1,19.5
			V-411l-23.1-13.2l18.3-9.9l4.7,2.7v-12.3l-4.6-2.6L280.1-440.3z"/>
	</g>
	<g id="g524" transform="translate(44.9622,676.5093)">
		<path id="path526" class="st6" d="M15-618.5L-45-584.2v12.3l71-40.6l98,52.8l-23.2,13.4L90-540.1l-43,26.3l10.7,5.3l43.3-25.6
			l10.9-6.3l23.2-13.4l108.6,58.5l-23.4,13.4l-10.9,6.2l11.1,6l23.4,12.7l-99.3,56.9l-23.5-12.7l-11-6l-52.3-27L47-440.5l52.1,27.9
			l11,6l23.5,12.7l-96.2,55.2L-45-383.2v12.1l71.6,38.6l11,6l10.9-6.2l96.2-55.2l10.9-6.2l99.3-56.9l10.9-6.2l-11-6l-23.4-12.7
			l23.4-13.4l11.4-6l-2.9-1.6l-8.6-4.6L146-560l-11-5.9l-98-52.8l-11.1-6L15-618.5z M-45-539.5l28.3,15.3l-16.5,9.5l-11.8-6.4v12.1
			l0.9,0.5l11,6l10.9-6.2l16.5-9.5l10.9-6.2l-11-6L-45-551.6L-45-539.5z M-43.7-439.9l-1.3,0.7v12.3l12.3-7.1l18.3,9.9L-45-406.5
			v12.3l41.7-23.9l10.9-6.2l-11.1-6l-18.3-9.9l-11.1-6L-43.7-439.9z"/>
	</g>
</g>
<g id="长边">
	<g>
		<defs>
			<rect id="SVGID_1_" y="0" width="960" height="960"/>
		</defs>
		<clipPath id="SVGID_2_">
			<use xlink:href="#SVGID_1_"  style="overflow:visible;"/>
		</clipPath>
		<g id="g630" class="st9">
			<g id="g636" transform="translate(305.5327,131.2715)">
				<path id="path638" class="st0" d="M101.8,653.7c0.1-0.1,0.3-0.2,0.4-0.2c3.6-2,7.2-4,10.8-6c-4-6.7-8.1-13.3-12.1-20l-3.9-6.4
					c0-0.1,0.1-0.2,0.1-0.3c0.2-0.4,0.4-0.8,0.6-1.2c4.1-7.4,8.1-14.9,12.2-22.3l-9.8-5.1L88,615.7l-0.1,0.1l-0.1,0.1l-10-5.2
					L90.2,587l-10-5.2l-5.1,9.8l-7.2,13.9l-10-5.2l0.1-0.2l10.6-20.4l1.6-3.1l-10-5.2l-1.9,3.6l-10.5,20.2l-10-5.2l12.3-23.7
					l-10-5.2L28,584.5l-0.1,0.2l-10-5.2l12.3-23.7l-10-5.2l-2.1,4.1L7.9,574.3l-10-5.2l0.2-0.3l9.1-17.5l3.1-5.9l-10-5.2l-1.3,2.5
					l-11.1,21.3l-10-5.2L-9.7,535l-10-5.2l-12.1,23.3l-0.2,0.4l-10-5.2l12.3-23.7l-10-5.2l-4.2,8.1l-8.1,15.6l-10-5.2l0.2-0.5
					l0.5-0.9l11.6-22.4l-10-5.2l-1.8,3.4L-72,532.8l-10-5.2l0.3-0.5l12.4-23.9l-10-5.2L-92,522.4l-10-5.2c0.1-0.2,0.2-0.4,0.3-0.6
					c0.8-1.6,1.7-3.2,2.5-4.8c4.5-8.7,9-17.4,13.5-26l0.3-0.5l-0.1-0.1l-3.6-6.4l-14-24.8l9.8-5.5l14,24.8l9.8-5.5l-14-24.8l9.8-5.5
					l14,24.8l9.8-5.5l-14-24.8l9.8-5.5l14,24.8l9.8-5.5l-14-24.8l9.8-5.5l14,24.8l9.8-5.5l-14-24.8l9.8-5.5l14,24.8l9.8-5.5
					l-14-24.8l9.8-5.5l14.1,24.8l9.8-5.5l-14.1-24.8l9.8-5.6l14.1,24.8l9.8-5.5L34,376.2l9.8-5.5l14.1,24.8l9.8-5.5l-14.1-24.8
					l9.8-5.5l14.1,24.9l11.7-6.6L75.1,353l11.4-6.4l14.1,24.9l11.6-6.5l-12.2-21.6l14.5-29.3l-9.4-4.9l-11.2,21.4l-9.4-4.9
					l11.1-21.4l-9.4-4.9l-11.1,21.4l-9.4-4.9l11.1-21.4l-9.4-4.9l-11.1,21.4l-9.4-4.9l11.1-21.4l-9.4-4.9l-11.1,21.4l-9.4-4.9
					L39,274.8l-9.4-4.9l-11.1,21.4L9,286.5L20.2,265l-9.4-4.9l-11.1,21.4l-9.4-4.9l11.1-21.4l-9.4-4.9l-11.1,21.4l-9.4-4.9
					l11.1-21.4l-9.4-4.9L-38.1,262l-9.4-4.9l11.1-21.4l-9.4-4.9l-11.1,21.4l-9.4-4.9l11.1-21.4l-9.2-4.8l-11.1,21.3l-0.2-0.1
					l-0.1,0.1l-8.2-4.2l14.4-27.7l0.5-0.8l0.1-0.2l-1.6-2.8l-16.2-28.7l8.2-4.7l13.7,24.2l9.2-5.2l-8-14.2l-5.7-10l9.2-5.2
					l13.7,24.2l9.2-5.2l-13.7-24.2l9.2-5.2l13.7,24.2l9.2-5.2l-13.7-24.2l9.2-5.2l1.2,2.2l12.5,22l9.2-5.2l-9.1-16l-4.6-8.2l9.2-5.2
					l5.2,9.2l8.5,15l9.2-5.2L4.8,126.3l9.2-5.2l6.1,10.8l7.6,13.4l9.2-5.2l-3.6-6.4l-10.1-17.8l9.2-5.2l13.7,24.2l9.2-5.2
					l-13.7-24.2l9.2-5.2l13.7,24.2l9.2-5.2L60.2,94.9l9.2-5.2l10.5,18.6l3.2,5.6l9.2-5.2L85.8,97l-7.1-12.5l9.2-5.2l13.7,24.2
					l9.2-5.2L93.6,70l0.8-1.5l12.4-23.8l-10.5-5.5l-10.4,20l-2.5,4.7l-10.5-5.5l12.8-24.7l-10.5-5.5L62.3,53l-10.5-5.5l12.8-24.7
					l-10.5-5.5L41.2,42l-10.5-5.5l12.9-24.7L33,6.3l-7.1,13.7l-5.7,11L9.6,25.6l7.4-14.3l5.4-10.5L12-4.6L-0.9,20.1l-10.5-5.5
					L1.4-10.1l-10.5-5.5L-22,9.2l-10.5-5.5l2.3-4.4l10.6-20.3l-10.5-5.5L-43-1.8l-10.5-5.5l1.6-3.1L-40.7-32l-10.5-5.5l-3.9,7.6
					l-8.9,17.2l-10.5-5.5L-61.8-43l-10.5-5.5l-12.9,24.8l-10.5-5.5l12.9-24.8l-10.5-5.5l-7.9,15.2l-5,9.6l-10.5-5.5L-99.7-72
					l0.4-0.7l-1.4-2.5l-2.7-4.8l-14.8-26.1l10.3-5.8l10.3-5.8l10.3-5.8l10.3-5.8l10.3-5.8l10.3-5.8l10.3-5.8l10.3-5.8l10.3-5.8
					l10.3-5.8l10.3-5.8l10.3-5.8l10.3-5.8l10.3-5.8l10.3-5.8l10.3-5.8l10.3-5.8l10.3-5.8l10.3-5.8l10.3-5.8l10.3-5.8l10.6-6
					l-5.1-9.1L-189.4-77.9l-9.7,5.5l11,5.7L80.7,73.1l-231.4,130.4l-8.7,4.9l9.8,5.1l5.1,2.6l9.9,5.1l8.4,4.4l11.7,6.1L86.3,336
					l-200,112.7l-56.9,32.1l-9.2,5.2l10.4,5.4l32,16.6l10.5,5.5l22.7,11.8c61.1,31.8,122.1,63.6,183.2,95.4l-223.6,126.5l-10.3,5.8
					l-4.6,2.6l-6.4,3.6l-16.7,9.5l-9.2,5.2l10.4,5.4l4,2.1l13.7,7.1l266.1,138.3l4.1-7.9l-43.1-22.4l-10-5.2l-10-5.2l-10-5.2
					l-10-5.2l-10-5.2l-10-5.2l-10-5.2l15-28.9l-10-5.1l-15,28.9l-10-5.2l15-28.8l-10-5.1l-15,28.8l-10-5.2l11.6-22.4l3.3-6.4
					l-10-5.1l-9.7,18.7l-5.2,10l-10-5.2l3.7-7.2l11.2-21.5l-10-5.1l-10,19.1l-4.9,9.4l-10-5.2l10.2-19.6l4.6-8.9l-11.5-5.9
					l-14.8,28.5l-0.4-0.2l-11.8-6.1c4.8-9.1,9.5-18.3,14.3-27.4c1.4-2.7,2.8-5.3,4.2-8c0,0,0,0,0,0c-6-10.7-12.1-21.3-18.1-32
					l10.4-5.9l14.2,25.1l2.3,4.1l10.4-5.9l-2.3-4l-14.2-25.2l10.4-5.9l16.5,29.2l10.4-5.9l-16.5-29.2l10.4-5.9l14.3,25.4l2.2,3.8
					l10.4-5.9l-2.1-3.8l-14.4-25.4l10.4-5.9l16.5,29.2l10.4-5.9l-2.1-3.7L-26.8,692l10.4-5.9L-2,711.7l2,3.6l10.4-5.9l-2-3.5
					l-14.5-25.6l10.4-5.9L18.9,700l2,3.5l10.4-5.9l-16.5-29.2l10.4-5.9l16.5,29.2l10.4-5.9l-16.5-29.2l10.4-5.9L62.4,680l10.4-5.9
					l-1.8-3.2l-14.7-26l10.4-5.9l14.7,26.1l1.8,3.1l10.4-5.9l-0.5-0.9l-16-28.3l9.5-5.4C91.6,636.4,96.7,645.1,101.8,653.7"/>
			</g>
			<g id="g640" transform="translate(316.1436,341.6074)">
				<path id="path642" class="st2" d="M105.4,162.9l11.4-6.5l-0.2-0.3l44.6-25.2l5.5-3.1l-5.5-2.9l-42.6-22.5l-1.8-0.9l0-0.1
					l-9.4-4.9l0,0L-78.2-1.3l205.7-116.8l15.7-8.9l13-7.4l10.3-5.9L-99.2-279l0,0l-8.4-4.4l254-143.7l-4.6-8.1l-39,22l-14.8-26.1
					l-10.3,5.8l14.8,26.1l-10.3,5.8l-14.8-26.1l-10.3,5.8l14.8,26.1l-10.3,5.8l-14.8-26.1l-10.3,5.8l14.8,26.1l-10.3,5.8l-14.8-26.1
					l-10.3,5.8l14.8,26.1l-10.3,5.8L5.4-392.5l-10.3,5.8l14.8,26.1l-10.3,5.8l-14.8-26.1l-10.3,5.8l14.8,26.1l-10.3,5.8l-14.8-26.1
					l-10.3,5.8l14.8,26.1l-10.3,5.8l-14.8-26.1l-10.3,5.8l14.8,26.1l-10.3,5.8l-14.8-26.1l-10.3,5.8l14.8,26.1l-10.3,5.8l-14.8-26.1
					l-10.3,5.8l14.8,26.1l-10.3,5.8l-14.8-26.1l-10.3,5.8l14.8,26.1l2.7,4.8l1.4,2.5l-0.4,0.7l-17.1,31.9l10.5,5.5l5-9.6l7.9-15.2
					l10.5,5.5l-12.9,24.8l10.5,5.5l12.9-24.8l10.5,5.5l-12.9,24.8l10.5,5.5l8.9-17.2l3.9-7.6l10.5,5.5l-11.3,21.7l-1.6,3.1l10.5,5.5
					l12.9-24.8l10.5,5.5l-10.6,20.3l-2.3,4.4l10.5,5.5l12.9-24.7l10.5,5.5L-22-195.7l10.5,5.5L1.4-215l10.5,5.5L6.5-199L-1-184.7
					l10.5,5.5l5.7-11l7.1-13.7l10.5,5.5l-12.9,24.7l10.5,5.5L43.5-193l10.5,5.5l-12.8,24.7l10.5,5.5l12.8-24.7l10.5,5.5l-12.8,24.7
					l10.5,5.5l2.5-4.7l10.4-20l10.5,5.5l-12.4,23.8l-0.8,1.5l17.2,28.3l-9.2,5.2l-13.7-24.2l-9.2,5.2l7.1,12.5l6.6,11.6l-9.2,5.2
					l-3.2-5.6l-10.5-18.6l-9.2,5.2l13.7,24.2L54-86l-13.7-24.2l-9.2,5.2l13.7,24.2l-9.2,5.2L21.9-99.7l-9.2,5.2l10.1,17.8l3.6,6.4
					l-9.2,5.2L9.5-78.5L3.4-89.3l-9.2,5.2L7.9-59.9l-9.2,5.2l-8.5-15l-5.2-9.2l-9.2,5.2l4.6,8.2l9.1,16l-9.2,5.2l-12.5-22l-1.2-2.2
					l-9.2,5.2L-29.1-39l-9.2,5.2L-52-57.9l-9.2,5.2l13.7,24.2l-9.2,5.2l-13.7-24.2l-9.2,5.2l5.7,10l8,14.2l-9.2,5.2L-89-37l-8.2,4.7
					L-81-3.7l1.5,2.7l-0.1,0.2l-14.8,28.5l8.2,4.3l0.2,0.1L-75,10.8l9.2,4.8L-76.9,37l9.4,4.9l11.1-21.4l9.4,4.9l-11.1,21.4l9.4,4.9
					l11.1-21.4l9.4,4.9l-11.1,21.4l9.4,4.9L-18.7,40l9.4,4.9l-11.1,21.4l9.4,4.9L0.1,49.8l9.4,4.9L-1.6,76.1L7.8,81L19,59.6l9.4,4.9
					L17.2,85.9l9.4,4.9l11.1-21.4l9.4,4.9L36.1,95.7l9.4,4.9l11.1-21.4l9.4,4.9l-11.1,21.4l9.4,4.9L75.5,89l9.4,4.9l-11.1,21.4
					l9.4,4.9l11.1-21.4l7,3.6l2.4,1.3l-7.8,15.9l-2.2,4.5l-0.6,1.2l-3.7,7.5l-0.5,0.9l7,12.4l5,8.8l-5,2.8l-6,3.4l-14.1-24.9
					l-12.2,6.9L77.7,168l-10.8,6.1l-14.1-24.9l-9.8,5.5l14.1,24.8l-9.8,5.5l-14.1-24.8l-9.8,5.5l14.1,24.8l-9.8,5.5l-14.1-24.8
					L3.8,177l14.1,24.8l-9.8,5.5L-6,182.6l-9.8,5.5l14,24.8l-9.8,5.5h0l-14-24.8l-9.8,5.5l14,24.8l-9.8,5.5l-14-24.8l-9.8,5.5
					l14,24.8l-9.8,5.5l-14-24.8l-9.8,5.5l14,24.8l-9.8,5.5l-14-24.8l-9.8,5.6l14,24.8l-9.8,5.5l-14-24.8l-9.8,5.5l14,24.8l3.6,6.4
					l0.1,0.1l-0.4,0.7l0.5,0.8l196.8-111.3l4.4-2.5L105.4,162.9z"/>
			</g>
			<g id="g644" transform="translate(309.3633,568.9424)">
				<path id="path646" class="st2" d="M103.1-367.5l0.1-0.1l-0.1-0.1l10.3-19.8L124-382l0.1,0l-8.1,15.6l7,12.3l11.7-22.4l10.5,5.5
					l0.1,0l-7.3,14l-0.2,0.1l-12.7,7.2l-8.9,5l0,0l-0.1,0.1L103.1-367.5z"/>
			</g>
			<g id="g648" transform="translate(313.5996,366.3213)">
				<path id="path650" class="st2" d="M104.5,105.3l5.4-10.5l5.7-10.9l9.5,5l0.9,0.5l-9.1,17.6l5.7,10l12-23.1l11.5,6l-4.6,8.8
					l-26.8,15.2l-0.1-0.2l-4.2-7.4l-6.1-10.7L104.5,105.3z"/>
			</g>
			<g id="g652" transform="translate(167.7197,41.3096)">
				<path id="path654" class="st0" d="M55.9,863.6l4.2-8.1l0-0.1c-3.2,1.8-6.4,3.6-9.6,5.4C52.4,861.8,54.1,862.7,55.9,863.6"/>
			</g>
			<g id="g656" transform="translate(574.8691,476.999)">
				<path id="path658" class="st2" d="M191.6-153l-3.3-1.9l-5.8-3.3l-13.7,23.9l12.2,22.4l7.5-4l-8.8-17.1l6.9-11.7L191.6-153z"/>
			</g>
			<g id="g672" transform="translate(231.0596,721.8213)">
				<path id="path674" class="st0" d="M77-724.2l-18.7-33.1L48-751.5l18.7,33.1L77-724.2z"/>
			</g>
			<g id="g676" transform="translate(215.5605,713.0518)">
				<path id="path678" class="st0" d="M71.9-703.8l-18.7-33.1L42.8-731l18.7,33.1L71.9-703.8z"/>
			</g>
			<g id="g680" transform="translate(200.0615,704.2827)">
				<path id="path682" class="st0" d="M66.7-683.3L48-716.4l-10.3,5.8l18.7,33.1L66.7-683.3z"/>
			</g>
			<g id="g684" transform="translate(184.5625,695.5132)">
				<path id="path686" class="st0" d="M61.5-662.9l-18.7-33.1l-10.3,5.8L51.2-657L61.5-662.9z"/>
			</g>
			<g id="g688" transform="translate(169.0635,686.7437)">
				<path id="path690" class="st0" d="M56.4-642.4l-18.7-33.1l-10.3,5.8L46-636.6L56.4-642.4z"/>
			</g>
			<g id="g692" transform="translate(570.6211,676.2349)">
				<path id="path694" class="st2" d="M190.2-617.9l21.2-37l-11.6-6.6l-21.2,37L190.2-617.9z"/>
			</g>
			<g id="g696" transform="translate(553.2744,686.189)">
				<path id="path698" class="st2" d="M184.4-641.1l21.2-37l-11.6-6.6l-21.2,37L184.4-641.1z"/>
			</g>
			<g id="g700" transform="translate(535.9277,696.1436)">
				<path id="path702" class="st2" d="M178.6-664.3l21.2-37l-11.6-6.6l-21.2,37L178.6-664.3z"/>
			</g>
			<g id="g704" transform="translate(518.5811,706.0977)">
				<path id="path706" class="st2" d="M172.9-687.6l21.2-37l-11.6-6.6l-21.2,37L172.9-687.6z"/>
			</g>
			<g id="g708" transform="translate(501.2344,716.0522)">
				<path id="path710" class="st2" d="M167.1-710.8l21.2-37l-11.6-6.6l-21.2,37L167.1-710.8z"/>
			</g>
			<g id="g712" transform="translate(556.1553,691.2095)">
				<path id="path714" class="st2" d="M185.4-652.8l-11.6-6.6l-11.6-6.6l-11.6-6.6l-11.6-6.6l-11.6-6.6l-11.6-6.6l-11.6-6.6
					l-11.6-6.6l-11.6-6.6l-11.6-6.6l-11.6-6.6l-11.6-6.6L35-739.1l-11.6-6.6l-11.6-6.6L0.4-759l-11.6-6.6l-11.6-6.6L-46-785.6
					l-4.6,8.1l254.3,145.9l4.6-8.1l-11.4-6.5L185.4-652.8z"/>
			</g>
			<g id="g728" transform="translate(408.6914,552.4336)">
				<path id="path730" class="st0" d="M136.2-329l-16.5-31l-9.9,5.3l8.4,15.8l17.2,9.9L136.2-329z"/>
			</g>
			<g id="g732" transform="translate(406.3818,590.0879)">
				<path id="path734_1_" class="st0" d="M128.7-412.5l7.1-3.8"/>
			</g>
			<g id="g736" transform="translate(132.6836,696.7988)">
				<path id="path738" class="st2" d="M44.2-665.9l-9.8,5.6l12,21.2l0.2,0.3L40-626.2l-0.1-0.1l-5,9.7l10.6,5.5l14.2-27.3
					L44.2-665.9z"/>
			</g>
			<g id="g740" transform="translate(132.6836,696.7988)">
				<path id="path742" class="st2" d="M44.2-665.9l-9.8,5.6l12,21.2l0.2,0.3l-0.3,0.6l-6.2,12l-0.1-0.1l-5,9.7l10.6,5.5l14.2-27.3
					L44.2-665.9z"/>
			</g>
			<g id="g744" transform="translate(340.8789,571.5498)">
				<path id="path746" class="st0" d="M113.6-373.6l-10.5-5.5l-11.7,22.4l-7-12.3l8.1-15.6l-0.1,0l-10.5-5.5l-10.3,19.8l0.1,0.1
					l-0.1,0.1l12.9,22.9l0.1-0.1l0,0l8.9-5l12.7-7.2l0.2-0.1L113.6-373.6L113.6-373.6z"/>
			</g>
			<g id="g748" transform="translate(143.3315,454.9219)">
				<path id="path750" class="st2" d="M47.8-101.5l6.5-12.5l-0.4-0.6l-8.1-14.2l-10.3,5.8L47.8-101.5z"/>
			</g>
			<g id="g752" transform="translate(167.5391,464.9775)">
				<path id="path754" class="st2" d="M55.8-124.9l-14.3-25.3l-9.6,5.5l11.6,20.5l-6.4,12.3L34-106l9.4,4.9L55.4-124L55.8-124.9z"/>
			</g>
			<g id="g756" transform="translate(325,352)">
				<path id="path758" class="st2" d="M108.3,138.7l2.4-4.5l-3.7,2.1L108.3,138.7z"/>
			</g>
			<g id="g760" transform="translate(132.6836,696.7988)">
				<path id="path762" class="st2" d="M44.2-665.9l-9.8,5.6l12,21.2l0.2,0.3l-0.3,0.6l-6.2,12l-0.1-0.1l-5,9.7l10.6,5.5l14.2-27.3
					L44.2-665.9z"/>
			</g>
			<g id="g764" transform="translate(153.4551,455.0918)">
				<path id="path766" class="st2" d="M51.2-101.9l-3,5.8l9.4,4.9l9.1-17.5l3.3-6.4l-14.3-25.3l-9.5,5.4l11.6,20.6l-6.6,12.6
					L51.2-101.9z"/>
			</g>
			<g id="g768" transform="translate(309,354.2324)">
				<path id="path770" class="st0" d="M103,133.5v11.6l5-2.8L103,133.5z"/>
			</g>
			<g id="g772" transform="translate(321.2183,352.6504)">
				<path id="path774" class="st0" d="M107.1,137.1l0.1,0.2l26.8-15.2l4.6-8.8l-11.5-6l-12,23.1l-5.7-10l9.1-17.6l-0.9-0.5l-9.5-5
					l-5.7,10.9l-5.4,10.5l-0.1,0.1l6.1,10.7L107.1,137.1z"/>
			</g>
			<g id="g776" transform="translate(314.8853,386.0508)">
				<path id="path778" class="st0" d="M105,59.2l-2.4-1.3h-5.4v17.1L105,59.2z"/>
			</g>
			<g id="g780" transform="translate(135.0771,256.7471)">
				<path id="path782" class="st2" d="M45,360.9l-8.6-15L25.7,352l12.6,22L45,360.9z"/>
			</g>
			<g id="g784" transform="translate(302.3003,155.9473)">
				<path id="path786" class="st2" d="M100.8,596.1L100.8,596.1L100.8,596.1L100.8,596.1z"/>
			</g>
			<g id="g788" transform="translate(327.167,145.627)">
				<path id="path790" class="st0" d="M109.1,620.2l-5.7-10l8.3-16l-10.4-5.4l-10.4,20l2.5,4.8l8.2,13.6l3.2-1.9l3.7-2.1l19.6-11.4
					l3.7-7.2l-11.6-6L109.1,620.2z"/>
			</g>
			<g id="g792" transform="translate(153.0293,252.7354)">
				<path id="path794" class="st2" d="M51,370.3l3.2-6.2l-14.7-26l-9.8,5.5l11.7,20.7l-10.6,20.5l-0.3,0.6l10,5.2l7.8-15L51,370.3z"
					/>
			</g>
			<g id="g796" transform="translate(525.1455,477.9614)">
				<path id="path798" class="st2" d="M175-155.2l10.3,5.9l0.2-0.3l-10.4-5.9L175-155.2z"/>
			</g>
			<g id="g800" transform="translate(509.6387,486.8594)">
				<path id="path802" class="st2" d="M169.9-176l10.3,5.9l0.1-0.2l-10.4-5.9L169.9-176z"/>
			</g>
			<g id="g804" transform="translate(494.1328,495.7573)">
				<path id="path806" class="st2" d="M164.7-196.8l10.3,5.9l0.1-0.1L164.7-196.8L164.7-196.8z"/>
			</g>
			<g id="g808" transform="translate(486.3799,500.2061)">
				<path id="path810" class="st2" d="M162.1-207.1L162.1-207.1l-5.2-3L162.1-207.1z"/>
			</g>
			<g id="g812" transform="translate(533.0244,473.7324)">
				<path id="path814" class="st0" d="M177.7-145.4L177.7-145.4l-0.2,0.3l10.3,5.9l0.2-0.3L177.7-145.4z"/>
			</g>
			<g id="g816" transform="translate(517.3926,482.4102)">
				<path id="path818" class="st0" d="M172.5-165.6l10.3,5.9l0.1-0.2l-10.4-5.9L172.5-165.6z"/>
			</g>
			<g id="g820" transform="translate(501.9346,491.3931)">
				<path id="path822" class="st0" d="M167.3-186.6l-0.1,0.1l10.3,5.9l0.1-0.2L167.3-186.6z"/>
			</g>
			<g id="g824" transform="translate(486.3896,500.2231)">
				<path id="path826" class="st0" d="M162.1-207.2L162.1-207.2l10.3,6l0-0.1L162.1-207.2z"/>
			</g>
			<g id="g828" transform="translate(574.8691,476.999)">
				<path id="path830" class="st2" d="M191.6-153l-3.3-1.9l-5.8-3.3l-13.7,23.9l12.2,22.4l7.5-4l-8.8-17.1l6.9-11.7L191.6-153z"/>
			</g>
			<g id="g832" transform="translate(586,682)">
				<path id="path834" class="st2" d="M195.3-631.3l-5.9,10.7l13,24.4l0,0l10.5-5.6l-9.5-17.9l0-0.1l12.4-21.6l-11.6-6.6l-1.3,2.3
					L195.3-631.3z"/>
			</g>
			<g id="g836" transform="translate(607.8437,681.6401)">
				<path id="path838" class="st2" d="M202.6-630.5L202.6-630.5l-7,12.2L202.6-630.5z"/>
			</g>
			<g id="g840" transform="translate(609.6377,684.7661)">
				<path id="path842" class="st2" d="M203.2-637.8l-2.4,4.2l-7,12.2l0,0l6,11.3l0.5-0.3l3.5-5.2l10.5-15.8L203.2-637.8z"/>
			</g>
			<g id="g844" transform="translate(583.3223,472.2163)">
				<path id="path846" class="st2" d="M194.4-141.8l-2,3.4l-7,12.2l5.1,9.5l3.8-2l1.2-1.8l3.6-5.4l6.4-9.6L194.4-141.8z"/>
			</g>
			<g id="g852" transform="translate(407.3965,552.9028)">
				<path id="path854" class="st2" d="M135.8-330.1l-16.2-9.3l-8.4-15.8l8.8-4.7L135.8-330.1z M81.5-350.6
					c80.8,46,161.5,92.1,242.3,138.1c5.3-9.2,10.6-18.3,15.9-27.5c-2.8-1.6-5.6-3.1-8.3-4.7l-2-1.1l-11.5,20.1l-10.3-5.9l6.3-10.9
					l5.2-9.1l-3.9-2.2l-6.5-3.7l-5.5,9.6l-5.9,10.3l-7-4l-3.4-1.9l11.4-19.9l-10.4-5.9l-11.4,19.8l-10.3-5.9l11.3-19.8L267-281
					l-11.3,19.7l-10.3-5.9l8-14l3.2-5.6l-10.4-5.9l-3.1,5.4l-8.1,14.1l-10.3-5.9l11.2-19.5l-10.4-5.9l-4.7,8.2l-6.5,11.2L204-291
					l11.1-19.4l-10.4-5.9l-11.1,19.3l-10.3-5.9l11.1-19.3L184-328l-6.2,10.7l-4.9,8.5l-10.3-5.9l4.1-7.2l6.9-11.9l-10.1-5.7
					l-10.9,19.1l-11.2-6.4l4.4-7.7L134.4-356l-4.8-9l4-2.1l4.9-2.6l12.9,24.3l0.9-0.5l8.4-4.5l-12.9-24.3l10.5-5.6l0.7,1.3l12.2,23
					l10.5-5.6l-12.6-23.7l-0.3-0.6l10.5-5.6l11.6,21.8l1.3,2.5l10.5-5.6L190.2-396l-0.5-1l10.5-5.6l7.4,13.8l5.6,10.5l10.5-5.6
					l-13-24.4l10.5-5.6l13,24.4l10.5-5.6l-12.7-23.9l-0.3-0.6l10.5-5.6l0.2,0.4l12.8,24.1l10.5-5.6l-12.6-23.6l-0.5-0.9l10.5-5.6
					l0.3,0.5l12.8,24l10.5-5.6l-13.1-24.5l10.5-5.6l13.1,24.6l10.5-5.6l-13.1-24.6l10.5-5.6l11.7,22l1.4,2.6l10.5-5.6L315.4-464
					l10.5-5.6L339-445l10.5-5.6l-2.2-4.2l-10.9-20.5l10.5-5.6l13.2,24.7l10.5-5.6c-6-11.3-11.9-22.6-17.9-34
					C262.2-447.2,171.8-398.9,81.5-350.6"/>
			</g>
			<g id="g856" transform="translate(558.3076,461.9697)">
				<path id="path858" class="st2" d="M186.1-117.9l11.5,21.1l7.5-4l-8.8-17.1l1.2-2.1l5.6-9.5l1.4-2.4l3.5-5.9l-3.3-1.9l-5.8-3.3
					l-5.4,9.5l-8.3,14.4L186.1-117.9z"/>
			</g>
			<g id="g860" transform="translate(575.8203,264.3994)">
				<path id="path862" class="st2" d="M191.9,343.1l-5.8,10.4l12.7,23.8l0,0l10.2-5.4l-9.3-17.4l0-0.1l12-21l-11.3-6.4l-1.3,2.2
					L191.9,343.1z"/>
			</g>
			<g id="g864" transform="translate(598.8242,267.0918)">
				<path id="path866" class="st2" d="M199.6,336.8l-2.3,4.1l-6.8,11.8l0,0l5.8,11l0.5-0.3l3.4-5.1l10.2-15.3L199.6,336.8z"/>
			</g>
			<g id="g868" transform="translate(413.4316,150.0254)">
				<path id="path870" class="st0" d="M137.8,609.9l-5.9-11.1l5.1,9.6L137.8,609.9z"/>
			</g>
			<g id="g872" transform="translate(410.7529,171.3311)">
				<path id="path874" class="st0" d="M136.9,560.2L136.9,560.2l10.2-5.4L136.9,560.2z"/>
			</g>
			<g id="g876" transform="translate(406.3633,163.293)">
				<path id="path878" class="st0" d="M135.5,579l-3.2-5.9l6.7,12.5L135.5,579z"/>
			</g>
			<g id="g880" transform="translate(433.9912,183)">
				<path id="path882" class="st0" d="M144.7,533L144.7,533l10.9,20.4L144.7,533z"/>
			</g>
			<g id="g884" transform="translate(414.9072,132.9336)">
				<path id="path886" class="st0" d="M138.3,649.8l9.7-17l-10.7,18.6L138.3,649.8z"/>
			</g>
			<g id="g888" transform="translate(563.7061,39.4434)">
				<path id="path890" class="st0" d="M187.9,868l-5.2,2.8l0,0.1L187.9,868L187.9,868z"/>
			</g>
			<g id="g892" transform="translate(453.627,183)">
				<path id="path894" class="st0" d="M151.2,533L151.2,533l1,1.9L151.2,533z"/>
			</g>
			<g id="g896" transform="translate(427.8252,157.7119)">
				<path id="path898" class="st0" d="M142.6,592l-11.9-22.3l-0.7-1.2l0.7,1.2L142.6,592z"/>
			</g>
			<g id="g900" transform="translate(473.7744,182.04)">
				<path id="path902" class="st0" d="M157.9,535.2l2.4-1.3L157.9,535.2l-0.7-1.3h0L157.9,535.2z"/>
			</g>
			<g id="g904" transform="translate(463.4453,183)">
				<path id="path906" class="st0" d="M154.5,533L154.5,533l3.6,6.7l-10.2,5.4l10.2-5.4L154.5,533z"/>
			</g>
			<g id="g908" transform="translate(443.8086,183)">
				<path id="path910" class="st0" d="M147.9,533L147.9,533l9.3,17.5l-10.2,5.4l10.2-5.4L147.9,533z"/>
			</g>
			<g id="g912" transform="translate(397.4805,164.2607)">
				<path id="path914" class="st0" d="M132.5,576.7l3.9-2.1l4.8-2.6l-3.8,2l-1,0.5L132.5,576.7l4.5,8.5l0.1,0.3l11.1,20.8
					l-11.1-20.8L132.5,576.7z"/>
			</g>
			<g id="g916" transform="translate(414.125,150.3945)">
				<path id="path918" class="st0" d="M138,609.1L138,609.1L138,609.1L138,609.1z"/>
			</g>
			<g id="g920" transform="translate(409.3076,142.0586)">
				<path id="path922" class="st0" d="M136.4,628.5l-3.4,5.9l-0.9,1.6l6.2,3.6c-2.1-1.2-4.2-2.4-6.2-3.6L136.4,628.5z"/>
			</g>
			<g id="g924" transform="translate(432.6582,183)">
				<path id="path926" class="st0" d="M144.2,533L144.2,533l-8.8,4.7l0.3,0.6l-0.3-0.6L144.2,533z"/>
			</g>
			<g id="g928" transform="translate(497.6934,210.8633)">
				<path id="path930" class="st0" d="M165.9,468l-3.5-6.5l-0.3-0.5l-0.1,0L165.9,468L165.9,468z"/>
			</g>
			<g id="g932" transform="translate(502.5273,220.2187)">
				<path id="path934" class="st0" d="M167.5,446.2l9.6-5.1l-0.3-0.6l-9.9,5.3l2.7,5.1l0.3-0.3L167.5,446.2z"/>
			</g>
			<g id="g936" transform="translate(431.1777,163)">
				<path id="path938" class="st0" d="M143.7,579.7h4.9l-1.1-2L143.7,579.7z"/>
			</g>
			<g id="g940" transform="translate(525.1699,213.0693)">
				<path id="path942" class="st0" d="M175.1,462.8l-10.9-20.5l-8.1,7.4l9.7,18.1L175.1,462.8z"/>
			</g>
			<g id="g944" transform="translate(494.5996,216.5557)">
				<path id="path946" class="st0" d="M164.9,454.7l-9.9,5.3l0.3,0.6l9.9-5.3L164.9,454.7z"/>
			</g>
			<g id="g948" transform="translate(443.1416,165.8213)">
				<path id="path950" class="st0" d="M147.7,573.1l10.2-5.4l-2-3.7l-10.2,5.4l0.7,1.2L147.7,573.1z"/>
			</g>
			<g id="g952" transform="translate(464.6729,180.6963)">
				<path id="path954" class="st0" d="M154.9,538.4l-0.1-0.2l-10.2,5.4l1.5,2.8L154.9,538.4z"/>
			</g>
			<g id="g956" transform="translate(495.2031,197.1064)">
				<path id="path958" class="st0" d="M165.1,500.1l-5.5-10.3l-8.4,7.7l4.2,7.8L165.1,500.1z"/>
			</g>
			<g id="g960" transform="translate(479.7305,207.7207)">
				<path id="path962" class="st0" d="M159.9,475.3l6.3,11.9l0.4-0.4l-1.4-2.6l-5.4-10.1l-9.9,5.3l0.3,0.6l9.5-5.1L159.9,475.3z"/>
			</g>
			<g id="g964" transform="translate(510.2588,205.127)">
				<path id="path966" class="st0" d="M170.1,481.4l-8.2-15.4l-8.5,7.8l6.9,12.9L170.1,481.4z"/>
			</g>
			<g id="g968" transform="translate(472.9834,185.2695)">
				<path id="path970" class="st0" d="M157.7,527.7l9.2-4.9l-2.7-5.1l-8.8,8l1.3,2.5L157.7,527.7z"/>
			</g>
			<g id="g972" transform="translate(465.0576,181.0479)">
				<path id="path974" class="st0" d="M155,537.6l-0.6,0.3l0.1,0.2L155,537.6z"/>
			</g>
			<g id="g976" transform="translate(502.8037,201.1553)">
				<path id="path978" class="st0" d="M167.6,490.6L167.6,490.6l-6.8-12.9l-0.1,0L167.6,490.6z"/>
			</g>
			<g id="g988" transform="translate(580.9893,238.8047)">
				<path id="path990" class="st2" d="M193.7,402.8l10.2-5.4l0.1,0c-3.1-5.8-6.3-11.6-9.4-17.4c2.3-4,4.6-8,6.8-11.9l5.2-9l-2.9-1.6
					l-8.4-4.8l-0.1,0l-1.2,2.3l-7.3,13.9L181,379L193.7,402.8L193.7,402.8z"/>
			</g>
			<g id="g992" transform="translate(596.3701,246.9482)">
				<path id="path994" class="st2" d="M198.8,383.8l0.5-0.3l3.4-5.1l10.2-15.3l-10.9-6.2l-2.3,4.1l-6.8,11.8l0,0L198.8,383.8z"/>
			</g>
			<g id="g996" transform="translate(588.3701,32.9482)">
				<path id="path998" class="st2" d="M196.1,883.1l0.5-0.3l3.4-5.1l10.2-15.3l-10.9-6.2l-2.3,4.1l-6.8,11.8l0,0L196.1,883.1z"/>
			</g>
			<g id="g1000" transform="translate(141.8726,475.4644)">
				<path id="path1002" class="st2" d="M47.3-149.4L37-143.6L49.2-122l6.5-12.6L47.3-149.4L47.3-149.4z"/>
			</g>
			<g id="g1004" transform="translate(156.8232,483.9175)">
				<path id="path1006" class="st2" d="M52.3-169.1l-9.5,5.4l11.6,20.6l-6.6,12.6l-0.1-0.1l-3,5.8l9.4,4.9l9.1-17.5l3.3-6.4
					L52.3-169.1z"/>
			</g>
			<g id="g1008" transform="translate(108.6221,682.8828)">
				<path id="path1010" class="st2" d="M36.2-633.4l-1.9,1.1l12.5,22.2l6.2-12l-8.9-15.8L36.2-633.4z"/>
			</g>
			<g id="g1012" transform="translate(132.6836,696.7988)">
				<path id="path1014" class="st2" d="M44.2-665.9l-9.8,5.6l12,21.2l0.2,0.3l-0.3,0.6l-6.2,12l-0.1-0.1l-5,9.7l10.6,5.5l14.2-27.3
					L44.2-665.9z"/>
			</g>
			<g id="g1016" transform="translate(313.5439,154.2139)">
				<path id="path1018" class="st2" d="M104.5,600.2l10-19.3l10.4,5.4l-8,15.3l5.7,10l10.9-20.9l11.6,6l-3.4,6.5l-26.6,15.3
					l-8.2-13.5L104.5,600.2z M-85.6,742.5l253.3-144C80.8,552.8-6,507-92.9,461.3c-0.3,0.5-0.5,1-0.8,1.5c-4.5,8.7-9,17.4-13.5,26
					c-0.8,1.6-1.7,3.2-2.5,4.8c-0.1,0.2-0.2,0.4-0.3,0.6l10,5.2l12.7-24.4l10,5.2l-12.4,23.9l-0.3,0.5l10,5.2l10.6-20.3l1.8-3.4
					l10,5.2l-11.6,22.4l-0.5,0.9l-0.2,0.5l10,5.2l8.1-15.6l4.2-8.1l10,5.2l-12.3,23.7l10,5.2l0.2-0.4l12.1-23.3l10,5.2l-12.3,23.7
					l10,5.2L-9,519.7l1.3-2.5l10,5.2l-3.1,5.9l-9.1,17.5l-0.2,0.3l10,5.2l10.2-19.7l2.1-4.1l10,5.2L9.9,556.6l10,5.2l0.1-0.2
					L32.2,538l10,5.2L29.9,567l10,5.2L50.3,552l1.9-3.6l10,5.2l-1.6,3.1l-10.6,20.4l-0.1,0.2l10,5.2l7.2-13.9l5.1-9.8l10,5.2
					l-12.3,23.7l10,5.2l0.1-0.1l0.1-0.1l12.2-23.5l9.8,5.1c-4.1,7.4-8.1,14.9-12.2,22.3c-0.2,0.4-0.4,0.8-0.6,1.2
					c0,0.1-0.1,0.2-0.1,0.3l3.9,6.4c3.2,5.3,6.3,10.5,9.5,15.8c0.9,1.4,1.8,2.8,2.7,4.2c0,0-0.1,0-0.1,0.1c-3.6,2-7.2,4-10.8,6
					c-0.1,0.1-0.3,0.2-0.4,0.2c-5.1-8.6-10.2-17.3-15.3-25.9l-9.5,5.4l16,28.3l0.5,0.9l-10.4,5.9l-1.8-3.1l-14.7-26.1L48.2,622
					L63,648l1.8,3.2l-10.4,5.9l-16.5-29.2l-10.4,5.9L44,662.9l-10.4,5.9l-16.5-29.2l-10.4,5.9l16.5,29.2l-10.4,5.9l-2-3.5
					l-14.5-25.7l-10.4,5.9l14.5,25.6l2,3.5l-10.4,5.9l-2-3.6l-14.5-25.6l-10.4,5.9l14.4,25.5l2.1,3.7l-10.4,5.9l-16.5-29.2
					l-10.4,5.9l14.4,25.4l2.1,3.8l-10.4,5.9l-2.2-3.8L-66,686.6l-10.4,5.9l16.5,29.2l-10.4,5.9l-16.5-29.2l-10.4,5.9l14.2,25.2
					l2.3,4l-10.4,5.9l-2.3-4.1l-14.2-25.1l-10.4,5.9c6,10.7,12.1,21.4,18.1,32.1c-1.4,2.7-2.8,5.3-4.2,8
					c-4.8,9.1-9.5,18.3-14.3,27.4l11.8,6.1l0.4,0.2l14.8-28.5l11.5,5.9l-4.6,8.9l-10.2,19.6l10,5.2l4.9-9.4l10-19.1l10,5.1
					L-70.9,799l-3.7,7.2l10,5.2l5.2-10l9.7-18.7l10,5.1l-3.3,6.4l-11.6,22.4l10,5.2l15-28.8l10,5.1l-15,28.8l10,5.2l15-28.9l10,5.1
					l72.7,37.4l5.3-9.3L-94,747.3C-91.2,745.7-88.4,744.1-85.6,742.5"/>
			</g>
			<g id="g1020" transform="translate(138.9189,62.9102)">
				<path id="path1022" class="st2" d="M46.3,813.2l-9.2,5.2l-1.1,0.6L48,840.5l-12.3,23.6l0.3,0.2l10.3,5.4l6.1-11.8l9.1-17.5
					L46.3,813.2z"/>
			</g>
			<g id="g1024" transform="translate(116.3013,50.79)">
				<path id="path1026" class="st0" d="M38.8,841.5l-0.7,1.3l1.1-0.6L38.8,841.5z"/>
			</g>
			<g id="g1028" transform="translate(406.6963,381.1807)">
				<path id="path1030" class="st0" d="M135.6,70.6l-1.2-2.2l-0.4,0.2L123.9,74l4.7,8.7l0.3,0.6l0,0l-8.6,15l10.8,6.2l4.8-8.3l0,0
					l7-12.2L135.6,70.6z"/>
			</g>
			<g id="g1032" transform="translate(379.5,367.8237)">
				<path id="path1034" class="st0" d="M126.5,101.7c3.9,2.2,7.7,4.4,11.6,6.6c3.9-6.8,7.8-13.6,11.7-20.4
					C142,92.6,134.3,97.2,126.5,101.7"/>
			</g>
			<g id="g1036" transform="translate(125.2739,660.1309)">
				<path id="path1038" class="st2" d="M41.8-580.3l5.3-9.6l0.1,0.1l6.5-11.8l0.3-0.6l-0.2-0.3L42.4-624l10-5.3l14.8,27.8
					l-14.9,26.9L41.8-580.3z"/>
			</g>
			<g id="g1040" transform="translate(143.3315,454.9219)">
				<path id="path1042" class="st2" d="M47.8-101.5l-12.2-21.6l10.3-5.8l0.1,0l8.4,14.9L47.8-101.5z"/>
			</g>
			<g id="g1044" transform="translate(158.2363,447.0811)">
				<path id="path1046" class="st2" d="M52.7-83.2l-9.4-4.9l3-5.8l0.1,0.1l6.6-12.6l-11.6-20.6l9.5-5.4l14.3,25.3l-3.3,6.4
					L52.7-83.2z"/>
			</g>
			<g id="g1048" transform="translate(150.4263,42.5732)">
				<path id="path1050" class="st2" d="M50.1,860.7L41,878.2L34.9,890l-10.3-5.4l-0.3-0.2l12.3-23.6l-12.1-21.4l10.4-5.9L50.1,860.7
					z"/>
			</g>
			<g id="g1052" transform="translate(485.2344,-2.3584)">
				<path id="path1054" class="st2" d="M161.7,965.5L161.7,965.5l9.9-5.3l5.4,10.1l5.5,10.4l9.9-5.3L187,965l-5.4-10.1l9.9-5.3
					l10.9,20.5l9.9-5.3l-10.9-20.5l9.9-5.3l10.9,20.5l9.9-5.3l-10.9-20.5l9.9-5.3l10.9,20.5l9.9-5.3l-10.9-20.5l9.9-5.3l10.9,20.5
					l9.9-5.3l-10.9-20.5l0-0.1l5.2-2.8l0.1,0l4.7-2.5l10.9,20.5l9.9-5.3L281,902c2.9-4.6,5.9-9.2,8.8-13.8c-3.6-2-7.2-4.1-10.8-6.1
					l-1.9,3.3c-2.3,3.9-4.5,7.9-6.8,11.8c-1.1,0.7-2.2,1.4-3.3,2.2c-3.2-1.8-6.4-3.7-9.6-5.5l0.3-0.6l5.5-9.3l1.4-2.4l3.4-5.8
					l-3.2-1.8l-5.7-3.2l-5.3,9.2l-5.1,8.9l-10.1-5.8c3.5-6,6.9-12,10.4-18c-2.7-1.5-5.4-3.1-8.1-4.6l-2-1.1l-10.3,18l-0.9,1.6
					l-10.1-5.8l0.9-1.6l5.2-9.1l5.1-8.8l-3.8-2.1l-6.3-3.6l-5.4,9.4l-4.9,8.5l-0.9,1.6l-6.8-3.9l-3.3-1.9l0.9-1.6l10.2-17.8
					l-10.1-5.7l-10.2,17.7l-0.9,1.6l-10.1-5.8l0.9-1.6l10.1-17.7l-10.1-5.7l-10.1,17.6l-0.9,1.6l-10.1-5.8l0.9-1.6l6.9-12.1l3.1-5.5
					l-10.1-5.7l-3,5.3l-7,12.2l-0.9,1.6l-10.1-5.8l0.9-1.6l10-17.4l-10.1-5.7l-4.6,8l-5.4,9.4l-0.9,1.6l-10.1-5.8l0.9-1.6l9.9-17.3
					l-10.1-5.7l-9.9,17.2l-0.9,1.6L97,803.9l0.9-1.6l9.8-17.2l-10.1-5.7l-6,10.4l-3.8,6.7l-0.9,1.6l-10.1-5.8l0.9-1.6l3.1-5.4
					l6.7-11.6l-7.3-4.1l-2.6-1.5l-9.7,17l-0.9,1.6l-4.6-2.7l-6.2-3.6l0.9-1.6l3.4-5.9l-11.1-20.8l-0.1-0.3l-4.5-8.5l3.9-2.1l1-0.5
					l3.8-2l3.2,5.9l8.6,16.2l0.8,1.5l0.9-0.5l0,0l0,0l8.1-4.3l-1.9-3.5l-10.7-20.1l10.2-5.4l0.7,1.2l11.9,22.3l10.2-5.4l-0.9-1.6
					l-11.4-21.4l-0.3-0.6l8.8-4.7l1.4-0.7l0.4,0.7l10.2,19.2l0.7,1.2l1.3,2.5l10.2-5.4l-9.3-17.5l-2.8-5.2l-0.5-1l10.2-5.4l6.2,11.6
					l1,1.9l5.5,10.2l10.2-5.4l-3.6-6.7l-9.1-17l10.2-5.4l12,22.5l0.7,1.3l2.4-1.3l7.8-4.1L144.3,691l-0.3-0.5l10.2-5.4l0.2,0.4
					l12.5,23.4l10.2-5.4l-2.1-3.9l-10.2-19.1l-0.5-0.9l0.2-0.1l10-5.3l0.3,0.5l12.4,23.4l10.2-5.4l-10.4-19.4l-2.4-4.4l10.2-5.4
					l1,1.8l11.8,22.1l10.2-5.4l-12.7-23.9l10.2-5.4l10.6,20l0.8,1.4l1.4,2.6l10.2-5.4l-12.8-24l10.2-5.4l12.8,24l10.2-5.4l-2.2-4.1
					l-10.6-20l10.2-5.4l12.8,24.1l10.2-5.4c-5.6-10.7-11.3-21.3-16.9-32c-0.1-0.1-0.2-0.3-0.2-0.4l1.1-1.9l16.1-28
					c-3.4-1.9-6.9-3.9-10.3-5.8L254.7,606l-11.7-6.7l0.3-0.6l0.5-0.8l0,0l13.4-23.3l-10.6-6L233.1,592c-0.1,0-0.1-0.1-0.2-0.1
					l-0.2,0.3l-11.7-6.7l0,0l13.6-23.7l-11.3-6.4L210,578.5l-9.7-5.6l-1.5-0.9L212,549l-11.3-6.4l-13.2,23l-11.3-6.5l13.2-22.9
					l-11.3-6.4L165,552.7l-11.3-6.5l13.1-22.8l-11.3-6.4l-13,22.7l-11.3-6.5l13-22.6l-11.3-6.4l-13,22.6l-11.3-6.5l12.9-22.5
					l-11.3-6.4l-12.9,22.4l-11.3-6.5l12.8-22.4l-11.3-6.4L75,501l-11.3-6.5c1.9-3.3,3.8-6.6,5.7-9.9c0,0,0,0,0,0l1.9-3.3l0.2-0.1
					l6.5-10.5c-2.3-4.3-4.6-8.7-6.9-13l-0.1-0.2l-1.3-2.5l-3.2-6l-0.7-1.4l-0.3-0.6l0.5-0.3l8.3-4.4l1.2-0.6l0.2-0.1l0.4,0.7
					l0.7,1.2L87,462.8l1.3,2.5l10.2-5.4l-9.3-17.5l-2.8-5.2l-0.5-1l1.2-0.6l8.3-4.4l0.7-0.4l1,1.9l5.1,9.7l1,1.9l5.5,10.2l9.8-5.2
					l-11.6-21.8l0.4-0.2l-1-1.9l10.1-5.4l0.1-0.1l12,22.5l0.7,1.3l2.4-1.3l7.8-4.1L127,415l-0.3-0.5l0.1-0.1l9-4.8l1.1-0.6l0.2,0.4
					l0.8,1.5l11.7,21.9l9.4-5l0.8-0.4l-3.2-6.1l-8.4-15l0.3-0.2l-0.9-1.7l-0.5-0.9l8.6-4.6l1.6-0.8l0.3,0.5L170,422l10.2-5.4
					l-11.7-22l-1-1.8l1.8-0.9l7.9-4.2l0.5-0.3l1,1.8l11.8,22.1l10-5.3l-11.8-22.1l0.3-0.1l-1-1.8l10.2-5.4l1,1.8l0,0l11.8,22.1
					L221,395l-11.8-22.2l-1-1.8l0.3-0.2l9.4-5l0.4-0.2l1,1.8l11.8,22.2l10-5.3L229.4,362l0.2-0.1l-0.9-1.8l10.2-5.4l0.9,1.8l0.1-0.1
					l11.9,22.3c1.1-0.6,9.6-5.1,10.1-5.3c0.1,0,0.1-0.1,0.2-0.1c-4-7.5-7.9-14.9-11.9-22.4c-1.4-2.7-2.9-5.4-4.3-8.1
					c0-0.1,0.1-0.1,0.1-0.2c0,0,0-0.1,0.1-0.1l-0.1,0.1C165,385.8,84,428.9,2.8,471.7l255.5,146.5C195.9,651.6,133.4,685,71,718.4
					c-24.4,13-48.7,26.1-73.1,39.1c86.5,49,172.9,98.1,259.4,147.1c-72.9,38.8-145.7,77.6-218.6,116.5c-9.4,5-18.7,10-28.1,15
					l4.2,7.8l42.8-22.8l84.3-44.9l9.9-5.3l10.9,20.5l9.9-5.3L161.7,965.5z"/>
			</g>
			<g id="g1056" transform="translate(406.832,361.9292)">
				<path id="path1058" class="st0" d="M135.6,115.5l-4.8,8.3l-10.8-6.2l8.6-15l-0.3-0.6l0,0l-4.7-8.7l10.1-5.4l0.4-0.2l1.2,2.2
					l7.2,13.5L135.6,115.5L135.6,115.5z"/>
			</g>
			<g id="g1060" transform="translate(390.166,145.5547)">
				<path id="path1062" class="st2" d="M130.1,620.4l-1.6-3l-6.6-12.4l8.5-4.5l13.8,26l1.6,3L130.1,620.4z"/>
			</g>
			<g id="g1064" transform="translate(390.4229,160.501)">
				<path id="path1066" class="st0" d="M130.1,585.5l-8.5,4.5l6.6,12.4l1.6,3l15.8,9.1l-1.6-3L130.1,585.5z"/>
			</g>
			<g id="g1068" transform="translate(642.6992,675.0269)">
				<path id="path1070" class="st0" d="M214.2-615.1l-9.6-5.4L-98.1-791.8l-5.1,9.1l6.9,3.9l-13,22.7l11.6,6.6l13.1-22.8l11.6,6.6
					l-13.1,22.8l11.6,6.6l13.2-22.9l11.6,6.6l-13.2,23l11.6,6.6l13.2-23.1l11.6,6.6l-13.3,23.1l11.6,6.6l13.3-23.2l11.6,6.6
					L-16.8-703l11.6,6.6l13.4-23.3l11.6,6.6L6.3-689.7l11.6,6.6l13.5-23.5L43-700l-13.5,23.6l11.6,6.6l13.6-23.6l11.6,6.6
					l-13.6,23.7l11.6,6.6l13.6-23.8l11.6,6.6l-13.7,23.8l11.6,6.6l13.7-23.9l11.6,6.6l-13.8,24l11.6,6.6l13.8-24l11.1,6.3L118.7-619
					l-1.2,2.1l2.7,5l15,28.2l-10.5,5.6l-13.2-24.7l-10.5,5.6l10.9,20.5l2.2,4.2l-10.5,5.6l-13.1-24.7l-10.5,5.6l13.1,24.6L82.8-556
					l-1.4-2.6l-11.7-22L59.2-575l13.1,24.6l-10.5,5.6l-13.1-24.6l-10.5,5.6l13.1,24.5l-10.5,5.6l-12.8-24l-0.3-0.5l-10.5,5.6
					l0.5,0.9l12.6,23.6l-10.5,5.6L7-546.7l-0.2-0.4l-10.5,5.6l0.3,0.6l12.7,23.9l-10.5,5.6l-13-24.4l-10.5,5.6l13,24.4l-10.5,5.6
					l-5.6-10.5l-7.4-13.8l-10.5,5.6l0.5,1l12.4,23.3l-10.5,5.6l-1.3-2.5l-11.6-21.8l-10.5,5.6l0.3,0.6l12.6,23.7l-10.5,5.6l-12.2-23
					l-0.7-1.3l-10.5,5.6l12.9,24.3l-8.3,4.4l-8-15.1l-4.9-9.2l-5.8,3.1l-4,2.1l4.8,9l11.4,21.4l-4.4,7.7l11.2,6.4l10.9-19.1
					l10.1,5.7l-6.9,11.9l-4.1,7.2l10.3,5.9l4.9-8.5l6.2-10.7l10.4,5.9L-52-425l10.3,5.9l11.1-19.3l10.4,5.9l-11.1,19.4l10.3,5.9
					l6.5-11.2l4.7-8.2l10.4,5.9l-11.2,19.5l10.3,5.9l8.1-14.1l3.1-5.4l10.4,5.9l-3.2,5.6l-8,14l10.3,5.9l11.3-19.7l10.4,5.9
					l-11.3,19.8l10.3,5.9l11.4-19.8l10.4,5.9l-11.4,19.9l10.3,5.9l11.5-20l10.4,5.9l-5.2,9.1l-6.3,10.9l10.3,5.9l11.5-20.1l2,1.1
					c2.8,1.6,5.6,3.1,8.3,4.7c-5.2,9.1-10.5,18.1-15.7,27.2c0,0,0,0.1-0.1,0.1c0,0.1-0.1,0.1-0.1,0.2c1.4,2.7,2.9,5.4,4.3,8.1
					c4,7.5,7.9,14.9,11.9,22.4c-0.1,0-0.1,0.1-0.2,0.1c-0.5,0.3-9,4.8-10.1,5.3c0,0-0.1,0-0.1,0.1l-11.9-22.3l-0.9-1.8l-10.2,5.4
					l0.9,1.8l9.7,18.2l2.2,4.1l-0.2,0.1l-10,5.3L61.9-310l-1-1.8l-0.4,0.2l-9.4,5l-0.3,0.2l1,1.8l11.8,22.2L53.4-277l0,0l-1.4-2.6
					l-10.4-19.6l-1-1.8l-10.2,5.4l1,1.8l11.8,22.1l-0.3,0.1l-10,5.3l-11.8-22.1l-1-1.8l-0.5,0.3l-7.9,4.2l-1.8,0.9l1,1.8l11.7,22
					l-10.2,5.4L0.1-278.7l-0.3-0.5l-1.6,0.8l-8.6,4.6l0.5,0.9l0.9,1.7l8.1,15.2l3.2,6.1l-0.8,0.4l-9.4,5l-11.7-21.9l-0.8-1.5
					l-0.2-0.4l-1.1,0.6l-9,4.8l-0.1,0.1l0.3,0.5l12.4,23.2l-7.8,4.1l-2.4,1.3L-29-235l-12-22.5l-0.1,0.1l-10.1,5.4l1,1.9l8,15.1
					l3.6,6.7l-0.4,0.2l-9.8,5.2l-5.5-10.2l-1-1.9l-5.1-9.7l-1-1.9l-0.7,0.4l-8.3,4.4l-1.2,0.6l0.5,1l2.8,5.2l9.3,17.5l-10.2,5.4
					l-1.3-2.5l-10.2-19.2l-0.7-1.2l-0.4-0.7l-0.2,0.1l-1.2,0.6l-8.3,4.4l-0.5,0.3l0.3,0.6l0.7,1.4l3.2,6l1.4,2.6
					c2.3,4.3,4.6,8.7,6.9,13l-6.5,10.5c-0.7,1.2-1.4,2.3-2.2,3.5v0c-1.9,3.3-3.8,6.6-5.7,9.9l11.3,6.5l12.8-22.3l11.3,6.4
					l-12.8,22.4l11.3,6.5l12.9-22.4l11.3,6.4L-48.7-157l11.3,6.5l13-22.6l11.3,6.4l-13,22.6l11.3,6.5l13-22.7L9.4-154l-13.1,22.8
					l11.3,6.5l13.1-22.9l11.3,6.4l-13.2,22.9l11.3,6.5l13.2-23l11.3,6.4l-13.2,23.1l11.3,6.5L65.8-122l11.3,6.4L63.5-91.9l0,0
					l11.7,6.7l0.2-0.3L88.9-109l0.2,0.1l10.6,6L86.3-79.5l0,0l-0.5,0.8l-0.3,0.6l11.7,6.7l14.2-24.8c3.4,1.9,6.9,3.9,10.3,5.8
					c-5.7,10-11.4,19.9-17.2,29.9c0.1,0.1,0.2,0.3,0.2,0.4c5.6,10.7,11.3,21.3,16.9,32l-10.2,5.4L98.7-46.7l-10.2,5.4l10.6,20
					l2.2,4.1l-10.2,5.4l-2.2-4l-10.6-20l-10.2,5.4l12.8,24L70.7-1l-1.4-2.6L68.6-5l-10.6-20l-10.2,5.4L60.5,4.4L50.3,9.8
					c-4.2-8-8.5-15.9-12.7-23.9c-3.4,1.8-6.8,3.6-10.2,5.4l2.4,4.4l10.4,19.4l-10.2,5.4C25.7,12.7,21.5,4.9,17.3-3
					c-3.5,1.7-6.9,3.5-10.4,5.2l0.5,0.9l4.7,8.8l5.5,10.3l2.1,3.9L9.4,31.4L3.3,19.9L-3.1,8l-0.2-0.4l-9.5,5.1l-0.7,0.4l0.3,0.5
					L-5.5,28l2.7,5.1l2,3.8L-8.6,41l-2.4,1.3l-0.7-1.3l-1.3-2.5l-1.3-2.5l-9.3-17.5c-3.4,1.8-6.8,3.6-10.2,5.4
					c4.2,7.9,8.4,15.8,12.6,23.7l-10.2,5.4l-0.5-1l-1.5-2.8l-3.5-6.5l-1-1.9L-44,29.4l-10.2,5.4l0.5,1L-51,41l7.3,13.8l2,3.7
					l-10.2,5.4l-1.3-2.5l-0.7-1.2L-64,41l-0.4-0.7l-1.4,0.7l-8.8,4.7l0.3,0.6L-64,65.6l1.1,2l0.9,1.6l-10.2,5.4l-11.9-22.3l-0.7-1.2
					L-95,56.5l10.7,20.1l1.9,3.5l-8.1,4.3h0l0,0l0,0l-0.9,0.5l-0.8-1.5l-5.1-9.6l-6.7-12.5l-4.8,2.6l-3.9,2.1l4.7,8.8L-97,95.6
					l-4.3,7.5c2.1,1.2,4.2,2.4,6.2,3.6l4.6,2.7l10.7-18.6l2.6,1.5l7.3,4.1l-6.7,11.6l-3.1,5.4l-0.9,1.6l10.1,5.8l0.9-1.6l3.8-6.7
					l6-10.4l10.1,5.7l-9.8,17.2l-0.9,1.6l10.1,5.8l0.9-1.6l9.9-17.2l10.1,5.7l-9.9,17.3l-0.9,1.6l10.1,5.8l0.9-1.6l5.4-9.4l4.6-8
					l10.1,5.7l-10,17.4l-0.9,1.6l10.1,5.8l0.9-1.6l7-12.2l3-5.3l10.1,5.7l-3.1,5.5l-6.9,12.1l-0.9,1.6l10.1,5.8l0.9-1.6L21,147.7
					l10.1,5.7L21,171.1l-0.9,1.6l10.1,5.8l0.9-1.6l10.2-17.7l10.1,5.7l-10.2,17.8l-0.9,1.6l3.3,1.9l6.8,3.9l0.9-1.6l4.9-8.5l5.4-9.4
					l6.3,3.6l3.8,2.1l-5.1,8.8l-5.2,9.1l-0.9,1.6l10.1,5.8l0.9-1.6l10.3-18l2,1.1c2.7,1.5,5.4,3.1,8.1,4.6c-3.5,6-6.9,12-10.4,18
					l10.1,5.8l5.1-8.9l5.3-9.2l5.7,3.2l3.2,1.8l-3.4,5.8l-1.4,2.4l-5.5,9.3l-0.3,0.6c3.2,1.8,6.4,3.7,9.6,5.5
					c1.1-0.7,2.2-1.4,3.3-2.2c2.3-3.9,4.5-7.9,6.8-11.8l1.9-3.3c3.6,2,7.2,4.1,10.8,6.1c-2.9,4.6-5.9,9.2-8.8,13.8l10.9,20.5
					l-9.9,5.3l-10.9-20.5l-4.7,2.5l-5.3,2.8l10.9,20.5l-9.9,5.3l-10.9-20.5l-9.9,5.3l10.9,20.5l-9.9,5.3l-10.9-20.5l-9.9,5.3
					l10.9,20.5l-9.9,5.3L54,261.6l-9.9,5.3L55,287.5l-9.9,5.3l-10.9-20.5l-9.9,5.3l5.4,10.1l5.5,10.4l-9.9,5.3L19.6,293l-5.4-10.1
					l-9.9,5.3l10.9,20.5l-9.9,5.3l-55.7,29.7h18.8L174,234.1l10.3-5.5l-9.1-5.2l-245.7-139C-43.2,69.9-16,55.5,11.3,41
					C70.2,9.7,129.1-21.6,188-52.9l10.6-5.6l-9.4-5.3c-83.5-47.3-167.1-94.5-250.6-141.8C18-247.8,97.4-289.9,176.7-332.1
					c-80-45.2-160.1-90.4-240.1-135.5c88.9-47.2,177.8-94.4,266.7-141.6L214.2-615.1z"/>
			</g>
			<g id="g1072" transform="translate(591.9863,255.1768)">
				<path id="path1074" class="st2" d="M197.3,364.6l6.8-11.8l2.3-4.1l10.9,6.2l-10.2,15.3l-3.4,5.1l-0.5,0.3L197.3,364.6
					L197.3,364.6z"/>
			</g>
			<g id="g1076" transform="translate(583.9863,41.1768)">
				<path id="path1078" class="st2" d="M194.7,863.9l6.8-11.8l2.3-4.1l10.9,6.2l-10.2,15.3l-3.4,5.1l-0.5,0.3L194.7,863.9
					L194.7,863.9z"/>
			</g>
			<g id="g1080" transform="translate(581.2598,274.7959)">
				<path id="path1082" class="st2" d="M193.8,318.8l1.2-2.3l0.1,0l8.4,4.8l2.9,1.6l-5.2,9c-2.3,4-4.6,8-6.8,11.9
					c3.1,5.8,6.3,11.6,9.4,17.4l-0.1,0l-10.2,5.4v0L180.7,343l5.8-10.4L193.8,318.8z"/>
			</g>
			<g id="g1084" transform="translate(599.2461,659.9019)">
				<path id="path1086" class="st2" d="M199.7-579.8L199.7-579.8l-10.6,5.6l0,0l-13-24.4l5.9-10.7l7.5-14.2l1.2-2.4l0.1,0.1l8.7,4.9
					l3,1.7c-1.8,3.1-3.6,6.2-5.3,9.3l-7,12.3C193.3-591.7,196.5-585.7,199.7-579.8"/>
			</g>
			<g id="g1088" transform="translate(610.1348,668.2012)">
				<path id="path1090" class="st2" d="M203.4-599.1l-3.5,5.2l-0.5,0.3l-6-11.3l0,0l7-12.2l2.4-4.2l11.2,6.3L203.4-599.1z"/>
			</g>
			<g id="g1092" transform="translate(568.0361,480.8652)">
				<path id="path1094" class="st2" d="M189.3-162l5.8,3.3l3.3,1.9l-3.5,5.9l-1.4,2.4l-5.6,9.5l-1.2,2.1l8.8,17.1l-7.5,4l-11.5-21.1
					l-0.7-1.3l8.3-14.4L189.3-162z"/>
			</g>
			<g id="g1096" transform="translate(126.979,40.1768)">
				<path id="path1098" class="st2" d="M42.3,866.3l-6.8-11.8l-2.3-4.1l-10.9,6.2l10.2,15.3l3.4,5.1l0.5,0.3L42.3,866.3L42.3,866.3z
					"/>
			</g>
			<g id="g1100" transform="translate(576.1719,461.3354)">
				<path id="path1102" class="st2" d="M192.1-116.4l8.4-14.9l0.1,0l10.3,5.8l-12.2,21.6L192.1-116.4z"/>
			</g>
		</g>
	</g>
</g>
<g>
	<g id="g1108" transform="translate(220.7612,465.5112)">
		<path id="path1110" class="st10" d="M73.6-126.2L264.9-25.7l190.3-100.5L264.9-234.6L73.6-126.2z"/>
	</g>
	<g id="g1112" transform="translate(220.7612,465.5112)">
		<path id="path1114" class="st11" d="M73.6-126.2L264.9-25.7l190.3-100.5L264.9-234.6L73.6-126.2z"/>
	</g>
	<g id="g1116" transform="translate(235.6699,465.7554)">
		<path id="path1118" class="st0" d="M78.6-126.8l171,89.9l170.1-89.9l-170.1-96.9L78.6-126.8z M249.6-26.2L58.7-126.5l190.8-108.2
			l189.8,108.2L249.6-26.2z"/>
	</g>
	<g id="g1120" transform="translate(235.6699,465.7554)">
		<path id="path1122" class="st12" d="M78.6-126.8l171,89.9l170.1-89.9l-170.1-96.9L78.6-126.8z M249.6-26.2L58.7-126.5l190.8-108.2
			l189.8,108.2L249.6-26.2z"/>
	</g>
	<g id="g1124" transform="translate(200.0386,464.9966)">
		<path id="path1126" d="M66.7-125L285.4-10.1L502.8-125L285.4-248.9L66.7-125z M285.4,3.6l-244-128.2l244-138.3L528-124.6
			L285.4,3.6z"/>
	</g>
	<g id="g1128" transform="translate(200.0386,464.9966)">
		<path id="path1130" class="st13" d="M66.7-125L285.4-10.1L502.8-125L285.4-248.9L66.7-125z M285.4,3.6l-244-128.2l244-138.3
			L528-124.6L285.4,3.6z"/>
	</g>
	<g id="g1132" transform="translate(221.0371,465.4438)">
		<path id="path1134" class="st0" d="M73.7-126L264.3-25.9L453.8-126L264.3-234L73.7-126z M264.3-13.9L51.6-125.7l212.7-120.5
			l211.5,120.5L264.3-13.9z"/>
	</g>
	<g id="g1136" transform="translate(221.0371,465.4438)">
		<path id="path1138" class="st12" d="M73.7-126L264.3-25.9L453.8-126L264.3-234L73.7-126z M264.3-13.9L51.6-125.7l212.7-120.5
			l211.5,120.5L264.3-13.9z"/>
	</g>
</g>
<g>
	<g id="g1380" transform="translate(220.7612,258.5107)">
		<path id="path1382" class="st10" d="M73.6,356.8l191.3,100.5l190.3-100.5L264.9,248.4L73.6,356.8z"/>
	</g>
	<g id="g1384" transform="translate(220.7612,258.5107)">
		<path id="path1386" class="st11" d="M73.6,356.8l191.3,100.5l190.3-100.5L264.9,248.4L73.6,356.8z"/>
	</g>
	<g id="g1388" transform="translate(190.1558,257.8242)">
		<path id="path1390" d="M63.4,358.4l232.1,122l230.8-122L295.5,226.9L63.4,358.4z M295.5,494.9l-259-136.1l259-146.8L553,358.8
			L295.5,494.9z"/>
	</g>
	<g id="g1392" transform="translate(190.1558,257.8242)">
		<path id="path1394" class="st13" d="M63.4,358.4l232.1,122l230.8-122L295.5,226.9L63.4,358.4z M295.5,494.9l-259-136.1l259-146.8
			L553,358.8L295.5,494.9z"/>
	</g>
	<g id="g1396" transform="translate(212.4414,258.2988)">
		<path id="path1398" class="st3" d="M70.8,357.3l202.3,106.3l201.2-106.3L273.1,242.7L70.8,357.3z M273.1,476.3L47.4,357.7
			l225.7-127.9l224.5,127.9L273.1,476.3z"/>
	</g>
	<g id="g1400" transform="translate(227.9712,258.6289)">
		<path id="path1402" class="st3" d="M76,356.5l181.5,95.4L438,356.5L257.5,253.7L76,356.5z M257.5,463.3L55,356.9l202.5-114.8
			l201.4,114.8L257.5,463.3z"/>
	</g>
	<g id="g1404" transform="translate(227.9712,258.6289)">
		<path id="path1406" class="st14" d="M76,356.5l181.5,95.4L438,356.5L257.5,253.7L76,356.5z M257.5,463.3L55,356.9l202.5-114.8
			l201.4,114.8L257.5,463.3z"/>
	</g>
</g>
<g>
	<path id="path1106" class="st10" d="M394.3,0l-100,56.7l191.3,100.5L675.9,56.7L576.5,0H394.3z"/>
	<path id="path1554" class="st10" d="M396.7,0L294.3,58l191.3,100.5L675.9,58L574.2,0H396.7z"/>
	<path id="path1570" d="M613.1,0l103.4,58.9l-230.8,122l-232.1-122L357.5,0h-26.2L226.7,59.3l259,136.1L743.2,59.3L639.1,0H613.1z"
		/>
	<path id="path1586" class="st3" d="M584.4,0l102.3,58.3L485.5,164.6L283.3,58.3L386.1,0h-22.8L259.8,58.6l225.7,118.6L710,58.6
		L607.1,0H584.4z"/>
	<path id="path1590" class="st3" d="M564.5,0L666,57.8l-180.5,95.4L304,57.8L406,0h-20.5L282.9,58.1l202.5,106.4L686.9,58.1L584.9,0
		H564.5z"/>
</g>
<g>
	<g id="g1744" transform="translate(217.7613,44.5104)">
		<path id="path1746" class="st10" d="M72.6,856.1l112.9,59.3h156.3l112.3-59.3L263.9,747.7L72.6,856.1z"/>
	</g>
	<g id="g1760" transform="translate(191.8665,44.0289)">
		<path id="path1762" class="st0" d="M64,857.3L175.7,916h24.1L87.4,856.9l202.3-114.6l201.2,114.6L379,916h24l111.1-58.7
			L289.7,729.3L64,857.3z"/>
	</g>
	<g id="g1776" transform="translate(209.2014,44.388)">
		<path id="path1778" class="st0" d="M69.7,856.4l112.6,59.2H204L90.8,856.1l181.5-102.9l180.5,102.9l-112.6,59.5h21.5l112-59.2
			L272.3,741.6L69.7,856.4z"/>
	</g>
	<g id="g1792" transform="translate(166.9914,43.5159)">
		<path id="path1794" d="M55.7,858.5l110.4,58h27.7L82.6,858.1l232.1-131.5l230.8,131.5l-110.6,58.4h27.6l109.8-58L314.6,711.7
			L55.7,858.5z"/>
	</g>
</g>
<g>
	<g id="g1140" transform="translate(379.7979,524.5928)">
		<path id="path1142" class="st2" d="M126.6-264l-21.5,11.5L83.6-264l21.5-11.5L126.6-264z"/>
	</g>
	<g id="g1144" transform="translate(320.6772,490.8584)">
		<path id="path1146" class="st5" d="M106.9-185.3l-21.5,11.5l-21.5-11.5l21.5-11.5L106.9-185.3z"/>
	</g>
	<g id="g1148" transform="translate(303.6362,479.2378)">
		<path id="path1150" d="M101.2-158.2l-21.5,11.5l-21.5-11.5l21.5-11.5L101.2-158.2z"/>
	</g>
	<g id="g1152" transform="translate(379.7979,434.2427)">
		<path id="path1154" d="M126.6-53.2l-21.5,11.5L83.6-53.2l21.5-11.5L126.6-53.2z"/>
	</g>
	<g id="g1156" transform="translate(360.8174,490.8584)">
		<path id="path1158" d="M120.3-185.3l-21.5,11.5l-21.5-11.5l21.5-11.5L120.3-185.3z"/>
	</g>
	<g id="g1160" transform="translate(341.6357,501.9375)">
		<path id="path1162" class="st2" d="M113.9-211.2l-21.5,11.5l-21.5-11.5l21.5-11.5L113.9-211.2z"/>
	</g>
	<g id="g1164" transform="translate(379.7979,502.0054)">
		<path id="path1166" d="M126.6-211.3l-21.5,11.5l-21.5-11.5l21.5-11.5L126.6-211.3z"/>
	</g>
	<g id="g1168" transform="translate(379.7979,479.4175)">
		<path id="path1170" class="st2" d="M126.6-158.6l-21.5,11.5l-21.5-11.5l21.5-11.5L126.6-158.6z"/>
	</g>
	<g id="g1172" transform="translate(379.7979,411.6553)">
		<path id="path1174" class="st2" d="M126.6-0.5L105.1,11L83.6-0.5L105.1-12L126.6-0.5z"/>
	</g>
	<g id="g1176" transform="translate(417.2861,501.9375)">
		<path id="path1178" class="st2" d="M139.1-211.2l-21.5,11.5l-21.5-11.5l21.5-11.5L139.1-211.2z"/>
	</g>
	<g id="g1180" transform="translate(360.959,468.5757)">
		<path id="path1182" class="st5" d="M120.3-133.3l-21.5,11.5l-21.5-11.5l21.5-11.5L120.3-133.3z"/>
	</g>
	<g id="g1184" transform="translate(341.4824,479.3428)">
		<path id="path1186" d="M113.8-158.5l-21.5,11.5l-21.5-11.5L92.3-170L113.8-158.5z"/>
	</g>
	<g id="g1188" transform="translate(379.7979,456.8301)">
		<path id="path1190" class="st2" d="M126.6-105.9l-21.5,11.5l-21.5-11.5l21.5-11.5L126.6-105.9z"/>
	</g>
	<g id="g1192" transform="translate(398.8164,490.9634)">
		<path id="path1194" d="M132.9-185.6l-21.5,11.5l-21.5-11.5l21.5-11.5L132.9-185.6z"/>
	</g>
	<g id="g1196" transform="translate(417.2861,480.2368)">
		<path id="path1198" d="M139.1-160.6L117.6-149l-21.5-11.5l21.5-11.5L139.1-160.6z"/>
	</g>
	<g id="g1200" transform="translate(436.1592,490.8584)">
		<path id="path1202" class="st5" d="M145.4-185.3l-21.5,11.5l-21.5-11.5l21.5-11.5L145.4-185.3z"/>
	</g>
	<g id="g1204" transform="translate(398.5537,468.5757)">
		<path id="path1206" class="st5" d="M132.9-133.3l-21.5,11.5l-21.5-11.5l21.5-11.5L132.9-133.3z"/>
	</g>
	<g id="g1208" transform="translate(321.4365,467.6816)">
		<path id="path1210" class="st2" d="M107.1-131.3l-21.5,11.5l-21.5-11.5l21.5-11.5L107.1-131.3z"/>
	</g>
	<g id="g1212" transform="translate(283.8423,467.6816)">
		<path id="path1214" class="st5" d="M94.6-131.3l-21.5,11.5l-21.5-11.5l21.5-11.5L94.6-131.3z"/>
	</g>
	<g id="g1216" transform="translate(301.1938,456.9551)">
		<path id="path1218" d="M100.4-106.2L78.9-94.7l-21.5-11.5l21.5-11.5L100.4-106.2z"/>
	</g>
	<g id="g1220" transform="translate(341.6797,456.9551)">
		<path id="path1222" d="M113.9-106.2L92.4-94.7l-21.5-11.5l21.5-11.5L113.9-106.2z"/>
	</g>
	<g id="g1224" transform="translate(321.4365,447.1226)">
		<path id="path1226" class="st5" d="M107.1-83.3L85.6-71.8L64.1-83.3l21.5-11.5L107.1-83.3z"/>
	</g>
	<g id="g1228" transform="translate(341.6797,434.6079)">
		<path id="path1230" class="st2" d="M113.9-54.1L92.4-42.6L70.9-54.1l21.5-11.5L113.9-54.1z"/>
	</g>
	<g id="g1232" transform="translate(360.959,445.3345)">
		<path id="path1234" d="M120.3-79.1L98.8-67.6L77.3-79.1l21.5-11.5L120.3-79.1z"/>
	</g>
	<g id="g1236" transform="translate(360.959,422.9873)">
		<path id="path1238" class="st5" d="M120.3-27L98.8-15.5L77.3-27l21.5-11.5L120.3-27z"/>
	</g>
	<g id="g1240" transform="translate(360.959,513.2695)">
		<path id="path1242" class="st5" d="M120.3-237.6l-21.5,11.5l-21.5-11.5l21.5-11.5L120.3-237.6z"/>
	</g>
	<g id="g1244" transform="translate(398.5537,513.2695)">
		<path id="path1246" class="st5" d="M132.9-237.6l-21.5,11.5l-21.5-11.5l21.5-11.5L132.9-237.6z"/>
	</g>
	<g id="g1248" transform="translate(456.3906,480.1963)">
		<path id="path1250" d="M152.1-160.5l-21.5,11.5l-21.5-11.5l21.5-11.5L152.1-160.5z"/>
	</g>
	<g id="g1252" transform="translate(398.5537,445.3345)">
		<path id="path1254" d="M132.9-79.1l-21.5,11.5L89.8-79.1l21.5-11.5L132.9-79.1z"/>
	</g>
	<g id="g1256" transform="translate(416.8682,456.9551)">
		<path id="path1258" d="M139-106.2l-21.5,11.5l-21.5-11.5l21.5-11.5L139-106.2z"/>
	</g>
	<g id="g1260" transform="translate(436.1475,468.5757)">
		<path id="path1262" class="st2" d="M145.4-133.3l-21.5,11.5l-21.5-11.5l21.5-11.5L145.4-133.3z"/>
	</g>
	<g id="g1264" transform="translate(398.5537,422.0937)">
		<path id="path1266" class="st5" d="M132.9-24.9l-21.5,11.5L89.8-24.9l21.5-11.5L132.9-24.9z"/>
	</g>
	<g id="g1268" transform="translate(416.8682,434.6079)">
		<path id="path1270" class="st2" d="M139-54.1l-21.5,11.5L95.9-54.1l21.5-11.5L139-54.1z"/>
	</g>
	<g id="g1272" transform="translate(436.1475,445.3345)">
		<path id="path1274" class="st5" d="M145.4-79.1l-21.5,11.5l-21.5-11.5l21.5-11.5L145.4-79.1z"/>
	</g>
	<g id="g1276" transform="translate(456.3906,456.9551)">
		<path id="path1278" d="M152.1-106.2l-21.5,11.5l-21.5-11.5l21.5-11.5L152.1-106.2z"/>
	</g>
	<g id="g1280" transform="translate(476.6338,468.5757)">
		<path id="path1282" class="st5" d="M158.9-133.3l-21.5,11.5l-21.5-11.5l21.5-11.5L158.9-133.3z"/>
	</g>
</g>
<g>
	<g id="g1408" transform="translate(380.9346,321.0732)">
		<path id="path1410" class="st2" d="M127,210.8l-22.8,12.2l-22.8-12.2l22.8-12.2L127,210.8z"/>
	</g>
	<g id="g1412" transform="translate(318.1895,285.2715)">
		<path id="path1414" class="st0" d="M106.1,294.4l-22.8,12.2l-22.8-12.2l22.8-12.2L106.1,294.4z"/>
	</g>
	<g id="g1416" transform="translate(300.1045,272.9385)">
		<path id="path1418" d="M100,323.1l-22.8,12.2l-22.8-12.2l22.8-12.2L100,323.1z"/>
	</g>
	<g id="g1420" transform="translate(380.9346,225.1846)">
		<path id="path1422" class="st0" d="M127,434.6l-22.8,12.2l-22.8-12.2l22.8-12.2L127,434.6z"/>
	</g>
	<g id="g1424" transform="translate(360.7905,285.2715)">
		<path id="path1426" d="M120.3,294.4l-22.8,12.2l-22.8-12.2l22.8-12.2L120.3,294.4z"/>
	</g>
	<g id="g1428" transform="translate(340.4331,297.0293)">
		<path id="path1430" class="st2" d="M113.5,266.9l-22.8,12.2l-22.8-12.2l22.8-12.2L113.5,266.9z"/>
	</g>
	<g id="g1432" transform="translate(380.9346,297.1016)">
		<path id="path1434" class="st0" d="M127,266.8L104.1,279l-22.8-12.2l22.8-12.2L127,266.8z"/>
	</g>
	<g id="g1436" transform="translate(380.9346,273.1289)">
		<path id="path1438" class="st2" d="M127,322.7l-22.8,12.2l-22.8-12.2l22.8-12.2L127,322.7z"/>
	</g>
	<g id="g1440" transform="translate(380.9346,201.2129)">
		<path id="path1442" class="st2" d="M127,490.5l-22.8,12.2l-22.8-12.2l22.8-12.2L127,490.5z"/>
	</g>
	<g id="g1444" transform="translate(420.7207,297.0293)">
		<path id="path1446" class="st2" d="M140.2,266.9l-22.8,12.2l-22.8-12.2l22.8-12.2L140.2,266.9z"/>
	</g>
	<g id="g1448" transform="translate(360.9409,261.6221)">
		<path id="path1450" class="st0" d="M120.3,349.5l-22.8,12.2l-22.8-12.2l22.8-12.2L120.3,349.5z"/>
	</g>
	<g id="g1452" transform="translate(340.27,273.0498)">
		<path id="path1454" d="M113.4,322.9l-22.8,12.2l-22.8-12.2l22.8-12.2L113.4,322.9z"/>
	</g>
	<g id="g1456" transform="translate(380.9346,249.1572)">
		<path id="path1458" class="st2" d="M127,378.6l-22.8,12.2l-22.8-12.2l22.8-12.2L127,378.6z"/>
	</g>
	<g id="g1460" transform="translate(401.1191,285.3828)">
		<path id="path1462" d="M133.7,294.1l-22.8,12.2L88,294.1l22.8-12.2L133.7,294.1z"/>
	</g>
	<g id="g1464" transform="translate(420.7207,273.998)">
		<path id="path1466" d="M140.2,320.7l-22.8,12.2l-22.8-12.2l22.8-12.2L140.2,320.7z"/>
	</g>
	<g id="g1468" transform="translate(440.751,285.2715)">
		<path id="path1470" class="st0" d="M146.9,294.4l-22.8,12.2l-22.8-12.2l22.8-12.2L146.9,294.4z"/>
	</g>
	<g id="g1472" transform="translate(400.8398,261.6221)">
		<path id="path1474" class="st0" d="M133.6,349.5l-22.8,12.2l-22.8-12.2l22.8-12.2L133.6,349.5z"/>
	</g>
	<g id="g1476" transform="translate(318.9956,260.6738)">
		<path id="path1478" class="st2" d="M106.3,351.8L83.5,364l-22.8-12.2l22.8-12.2L106.3,351.8z"/>
	</g>
	<g id="g1480" transform="translate(279.0967,260.6738)">
		<path id="path1482" class="st0" d="M93,351.8L70.2,364l-22.8-12.2l22.8-12.2L93,351.8z"/>
	</g>
	<g id="g1484" transform="translate(297.5117,249.29)">
		<path id="path1486" d="M99.2,378.3l-22.8,12.2l-22.8-12.2l22.8-12.2L99.2,378.3z"/>
	</g>
	<g id="g1488" transform="translate(340.48,249.29)">
		<path id="path1490" d="M113.5,378.3l-22.8,12.2l-22.8-12.2l22.8-12.2L113.5,378.3z"/>
	</g>
	<g id="g1492" transform="translate(318.9956,238.8545)">
		<path id="path1494" class="st0" d="M106.3,402.7l-22.8,12.2l-22.8-12.2l22.8-12.2L106.3,402.7z"/>
	</g>
	<g id="g1496" transform="translate(340.48,225.5723)">
		<path id="path1498" class="st2" d="M113.5,433.7l-22.8,12.2l-22.8-12.2l22.8-12.2L113.5,433.7z"/>
	</g>
	<g id="g1500" transform="translate(360.9409,236.957)">
		<path id="path1502" d="M120.3,407.1l-22.8,12.2l-22.8-12.2l22.8-12.2L120.3,407.1z"/>
	</g>
	<g id="g1504" transform="translate(360.9409,213.2402)">
		<path id="path1506" d="M120.3,462.4l-22.8,12.2l-22.8-12.2l22.8-12.2L120.3,462.4z"/>
	</g>
	<g id="g1508" transform="translate(360.9409,309.0566)">
		<path id="path1510" d="M120.3,238.9l-22.8,12.2l-22.8-12.2l22.8-12.2L120.3,238.9z"/>
	</g>
	<g id="g1512" transform="translate(400.8398,309.0566)">
		<path id="path1514" d="M133.6,238.9l-22.8,12.2l-22.8-12.2l22.8-12.2L133.6,238.9z"/>
	</g>
	<g id="g1516" transform="translate(462.2227,273.9551)">
		<path id="path1518" d="M154.1,320.8L131.2,333l-22.8-12.2l22.8-12.2L154.1,320.8z"/>
	</g>
	<g id="g1520" transform="translate(400.8398,236.957)">
		<path id="path1522" d="M133.6,407.1l-22.8,12.2l-22.8-12.2l22.8-12.2L133.6,407.1z"/>
	</g>
	<g id="g1524" transform="translate(420.2783,249.29)">
		<path id="path1526" d="M140.1,378.3l-22.8,12.2l-22.8-12.2l22.8-12.2L140.1,378.3z"/>
	</g>
	<g id="g1528" transform="translate(440.7393,261.6221)">
		<path id="path1530" class="st2" d="M146.9,349.5l-22.8,12.2l-22.8-12.2l22.8-12.2L146.9,349.5z"/>
	</g>
	<g id="g1532" transform="translate(400.8398,212.291)">
		<path id="path1534" d="M133.6,464.7l-22.8,12.2l-22.8-12.2l22.8-12.2L133.6,464.7z"/>
	</g>
	<g id="g1536" transform="translate(420.2783,225.5723)">
		<path id="path1538" class="st2" d="M140.1,433.7l-22.8,12.2l-22.8-12.2l22.8-12.2L140.1,433.7z"/>
	</g>
	<g id="g1540" transform="translate(440.7393,236.957)">
		<path id="path1542" class="st0" d="M146.9,407.1l-22.8,12.2l-22.8-12.2l22.8-12.2L146.9,407.1z"/>
	</g>
	<g id="g1544" transform="translate(462.2227,249.29)">
		<path id="path1546" d="M154.1,378.3l-22.8,12.2l-22.8-12.2l22.8-12.2L154.1,378.3z"/>
	</g>
	<g id="g1548" transform="translate(483.707,261.6221)">
		<path id="path1550" class="st0" d="M161.2,349.5l-22.8,12.2l-22.8-12.2l22.8-12.2L161.2,349.5z"/>
	</g>
</g>
<g>
	<path id="path1606" class="st0" d="M424.3,22.3l-22.8,12.2l-22.8-12.2l22.8-12.2L424.3,22.3z"/>
	<path id="path1610" d="M400.1,38.7L377.3,51l-22.8-12.2l22.8-12.2L400.1,38.7z"/>
	<path id="path1614" class="st0" d="M507.9,102.4l-22.8,12.2l-22.8-12.2l22.8-12.2L507.9,102.4z"/>
	<path id="path1618" d="M481.1,22.3l-22.8,12.2l-22.8-12.2l22.8-12.2L481.1,22.3z"/>
	<path id="path1622" class="st2" d="M420.6,0l-12.4,6.6l22.8,12.2l22.8-12.2L441.5,0H420.6z"/>
	<path id="path1626" class="st0" d="M474.4,0l-12.2,6.5l22.8,12.2l22.8-12.2L495.7,0H474.4z"/>
	<path id="path1630" class="st2" d="M507.9,38.5l-22.8,12.2l-22.8-12.2l22.8-12.2L507.9,38.5z"/>
	<path id="path1634" class="st2" d="M507.9,134.4l-22.8,12.2l-22.8-12.2l22.8-12.2L507.9,134.4z"/>
	<path id="path1638" class="st2" d="M527.7,0l-12.4,6.6l22.8,12.2L561,6.6L548.6,0H527.7z"/>
	<path id="path1642" class="st0" d="M481.3,53.8l-22.8,12.2l-22.8-12.2l22.8-12.2L481.3,53.8z"/>
	<path id="path1646" d="M453.7,38.6l-22.8,12.2L408,38.6l22.8-12.2L453.7,38.6z"/>
	<path id="path1650" class="st2" d="M507.9,70.5l-22.8,12.2l-22.8-12.2l22.8-12.2L507.9,70.5z"/>
	<path id="path1654" d="M534.8,22.2L512,34.4l-22.8-12.2L512,9.9L534.8,22.2z"/>
	<path id="path1658" d="M561,37.3l-22.8,12.2l-22.8-12.2l22.8-12.2L561,37.3z"/>
	<path id="path1662" class="st0" d="M587.7,22.3l-22.8,12.2L542,22.3l22.8-12.2L587.7,22.3z"/>
	<path id="path1666" class="st0" d="M534.5,53.8l-22.8,12.2l-22.8-12.2l22.8-12.2L534.5,53.8z"/>
	<path id="path1670" class="st2" d="M425.3,55.1l-22.8,12.2l-22.8-12.2l22.8-12.2L425.3,55.1z"/>
	<path id="path1674" class="st0" d="M372.1,55.1l-22.8,12.2l-22.8-12.2l22.8-12.2L372.1,55.1z"/>
	<path id="path1678" d="M396.7,70.3l-22.8,12.2L351,70.3l22.8-12.2L396.7,70.3z"/>
	<path id="path1682" d="M454,70.3l-22.8,12.2l-22.8-12.2l22.8-12.2L454,70.3z"/>
	<path id="path1686" class="st0" d="M425.3,84.2l-22.8,12.2l-22.8-12.2L402.5,72L425.3,84.2z"/>
	<path id="path1690" class="st2" d="M454,101.9l-22.8,12.2l-22.8-12.2l22.8-12.2L454,101.9z"/>
	<path id="path1694" d="M481.3,86.7L458.4,99l-22.8-12.2l22.8-12.2L481.3,86.7z"/>
	<path id="path1698" d="M481.3,118.3l-22.8,12.2l-22.8-12.2l22.8-12.2L481.3,118.3z"/>
	<path id="path1702" d="M453.2,0l5.3,2.8l5.3-2.8H453.2z"/>
	<path id="path1706" d="M506.3,0l5.3,2.8l5.3-2.8H506.3z"/>
	<path id="path1710" d="M616.3,37.4l-22.8,12.2l-22.8-12.2l22.8-12.2L616.3,37.4z"/>
	<path id="path1714" d="M534.5,86.7L511.6,99l-22.8-12.2l22.8-12.2L534.5,86.7z"/>
	<path id="path1718" d="M560.4,70.3l-22.8,12.2l-22.8-12.2l22.8-12.2L560.4,70.3z"/>
	<path id="path1722" class="st2" d="M587.7,53.8l-22.8,12.2L542,53.8l22.8-12.2L587.7,53.8z"/>
	<path id="path1726" d="M534.5,119.6l-22.8,12.2l-22.8-12.2l22.8-12.2L534.5,119.6z"/>
	<path id="path1730" class="st2" d="M560.4,101.9l-22.8,12.2l-22.8-12.2l22.8-12.2L560.4,101.9z"/>
	<path id="path1734" class="st0" d="M587.7,86.7L564.8,99L542,86.7l22.8-12.2L587.7,86.7z"/>
	<path id="path1738" d="M616.3,70.3l-22.8,12.2l-22.8-12.2l22.8-12.2L616.3,70.3z"/>
	<path id="path1742" class="st0" d="M644.9,53.8l-22.8,12.2l-22.8-12.2l22.8-12.2L644.9,53.8z"/>
</g>
<g>
	<g id="g1808" transform="translate(377.9346,107.0732)">
		<path id="path1810" class="st2" d="M126,710.2l-22.8,12.2l-22.8-12.2l22.8-12.2L126,710.2z"/>
	</g>
	<g id="g1812" transform="translate(315.1895,71.2715)">
		<path id="path1814" class="st5" d="M105.1,793.7l-22.8,12.2l-22.8-12.2l22.8-12.2L105.1,793.7z"/>
	</g>
	<g id="g1816" transform="translate(297.1045,58.9385)">
		<path id="path1818" d="M99,822.5l-22.8,12.2l-22.8-12.2l22.8-12.2L99,822.5z"/>
	</g>
	<g id="g1820" transform="translate(377.9346,11.1846)">
		<path id="path1822" class="st5" d="M126,933.9l-22.8,12.2l-22.8-12.2l22.8-12.2L126,933.9z"/>
	</g>
	<g id="g1824" transform="translate(357.7905,71.2715)">
		<path id="path1826" d="M119.3,793.7l-22.8,12.2l-22.8-12.2l22.8-12.2L119.3,793.7z"/>
	</g>
	<g id="g1828" transform="translate(337.4331,83.0293)">
		<path id="path1830" class="st2" d="M112.5,766.3l-22.8,12.2l-22.8-12.2L89.6,754L112.5,766.3z"/>
	</g>
	<g id="g1832" transform="translate(377.9346,83.1016)">
		<path id="path1834" class="st5" d="M126,766.1l-22.8,12.2l-22.8-12.2l22.8-12.2L126,766.1z"/>
	</g>
	<g id="g1836" transform="translate(377.9346,59.1289)">
		<path id="path1838" class="st2" d="M126,822l-22.8,12.2L80.3,822l22.8-12.2L126,822z"/>
	</g>
	<g id="g1840" transform="translate(417.7207,83.0293)">
		<path id="path1842" class="st2" d="M139.2,766.3l-22.8,12.2l-22.8-12.2l22.8-12.2L139.2,766.3z"/>
	</g>
	<g id="g1844" transform="translate(357.9409,47.6221)">
		<path id="path1846" class="st5" d="M119.3,848.9l-22.8,12.2l-22.8-12.2l22.8-12.2L119.3,848.9z"/>
	</g>
	<g id="g1848" transform="translate(337.27,59.0498)">
		<path id="path1850" d="M112.4,822.2l-22.8,12.2l-22.8-12.2L89.6,810L112.4,822.2z"/>
	</g>
	<g id="g1852" transform="translate(377.9346,35.1572)">
		<path id="path1854" class="st2" d="M126,878l-22.8,12.2L80.3,878l22.8-12.2L126,878z"/>
	</g>
	<g id="g1856" transform="translate(398.1191,71.3828)">
		<path id="path1858" d="M132.7,793.4l-22.8,12.2L87,793.4l22.8-12.2L132.7,793.4z"/>
	</g>
	<g id="g1860" transform="translate(417.7207,59.998)">
		<path id="path1862" d="M139.2,820l-22.8,12.2L93.6,820l22.8-12.2L139.2,820z"/>
	</g>
	<g id="g1864" transform="translate(437.751,71.2715)">
		<path id="path1866" class="st5" d="M145.9,793.7l-22.8,12.2l-22.8-12.2l22.8-12.2L145.9,793.7z"/>
	</g>
	<g id="g1868" transform="translate(397.8398,47.6221)">
		<path id="path1870" class="st5" d="M132.6,848.9l-22.8,12.2l-22.8-12.2l22.8-12.2L132.6,848.9z"/>
	</g>
	<g id="g1872" transform="translate(315.9956,46.6738)">
		<path id="path1874" class="st2" d="M105.3,851.1l-22.8,12.2l-22.8-12.2l22.8-12.2L105.3,851.1z"/>
	</g>
	<g id="g1876" transform="translate(276.0967,46.6738)">
		<path id="path1878" class="st5" d="M92,851.1l-22.8,12.2l-22.8-12.2l22.8-12.2L92,851.1z"/>
	</g>
	<g id="g1880" transform="translate(294.5117,35.29)">
		<path id="path1882" d="M98.2,877.7l-22.8,12.2l-22.8-12.2l22.8-12.2L98.2,877.7z"/>
	</g>
	<g id="g1884" transform="translate(337.48,35.29)">
		<path id="path1886" d="M112.5,877.7l-22.8,12.2l-22.8-12.2l22.8-12.2L112.5,877.7z"/>
	</g>
	<g id="g1888" transform="translate(315.9956,24.8545)">
		<path id="path1890" class="st5" d="M105.3,902l-22.8,12.2L59.7,902l22.8-12.2L105.3,902z"/>
	</g>
	<g id="g1892" transform="translate(337.48,11.5723)">
		<path id="path1894" class="st2" d="M112.5,933l-22.8,12.2L66.8,933l22.8-12.2L112.5,933z"/>
	</g>
	<g id="g1896" transform="translate(357.9409,22.957)">
		<path id="path1898" d="M119.3,906.4l-22.8,12.2l-22.8-12.2l22.8-12.2L119.3,906.4z"/>
	</g>
	<g id="g1900" transform="translate(325.1029)">
		<path id="path1902" d="M108.4,960h41.9l-20.9-11.2L108.4,960z"/>
	</g>
	<g id="g1904" transform="translate(357.9409,95.0566)">
		<path id="path1906" d="M119.3,738.2l-22.8,12.2l-22.8-12.2L96.5,726L119.3,738.2z"/>
	</g>
	<g id="g1908" transform="translate(397.8398,95.0566)">
		<path id="path1910" d="M132.6,738.2l-22.8,12.2l-22.8-12.2l22.8-12.2L132.6,738.2z"/>
	</g>
	<g id="g1912" transform="translate(459.2227,59.9551)">
		<path id="path1914" d="M153.1,820.1l-22.8,12.2l-22.8-12.2l22.8-12.2L153.1,820.1z"/>
	</g>
	<g id="g1916" transform="translate(397.8398,22.957)">
		<path id="path1918" d="M132.6,906.4l-22.8,12.2l-22.8-12.2l22.8-12.2L132.6,906.4z"/>
	</g>
	<g id="g1920" transform="translate(417.2783,35.29)">
		<path id="path1922" d="M139.1,877.7l-22.8,12.2l-22.8-12.2l22.8-12.2L139.1,877.7z"/>
	</g>
	<g id="g1924" transform="translate(437.7393,47.6221)">
		<path id="path1926" class="st2" d="M145.9,848.9l-22.8,12.2l-22.8-12.2l22.8-12.2L145.9,848.9z"/>
	</g>
	<g id="g1928" transform="translate(366.7751)">
		<path id="path1930" d="M122.3,960h37.2l-18.6-9.9L122.3,960z"/>
	</g>
	<g id="g1932" transform="translate(417.2783,11.5723)">
		<path id="path1934" class="st2" d="M139.1,933l-22.8,12.2L93.4,933l22.8-12.2L139.1,933z"/>
	</g>
	<g id="g1936" transform="translate(437.7393,22.957)">
		<path id="path1938" class="st5" d="M145.9,906.4l-22.8,12.2l-22.8-12.2l22.8-12.2L145.9,906.4z"/>
	</g>
	<g id="g1940" transform="translate(459.2227,35.29)">
		<path id="path1942" d="M153.1,877.7l-22.8,12.2l-22.8-12.2l22.8-12.2L153.1,877.7z"/>
	</g>
	<g id="g1944" transform="translate(480.707,47.6221)">
		<path id="path1946" class="st5" d="M160.2,848.9l-22.8,12.2l-22.8-12.2l22.8-12.2L160.2,848.9z"/>
	</g>
</g>
</svg>
