<?xml version="1.0" encoding="utf-8"?>
<!-- Generator: Adobe Illustrator 21.1.0, SVG Export Plug-In . SVG Version: 6.00 Build 0)  -->
<svg version="1.1"
	 id="A" xmlns:cc="http://creativecommons.org/ns#" xmlns:dc="http://purl.org/dc/elements/1.1/" xmlns:rdf="http://www.w3.org/1999/02/22-rdf-syntax-ns#" xmlns:svg="http://www.w3.org/2000/svg"
	 xmlns="http://www.w3.org/2000/svg" xmlns:xlink="http://www.w3.org/1999/xlink" x="0px" y="0px" viewBox="0 0 960 960"
	 style="enable-background:new 0 0 960 960;" xml:space="preserve">
<style type="text/css">
	.st0{fill:#005284;}
	.st1{fill:#FFFFFF;}
</style>
<g id="A1">
	<g id="g12" transform="translate(686.3184,362.1133)">
		<path id="path14" class="st0" d="M234.1,115l-431.4,431.4L-630,113.6l431.4-431.4L234.1,115z"/>
	</g>
	<g id="g316" transform="translate(596.9893,507.6733)">
		<path id="path318" class="st0" d="M205.3-222.9l6.8,6.8l-37.6,37.6l-6.8-6.8L205.3-222.9z"/>
	</g>
	<g id="g320" transform="translate(583.2383,521.4243)">
		<path id="path322" class="st0" d="M200.9-254.9l6.8,6.8l-37.6,37.6l-6.8-6.7L200.9-254.9z"/>
	</g>
	<g id="g324" transform="translate(569.4883,535.1748)">
		<path id="path326" class="st0" d="M196.5-286.8l6.8,6.8l-37.6,37.6l-6.8-6.8L196.5-286.8z"/>
	</g>
	<g id="g328" transform="translate(555.7373,548.9258)">
		<path id="path330" class="st0" d="M192-318.7l6.8,6.8l-37.6,37.6l-6.8-6.8L192-318.7z"/>
	</g>
	<g id="g332" transform="translate(541.9863,562.6763)">
		<path id="path334" class="st0" d="M187.6-350.6l6.8,6.8l-37.6,37.6L150-313L187.6-350.6z"/>
	</g>
	<g id="g336" transform="translate(528.2363,576.4272)">
		<path id="path338" class="st0" d="M183.2-382.5l6.8,6.8l-37.6,37.6l-6.8-6.8L183.2-382.5z"/>
	</g>
	<g id="g340" transform="translate(514.4854,590.1777)">
		<path id="path342" class="st0" d="M178.8-414.5l6.8,6.8L148-370.1l-6.8-6.8L178.8-414.5z"/>
	</g>
	<g id="g344" transform="translate(500.7344,603.9287)">
		<path id="path346" class="st0" d="M174.4-446.4l6.8,6.8l-37.6,37.6l-6.8-6.8L174.4-446.4z"/>
	</g>
	<g id="g348" transform="translate(485.8584,618.8047)">
		<path id="path350" class="st0" d="M169.6-480.9l6.8,6.8l-37.6,37.6l-6.8-6.8L169.6-480.9z"/>
	</g>
	<g id="g352" transform="translate(472.1074,632.5557)">
		<path id="path354" class="st0" d="M165.1-512.9l6.8,6.8l-37.6,37.6l-6.8-6.8L165.1-512.9z"/>
	</g>
	<g id="g356" transform="translate(458.3564,646.3066)">
		<path id="path358" class="st0" d="M160.7-544.8l6.8,6.8l-37.6,37.6l-6.8-6.8L160.7-544.8z"/>
	</g>
	<g id="g360" transform="translate(444.6055,660.0576)">
		<path id="path362" class="st0" d="M156.3-576.7l6.8,6.8l-37.6,37.6l-6.8-6.8L156.3-576.7z"/>
	</g>
	<g id="g364" transform="translate(430.8545,673.8076)">
		<path id="path366" class="st0" d="M151.9-608.7l6.8,6.8l-37.6,37.6l-6.8-6.8L151.9-608.7z"/>
	</g>
	<g id="g368" transform="translate(417.1045,687.5586)">
		<path id="path370" class="st0" d="M147.4-640.6l6.8,6.8l-37.6,37.6l-6.8-6.8L147.4-640.6z"/>
	</g>
	<g id="g372" transform="translate(403.3535,701.3096)">
		<path id="path374" class="st0" d="M143-672.5l6.8,6.8l-37.6,37.6l-6.8-6.8L143-672.5z"/>
	</g>
	<g id="g376" transform="translate(389.6025,715.0605)">
		<path id="path378" class="st0" d="M138.6-704.4l6.8,6.8l-37.6,37.6l-6.8-6.8L138.6-704.4z"/>
	</g>
	<g id="g380" transform="translate(711.1406,395.6787)">
		<path id="path382" class="st0" d="M242.1,37.1l6.8,6.8l-37.6,37.6l-6.8-6.8L242.1,37.1z"/>
	</g>
	<g id="g384" transform="translate(697.3896,409.4297)">
		<path id="path386" class="st0" d="M237.6,5.2l6.8,6.8l-37.6,37.6l-6.8-6.8L237.6,5.2z"/>
	</g>
	<g id="g388" transform="translate(683.6387,423.1807)">
		<path id="path390" class="st0" d="M233.2-26.8L240-20l-37.6,37.6l-6.8-6.7L233.2-26.8z"/>
	</g>
	<g id="g392" transform="translate(669.8877,436.9316)">
		<path id="path394" class="st0" d="M228.8-58.6l6.8,6.8L198-14.3l-6.8-6.8L228.8-58.6z"/>
	</g>
	<g id="g396" transform="translate(653.1182,451.5444)">
		<path id="path398" class="st0" d="M223.4-92.6l6.8,6.8l-37.6,37.6l-6.8-6.8L223.4-92.6z"/>
	</g>
	<g id="g400" transform="translate(639.3682,465.2949)">
		<path id="path402" class="st0" d="M219-124.5l6.8,6.8l-37.6,37.6l-6.8-6.8L219-124.5z"/>
	</g>
	<g id="g404" transform="translate(625.6172,479.0459)">
		<path id="path406" class="st0" d="M214.5-156.4l6.8,6.8l-37.6,37.6l-6.8-6.8L214.5-156.4z"/>
	</g>
	<g id="g408" transform="translate(611.8662,492.7969)">
		<path id="path410" class="st0" d="M210.1-188.4l6.8,6.8L179.3-144l-6.8-6.8L210.1-188.4z"/>
	</g>
	<g id="g412" transform="translate(219.4399,603.9287)">
		<path id="path414" class="st0" d="M83.8-446.4l37.6,37.6l-6.7,6.8l-37.6-37.6L83.8-446.4z"/>
	</g>
	<g id="g416" transform="translate(205.689,590.1777)">
		<path id="path418" class="st0" d="M79.4-414.5l37.6,37.6l-6.8,6.8l-37.6-37.6L79.4-414.5z"/>
	</g>
	<g id="g420" transform="translate(191.938,576.4272)">
		<path id="path422" class="st0" d="M74.9-382.5l37.6,37.6l-6.8,6.8l-37.6-37.6L74.9-382.5z"/>
	</g>
	<g id="g424" transform="translate(178.1875,562.6763)">
		<path id="path426" class="st0" d="M70.6-350.6l37.6,37.6l-6.8,6.8l-37.6-37.6L70.6-350.6z"/>
	</g>
	<g id="g428" transform="translate(164.4365,548.9258)">
		<path id="path430" class="st0" d="M66.1-318.7l37.6,37.6l-6.8,6.8l-37.6-37.6L66.1-318.7z"/>
	</g>
	<g id="g432" transform="translate(150.686,535.1748)">
		<path id="path434" class="st0" d="M61.7-286.8l37.6,37.6l-6.8,6.8L54.9-280L61.7-286.8z"/>
	</g>
	<g id="g436" transform="translate(136.9351,521.4243)">
		<path id="path438" class="st0" d="M57.3-254.9l37.6,37.6l-6.8,6.8l-37.6-37.6L57.3-254.9z"/>
	</g>
	<g id="g440" transform="translate(123.1846,507.6733)">
		<path id="path442" class="st0" d="M52.8-222.9l37.6,37.6l-6.8,6.8l-37.6-37.6L52.8-222.9z"/>
	</g>
	<g id="g444" transform="translate(109.395,493.8838)">
		<path id="path446" class="st0" d="M48.4-190.9L86-153.4l-6.8,6.8l-37.6-37.6L48.4-190.9z"/>
	</g>
	<g id="g448" transform="translate(95.644,480.1328)">
		<path id="path450" class="st0" d="M44-159l37.6,37.6l-6.8,6.8l-37.6-37.6L44-159z"/>
	</g>
	<g id="g452" transform="translate(81.8931,466.3818)">
		<path id="path454" class="st0" d="M39.6-127l37.6,37.6l-6.8,6.8l-37.6-37.6L39.6-127z"/>
	</g>
	<g id="g456" transform="translate(68.1426,452.6313)">
		<path id="path458" class="st0" d="M35.1-95.1l37.6,37.6l-6.8,6.8L28.3-88.3L35.1-95.1z"/>
	</g>
	<g id="g460" transform="translate(54.3916,438.8809)">
		<path id="path462" class="st0" d="M30.7-63.2l37.6,37.6l-6.7,6.8L24-56.4L30.7-63.2z"/>
	</g>
	<g id="g464" transform="translate(40.6411,425.1299)">
		<path id="path466" class="st0" d="M26.3-31.2L63.8,6.3l-6.7,6.8L19.5-24.5L26.3-31.2z"/>
	</g>
	<g id="g468" transform="translate(26.8901,411.3789)">
		<path id="path470" class="st0" d="M21.8,0.7l37.6,37.6L52.6,45L15.1,7.5L21.8,0.7z"/>
	</g>
	<g id="g472" transform="translate(13.1396,397.6284)">
		<path id="path474" class="st0" d="M17.4,32.6L55,70.2L48.2,77L10.6,39.4L17.4,32.6z"/>
	</g>
	<g id="g476" transform="translate(331.5029,715.9917)">
		<path id="path478" class="st0" d="M119.9-706.6l37.6,37.6l-6.8,6.8l-37.6-37.6L119.9-706.6z"/>
	</g>
	<g id="g480" transform="translate(317.752,702.2412)">
		<path id="path482" class="st0" d="M115.4-674.6l37.6,37.6l-6.8,6.8l-37.5-37.6L115.4-674.6z"/>
	</g>
	<g id="g484" transform="translate(304.0015,688.4902)">
		<path id="path486" class="st0" d="M111-642.7l37.6,37.6l-6.8,6.8l-37.6-37.6L111-642.7z"/>
	</g>
	<g id="g488" transform="translate(290.2505,674.7393)">
		<path id="path490" class="st0" d="M106.6-610.8l37.6,37.6l-6.8,6.8L99.8-604L106.6-610.8z"/>
	</g>
	<g id="g492" transform="translate(276.4995,660.9888)">
		<path id="path494" class="st0" d="M102.2-578.9l37.6,37.6l-6.8,6.8l-37.6-37.6L102.2-578.9z"/>
	</g>
	<g id="g496" transform="translate(262.7495,647.2383)">
		<path id="path498" class="st0" d="M97.8-547l37.6,37.6l-6.8,6.8L91-540.2L97.8-547z"/>
	</g>
	<g id="g500" transform="translate(248.9985,633.4873)">
		<path id="path502" class="st0" d="M93.3-515l37.6,37.6l-6.8,6.8l-37.6-37.6L93.3-515z"/>
	</g>
	<g id="g504" transform="translate(235.2476,619.7363)">
		<path id="path506" class="st0" d="M88.9-483.1l37.6,37.6l-6.8,6.8l-37.6-37.6L88.9-483.1z"/>
	</g>
	<g id="g508" transform="translate(573.6719,251.5605)">
		<path id="path510" class="st0" d="M197.9,371.7l37.6,37.6l-6.8,6.8l-37.6-37.6L197.9,371.7z"/>
	</g>
	<g id="g512" transform="translate(559.9209,237.8096)">
		<path id="path514" class="st0" d="M193.4,403.7l37.6,37.6l-6.8,6.8l-37.6-37.6L193.4,403.7z"/>
	</g>
	<g id="g516" transform="translate(546.1709,224.0586)">
		<path id="path518" class="st0" d="M189,435.6l37.6,37.6l-6.8,6.8l-37.6-37.6L189,435.6z"/>
	</g>
	<g id="g520" transform="translate(532.4199,210.3076)">
		<path id="path522" class="st0" d="M184.6,467.5l37.6,37.6l-6.8,6.8l-37.6-37.6L184.6,467.5z"/>
	</g>
	<g id="g524" transform="translate(518.6689,196.5566)">
		<path id="path526" class="st0" d="M180.1,499.5l37.6,37.6l-6.8,6.8l-37.6-37.6L180.1,499.5z"/>
	</g>
	<g id="g528" transform="translate(504.918,182.8066)">
		<path id="path530" class="st0" d="M175.7,531.4l37.6,37.6l-6.7,6.8L169,538.2L175.7,531.4z"/>
	</g>
	<g id="g532" transform="translate(491.167,169.0557)">
		<path id="path534" class="st0" d="M171.3,563.3l37.6,37.6l-6.8,6.8l-37.6-37.6L171.3,563.3z"/>
	</g>
	<g id="g536" transform="translate(477.416,155.3047)">
		<path id="path538" class="st0" d="M166.8,595.3l37.6,37.6l-6.8,6.8L160.1,602L166.8,595.3z"/>
	</g>
	<g id="g540" transform="translate(462.3848,140.2734)">
		<path id="path542" class="st0" d="M162,630.2l37.6,37.6l-6.8,6.8l-37.6-37.6L162,630.2z"/>
	</g>
	<g id="g544" transform="translate(448.6348,126.5225)">
		<path id="path546" class="st0" d="M157.6,662l37.6,37.6l-6.8,6.8l-37.6-37.6L157.6,662z"/>
	</g>
	<g id="g548" transform="translate(434.8838,112.7725)">
		<path id="path550" class="st0" d="M153.1,694l37.6,37.6l-6.7,6.8l-37.6-37.6L153.1,694z"/>
	</g>
	<g id="g552" transform="translate(421.1328,99.0215)">
		<path id="path554" class="st0" d="M148.7,725.9l37.6,37.6l-6.8,6.8l-37.6-37.6L148.7,725.9z"/>
	</g>
	<g id="g556" transform="translate(407.3818,85.2705)">
		<path id="path558" class="st0" d="M144.3,757.8l37.6,37.6l-6.8,6.8l-37.6-37.6L144.3,757.8z"/>
	</g>
	<g id="g560" transform="translate(393.6309,71.5195)">
		<path id="path562" class="st0" d="M139.9,789.8l37.6,37.6l-6.8,6.8l-37.6-37.6L139.9,789.8z"/>
	</g>
	<g id="g564" transform="translate(379.8809,57.7686)">
		<path id="path566" class="st0" d="M135.5,821.7l37.6,37.6l-6.8,6.8l-37.6-37.6L135.5,821.7z"/>
	</g>
	<g id="g568" transform="translate(366.1299,44.0176)">
		<path id="path570" class="st0" d="M131,853.6l37.6,37.6l-6.8,6.8l-37.6-37.6L131,853.6z"/>
	</g>
	<g id="g572" transform="translate(686.6689,361.5693)">
		<path id="path574" class="st0" d="M234.2,116.3l37.6,37.6l-6.8,6.8l-37.6-37.6L234.2,116.3z"/>
	</g>
	<g id="g576" transform="translate(672.918,347.8184)">
		<path id="path578" class="st0" d="M229.8,148.3l37.6,37.6l-6.8,6.8L223,155L229.8,148.3z"/>
	</g>
	<g id="g580" transform="translate(659.167,334.0684)">
		<path id="path582" class="st0" d="M225.3,180.2l37.6,37.6l-6.8,6.8L218.6,187L225.3,180.2z"/>
	</g>
	<g id="g584" transform="translate(645.417,320.3174)">
		<path id="path586" class="st0" d="M220.9,212.1l37.6,37.6l-6.7,6.8l-37.6-37.6L220.9,212.1z"/>
	</g>
	<g id="g588" transform="translate(629.8008,307.6885)">
		<path id="path590" class="st0" d="M215.9,241.5l37.6,37.6l-6.8,6.8l-37.6-37.6L215.9,241.5z"/>
	</g>
	<g id="g592" transform="translate(616.0498,293.9375)">
		<path id="path594" class="st0" d="M211.5,273.3l37.6,37.6l-6.8,6.8l-37.6-37.6L211.5,273.3z"/>
	</g>
	<g id="g596" transform="translate(602.2988,280.1875)">
		<path id="path598" class="st0" d="M207,305.3l37.6,37.6l-6.8,6.8L200.3,312L207,305.3z"/>
	</g>
	<g id="g600" transform="translate(588.5479,266.4365)">
		<path id="path602" class="st0" d="M202.6,337.2l37.6,37.6l-6.8,6.8L195.8,344L202.6,337.2z"/>
	</g>
	<g id="g604" transform="translate(242.7583,155.3047)">
		<path id="path606" class="st0" d="M91.3,595.3l6.7,6.7l-37.6,37.6l-6.8-6.7L91.3,595.3z"/>
	</g>
	<g id="g608" transform="translate(229.0073,169.0557)">
		<path id="path610" class="st0" d="M86.9,563.3l6.8,6.8l-37.6,37.6l-6.8-6.8L86.9,563.3z"/>
	</g>
	<g id="g612" transform="translate(215.2563,182.8066)">
		<path id="path614" class="st0" d="M82.5,531.4l6.8,6.8l-37.6,37.6l-6.8-6.8L82.5,531.4z"/>
	</g>
	<g id="g616" transform="translate(201.5054,196.5566)">
		<path id="path618" class="st0" d="M78.1,499.5l6.8,6.8l-37.6,37.6l-6.8-6.8L78.1,499.5z"/>
	</g>
	<g id="g620" transform="translate(187.7549,210.3076)">
		<path id="path622" class="st0" d="M73.6,467.5l6.8,6.8l-37.6,37.6l-6.8-6.8L73.6,467.5z"/>
	</g>
	<g id="g624" transform="translate(174.0044,224.0586)">
		<path id="path626" class="st0" d="M69.2,435.6l6.8,6.8l-37.6,37.6l-6.8-6.8L69.2,435.6z"/>
	</g>
	<g id="g628" transform="translate(160.2534,237.8096)">
		<path id="path630" class="st0" d="M64.8,403.7l6.8,6.8L34,448l-6.8-6.8L64.8,403.7z"/>
	</g>
	<g id="g632" transform="translate(146.5029,251.5605)">
		<path id="path634" class="st0" d="M60.3,371.7l6.8,6.8l-37.6,37.6l-6.8-6.8L60.3,371.7z"/>
	</g>
	<g id="g636" transform="translate(132.6079,265.4551)">
		<path id="path638" class="st0" d="M55.9,339.5l6.8,6.8l-37.6,37.6l-6.8-6.8L55.9,339.5z"/>
	</g>
	<g id="g640" transform="translate(118.8574,279.2061)">
		<path id="path642" class="st0" d="M51.5,307.6l6.8,6.8l-37.6,37.6l-6.8-6.8L51.5,307.6z"/>
	</g>
	<g id="g644" transform="translate(105.1064,292.957)">
		<path id="path646" class="st0" d="M47,275.6l6.8,6.8L16.2,320l-6.8-6.8L47,275.6z"/>
	</g>
	<g id="g648" transform="translate(91.3555,306.707)">
		<path id="path650" class="st0" d="M42.6,243.7l6.8,6.8L11.8,288L5,281.3L42.6,243.7z"/>
	</g>
	<g id="g652" transform="translate(77.6045,320.458)">
		<path id="path654" class="st0" d="M38.2,211.8l6.8,6.8L7.4,256.1l-6.8-6.8L38.2,211.8z"/>
	</g>
	<g id="g656" transform="translate(63.8545,334.209)">
		<path id="path658" class="st0" d="M33.7,179.8l6.8,6.8L2.9,224.2l-6.8-6.8L33.7,179.8z"/>
	</g>
	<g id="g660" transform="translate(50.1035,347.96)">
		<path id="path662" class="st0" d="M29.3,147.9l6.8,6.8l-37.6,37.6l-6.8-6.8L29.3,147.9z"/>
	</g>
	<g id="g664" transform="translate(36.3525,361.7104)">
		<path id="path666" class="st0" d="M24.9,116l6.8,6.8l-37.6,37.6l-6.8-6.8L24.9,116z"/>
	</g>
	<g id="g668" transform="translate(352.1729,45.9521)">
		<path id="path670" class="st0" d="M126.6,849.2l6.8,6.8l-37.6,37.6l-6.8-6.8L126.6,849.2z"/>
	</g>
	<g id="g672" transform="translate(338.4219,59.7031)">
		<path id="path674" class="st0" d="M122.1,817.2l6.8,6.8l-37.6,37.6l-6.8-6.8L122.1,817.2z"/>
	</g>
	<g id="g676" transform="translate(324.6714,73.4541)">
		<path id="path678" class="st0" d="M117.7,785.3l6.8,6.8l-37.6,37.6l-6.8-6.8L117.7,785.3z"/>
	</g>
	<g id="g680" transform="translate(310.9204,87.2041)">
		<path id="path682" class="st0" d="M113.3,753.4l6.8,6.8l-37.6,37.6l-6.8-6.8L113.3,753.4z"/>
	</g>
	<g id="g684" transform="translate(297.1694,100.9551)">
		<path id="path686" class="st0" d="M108.8,721.4l6.8,6.8L78,765.8l-6.8-6.8L108.8,721.4z"/>
	</g>
	<g id="g688" transform="translate(283.4189,114.7061)">
		<path id="path690" class="st0" d="M104.4,689.5l6.8,6.8l-37.6,37.6l-6.8-6.8L104.4,689.5z"/>
	</g>
	<g id="g692" transform="translate(269.6685,128.457)">
		<path id="path694" class="st0" d="M100,657.6l6.8,6.8l-37.6,37.6l-6.8-6.7L100,657.6z"/>
	</g>
	<g id="g696" transform="translate(255.9175,142.208)">
		<path id="path698" class="st0" d="M95.5,625.6l6.8,6.8L64.7,670l-6.8-6.8L95.5,625.6z"/>
	</g>
	<g id="g16" transform="translate(682.0664,362.1206)">
		<path id="path18" class="st1" d="M232.7,115L-193,540.8l-427.2-427.2l425.7-425.7L232.7,115z"/>
	</g>
</g>
<g id="A2">
	<g id="g20" transform="translate(677.6191,362.6357)">
		<path id="path22" class="st0" d="M231.3,113.9l-420.6,420.6l-420.6-420.6l420.6-420.6L231.3,113.9z"/>
	</g>
	<g id="g24" transform="translate(662.2861,362.6357)">
		<path id="path26" class="st1" d="M226.4,113.9L-174,514.2l-400.3-400.3L-174-286.5L226.4,113.9z"/>
	</g>
	<g id="g28" transform="translate(646.9531,362.6357)">
		<path id="path30" class="st0" d="M221.4,113.9l-380.1,380l-380-380l380-380L221.4,113.9z"/>
	</g>
	<g id="g32" transform="translate(639.2861,362.6357)">
		<path id="path34" class="st1" d="M218.9,113.9L-151,483.8l-369.9-369.9L-151-256L218.9,113.9z"/>
	</g>
</g>
<g id="A3">
	<g id="g36" transform="translate(626.583,361.0591)">
		<path id="path38" class="st0" d="M214.9,117.5l-354.7,354.7l-354.7-354.7l354.7-354.7L214.9,117.5z"/>
	</g>
	<g id="g40" transform="translate(611.25,361.0591)">
		<path id="path42" class="st1" d="M209.9,117.5l-334.4,334.4l-334.4-334.4l334.4-334.4L209.9,117.5z"/>
	</g>
</g>
<g id="A4">
	<g id="g204" transform="translate(520.3584,334.1279)">
		<path id="path206" class="st0" d="M180.6,180.1l6.8,6.8l-14.6,14.6l33,33L175,265.2l-15.8-15.8l15-15L157,217.2l-14.6,14.6
			l-6.8-6.7l21.4-21.4l30.8,30.8l-15,15l2.3,2.3l17.3-17.3l-33-33L180.6,180.1z"/>
	</g>
	<g id="g208" transform="translate(488.5537,302.3232)">
		<path id="path210" class="st0" d="M170.4,253.9l6.8,6.8l-14.6,14.6l33,33l-30.8,30.8l-15.8-15.8l15-15l-17.3-17.3l-14.6,14.6
			l-6.8-6.8l21.4-21.4l30.8,30.8l-15,15l2.3,2.3l17.3-17.3l-33-33L170.4,253.9z"/>
	</g>
	<g id="g212" transform="translate(454.4775,268.2461)">
		<path id="path214" class="st0" d="M159.5,333l6.8,6.8l-14.7,14.6l33,33l-30.8,30.8L138,402.4l15-15l-17.3-17.3l-14.6,14.6
			l-6.8-6.7l21.4-21.4l30.8,30.8l-15,15l2.3,2.3l17.3-17.3l-33-33L159.5,333z"/>
	</g>
	<g id="g216" transform="translate(422.6719,236.4414)">
		<path id="path218" class="st0" d="M149.2,406.9l6.8,6.8l-14.6,14.6l33,33L143.6,492l-15.8-15.8l15-15L125.6,444l-14.6,14.6
			l-6.8-6.8l21.4-21.4l30.8,30.8l-15,15l2.3,2.3l17.3-17.3l-33-33L149.2,406.9z"/>
	</g>
	<g id="g220" transform="translate(388.5957,202.3652)">
		<path id="path222" class="st0" d="M138.3,486l6.8,6.8l-14.7,14.6l33,33l-30.8,30.8l-15.7-15.8l15-15l-17.3-17.3L100,537.8
			l-6.8-6.8l21.4-21.4l30.8,30.8l-15,15l2.3,2.3l17.3-17.3l-33.1-33.1L138.3,486z"/>
	</g>
	<g id="g224" transform="translate(548.2959,362.0654)">
		<path id="path226" class="st0" d="M189.6,115.2l6.8,6.8l-8,8l33,33l-30.7,30.8L174.9,178l15-15l-17.3-17.3l-14.6,14.6l-6.8-6.8
			l21.4-21.4l30.8,30.8l-15,15l2.3,2.3L208,163l-33-33L189.6,115.2z"/>
	</g>
	<g id="g228" transform="translate(194.9692,334.1279)">
		<path id="path230" class="st0" d="M75.9,180.1l21.4,21.4l-33,33l17.3,17.3l2.3-2.3l-15-15l30.8-30.8l21.4,21.5l-6.8,6.7
			l-14.6-14.6l-17.3,17.3l15,15l-15.8,15.8l-30.8-30.8l33-33l-14.6-14.6L75.9,180.1z"/>
	</g>
	<g id="g232" transform="translate(226.7744,302.3232)">
		<path id="path234" class="st0" d="M86.2,253.9l21.4,21.4l-33,33l17.3,17.3l2.3-2.3l-15-15l30.8-30.8l21.4,21.4l-6.8,6.8
			l-14.7-14.6l-17.3,17.3l15,15l-15.8,15.8L61,308.3l33-33l-14.6-14.7L86.2,253.9z"/>
	</g>
	<g id="g236" transform="translate(260.8511,268.2461)">
		<path id="path238" class="st0" d="M97.2,333l21.4,21.4l-33,33l17.3,17.3l2.3-2.3l-15-15l30.8-30.8l21.4,21.4l-6.8,6.8l-14.6-14.6
			l-17.3,17.3l15,15l-15.8,15.8L72,387.4l33-33l-14.6-14.6L97.2,333z"/>
	</g>
	<g id="g240" transform="translate(292.6558,236.4414)">
		<path id="path242" class="st0" d="M107.4,406.9l21.4,21.4l-33,33l17.3,17.3l2.3-2.3l-15-15l30.8-30.8l21.4,21.4l-6.8,6.8L131,444
			l-17.3,17.3l15,15L113,492l-30.8-30.8l33-33l-14.6-14.6L107.4,406.9z"/>
	</g>
	<g id="g244" transform="translate(326.7324,202.3652)">
		<path id="path246" class="st0" d="M118.4,486l21.4,21.4l-33,33l17.3,17.3l2.3-2.3l-15-15l30.8-30.8l23.8,23.8l-6.8,6.8l-17-17
			l-17.3,17.3l15,15l-15.8,15.8l-30.8-30.8l33-33l-14.6-14.6L118.4,486z"/>
	</g>
	<g id="g248" transform="translate(164.021,364.3374)">
		<path id="path250" class="st0" d="M66,109.9l18.9,17.7l-33.1,33.1L69,177.9l2.3-2.3l-15-15L87,129.8l21.4,21.4l-6.8,6.8L87,143.4
			l-17.3,17.3l15,15l-15.8,15.8l-30.8-30.8l32.9-32.9l-11.7-10.9L66,109.9z"/>
	</g>
	<g id="g252" transform="translate(516.0986,450.5596)">
		<path id="path254" class="st0" d="M179.3-90.3l30.8,30.8l-33.1,33l14.6,14.6l-6.8,6.8l-21.3-21.4l33-33l-17.3-17.3l-2.3,2.3l15,15
			l-30.8,30.8l-21.4-21.4l6.8-6.8l14.6,14.6l17.3-17.3l-15-15L179.3-90.3z"/>
	</g>
	<g id="g256" transform="translate(484.2939,482.3643)">
		<path id="path258" class="st0" d="M169-164.1l30.8,30.8l-33,33l14.6,14.6l-6.8,6.8l-21.4-21.4l33-33L169-150.6l-2.3,2.3l15,15
			L151-102.5l-21.4-21.4l6.8-6.8l14.6,14.6l17.3-17.3l-15-15L169-164.1z"/>
	</g>
	<g id="g260" transform="translate(450.2178,516.4409)">
		<path id="path262" class="st0" d="M158.1-243.3l30.8,30.8l-33,33l14.6,14.6l-6.8,6.8l-21.4-21.4l33-33l-17.3-17.3l-2.3,2.3l15,15
			l-30.7,30.7l-21.4-21.4l6.8-6.8l14.6,14.6l17.3-17.3l-15-15L158.1-243.3z"/>
	</g>
	<g id="g264" transform="translate(418.4121,548.2461)">
		<path id="path266" class="st0" d="M147.9-317.1l30.8,30.8l-33,33l14.6,14.6l-6.8,6.8l-21.4-21.4l33-33l-17.3-17.3l-2.3,2.3l15,15
			l-30.8,30.7l-21.4-21.4l6.8-6.8l14.6,14.6l17.3-17.3l-15-15L147.9-317.1z"/>
	</g>
	<g id="g268" transform="translate(384.3359,582.3223)">
		<path id="path270" class="st0" d="M136.9-396.2l30.8,30.8l-33,33l14.6,14.6l-6.8,6.8l-21.4-21.4l33-33l-17.3-17.3l-2.3,2.3l15,15
			l-30.8,30.8l-21.4-21.5l6.8-6.8l14.6,14.6l17.3-17.3l-15-15L136.9-396.2z"/>
	</g>
	<g id="g272" transform="translate(549.04,417.6187)">
		<path id="path274" class="st0" d="M189.9-13.8L220.7,17l-33,33l11.9,11.9l-6.8,6.8L174.1,50l33-33L189.9-0.3L187.6,2l15,15
			l-30.8,30.8l-21.3-21.5l6.8-6.8l14.6,14.6L189.2,17l-15-15L189.9-13.8z"/>
	</g>
	<g id="g276" transform="translate(199.2295,450.5596)">
		<path id="path278" class="st0" d="M77.3-90.3L93-74.5l-15,15l17.3,17.3l14.6-14.6l6.8,6.7L95.3-28.7L64.5-59.5l15-15l-2.3-2.3
			L60-59.6l33.1,33.1L71.7-5.1l-6.8-6.8l14.6-14.6l-33-33L77.3-90.3z"/>
	</g>
	<g id="g280" transform="translate(231.0342,482.3643)">
		<path id="path282" class="st0" d="M87.5-164.1l15.8,15.8l-15,15l17.3,17.3l14.6-14.6l6.8,6.8l-21.3,21.3l-30.8-30.8l15-15
			l-2.3-2.3l-17.3,17.3l33,33.1L81.9-78.9l-6.8-6.8l14.6-14.6l-33-33L87.5-164.1z"/>
	</g>
	<g id="g284" transform="translate(265.1108,516.4409)">
		<path id="path286" class="st0" d="M98.5-243.3l15.8,15.8l-15,15l17.3,17.3l14.6-14.6l6.8,6.8l-21.4,21.4l-30.8-30.8l15-15
			l-2.3-2.3l-17.3,17.3l33,33.1l-21.4,21.4l-6.8-6.7l14.6-14.6l-33-33L98.5-243.3z"/>
	</g>
	<g id="g288" transform="translate(296.916,548.2461)">
		<path id="path290" class="st0" d="M108.8-317.1l15.8,15.8l-15,15l17.3,17.3l14.6-14.6l6.8,6.8l-21.3,21.4L96-286.3l15-15l-2.3-2.3
			l-17.3,17.3l33,33L103.1-232l-6.8-6.8l14.6-14.6l-33-33L108.8-317.1z"/>
	</g>
	<g id="g292" transform="translate(330.9932,582.3223)">
		<path id="path294" class="st0" d="M119.7-396.2l15.8,15.8l-15,15l17.3,17.3l17-17l6.8,6.7l-23.8,23.8L107-365.5l15-15l-2.3-2.3
			l-17.3,17.3l33,33l-21.4,21.4l-6.8-6.8l14.7-14.6l-33-33L119.7-396.2z"/>
	</g>
	<g id="g296" transform="translate(166.2886,417.6187)">
		<path id="path298" class="st0" d="M66.7-13.8L82.5,2l-15,15l17.3,17.3l14.7-14.7l6.8,6.8L84.7,47.7L53.9,16.9l15-15l-2.3-2.3
			L49.5,16.9l33,33L66.4,66.1l-6.8-6.8l9.3-9.3l-33-33L66.7-13.8z"/>
	</g>
	<g id="g300" transform="translate(589.1875,359.6973)">
		<path id="path302" class="st0" d="M202.8,120.7L183.1,101l-19.7,19.7l19.7,19.7L202.8,120.7z M183.1,87.4l33.3,33.3l-33.3,33.3
			l-33.3-33.3L183.1,87.4z"/>
	</g>
	<g id="g304" transform="translate(576.9795,360.5068)">
		<path id="path306" class="st0" d="M198.9,118.8l-2.1-2.1l-2.1,2.1l2.1,2.1L198.9,118.8z M196.8,103.2l15.6,15.6l-15.6,15.6
			l-15.6-15.6L196.8,103.2z"/>
	</g>
	<g id="g308" transform="translate(154.8662,359.6973)">
		<path id="path310" class="st0" d="M63,120.7L43.3,101l-19.7,19.7l19.7,19.7L63,120.7z M43.3,87.4l33.3,33.3l-33.3,33.3l-33.3-33.3
			L43.3,87.4z"/>
	</g>
	<g id="g312" transform="translate(142.6592,360.5068)">
		<path id="path314" class="st0" d="M59.1,118.8l-2.1-2.1l-2.1,2.1l2.1,2.1L59.1,118.8z M57,103.2l15.6,15.6L57,134.4l-15.6-15.6
			L57,103.2z"/>
	</g>
</g>
<g id="A5" transform="translate(517.0449,362.7954)">
	<path id="path202" class="st0" d="M179.6,113.5L-30.3-96.4l-209.9,209.9l209.9,209.9L179.6,113.5z M-30.3-112.2l225.7,225.7
		L-30.3,339.1L-256,113.4L-30.3-112.2z"/>
</g>
<g id="A6_1_" transform="translate(502.8828,362.7954)">
	<path id="path198" class="st0" d="M175.1,113.5L-16.1-77.7l-191.2,191.2l191.2,191.2L175.1,113.5z M-16.1-93.5l206.9,206.9
		l-206.9,207l-207-206.9L-16.1-93.5z"/>
</g>
<g id="A7" transform="matrix(1.3333333,0,0,-1.3333333,0,960)">
	<g id="g104" transform="translate(447.9512,339.6641)">
		<path id="path106" class="st0" d="M6,0.2l14.7-14.7l-81.9-81.9l-6.8,6.8L7.2-14.5L6-13.3l-19.2-19.2l-18.8,18.7L-54-36l-6.8,6.8
			l28.9,28.9L-13.2-19L6,0.2z"/>
	</g>
	<g id="g108" transform="translate(268.1904,339.6641)">
		<path id="path110" class="st0" d="M7.6,0.2L26.8-19L45.5-0.3l28.9-28.9l-6.8-6.7l-22.1,22L26.8-32.6L7.6-13.3l-1.2-1.2l75.1-75.1
			l-6.8-6.8L-7.1-14.5L7.6,0.2z"/>
	</g>
	<g id="g112" transform="translate(381.043,481.479)">
		<path id="path114" class="st0" d="M6.6-1l84.9-84.9l-17.9-17.9L54-84.1l-19.1-18.3L6.7-74.2l6.8,6.8L35-89l19,18.4l19.6-19.6
			l4.4,4.4L-0.1-7.8L6.6-1z"/>
	</g>
	<g id="g116" transform="translate(335.439,481.479)">
		<path id="path118" class="st0" d="M7-1l6.8-6.8l-78.2-78.1l4.4-4.4l19.6,19.6l19-18.4L0.1-67.5l6.8-6.8l-28.2-28.2l-19,18.4
			L-60-103.8L-78-85.9L7-1z"/>
	</g>
	<g id="g120" transform="translate(374.582,375.2695)">
		<path id="path122" class="st0" d="M6.6-0.1l5.1-5.1L0.2-16.7l11.5-11.5l-5.1-5.1L-10-16.7L6.6-0.1z"/>
	</g>
	<g id="g124" transform="translate(341.9258,375.2695)">
		<path id="path126" class="st0" d="M7-0.1l16.6-16.6L7-33.3l-5.1,5.1l11.5,11.5L1.9-5.2L7-0.1z"/>
	</g>
	<g id="g128" transform="translate(358.2544,354.2207)">
		<path id="path130" class="st0" d="M6.8,0.1l16.6-16.6l-5.1-5L6.8-10.1L-4.7-21.6l-5.1,5.1L6.8,0.1z"/>
	</g>
	<g id="g132" transform="translate(358.2544,342.6807)">
		<path id="path134" class="st0" d="M6.8,0.1l16.6-16.6l-5.1-5.1L6.8-10L-4.7-21.5l-5.1,5.1L6.8,0.1z"/>
	</g>
	<g id="g136" transform="translate(358.2544,330.6162)">
		<path id="path138" class="st0" d="M6.8,0.3l11.9-11.9l-5.1-5.1L6.8-9.9L0-16.7l-5.1,5.1L6.8,0.3z"/>
	</g>
	<g id="g140" transform="translate(346.647,384.7109)">
		<path id="path142" class="st0" d="M6.9-0.2l11.5-11.5L29.9-0.2L35-5.3L18.4-21.9L1.8-5.3L6.9-0.2z"/>
	</g>
	<g id="g144" transform="translate(346.647,396.2515)">
		<path id="path146" class="st0" d="M6.9-0.3l11.5-11.5L29.9-0.3L35-5.4L18.4-21.9L1.8-5.3L6.9-0.3z"/>
	</g>
	<g id="g148" transform="translate(365.1406,403.5952)">
		<path id="path150" class="st0" d="M6.8-0.4l5.1-5.1L-0.1-17.3L-12-5.4l5.1,5.1l6.8-6.9L6.8-0.4z"/>
	</g>
	<g id="g152" transform="translate(395.5586,423.9536)">
		<path id="path154" class="st0" d="M6.5-0.5L21.9-16L33.7-4.4l5.8-6L21.8-27.7L0.6-6.4L6.5-0.5z"/>
	</g>
	<g id="g156" transform="translate(408.1699,432.0713)">
		<path id="path158" class="st0" d="M6.4-0.6L17.8-12l-9.4-9.5L-3.1-10l4.2,4.2l7.2-7.2l1,1L2.2-4.8L6.4-0.6z"/>
	</g>
	<g id="g160" transform="translate(308.3389,432.0713)">
		<path id="path162" class="st0" d="M7.3-0.6l4.2-4.2L4.2-12l1-1l7.2,7.2l4.2-4.2L5.2-21.4L-4.2-12L7.3-0.6z"/>
	</g>
	<g id="g164" transform="translate(321.0381,423.9536)">
		<path id="path166" class="st0" d="M7.1-0.5l5.9-5.9L-8.3-27.7L-26-10.4l5.8,6L-8.3-16L7.1-0.5z"/>
	</g>
	<g id="g168" transform="translate(409.3242,323.04)">
		<path id="path170" class="st0" d="M6.4,0.4l16.5-16.1l-5.8-6L6.4-11.4l-14-14l-5.9,5.9L6.4,0.4z"/>
	</g>
	<g id="g172" transform="translate(408.3486,307.9961)">
		<path id="path174" class="st0" d="M6.4,0.5L15.9-9L4.4-20.5l-4.2,4.2L7.4-9l-1,1l-7.2-7.2L-5-11.1L6.4,0.5z"/>
	</g>
	<g id="g176" transform="translate(308.2129,307.9961)">
		<path id="path178" class="st0" d="M7.2,0.5L18.7-11l-4.2-4.2L7.2-7.9l-1-1l7.2-7.2l-4.2-4.2L-2.2-9L7.2,0.5z"/>
	</g>
	<g id="g180" transform="translate(306.9482,323.04)">
		<path id="path182" class="st0" d="M7.3,0.4L27-19.4l-5.9-5.9l-14,14L-3.4-21.8l-5.8,6L7.3,0.4z"/>
	</g>
	<g id="g184" transform="translate(358.2539,318.7617)">
		<path id="path186" class="st0" d="M6.8,0.4L18-10.8H-4.3L6.8,0.4z"/>
	</g>
	<g id="g188" transform="translate(346.9058,409.8984)">
		<path id="path190" class="st0" d="M6.9-0.4h22.3L18-11.5L6.9-0.4z"/>
	</g>
	<path id="path192" class="st0" d="M361.5,297.7h7.2v-9.3h-7.2V297.7z"/>
	<path id="path194" class="st0" d="M361.5,428.8h7.2v-9.4h-7.2V428.8z"/>
</g>
<g id="A8">
	<g id="g44" transform="translate(496.4736,376.1216)">
		<path id="path46" class="st0" d="M173,82.5l9,9L140,133.4l-27.7-27.7l21.5-21.4L144.6,95l-9,9l-1.7-1.7l-3.5,3.5l9.7,9.7L173,82.5
			z"/>
	</g>
	<g id="g48" transform="translate(358.2544,461.9062)">
		<path id="path50" class="st0" d="M128.5-116.6h27.3l43,43l-37.4,37.4l35.8,35.8l25-25l24.9,24.9l25-25l35.2,35.2l-7.9,7.9
			L272.1-9.6l-25,24.9l-25-25l-25,25l-51.6-51.6L183-73.7l-31.9-31.9h-22.6L128.5-116.6L128.5-116.6z"/>
	</g>
	<g id="g52" transform="translate(337.624,461.9062)">
		<path id="path54" class="st0" d="M121.9-116.6h27.3v11.1h-22.6L94.6-73.6L132-36.2L80.5,15.4l-25-25l-25,25l-25-25l-27.3,27.3
			l-7.9-7.9L5.5-25.4l25,25l25-25l25,25l35.8-35.8L78.8-73.7L121.9-116.6z"/>
	</g>
	<g id="g56" transform="translate(358.2544,450.0796)">
		<path id="path58" class="st0" d="M128.5-89.2h17.3l28,28l-26.4,26.4l-7.9-7.9L158-61.1L141.1-78h-12.6V-89.2L128.5-89.2z"/>
	</g>
	<g id="g60" transform="translate(345.1777,450.0796)">
		<path id="path62" class="st0" d="M124.3-89.2h17.3V-78h-12.7L112-61.1l18.5,18.5l-7.9,7.9L96.2-61.1L124.3-89.2z"/>
	</g>
	<g id="g64" transform="translate(391.3242,374.8315)">
		<path id="path66" class="st0" d="M139.2,85.6l49.3,50l25.6-24.9l37.6,36.8l-8.9,9.1l-28.6-28l-25.8,25l-49.2-49.8l-4.1,4.1l12,12
			l-9,9l-21-21L139.2,85.6z"/>
	</g>
	<g id="g68" transform="translate(429.0674,373.9561)">
		<path id="path70" class="st0" d="M151.3,87.6l20.4,20.4l-16.4,16.4l-7.9-7.9l8.6-8.6l-4.6-4.6l-60.7,60.8l35.2,35.2l-37.1,36.8
			H57.7V225H84l25.9-25.7l-35.2-35.2L151.3,87.6z"/>
	</g>
	<g id="g72" transform="translate(287.4409,373.9561)">
		<path id="path74" class="st0" d="M105.7,87.6l76.5,76.5l-35,35l25.9,25.9h26.1v11.1h-30.7l-37.1-37l35-35l-60.7-60.7l-4.6,4.6
			l8.6,8.6l-7.9,7.9L85.4,108L105.7,87.6z"/>
	</g>
	<g id="g76" transform="translate(372.3633,310.0732)">
		<path id="path78" class="st0" d="M133,235.9l26.7,26.7l-24.4,23.6h-21v-11.1h16.5l13-12.5l-18.7-18.8L133,235.9z"/>
	</g>
	<g id="g80" transform="translate(344.1445,310.0732)">
		<path id="path82" class="st0" d="M124,235.9l7.9,7.9l-18.8,18.7l13,12.5h16.5v11.1h-21l-24.4-23.5L124,235.9z"/>
	</g>
	<g id="g84" transform="translate(220.0356,376.1216)">
		<path id="path86" class="st0" d="M84,82.5l33,33l9.7-9.7l-3.5-3.5l-1.7,1.7l-9-9l10.7-10.8l21.5,21.5l-27.7,27.7L75,91.6L84,82.5z
			"/>
	</g>
	<g id="g88" transform="translate(325.1841,374.8315)">
		<path id="path90" class="st0" d="M117.9,85.6l22.2,22.2l-21,21l-9-9l12-12l-4.1-4.1l-49.2,49.8l-25.8-25l-28.6,28l-8.9-9.1
			L43,110.6l25.6,24.9L117.9,85.6z"/>
	</g>
	<g id="g92" transform="translate(287.4409,374.8076)">
		<path id="path94" class="st0" d="M105.7,85.6l29.5,29.5l-9,9l-20.4-20.4l-3.5,3.5l8,8l-9,9l-17.1-17L105.7,85.6z"/>
	</g>
	<g id="g96" transform="translate(370.3301,478.4805)">
		<path id="path98" class="st0" d="M132.4-155.1l-16-15.9l-15.9,15.9l2.1,4.3h27.7L132.4-155.1z M116.4-189.1l31.5,31.5l-9.8,19.5
			H94.7L85-157.7L116.4-189.1z"/>
	</g>
	<g id="g100" transform="translate(368.7305,248.9814)">
		<path id="path102" class="st0" d="M131.9,377.7h-27.7l-2.1,4.3l15.9,15.9L134,382L131.9,377.7z M96.3,365h43.4l9.8,19.5
			l-31.5,31.5l-31.5-31.5L96.3,365z"/>
	</g>
</g>
</svg>
