<svg id="图层_2" data-name="图层 2" xmlns="http://www.w3.org/2000/svg" viewBox="0 0 720 720"><title>WY01</title><rect x="166.59" y="165.68" width="386.82" height="386.82" transform="translate(-148.47 359.73) rotate(-45)" style="fill:none;stroke:#005284;stroke-miterlimit:10;stroke-width:14px"/><rect x="24.85" y="23.94" width="670.3" height="670.3" transform="translate(-148.47 359.73) rotate(-45)" style="fill:none;stroke:#005284;stroke-miterlimit:10;stroke-width:5px"/><rect x="-21.84" y="-22.75" width="763.68" height="763.68" transform="translate(-148.47 359.73) rotate(-45)" style="fill:none;stroke:#005284;stroke-miterlimit:10;stroke-width:5px"/><rect x="-3.39" y="-4.3" width="726.78" height="726.78" transform="translate(-148.47 359.73) rotate(-45)" style="fill:none;stroke:#005284;stroke-miterlimit:10;stroke-width:20px"/><rect x="53.89" y="52.98" width="612.23" height="612.23" transform="translate(-148.47 359.73) rotate(-45)" style="fill:none;stroke:#005284;stroke-miterlimit:10;stroke-width:14px"/><polygon points="610.01 359.09 360 609.1 109.99 359.09 171.9 297.18 360 109.08 610.01 359.09" style="fill:none;stroke:#005284;stroke-miterlimit:10;stroke-width:14px"/><polyline points="124.87 375.56 171.9 328.53 195.41 352.05 179.74 367.72 171.9 359.88 171.9 359.88" style="fill:none;stroke:#005284;stroke-miterlimit:10;stroke-width:16px"/><polyline points="140.55 359.88 179.74 399.07 211.09 367.72 242.44 399.07 273.79 367.72 328.65 422.58 281.62 469.61 328.65 516.63 360 516.63" style="fill:none;stroke:#005284;stroke-miterlimit:10;stroke-width:14px"/><polyline points="579.45 359.88 540.26 399.07 508.91 367.72 477.56 399.07 446.21 367.72 391.35 422.58 438.38 469.61 391.35 516.63 360 516.63" style="fill:none;stroke:#005284;stroke-miterlimit:10;stroke-width:14px"/><polyline points="341.19 440.57 312.98 468.78 341.19 497 360 497" style="fill:none;stroke:#005284;stroke-miterlimit:10;stroke-width:14px"/><polyline points="378.81 440.57 407.02 468.78 378.81 497 360 497" style="fill:none;stroke:#005284;stroke-miterlimit:10;stroke-width:14px"/><polyline points="169.5 295.66 211.09 336.37 243.31 305.02 305.14 367.72 321.68 351.17 301 330.49" style="fill:none;stroke:#005284;stroke-miterlimit:10;stroke-width:16px"/><polyline points="242.44 336.37 226.76 352.05 242.44 367.72 273.79 336.37 328.65 281.51 284.45 237.31 324.08 198.07 360 198.07" style="fill:none;stroke:#005284;stroke-miterlimit:10;stroke-width:14px"/><polyline points="477.56 336.37 493.24 352.05 477.56 367.72 446.21 336.37 391.35 281.51 435.33 237.53 395.7 198.07 360 198.07" style="fill:none;stroke:#005284;stroke-miterlimit:10;stroke-width:14px"/><polyline points="341.53 266.61 312.98 238.06 336.49 215.39 360 215.39" style="fill:none;stroke:#005284;stroke-miterlimit:10;stroke-width:14px"/><polyline points="378.47 266.61 407.02 238.06 383.51 215.39 360 215.39" style="fill:none;stroke:#005284;stroke-miterlimit:10;stroke-width:14px"/><polyline points="595.13 375.56 548.1 328.53 524.59 352.05 540.26 367.72 548.1 359.88" style="fill:none;stroke:#005284;stroke-miterlimit:10;stroke-width:16px"/><polyline points="550.5 295.66 508.91 336.37 476.69 305.02 414.86 367.72 398.32 351.17 419 330.49" style="fill:none;stroke:#005284;stroke-miterlimit:10;stroke-width:16px"/><polyline points="446.21 336.37 477.56 367.72 493.24 352.05 477.56 336.37" style="fill:none;stroke:#005284;stroke-miterlimit:10;stroke-width:16px"/><polygon points="382.34 537.84 360 537.84 337.66 537.84 330.22 552.73 360 582.51 389.78 552.73 382.34 537.84" style="fill:none;stroke:#005284;stroke-miterlimit:10;stroke-width:16px"/><polygon points="382.34 178.14 360 178.14 337.66 178.14 330.22 163.25 360 133.46 389.78 163.25 382.34 178.14" style="fill:none;stroke:#005284;stroke-miterlimit:10;stroke-width:16px"/><polyline points="329.26 164.55 197.76 296.05 211.09 309.37 243.31 277.15 274.66 308.5 317.33 265.83" style="fill:none;stroke:#005284;stroke-miterlimit:10;stroke-width:16px"/><polyline points="391.35 164.55 522.85 296.05 509.52 309.37 477.3 277.15 445.95 308.5 403.28 265.83" style="fill:none;stroke:#005284;stroke-miterlimit:10;stroke-width:16px"/><polyline points="327.82 550.47 191.26 413.9 209.9 395.27 242.84 428.21 274.66 397.43 316.36 439.13" style="fill:none;stroke:#005284;stroke-miterlimit:10;stroke-width:16px"/><polyline points="392.22 550.47 528.79 413.9 510.15 395.27 477.21 428.21 445.38 397.43 403.68 439.13" style="fill:none;stroke:#005284;stroke-miterlimit:10;stroke-width:16px"/><polyline points="328.65 328.53 352.16 352.05 328.65 375.56" style="fill:none;stroke:#005284;stroke-miterlimit:10;stroke-width:12px"/><polyline points="391.35 328.53 367.84 352.05 391.35 375.56" style="fill:none;stroke:#005284;stroke-miterlimit:10;stroke-width:12px"/><polyline points="336.49 312.86 360 336.37 383.51 312.86" style="fill:none;stroke:#005284;stroke-miterlimit:10;stroke-width:12px"/><polyline points="336.49 293.7 360 317.21 383.51 293.7" style="fill:none;stroke:#005284;stroke-miterlimit:10;stroke-width:12px"/><polyline points="344.32 281.51 360 297.18 375.68 281.51" style="fill:none;stroke:#005284;stroke-miterlimit:10;stroke-width:12px"/><polyline points="336.49 391.23 360 367.72 383.51 391.23" style="fill:none;stroke:#005284;stroke-miterlimit:10;stroke-width:12px"/><polyline points="336.49 410.39 360 386.88 383.51 410.39" style="fill:none;stroke:#005284;stroke-miterlimit:10;stroke-width:12px"/><polyline points="344.32 422.58 360 406.91 375.68 422.58" style="fill:none;stroke:#005284;stroke-miterlimit:10;stroke-width:12px"/><polyline points="247.52 449.11 272.28 424.93 303.02 455.68" style="fill:none;stroke:#005284;stroke-miterlimit:10;stroke-width:14px"/><polyline points="289.46 461.77 273.79 446.1 264.99 454.89 280.67 470.57" style="fill:none;stroke:#005284;stroke-miterlimit:10;stroke-width:10px"/><polyline points="430.54 461.77 446.21 446.1 455.01 454.89 439.33 470.57" style="fill:none;stroke:#005284;stroke-miterlimit:10;stroke-width:10px"/><polyline points="472.34 449.11 447.58 424.93 416.84 455.68" style="fill:none;stroke:#005284;stroke-miterlimit:10;stroke-width:14px"/><polyline points="252.41 261.04 275.15 283.25 303.39 255.01" style="fill:none;stroke:#005284;stroke-miterlimit:10;stroke-width:14px"/><polyline points="283.71 236.57 268.04 252.25 276.83 261.04 292.51 245.37" style="fill:none;stroke:#005284;stroke-miterlimit:10;stroke-width:10px"/><polyline points="436.2 236.57 451.87 252.25 443.08 261.04 427.4 245.37" style="fill:none;stroke:#005284;stroke-miterlimit:10;stroke-width:10px"/><polyline points="467.98 261.04 445.24 283.25 417 255.01" style="fill:none;stroke:#005284;stroke-miterlimit:10;stroke-width:14px"/><polygon points="360 277.5 364.18 273.32 355.82 273.32 360 277.5" style="fill:none;stroke:#005284;stroke-miterlimit:10;stroke-width:12px"/><polygon points="360.17 427.11 355.99 431.29 364.35 431.29 360.17 427.11" style="fill:none;stroke:#005284;stroke-miterlimit:10;stroke-width:12px"/><line x1="360" y1="234.48" x2="360" y2="250.16" style="fill:none;stroke:#005284;stroke-miterlimit:10;stroke-width:12px"/><line x1="360" y1="453.93" x2="360" y2="469.61" style="fill:none;stroke:#005284;stroke-miterlimit:10;stroke-width:12px"/><path d="M143.21,250.68l-22.63,22.63L90.4,243.14l18.86-18.86L97.95,213,67.77,243.14l41.49,41.49L86.63,307.25" style="fill:none;stroke:#005284;stroke-miterlimit:10;stroke-width:12px"/><path d="M196,197.88l-22.63,22.63-30.17-30.17,18.86-18.86-11.31-11.31-30.17,30.17,41.49,41.49-22.63,22.63" style="fill:none;stroke:#005284;stroke-miterlimit:10;stroke-width:12px"/><path d="M252.58,141.3,230,163.93l-30.17-30.17,18.86-18.86-11.31-11.31-30.17,30.17,41.49,41.49L196,197.88" style="fill:none;stroke:#005284;stroke-miterlimit:10;stroke-width:12px"/><path d="M305.39,88.5l-22.63,22.63L252.58,81,271.44,62.1,260.13,50.79,230,81l41.49,41.49-22.63,22.63" style="fill:none;stroke:#005284;stroke-miterlimit:10;stroke-width:12px"/><path d="M362,31.93,339.33,54.56,309.16,24.39,328,5.53,316.7-5.79,286.53,24.39,328,65.87,305.39,88.5" style="fill:none;stroke:#005284;stroke-miterlimit:10;stroke-width:12px"/><path d="M88.52,305.37,65.89,328,35.72,297.83,54.57,279,43.26,267.65,13.09,297.83l41.49,41.49L40.25,353.64" style="fill:none;stroke:#005284;stroke-miterlimit:10;stroke-width:12px"/><path d="M578.75,250.68l22.63,22.63,30.17-30.17L612.7,224.28,624,213l30.17,30.17L612.7,284.63l22.63,22.63" style="fill:none;stroke:#005284;stroke-miterlimit:10;stroke-width:12px"/><path d="M526,197.88l22.63,22.63,30.17-30.17-18.86-18.86,11.31-11.31,30.17,30.17-41.49,41.49,22.63,22.63" style="fill:none;stroke:#005284;stroke-miterlimit:10;stroke-width:12px"/><path d="M469.38,141.3,492,163.93l30.17-30.17L503.32,114.9l11.31-11.31,30.17,30.17-41.49,41.49L526,197.88" style="fill:none;stroke:#005284;stroke-miterlimit:10;stroke-width:12px"/><path d="M416.57,88.5l22.63,22.63L469.38,81,450.52,62.1l11.31-11.31L492,81l-41.49,41.49,22.63,22.63" style="fill:none;stroke:#005284;stroke-miterlimit:10;stroke-width:12px"/><path d="M357,28.93l25.63,25.63L412.8,24.39,393.94,5.53,405.26-5.79l30.17,30.17L393.94,65.87,416.57,88.5" style="fill:none;stroke:#005284;stroke-miterlimit:10;stroke-width:12px"/><path d="M633.44,305.37,656.07,328l30.17-30.17L667.39,279l11.31-11.31,30.17,30.17-41.49,41.49,19.18,18" style="fill:none;stroke:#005284;stroke-miterlimit:10;stroke-width:12px"/><path d="M143.21,458.59,120.58,436,90.4,466.14,109.26,485,97.95,496.31,67.77,466.14l41.49-41.49L86.63,402" style="fill:none;stroke:#005284;stroke-miterlimit:10;stroke-width:12px"/><path d="M196,511.4l-22.63-22.63-30.17,30.17,18.86,18.86-11.31,11.31-30.17-30.17,41.49-41.49-22.63-22.63" style="fill:none;stroke:#005284;stroke-miterlimit:10;stroke-width:12px"/><path d="M252.58,568,230,545.34l-30.17,30.17,18.86,18.86-11.31,11.31-30.17-30.17L218.64,534,196,511.4" style="fill:none;stroke:#005284;stroke-miterlimit:10;stroke-width:12px"/><path d="M305.39,620.77l-22.63-22.63-30.17,30.17,18.86,18.86-11.31,11.31L230,628.32l41.49-41.49L248.81,564.2" style="fill:none;stroke:#005284;stroke-miterlimit:10;stroke-width:12px"/><path d="M362,677.35l-22.63-22.63-30.17,30.17L328,703.75,316.7,715.06l-30.17-30.17L328,643.4l-22.63-22.63" style="fill:none;stroke:#005284;stroke-miterlimit:10;stroke-width:12px"/><path d="M88.52,403.91,65.89,381.28,35.72,411.45l18.86,18.86L43.26,441.62,13.09,411.45,54.57,370,35.43,350.82" style="fill:none;stroke:#005284;stroke-miterlimit:10;stroke-width:12px"/><path d="M578.75,458.59,601.38,436l30.17,30.17L612.7,485,624,496.31l30.17-30.17L612.7,424.65,635.33,402" style="fill:none;stroke:#005284;stroke-miterlimit:10;stroke-width:12px"/><path d="M526,511.4l22.63-22.63,30.17,30.17L559.89,537.8l11.31,11.31,30.17-30.17-41.49-41.49,22.63-22.63" style="fill:none;stroke:#005284;stroke-miterlimit:10;stroke-width:12px"/><path d="M469.38,568,492,545.34l30.17,30.17-18.86,18.86,11.31,11.31,30.17-30.17L503.32,534,526,511.4" style="fill:none;stroke:#005284;stroke-miterlimit:10;stroke-width:12px"/><path d="M416.57,620.77l22.63-22.63,30.17,30.17-18.86,18.86,11.31,11.31L492,628.32l-41.49-41.49,22.63-22.63" style="fill:none;stroke:#005284;stroke-miterlimit:10;stroke-width:12px"/><path d="M357,680.35l25.63-25.63,30.17,30.17-18.86,18.86,11.31,11.31,30.17-30.17L393.94,643.4l22.63-22.63" style="fill:none;stroke:#005284;stroke-miterlimit:10;stroke-width:12px"/><path d="M633.44,403.91l22.63-22.63,30.17,30.17-18.86,18.86,11.31,11.31,30.17-30.17L667.39,370,683.32,354" style="fill:none;stroke:#005284;stroke-miterlimit:10;stroke-width:12px"/><rect x="-22.14" y="330.43" width="47.03" height="47.03" transform="translate(-249.88 104.64) rotate(-45)" style="fill:none;stroke:#005284;stroke-miterlimit:10;stroke-width:12px"/><rect x="-8.37" y="347.45" width="15.68" height="15.68" transform="translate(-251.38 103.69) rotate(-45)" style="fill:none;stroke:#005284;stroke-miterlimit:10;stroke-width:12px"/><rect x="698.92" y="330.43" width="47.03" height="47.03" transform="translate(-38.68 614.5) rotate(-45)" style="fill:none;stroke:#005284;stroke-miterlimit:10;stroke-width:12px"/><rect x="712.69" y="347.45" width="15.68" height="15.68" transform="translate(-40.19 613.55) rotate(-45)" style="fill:none;stroke:#005284;stroke-miterlimit:10;stroke-width:12px"/><line x1="-36" y1="596.2" x2="11.2" y2="549" style="fill:none;stroke:#005284;stroke-miterlimit:10;stroke-width:12px"/><line x1="-13.17" y1="619.03" x2="34.03" y2="571.83" style="fill:none;stroke:#005284;stroke-miterlimit:10;stroke-width:12px"/><line x1="9.66" y1="641.86" x2="56.86" y2="594.66" style="fill:none;stroke:#005284;stroke-miterlimit:10;stroke-width:12px"/><line x1="32.49" y1="664.68" x2="79.68" y2="617.49" style="fill:none;stroke:#005284;stroke-miterlimit:10;stroke-width:12px"/><line x1="55.32" y1="687.51" x2="102.51" y2="640.32" style="fill:none;stroke:#005284;stroke-miterlimit:10;stroke-width:12px"/><line x1="78.14" y1="710.34" x2="125.34" y2="663.14" style="fill:none;stroke:#005284;stroke-miterlimit:10;stroke-width:12px"/><line x1="100.97" y1="733.17" x2="148.17" y2="685.97" style="fill:none;stroke:#005284;stroke-miterlimit:10;stroke-width:12px"/><line x1="123.8" y1="756" x2="171" y2="708.8" style="fill:none;stroke:#005284;stroke-miterlimit:10;stroke-width:12px"/><line x1="552.09" y1="708.8" x2="599.29" y2="756" style="fill:none;stroke:#005284;stroke-miterlimit:10;stroke-width:12px"/><line x1="574.92" y1="685.97" x2="622.12" y2="733.17" style="fill:none;stroke:#005284;stroke-miterlimit:10;stroke-width:12px"/><line x1="597.75" y1="663.14" x2="644.95" y2="710.34" style="fill:none;stroke:#005284;stroke-miterlimit:10;stroke-width:12px"/><line x1="620.58" y1="640.32" x2="667.78" y2="687.51" style="fill:none;stroke:#005284;stroke-miterlimit:10;stroke-width:12px"/><line x1="643.41" y1="617.49" x2="690.61" y2="664.68" style="fill:none;stroke:#005284;stroke-miterlimit:10;stroke-width:12px"/><line x1="666.24" y1="594.66" x2="713.44" y2="641.86" style="fill:none;stroke:#005284;stroke-miterlimit:10;stroke-width:12px"/><line x1="689.07" y1="571.83" x2="736.26" y2="619.03" style="fill:none;stroke:#005284;stroke-miterlimit:10;stroke-width:12px"/><line x1="711.9" y1="549" x2="759.09" y2="596.2" style="fill:none;stroke:#005284;stroke-miterlimit:10;stroke-width:12px"/><line x1="-36" y1="123.8" x2="11.2" y2="171" style="fill:none;stroke:#005284;stroke-miterlimit:10;stroke-width:12px"/><line x1="-13.17" y1="100.97" x2="34.03" y2="148.17" style="fill:none;stroke:#005284;stroke-miterlimit:10;stroke-width:12px"/><line x1="9.66" y1="78.14" x2="56.86" y2="125.34" style="fill:none;stroke:#005284;stroke-miterlimit:10;stroke-width:12px"/><line x1="32.49" y1="55.32" x2="79.68" y2="102.51" style="fill:none;stroke:#005284;stroke-miterlimit:10;stroke-width:12px"/><line x1="55.32" y1="32.49" x2="102.51" y2="79.68" style="fill:none;stroke:#005284;stroke-miterlimit:10;stroke-width:12px"/><line x1="78.14" y1="9.66" x2="125.34" y2="56.86" style="fill:none;stroke:#005284;stroke-miterlimit:10;stroke-width:12px"/><line x1="100.97" y1="-13.17" x2="148.17" y2="34.03" style="fill:none;stroke:#005284;stroke-miterlimit:10;stroke-width:12px"/><line x1="123.8" y1="-36" x2="171" y2="11.2" style="fill:none;stroke:#005284;stroke-miterlimit:10;stroke-width:12px"/><line x1="552.09" y1="11.2" x2="599.29" y2="-36" style="fill:none;stroke:#005284;stroke-miterlimit:10;stroke-width:12px"/><line x1="574.92" y1="34.03" x2="622.12" y2="-13.17" style="fill:none;stroke:#005284;stroke-miterlimit:10;stroke-width:12px"/><line x1="597.75" y1="56.86" x2="644.95" y2="9.66" style="fill:none;stroke:#005284;stroke-miterlimit:10;stroke-width:12px"/><line x1="620.58" y1="79.68" x2="667.78" y2="32.49" style="fill:none;stroke:#005284;stroke-miterlimit:10;stroke-width:12px"/><line x1="643.41" y1="102.51" x2="690.61" y2="55.32" style="fill:none;stroke:#005284;stroke-miterlimit:10;stroke-width:12px"/><line x1="666.24" y1="125.34" x2="713.44" y2="78.14" style="fill:none;stroke:#005284;stroke-miterlimit:10;stroke-width:12px"/><line x1="689.07" y1="148.17" x2="736.26" y2="100.97" style="fill:none;stroke:#005284;stroke-miterlimit:10;stroke-width:12px"/><line x1="711.9" y1="171" x2="759.09" y2="123.8" style="fill:none;stroke:#005284;stroke-miterlimit:10;stroke-width:12px"/></svg>