<?xml version="1.0" encoding="utf-8"?>
<!-- Generator: Adobe Illustrator 23.0.2, SVG Export Plug-In . SVG Version: 6.00 Build 0)  -->
<!DOCTYPE svg PUBLIC "-//W3C//DTD SVG 1.1//EN" "http://www.w3.org/Graphics/SVG/1.1/DTD/svg11.dtd" [
	<!ENTITY ns_extend "http://ns.adobe.com/Extensibility/1.0/">
	<!ENTITY ns_ai "http://ns.adobe.com/AdobeIllustrator/10.0/">
	<!ENTITY ns_graphs "http://ns.adobe.com/Graphs/1.0/">
	<!ENTITY ns_vars "http://ns.adobe.com/Variables/1.0/">
	<!ENTITY ns_imrep "http://ns.adobe.com/ImageReplacement/1.0/">
	<!ENTITY ns_sfw "http://ns.adobe.com/SaveForWeb/1.0/">
	<!ENTITY ns_custom "http://ns.adobe.com/GenericCustomNamespace/1.0/">
	<!ENTITY ns_adobe_xpath "http://ns.adobe.com/XPath/1.0/">
]>
<svg version="1.1" id="图层_1" xmlns:x="&ns_extend;" xmlns:i="&ns_ai;" xmlns:graph="&ns_graphs;"
	 xmlns="http://www.w3.org/2000/svg" xmlns:xlink="http://www.w3.org/1999/xlink" x="0px" y="0px" viewBox="0 0 612 792"
	 enable-background="new 0 0 612 792" xml:space="preserve">
<metadata>
	<sfw  xmlns="&ns_sfw;">
		<slices></slices>
		<sliceSourceBounds  bottomLeftOrigin="true" height="507.7" width="613.6" x="0" y="142.3"></sliceSourceBounds>
	</sfw>
</metadata>
<g>
	<g>
		<path fill="#FEFEFE" d="M411.8,142.8c-1.4-0.1-2.9-0.2-4.3-0.2c-135.8,0-271.7,0-407.5,0c0.1-0.2,0.2-0.6,0.3-0.6
			c0.8-0.1,1.6,0,2.5,0c203.6,0,407.2,0,610.8,0c0,168.3,0,336.6,0,504.9c0,0.9-0.4,1.8-0.6,2.8c0-35.2,0-70.4,0-105.6
			c0-1.2-0.4-2.3-0.5-3.5c0.2-1.9,0.4-3.8,0.5-5.7c0-0.7,0-1.5,0-2.2c0-0.2,0-0.4,0-0.6c0-59.4,0-118.8,0-178.2c0-1-0.4-2-0.6-3
			c0.1-0.4,0.1-0.7,0.2-1.1c0.1-1.3,0.4-2.6,0.4-3.9c0-66.3,0-132.5,0-198.8c0-0.7,0-1.4,0-2.2c0.1-1.5-0.4-2.3-2.1-2.2
			c-4.7,0.1-9.4,0.1-14.1,0.2c-0.4,0-0.9,0.1-1.3,0.1c-0.8-0.1-1.6-0.3-2.4-0.3c-25,0-50,0-74.9,0c-0.6,0-1.2,0-1.8-0.1
			c-0.6,0-1.1,0.1-1.7,0.1c-33.8,0-67.5,0-101.3,0C412.8,142.8,412.3,142.8,411.8,142.8z"/>
		<path fill="#141414" d="M23.1,398.1c0.7-0.4,1.4-0.8,2.2-1.3c1.6-0.9,3.1-1.8,4.7-2.7c3.8-2.1,7.6-4.1,11.5-6.2
			c4.8-2.5,9.7-4.1,15.1-2.5c-0.2,0.4-0.4,0.8-0.6,1.2c-2.9,0.1-5.9-0.1-8.7,0.5c-2.9,0.7-5.9,1.9-8.5,3.3c-6,3.4-11.9,7-17.8,10.6
			c-6.4,4.2-13.3,6.7-20.9,7.1c0-0.4,0-0.8,0-1.2C8.7,406.5,16,402.6,23.1,398.1z"/>
		<path fill="#FEFEFE" d="M23.1,398.1c-7.1,4.6-14.5,8.4-23.1,8.9c0-0.8,0-1.6,0-2.5c7-0.1,13-2.8,18.8-6.5
			C20,397.3,21.8,394.9,23.1,398.1z"/>
		<path fill="#141414" d="M11.8,322.7c-3.9-0.1-7.8-0.1-11.8-0.2c0-0.4,0-0.8,0-1.2c0.6-0.1,1.2-0.1,1.9-0.2c1.6,0,3.3,0.1,4.9,0.1
			c0.4,0,0.8,0,1.3,0c3.3,0.2,6.6,0.4,9.8,0.6c0.4,0,0.8,0,1.3,0c0.8,0,1.6,0,2.4,0.1c1,0.1,2,0.1,3,0.2c1,0.1,2.1,0.2,3.1,0.3
			c2.9,0.1,5.7,0.1,8.6,0.2c0,0,0.1,0.2,0.1,0.2c0,0.2,0,0.5,0,0.7l-0.1,0.2c-3.9-0.2-7.8-0.3-11.6-0.5c-0.6,0-1.2,0-1.8-0.1
			c-0.4,0-0.8,0-1.3,0c-0.2-0.1-0.4-0.1-0.6,0c-1.2,0-2.5,0-3.7,0c-0.8,0-1.6-0.1-2.5-0.1c-0.6-0.1-1.1-0.1-1.7-0.2
			C12.6,322.9,12.2,322.8,11.8,322.7z"/>
		<path fill="#FEFEFE" d="M0,408.2c7.6-0.4,14.5-3,20.9-7.1c-0.9,1-1.7,2.2-2.7,2.9c-5.6,3.4-11.7,5-18.2,5.5C0,409,0,408.6,0,408.2
			z"/>
		<path fill="#BE7FFE" d="M417.1,620.7c-1.7,6-5.8,8.1-11.9,7.4c-2.5-0.3-5.1,0.3-7.7,0.1c-1.7-0.2-3.3-1-5-1.6
			c-0.8-0.3-1.6-0.9-2.5-1c-6.3-0.9-12-3.6-17.7-6.1c-1.4-0.6-2.7-1.9-3.7-3.2c-2.4-2.9-5.5-3.7-9-3.6c-3.5,0.1-6.9,0.2-10-2.1
			c-0.5-0.4-1.8,0.2-2.6,0c-6.7-1.4-13.3-3.1-17.5-9.2c-1-1.5-1.8-3.6-1.8-5.4c0-6.9-3.1-12.7-6.4-18.4c-0.1-0.3-0.4-0.5-0.4-0.8
			c-1.6-8.8-7.8-14.5-13.6-20.5c-1.9-2-3.5-4.3-5.5-6.1c-2.9-2.7-6-5.2-9-7.9c-2.1-1.9-4.1-3.9-6.3-5.7c-0.9-0.7-2.1-1.6-3.1-1.5
			c-4,0.2-7.1-0.9-9.1-4.7c-0.7-1.3-2.6-1.8-3.8-2.9c-1.2-1.2-2.2-2.6-3.6-4.2c1.5-2,3.1-3.9,4.5-5.9c0.6-0.9,1.2-2,1.2-3
			c0.3-5.3,0.8-10.5,0.6-15.8c-0.1-3.4-1.1-6.8-2.2-10c-1.2-3.5-1.1-4.2,2.1-6c0.9-0.5,1.4-1.6,2.1-2.4c8.5,0.2,16.9,0.4,25.4,0.6
			c9.3,0.2,18.6,0.4,27.9,0.6c0.4,0,0.8,0.1,1.5,0.2c0,6.7,0,13.2,0,20c17.3,0,34.2,0,51.1,0c20.1,0,40.3,0,60.4,0
			c0.2,1.1,0.6,2.1,0.6,3.2c-0.1,5.9-0.5,11.8-0.6,17.8c-0.1,8,0,16,0,24c0,7.2-2.2,10-8.8,12.4c-4.2,1.5-8.6,2.6-12.6,4.4
			c-2.3,1-5,2.6-6,4.6c-1.3,2.6-1.4,5.9-1.4,8.9c-0.2,7.6,0,15.2,0,22.8c0,4.1,0,8.2-0.1,12.2C412.7,615.7,413.8,618.7,417.1,620.7z
			"/>
		<path fill="#FEE27F" d="M381.3,501.8c-16.9,0-33.8,0-51.1,0c0-6.7,0-13.3,0-20c-0.8-0.1-1.1-0.2-1.5-0.2
			c-9.3-0.2-18.6-0.4-27.9-0.6c-8.5-0.2-16.9-0.4-25.4-0.6c-0.3-6.9-0.5-7.1-7.4-9.3c2.4-0.6,4.8-1.1,7.4-1.8
			c-0.5-1.5-0.6-3-1.3-4.1c-1.7-2.6-3.6-5.1-5.4-7.7c19.9,0,39.7,0,59.8,0c0-32.3,0-64.1,0-96c0.2-0.1,0.4-0.1,0.6-0.2
			c2.7,0,5.4,0.1,8.1,0.1c13.1,0.2,26.2,0.5,39.3,0.6c11.1,0.1,22.2,0.1,33.3,0.1c0,9.1,0,18.2,0,27.4c0,1-0.1,2.1-0.6,2.9
			c-2.7,4.7-5.5,9.5-8.4,14.1c-3.2,5-4.9,10-4.7,16.2c0.5,16.1,0.1,32.2,0.2,48.3c0,1.7,0.3,3.4,0.5,5.1c0.6,3.7-1.5,7.7-4.8,8.4
			c-1.9,0.4-3.8,0.6-5.7,0.7c-3.1,0.2-4.8,1.8-4.9,4.9C381.3,494,381.3,497.9,381.3,501.8z"/>
		<path fill="#FE7E93" d="M56,386.6c0.2-0.4,0.4-0.8,0.6-1.2c1.2-3.5,3.8-3.9,7.2-3.8c8.3,0.2,9.2-0.7,10.8-8.9
			c1-5.1,1.9-10.1,3.2-15.1c1.1-4.5-0.4-8.1-3.1-11.2c-3.3-3.7-6.5-7.2-7.1-12.5c-0.2-1.9-1.6-3.7-2.6-5.6c-1.6-0.3-3.4-0.6-5.2-0.9
			c-0.6-1-1.2-1.9-1.8-2.9c0.5-0.2,1.1-0.4,1.6-0.6c-0.6-0.5-1.1-1.3-1.7-1.3c-2.7,0.1-5.4,0.5-8.1,0.6c-4.5,0-8.9-0.2-13.4-0.3
			c0,0-0.1-0.2-0.1-0.2c0-2.1,0.5-2.4,2.9-2.2c6.3,0.5,12.6,0.2,19.5,0.2c-0.8-3.5-1.2-6.8-2.2-9.9c-2.8-9-6-17.9-8.7-27
			c-1.2-4.2-1.9-8.4,0.8-12.9c2.3-3.9,2.8-8.8,4.4-13.2c0.6-1.5-0.4-4.1,2.6-4.5c0.3,0,0.4-1.8,0.5-2.1c3.7-1.2,7.1-2.3,10.4-3.6
			c0.4-0.2,0.6-1.4,0.6-2.2c0.1-2.3,0.7-3.7,3.4-4.2c5.1-1,9.8-2.7,13.8-6.4c5.5-5.1,13-5.9,20.1-7.4c5.5-1.2,11.1-1.2,16.5,0.8
			c3.2,1.2,6.6,1.6,9.6-0.9c0,29.3,0.1,58.7,0,88c0,0.7-0.4,1.3-0.6,2c-3.9,0-7.8,0.1-11.6-0.1c-2.6-0.1-3.3,0.8-3.2,3.3
			c0.3,8.5,0.4,17.1,0.6,25.6c-4,1.3-7.8,2.8-12.2,2.7c-3.8-0.1-6.8,1.5-8.9,5.3c-0.9,1.8-3.7,2.9-5.9,3.5c-3,0.8-4.6,2-5.3,5.3
			c-0.8,3.8-2.9,7.3-4,11c-1,3.4-1.1,7-1.9,10.4c-1.2,5-2.6,10-4.2,14.9c-0.3,1-2,2.2-3.1,2.2c-5.4,0.2-10.8,0-16.9,0
			C54.3,395.8,55.1,391.2,56,386.6z"/>
		<path fill="#FEC47F" d="M115.8,345.9c-0.2-8.5-0.3-17.1-0.6-25.6c-0.1-2.5,0.6-3.4,3.2-3.3c3.9,0.2,7.8,0.1,11.6,0.1
			c0.6,0.6,1.1,1.7,1.7,1.7c6.8,0.8,13.6,1.4,20.5,2c0,13.1,0,26.1,0,39.5c2.5,0,4.5,0,7.2,0c0,7.7,0,15.1,0,22.7
			c17.5,0,34.4,0,51.3,0c-0.3,2.4,0.5,4.4,2.5,5.9c1,0.7,1.8,1.7,2.6,2.6c7.8,8.8,15.6,17.5,23.3,26.4c4,4.6,7.7,9.5,11.4,14.3
			c3.9,5.1,7.6,10.3,11.4,15.4c2.3,3.3,4.6,6.6,6.8,9.9c1.8,2.5,3.8,5,5.4,7.7c0.7,1.1,0.9,2.6,1.3,4.1c-2.6,0.6-5,1.2-7.4,1.8
			c-0.4-5-3.5-6-8-6.3c-7.9-0.5-15.7-1.9-23.5-2.8c-5.4-0.6-10.2-2.1-14.8-5.3c-4.2-2.9-9.5-4.3-14.3-6.4c-0.5-0.2-1.1-0.3-1.3-0.7
			c-2.6-5.1-8.2-6.1-12.4-8.8c-5.5-3.5-11.5-6-18.7-4.8c-4,0.7-7.2-2.6-9.8-5.8c-1.9-2.4-3.7-4.8-5.6-7.2c-2-2.5-4.4-4.5-7.9-4.6
			c-0.4,0-1.1-0.1-1.1-0.3c-1.9-5-7.4-4.1-10.8-6.8c-3.5-2.7-7.4-5-11.1-7.5c-0.8-0.5-1.3-1.4-1.7-2.3c-1.8-3.5-3.7-7-5.2-10.6
			c-1.6-3.9-4.1-7.7-0.6-12.2c1.4-1.9,1.3-5.1,1.6-7.7c0.3-2.5,0.5-5.1,0.6-7.6c0-1.2-0.5-2.3-0.8-3.5c-0.1-0.8-0.5-1.9-0.1-2.3
			c3.3-3.1,1.6-6.7,1.3-10.3C121,346.6,118.4,346.2,115.8,345.9z"/>
		<path fill="#FEF77E" d="M417.1,620.7c-3.3-2-4.4-5-4.3-8.7c0.1-4.1,0.1-8.2,0.1-12.2c6.2,0,12.5,0.1,18.7-0.1
			c1.2,0,2.6-0.4,3.6-1.1c4.9-3.7,9.5-7.8,14.6-11.4c4.7-3.3,9.5-7,15.9-6.6c1.6,0.1,3.4,0.1,4.8-0.6c5.8-2.9,11.4-6.2,17-9.3
			c1.9-1,3.8-1.9,5.7-2.9c13.1-6.8,26.3-13.6,38.6-21.8c4.8-3.2,9.9-7.3,16.6-6.2c0.5,0.1,1.8-1.1,1.7-1.5
			c-0.6-4.2,2.1-7.1,3.6-10.5c0.8-1.7,1.8-2.1,3.6-2.1c6.2-0.1,12.4-0.4,18.7-0.6c0.3,2.4,0.6,4.9,0.8,7.3c-0.5,0.4-0.9,0.8-1.4,1.2
			c0.1,0.4,0.2,0.7,0.4,1.1c12.4,0,24.8,0,37.2,0c-0.2,1.9-0.4,3.8-0.5,5.7c-2.6,1.1-5.2,2.2-7.8,3.4c-1.7,0.7-3.5,2.3-5.1,2.1
			c-5.4-0.5-10.1,1.9-15.2,3c-0.7,0.2-1.6-0.4-2.4-0.5c-1.4-0.1-2.9-0.5-4.1-0.1c-8.7,2.9-17.5,5.4-25.3,10.6c-4.4,2.9-9.6,4-15,4.7
			c-5.1,0.6-10.1,3-15,4.9c-6.7,2.5-12.1,7-18,10.7c-3.1,1.9-7.5,1.9-11.3,2.7c-6.2,1.3-12.3,2.7-17.4,7.2
			c-4.7,4.2-10.1,8.1-16.6,9.4c-2.1,0.4-4.2,1-6.3,1.1c-7.9,0.4-13.4,4.5-17.8,10.8c-0.6,0.8-1.8,1.4-2.9,1.7
			C426.3,613.5,420.8,615.5,417.1,620.7z"/>
		<path d="M32.1,589.4c0-1.2,0-2,0-3.1c29.7,0,59.3,0,89.1,0c0-4.6,0-8.9,0-13.5c1.1-0.1,2-0.1,3.1-0.2c0,4.5,0,8.9,0,13.4
			c1.1,0.1,2,0.2,3,0.3c0,5.4,0,10.8,0,16.3c-0.9,0-1.7,0-2.8,0c0-4.3,0-8.7,0-13.3C93.6,589.4,63,589.4,32.1,589.4z"/>
		<path fill="#141414" d="M98.5,614.2c0-3.7,0.1-6.4,0-9c0-1.8-0.7-3.7-2.7-3.2c-1.1,0.2-2.5,2-2.8,3.3c-0.5,2,0,4.3-0.2,6.4
			c-0.1,0.7-0.9,1.4-1.3,2.1c-0.3-0.1-0.6-0.3-1-0.4c0-2.6,0-5.3,0-7.9c0-2-0.7-3.9-2.9-3.4c-1.3,0.3-2.8,2.1-3.1,3.4
			c-0.5,2.5-0.1,5.1-0.1,7.6c-2,1.1-2.4,0.1-2.3-1.6c0-3.8,0-7.6,0-12c1,0.7,1.7,1.2,2.7,1.8c2.3-1.5,5-2.6,7.4,0.9
			c0.6-0.5,1.2-1.1,1.9-1.5c2.7-1.7,5.8-0.6,6.4,2.6c0.5,2.9,0.4,5.9,0.3,8.9C100.8,612.6,99.7,613.1,98.5,614.2z"/>
		<path fill="#141414" d="M88.1,580.5c0-2.4,0-4.9,0-7.3c0-1.9-0.2-4-2.7-4c-2.6,0-3,2.1-3,4.2c0,1.8,0.1,3.7-0.1,5.5
			c-0.1,0.8-0.8,1.4-1.2,2.2c-0.4-0.1-0.7-0.3-1.1-0.4c0-2.6,0-5.3,0-7.9c0-1.9-0.6-3.6-2.8-3.6c-2.2,0.1-3.2,1.5-3.3,3.7
			c0,2.6,0,5.1,0,7.7c-0.3,0.2-0.6,0.3-0.9,0.5c-0.5-0.7-1.3-1.4-1.4-2.2c-0.1-3.8-0.1-7.6-0.1-12c1.1,0.7,1.8,1.1,2.8,1.7
			c3.6-2,4.6-2,6.8,0.1c2.5-0.5,4.5-1.4,6.3-1c2.6,0.6,2.7,3.3,2.8,5.6c0.1,1.9,0.1,3.9,0,5.8c-0.1,0.7-0.9,1.3-1.4,2
			C88.7,580.9,88.4,580.7,88.1,580.5z"/>
		<path fill="#090909" d="M78.6,599.9c-1.8,2.1-3.3,3.8-4.8,5.5c1.9,2.6,3.6,5.1,5.6,7.9c-4.8,0.4-4.5-4.6-7.4-5.9
			c-3.2,0.6,1.4,5.9-3.4,6.1c0-6.5,0-13,0-19.6c0.7,0,1.4,0,2.4,0c0,3.9,0,7.6,0,11.5C73.9,604,74.1,599.4,78.6,599.9z"/>
		<path fill="#090909" d="M52,597.4c-0.3,1.7-0.5,3.1-0.7,4.5c5.9,1.1,8.2,2.9,7.7,6.2c-0.4,3.1-3.5,5.4-6.9,5.3
			c-2.4-0.1-3.3-0.7-3.3-1.9c2.2-0.3,4.3-0.4,6.4-0.9c0.6-0.2,1.2-1.4,1.4-2.2c0.5-2.8-1.2-3.9-7.3-4.4c0.4-2.7,0.7-5.4,1.1-8.3
			c2.8,0,5.4,0,8,0c0.1,0.3,0.2,0.5,0.3,0.8c-0.8,0.3-1.6,0.8-2.4,0.9C55,597.5,53.6,597.4,52,597.4z"/>
		<path fill="#090909" d="M52.1,564.6c1.1-0.6,2.1-1.4,3.3-1.6c2.3-0.4,4.5,0,5.8,2.4c1.3,2.5-0.3,4-2,5.5c0.9,1,2.2,1.9,2.6,3.1
			c0.4,1.2,0.3,2.9-0.3,4c-1.1,2.5-4.9,3.4-8.2,2.3c-0.7-0.3-1.2-1-1.8-1.5c0.2-0.2,0.4-0.4,0.6-0.6c1.3,0.2,2.6,0.6,3.9,0.6
			c2,0.1,3.7-0.7,3.9-3c0.2-2.3-1.4-3.2-3.3-3.6c-0.8-0.2-1.5-0.5-2.3-0.8c0.8-0.4,1.5-0.9,2.3-1.1c1.7-0.5,3.4-1.5,2.6-3.4
			c-0.4-1-2.2-1.6-3.5-2c-0.8-0.2-1.7,0.4-2.6,0.7C52.5,565.2,52.3,564.9,52.1,564.6z"/>
		<path d="M96.7,567.2c0,0.8,0,1.3,0,1.8c0,3.8,0,7.6,0,11.6c-0.8,0-1.5,0.1-2.4,0.1c0-4.5,0-8.8,0-13.3
			C95.1,567.3,95.8,567.2,96.7,567.2z"/>
		<path fill="#FEF77E" d="M229.1,221c0.3-1.8,2.7-3.5,0-5.4c2.4-0.4,2.6-2.5,1.5-3.5c-3.3-2.9-0.6-3.5,1.6-4.6
			c-2.4-2.2-3.3-4.8-1.6-7.8c2.1-3.9,5.3-6.4,9.5-7.6c0.7-0.2,1.7-0.3,2.1,0.1c3.7,3.4,7.6,0,11.4,0.3c0.7,0.1,1.7-1,2.4-1.7
			c4.1-4.7,9.5-7.8,15-10.4c1.4-0.7,3.2-0.7,4.7-1.3c2.5-1,4.9-2.3,7.3-3.5c1.9-1,3.6-2.3,5.5-3.1c2.3-0.9,4.7-1.5,8-2.5
			c0,2.7,0,4.7,0,6.7c0,0.6-0.1,1.3,0,1.8c0.9,3.9,2,7.7,2.8,11.6c0.2,0.8-0.3,1.8-0.5,2.6c3.3,1.6,6.4,3.2,9.7,4.7
			c0.9,0.4,2.1,0.6,2.9,0.3c3.7-1.3,7.4-2.7,11-4.3c1.7-0.7,2.7-1.2,3.9,1c1.6,3,3.9,5.4,7.3,6.6c0.9,0.3,1.9,2.1,1.8,3.2
			c-0.3,6.6,1,7.2,5.6,8.9c1.7,0.6,2.3,1.6,2.3,3.5c0,5.1,1.9,7.7,6.4,9.5c0.4,0.1,1,0.4,1.1,0.3c2.1-2.5,5.3-1.8,7.9-2.7
			c1.1-0.4,2.7-1.6,2.8-2.6c0.5-4,1-8.2,0.4-12.2c-0.3-2.4-2.5-4.6-4.1-6.8c-0.7-1.1-1.9-1.8-3.2-3.1c6.7-6.7,4.9-14.3,2.1-22
			c0.2-0.2,0.4-0.4,0.7-0.6c2.8,1.2,5.6,2.4,8.8,3.7c1.4-5.4,5.8-4.1,9.7-4.1c4.8,0,5.7,0.2,4.8,5c-1.4,7.3,3.6,10,7.9,13.4
			c0.5,0.4,1.1,0.8,1.5,1.1c-1.4,1.1-2.6,2.3-4,3.2c-1.1,0.7-2.4,0.9-3.5,1.4c-1.9,0.9-3.7,2-5.6,3.1c2.3,4.1,5.7,3.1,8.3,3.5
			c4.5,0.6,4.6,0.2,6.1-4.1c0.5-1.3,1-2.7,1.6-3.9c0.1-0.3,0.9-0.2,1.3-0.4c0,0.1,0.1,0.2,0.1,0.3c0,0.9,0,1.8,0.1,2.7
			c-4.2,17.4-11.6,33.9-14,51.7c-0.9,6.7-4.6,11.9-8.2,17.3c-5.3,7.8-9.9,16-14.9,24c-0.5,0.8-1.6,1.3-2.4,1.9c-8,0-16-0.2-24,0
			c-3,0.1-6,0.7-9,1.4c-3.4,0.8-6.7,2.3-10.2,3.1c-2.4,0.5-5.2,1.1-7.3,0.3c-7-2.6-14.2-3.2-21.6-3.1c-3.4,0.1-6.8-0.8-10.1-1.6
			c-3.6-0.9-7.2-2.1-10.7-3.2c-1-0.1-2.1-0.4-3.1-0.3c-4.8,0.2-9.5,2.2-14.5,0.4c-3.5-1.2-7.2-1.8-10.8-2.6
			c-0.2-7.7-0.6-15.5-0.6-23.2c-0.1-10.7-0.2-21.5,0.1-32.2C233.1,229.8,231.7,225.3,229.1,221z"/>
		<path fill="#BE7FFE" d="M229.1,221c2.6,4.3,4,8.9,3.9,14.1c-0.3,10.7-0.2,21.5-0.1,32.2c0.1,7.7,0.4,15.5,0.6,23.2
			c-2.2,0.2-4.4,0.5-6.7,0.5c-5.4,0.1-10.8,2.7-16.2,0.2c-5.1-1.5-10.1-3.5-15.2-4.2c-5-0.6-10.2,0.2-15.3,0.5
			c-0.7,0-1.6,0.3-1.9,0.8c-2,3.5-4.6,6.9-5.6,10.6c-1.3,5-2.9,9.5-5.8,13.8c-3.6,5.5-8.1,8.4-14.7,8c-6.8-0.6-13.7-1.2-20.5-2
			c-0.6-0.1-1.1-1.1-1.7-1.7c0.2-0.7,0.6-1.3,0.6-2c0-29.3,0-58.7,0-88c3.9-2,7.6-5,12.3-2.2c0.9,0.5,1.7,1.7,1.8,2.7
			c0.3,2,0.1,4.1,0.1,6.6c3.6,0.6,7.5,2.4,10.7,1.5c3.9-1,8.4-2.2,11.4-5.4c1.3-1.4,1.8-3.6,2.9-6c4.8,0,10.1,0,15.6,0
			c-1,2.6-2,5.2-3.1,7.9c0.2,0.3,0.4,0.7,0.6,1c3.1-1,6.2-1.8,9.3-3c0.6-0.3,1-1.8,1.1-2.7c0.2-1.6-0.3-3.4,0.4-4.7
			c0.4-1,2.1-1.7,3.3-1.8c0.6-0.1,1.7,1.4,1.9,2.3c0.3,1.9,0.1,3.9,0.1,6.5c2-1,3.4-2,5-2.5c1.6-0.6,3.4-0.8,5.1-1.2
			c2.8-0.7,5.7-1.2,8.4-2C221.3,223.2,225.2,222.1,229.1,221z"/>
		<path fill="#141414" d="M411.8,142.8c0.5,0,1-0.1,1.5-0.1c-0.8,2.8-1.7,5.7-2.5,8.5c-1.2,4.1-2.4,8.2-3.7,12.4
			c-1.4,4.6-2.8,9.2-4.2,13.7c-0.9,2.8-2,5.6-3.1,8.4c-0.2-0.1-0.5-0.2-0.7-0.3c1.3-4.6,2.5-9.2,3.8-13.8c0.1-0.1,0.1-0.3,0.1-0.4
			c0.2-0.5,0.4-0.9,0.6-1.4C406.3,160.8,409,151.8,411.8,142.8z"/>
		<path fill="#EBEBEB" d="M402.9,171.6c-1.3,4.6-2.5,9.2-3.8,13.8c-0.1-0.1-0.2-0.1-0.4-0.1l0,0
			C400.1,180.7,401.5,176.2,402.9,171.6z"/>
		<path fill="#EBEBEB" d="M17.9,321.8c-3.3-0.2-6.6-0.4-9.8-0.6C11.3,320.7,14.7,319.5,17.9,321.8z"/>
		<path fill="#EBEBEB" d="M6.8,321.2c-1.6,0-3.3-0.1-4.9-0.1C3.5,319.5,5.2,319.5,6.8,321.2z"/>
		<path fill="#EBEBEB" d="M27.7,322.4c-1-0.1-2.1-0.2-3.1-0.3C25.7,321,26.8,320.7,27.7,322.4z"/>
		<path fill="#EBEBEB" d="M396.1,192.5c0.4-1.2,0.9-2.5,1.3-3.7c0,0,0.1,0.1,0.1,0.1C397,190.1,396.6,191.3,396.1,192.5
			C396.2,192.6,396.1,192.5,396.1,192.5z"/>
		<path fill="#EBEBEB" d="M21.6,321.9c-0.8,0-1.6,0-2.4-0.1C19.9,321.9,20.7,321.9,21.6,321.9z"/>
		<path fill="#EBEBEB" d="M394.9,196.9c0.2-0.8,0.4-1.7,0.6-2.5c0,0,0,0,0,0C395.3,195.2,395.1,196.1,394.9,196.9
			C394.9,196.9,394.9,196.9,394.9,196.9z"/>
		<path fill="#EBEBEB" d="M394.3,198.5c0-0.1,0-0.2-0.1-0.3c0.2-0.5,0.4-0.9,0.7-1.4c0,0,0,0,0,0C394.7,197.4,394.5,198,394.3,198.5
			z"/>
		<path fill="#EBEBEB" d="M395.5,194.4c0.2-0.6,0.4-1.2,0.6-1.8c0,0,0,0,0,0C396,193.2,395.7,193.8,395.5,194.4
			C395.5,194.4,395.5,194.4,395.5,194.4z"/>
		<path fill="#EBEBEB" d="M397.4,188.9c0.2-0.6,0.4-1.2,0.7-1.8c0,0,0.1,0.1,0.1,0.1C397.9,187.7,397.7,188.3,397.4,188.9
			C397.5,188.9,397.4,188.9,397.4,188.9z"/>
		<path fill="#EBEBEB" d="M398.1,187.1c0.2-0.6,0.4-1.2,0.6-1.8c0,0,0,0,0,0C398.5,185.9,398.3,186.5,398.1,187.1
			C398.1,187.1,398.1,187.1,398.1,187.1z"/>
		<path fill="#EBEBEB" d="M403.5,169.8c-0.2,0.5-0.4,0.9-0.6,1.4C403.2,170.7,403.4,170.2,403.5,169.8z"/>
		<path fill="#E9697E" d="M57.9,324.5c0.6,1,1.2,1.9,1.8,2.9c-7.3-0.6-14.7-1.2-22-1.9c-0.5-0.1-1-1.1-1.5-1.8c0,0,0.1-0.2,0.1-0.2
			C43.6,323.9,50.7,324.2,57.9,324.5z"/>
		<path fill="#FEFEFE" d="M30,394.1c-1.6,0.9-3.1,1.8-4.7,2.7c-0.7-1-1.5-2-2.3-3.1C25.5,391.4,27.7,394,30,394.1z"/>
		<path fill="#EBEBEB" d="M22.8,323.2c0.6,0,1.2,0,1.8,0.1c-0.3,0.3-0.6,0.7-1,1C23.4,324,23.1,323.6,22.8,323.2z"/>
		<path fill="#EBEBEB" d="M14.8,323.1c0.8,0,1.6,0.1,2.5,0.1C16.4,323.2,15.6,323.2,14.8,323.1z"/>
		<path fill="#EBEBEB" d="M11.8,322.7c0.4,0.1,0.9,0.1,1.3,0.2C12.6,322.9,12.2,322.8,11.8,322.7z"/>
		<path fill="#EBEBEB" d="M21,323.2c0.2-0.1,0.4-0.1,0.6,0C21.4,323.2,21.2,323.2,21,323.2z"/>
		<path fill="#81B87F" d="M605.3,346.8c-2.6,1.6-5.1,3.3-7.8,4.9c-0.6,0.4-1.5,0.3-2.3,0.4c-1.1-0.6-2.1-1.1-3.2-1.7
			c-0.1,0.3-0.3,0.6-0.4,0.8c0.6,0.5,1.2,1,1.7,1.5c-1.6,2.3-3.1,4.6-5,7.3c1.6,0.7,3.7,1.5,6.2,2.6c0.6-1.4,1.3-2.9,1.9-4.3
			c0.2-0.6,0.4-1.3,0.5-1.9c0.7-0.5,1.3-1.3,2-1.4c1.2-0.2,2.4,0,3.6,0.1c0.9-0.2,1.7-0.3,2.6-0.5c1.8-1.3,3.6-2.6,5.5-3.8
			c0.6,0,1.3,0,1.9,0.1c0.2,1,0.6,2,0.6,3c0,59.4,0,118.8,0,178.2c0,0.2,0,0.4,0,0.6c-1.6,0-3.3,0-4.9-0.1
			c-5.8-0.2-11.6-0.5-17.3-0.5c-4.6,0-9.3,0.3-13.9,0.5c-0.3-2.4-0.6-4.9-0.8-7.3c-0.2-17.5-0.4-34.9-0.6-52.4
			c-0.2-4.4-0.5-8.7-0.5-13.1c-0.1-29.7-0.1-59.4-0.1-89.1c0-2,0.1-4.1,0.1-6.1c0.2-0.2,0.4-0.5,0.6-0.7c0-0.2,0.1-0.3,0.1-0.5
			c0-0.2,0-0.5-0.1-0.7c-0.8-2.6-0.8-5,1.9-6.6c0,0,0.2,0,0.2,0l0.2,0.1c0.9-0.5,1.8-1,2.7-1.5c3.6-1.7,7.3-3.2,10.8-5
			c4.1-2.2,8.6-4.3,9.9-10.2c1.6,2.5,3,4.6,4.3,6.7C605.5,346.3,605.4,346.6,605.3,346.8z"/>
		<path fill="#404040" d="M514.8,147.6c-0.1,0.4-0.3,0.8-0.4,1.2c-0.3,0.6-0.6,1.2-0.8,1.8c-0.1,0.4-0.3,0.8-0.4,1.2
			c-0.3,0.6-0.6,1.2-0.8,1.8c-1.4,3.8-2.9,7.6-4.3,11.4c-0.4,0.8-0.8,1.5-1.2,2.3c-0.1,0.4-0.2,0.9-0.3,1.3
			c-0.3,0.6-0.6,1.2-0.9,1.8c-0.3,0.6-0.5,1.1-0.8,1.7c-0.2,0.5-0.3,0.9-0.5,1.4c-0.3,0.6-0.5,1.2-0.8,1.7c-0.2,0.5-0.3,0.9-0.5,1.4
			c-0.1,0.4-0.3,0.8-0.4,1.2c-0.3,0.6-0.5,1.2-0.8,1.8c-0.1,0.4-0.3,0.8-0.4,1.2c-0.3,0.6-0.6,1.2-0.8,1.8c-1.1,2.5-2.3,5-3.4,7.5
			c-0.2-0.5-0.5-1.1-0.7-1.6c3-7.6,5.9-15.2,8.9-22.7c3-7.7,6.1-15.3,9.2-23c0.6,0,1.1-0.1,1.7-0.1c-0.1,0.6-0.1,1.2-0.2,1.8
			c-0.1,0.4-0.3,0.8-0.4,1.2C515.4,146.3,515.1,147,514.8,147.6z"/>
		<path fill="#2A4D00" d="M576.8,532.6c4.6-0.2,9.3-0.5,13.9-0.5c5.8,0,11.6,0.3,17.3,0.5c1.6,0,3.3,0.1,4.9,0.1c0,0.7,0,1.5,0,2.2
			c-12.4,0-24.8,0-37.2,0c-0.1-0.4-0.2-0.7-0.4-1.1C575.8,533.4,576.3,533,576.8,532.6z"/>
		<path fill="#272727" d="M599.7,150.2c0.5,2.4,1,4.9,1.5,7.3c-0.3,0-0.5,0-0.8,0.1c-1.6-4.9-3.3-9.7-4.9-14.6
			c0.4,0,0.9-0.1,1.3-0.1c0.8,2,1.6,4,2.4,6C599.4,149.3,599.6,149.7,599.7,150.2z"/>
		<path fill="#D1D1D1" d="M516.1,144.5c0.1-0.6,0.1-1.2,0.2-1.8c0.6,0,1.2,0,1.8,0.1C517.4,143.3,516.8,143.9,516.1,144.5z"/>
		<path fill="#D1D1D1" d="M612.4,350.9c-0.6,0-1.3,0-1.9-0.1c0.7-0.4,1.4-0.7,2-1.1C612.5,350.1,612.5,350.5,612.4,350.9z"/>
		<path fill="#880B1F" d="M57.9,324.5c-7.2-0.3-14.4-0.6-21.5-0.9c0-0.2,0-0.5,0-0.7c4.5,0.1,8.9,0.3,13.4,0.3
			c2.7,0,5.4-0.5,8.1-0.6c0.5,0,1.1,0.9,1.7,1.3C59,324.1,58.5,324.3,57.9,324.5z"/>
		<path fill="#7FDCFE" d="M381.3,501.8c0-3.9,0-7.8,0-11.7c0-3.1,1.8-4.7,4.9-4.9c1.9-0.1,3.9-0.3,5.7-0.7c3.2-0.8,5.4-4.8,4.8-8.4
			c-0.3-1.7-0.5-3.4-0.5-5.1c0-16.1,0.3-32.2-0.2-48.3c-0.2-6.2,1.5-11.2,4.7-16.2c2.9-4.6,5.7-9.3,8.4-14.1
			c0.5-0.8,0.6-1.9,0.6-2.9c0-9.1,0-18.2,0-27.4c20.9,0.2,41.9,0.4,62.8,0.6c2.3,3,4.6,5.9,6.8,8.9c1.9,2.5,4.2,4.8,5.3,7.6
			c1,2.5,0.7,5.6,0.8,8.4c0.2,22.4,0.4,44.9,0.6,67.3c0,6,0,11.9,0,17.9c-1.2,0.2-2.4,0.4-3.6,0.6c-12.8-0.2-25.5-0.4-38.3-0.6
			c-1.8,0-3.1,0.1-3.1,2.5c0.3,8.8,0.5,17.6,0.7,26.3C421.6,501.7,401.5,501.8,381.3,501.8z"/>
		<path fill="#7FFEFE" d="M441.8,501.7c-0.2-8.8-0.4-17.6-0.7-26.3c-0.1-2.4,1.2-2.6,3.1-2.5c12.8,0.2,25.5,0.4,38.3,0.6
			c1.1,0.1,2.2,0.1,3.7,0.2c0.2,1.8,0.6,3.5,0.6,5.1c0.2,30.2,0.4,60.3,0.6,90.5c0,0.5,0.1,1,0.1,1.5c-5.7,3.1-11.3,6.3-17,9.3
			c-1.3,0.7-3.2,0.7-4.8,0.6c-6.4-0.4-11.1,3.2-15.9,6.6c-5,3.6-9.7,7.7-14.6,11.4c-0.9,0.7-2.4,1.1-3.6,1.1
			c-6.2,0.1-12.5,0.1-18.7,0.1c0-7.6-0.2-15.2,0-22.8c0.1-3,0.1-6.3,1.4-8.9c1-2.1,3.7-3.6,6-4.6c4.1-1.8,8.4-2.9,12.6-4.4
			c6.7-2.4,8.8-5.2,8.8-12.4c0-8-0.1-16,0-24c0.1-5.9,0.4-11.8,0.6-17.8C442.3,503.9,442,502.8,441.8,501.7z"/>
		<path fill="#FE7EEF" d="M472.5,362.7c-20.9-0.2-41.9-0.4-62.8-0.6c-11.1,0-22.2,0-33.3-0.1c-13.1-0.1-26.2-0.4-39.3-0.6
			c-2.7,0-5.4-0.1-8.1-0.1c0-8,0.2-16-0.1-23.9c-0.2-3.9,1.4-6.5,3.9-9.1c4.3-4.5,8.4-9.1,12.5-13.7c4.7-5.3,7.1-11.9,9.6-18.4
			c0.8-0.6,1.9-1.1,2.4-1.9c5-8,9.7-16.2,14.9-24c3.7-5.4,7.3-10.6,8.2-17.3c2.4-17.9,9.8-34.4,14-51.7c0.4,0,0.7-0.1,1.1-0.1
			c2,0.6,4.1,1.2,6.1,1.9c3.7,2.7,7.4,5.3,10.9,8.2c0.8,0.6,1,1.9,1.5,2.8c1.3,2.2,1.5,4.8,4.7,6.2c3.1,1.4,6.2,3.8,7.5,7.4
			c0.4,1.1,1,2.2,1.7,3.2c1.8,2.9,3.8,5.8,6.1,9.5c-2.4,0-3.7,0-5,0c-0.1-0.3-0.1-0.5-0.1-0.7c0-1.1,0-2.3,0-3.4
			c-0.8,0.1-2.2,0-2.3,0.3c-0.4,1-0.6,2.3-0.4,3.4c0.2,1.3,1.5,2.7,1.2,3.7c-1.1,3.5,1.3,5.2,3.4,5.9c3.1,1,6.5,0.9,9.9,1.1
			c0.5,0,1-0.3,1.5-0.2c6.2,0.8,11-2.3,15.6-5.7c0.6-0.4,1.3-0.5,2-0.8c-0.5,0.9-1.1,1.9-1.6,2.9c0.6,0.4,1.2,0.7,1.8,1.1
			c2.1-2.8,4-5.4,6-8l0,0c1.4-1.3,2.9-2.5,4.3-3.8c0.2,0.4,0.4,0.9,0.7,1.3c-3.2,4-6.5,8-10,12.4c2.9,2.6,5.9,5.2,8.8,7.9
			c0.2,0.2,0.3,0.3,0.5,0.5c0.7,0.7,1.5,1.4,2,2.3c0.9,1.6,1,3.1-1.3,3.7c-0.7,0.2-1.3,0.6-2,0.8c-1.6,0.6-3.4,1.5-4.1-1.2
			c-0.1-0.3-0.9-0.4-1.3-0.6c-0.2-0.2-0.4-0.4-0.6-0.5c0,0-0.1-0.1-0.1-0.1c-0.2-0.2-0.4-0.4-0.5-0.6c-0.1-0.2-0.2-0.5-0.3-0.5
			c-3.3,0.1-5.8-1.1-7-4.4c-3.5,2.8-3.8,5-1.1,7.9c1.2,1.3,1.7,4.7,4.6,2c0.6,0,1.3,0,1.9,0c1.1,1.1,2.7,1.9,3.3,3.2
			c1.4,3.3,3.7,5.4,6.6,7.3c1,0.7,1.7,1.9,2.5,2.9c0,0-0.1,0.1-0.1,0.1c-1-0.2-2-0.4-3.1-0.6c0,1,0,2,0,3.1c0.4,1,0.9,2,1.3,3.1
			c0.2,0.2,0.4,0.4,0.5,0.6c0.4,0.6,0.8,1.2,1.2,1.8c0.2,1,0.4,2.1,0.6,3.1c0,0.2,0.1,0.4,0.1,0.6c0,0.2,0,0.4,0,0.6
			c0,0.2,0,0.4,0,0.7c0.2,0.4,0.3,0.8,0.5,1.3c1.7,3.1,3.3,6.1,5,9.2c0.2,0.6,0.3,1.2,0.5,1.9c-0.7,1.9-1.2,3.8-2.2,5.6
			c-1,1.7-0.7,2.8,0.6,4.3c2.4,2.8,4.4,6,6.6,9c-0.3,0.1-0.7,0.2-1,0.4c-0.1,0.9-0.2,1.8-0.1,2.7c0,0.6,0.5,1.1,0.5,1.7
			c-0.3,5.6,4.4,7.8,7.5,11.1c0.1,0.2,0.7-0.1,1.1-0.2c1.7,0.2,3.3,0.3,5,0.5c2.4,1,4.8,2,7.2,3.1c1.4,0.7,2.3,1.6,0.2,2.6
			c-0.6,0.2-1.2,0.3-1.9,0.5c-1.8,1-3.7,2-5.5,3.1c-0.2,1-0.3,2.1-0.5,3.1c0.4,1.3,0.8,2.5,1.2,3.8c-0.1,0.4-0.1,0.8-0.2,1.3
			C489.5,360.7,481.3,363.4,472.5,362.7z"/>
		<path fill="#FE7F7F" d="M268.6,457.4c-2.3-3.3-4.6-6.6-6.8-9.9c0.2-17.8,0.5-35.7,0.7-53.5c0.1-10.9,0-21.8,0-32.6
			c1.7,0,3.4,0,5.2,0c20.3,0,40.5,0,60.8,0c0,31.8,0,63.6,0,96C308.3,457.4,288.5,457.4,268.6,457.4z"/>
		<path fill="#7FFEEF" d="M328.4,361.5c-20.3,0-40.5,0-60.8,0c-1.7,0-3.4,0-5.2,0c0,0,0.1-0.1,0.1-0.1c-0.2-22.8-0.4-45.6-0.6-68.3
			c3.6,1.1,7.1,2.3,10.7,3.2c3.3,0.8,6.7,1.7,10.1,1.6c7.4-0.1,14.6,0.5,21.6,3.1c2.1,0.8,5,0.2,7.3-0.3c3.4-0.8,6.7-2.2,10.2-3.1
			c2.9-0.7,6-1.3,9-1.4c8-0.2,16,0,24,0c-2.5,6.5-4.9,13.1-9.6,18.4c-4.1,4.6-8.3,9.2-12.5,13.7c-2.5,2.6-4,5.2-3.9,9.1
			c0.3,8,0.1,16,0.1,23.9C328.8,361.3,328.6,361.4,328.4,361.5z"/>
		<path fill="#7FD3FE" d="M152.2,320.8c6.6,0.4,11.1-2.5,14.7-8c2.9-4.4,4.5-8.9,5.8-13.8c1-3.8,3.6-7.2,5.6-10.6
			c0.3-0.5,1.2-0.7,1.9-0.8c5.1-0.3,10.3-1.1,15.3-0.5c5.2,0.6,10.2,2.7,15.2,4.2c0.2,11,0.6,22.1,0.6,33.1
			c0,12.2-0.3,24.3-0.5,36.5c0,7.4-0.1,14.8-0.1,22.1c-16.9,0-33.8,0-51.3,0c0-7.6,0-15,0-22.7c-2.6,0-4.7,0-7.2,0
			C152.2,346.9,152.2,333.8,152.2,320.8z"/>
		<path fill="#A9FE7F" d="M210.6,382.9c0-7.4,0.1-14.8,0.1-22.1c9.9,0.2,19.8,0.5,29.7,0.6c7.4,0.1,14.7,0,22.1,0
			c0,0-0.1,0.1-0.1,0.1c0,10.9,0.1,21.8,0,32.6c-0.2,17.8-0.4,35.7-0.7,53.5c-3.8-5.1-7.5-10.3-11.4-15.4
			c-3.7-4.9-7.4-9.7-11.4-14.3c-7.7-8.9-15.5-17.6-23.3-26.4c-0.8-0.9-1.6-1.9-2.6-2.6C211.2,387.3,210.4,385.3,210.6,382.9z"/>
		<path fill="#FED37F" d="M487.4,570.8c0-0.5-0.1-1-0.1-1.5c-0.2-30.2-0.4-60.3-0.6-90.5c0-1.7-0.4-3.4-0.6-5.1
			c-1.4-0.1-2.6-0.1-3.7-0.2c1.2-0.2,2.4-0.4,3.6-0.6c29.8,0,59.5,0,89.3,0.1c0.2,17.5,0.4,34.9,0.6,52.4
			c-6.2,0.2-12.4,0.5-18.7,0.6c-1.8,0-2.8,0.5-3.6,2.1c-1.5,3.4-4.3,6.3-3.6,10.5c0.1,0.4-1.2,1.6-1.7,1.5
			c-6.7-1.1-11.8,2.9-16.6,6.2c-12.4,8.3-25.5,15-38.6,21.8C491.2,568.9,489.3,569.9,487.4,570.8z"/>
		<path fill="#837FFE" d="M262.5,361.3c-7.4,0-14.7,0.1-22.1,0c-9.9-0.1-19.8-0.4-29.7-0.6c0.2-12.2,0.5-24.3,0.5-36.5
			c0-11-0.4-22.1-0.6-33.1c5.4,2.4,10.8-0.2,16.2-0.2c2.2,0,4.5-0.3,6.7-0.5c3.6,0.8,7.3,1.4,10.8,2.6c5,1.8,9.7-0.3,14.5-0.4
			c1,0,2.1,0.2,3.1,0.3C262.1,315.7,262.3,338.5,262.5,361.3z"/>
		<path fill="#921283" d="M395.5,201.2c-0.4,0-0.7,0.1-1.1,0.1c0-0.9,0-1.8-0.1-2.7c0.2-0.6,0.4-1.1,0.6-1.7
			c0.2-0.8,0.4-1.6,0.6-2.5c0.2-0.6,0.4-1.2,0.6-1.8c0.4-1.2,0.9-2.4,1.3-3.6c0.2-0.6,0.4-1.2,0.7-1.8c0.2-0.6,0.4-1.2,0.6-1.8
			c0.2,0,0.3,0,0.4,0.1c0.2,0.1,0.5,0.2,0.7,0.3c0.1,0.2,0.2,0.5,0.3,0.7C398.6,191.3,397,196.3,395.5,201.2z"/>
		<path fill="#EBEBEB" d="M410.8,151.2c0.2,0.4,0.7,0.9,0.6,1.3c-0.8,3.2-1.6,6.5-2.6,9.6c-0.2,0.6-1.1,1-1.7,1.5
			C408.3,159.4,409.6,155.3,410.8,151.2z"/>
		<path fill="#FE7F7F" d="M575.3,472.9c-29.8,0-59.5,0-89.3-0.1c0-6,0.1-11.9,0-17.9c-0.2-22.4-0.4-44.9-0.6-67.3
			c0-2.8,0.2-5.9-0.8-8.4c-1.1-2.8-3.5-5.1-5.3-7.6c-2.2-3-4.5-5.9-6.8-8.9c8.8,0.8,16.9-1.9,25.2-4.3c0.2,0.2,0.4,0.4,0.7,0.7
			c0.4,0.6,0.8,1.2,1.2,1.8c0.4,0.4,0.9,0.8,1.3,1.3c0.1,3.8,2.9,6.1,4.9,8.8c1.9,2.6,4.8,4.7,5.1,8.4c0.2,0.8,0.3,1.7,0.5,2.5
			c3.6,3.9,7.3,7.7,10.8,11.7c1.3,1.5,2.3,3.2,3.4,4.9c0.2,2.3,0.4,4.6,0.5,6.8c0.6,1.6,1.6,1.9,2.9,0.7c2.1-1.9,4.4-3.6,6.4-5.6
			c2.7-2.8,5.6-0.5,8.3-0.3c0.6,0,1.1,2.2,1.6,3.3c0.2,0.4,0.3,0.9,0.5,1.3c2.2,1.4,4.5,0.4,6.8,0.2c1.1-0.1,2.1-0.7,3.1-1
			c0.2-0.2,0.4-0.3,0.7-0.5c3.6-0.9,6.9-2.1,8.8-5.9c1.2-2.5,5-3.3,4.8-6.9c0-1.3,0-2.6,0-3.9c-0.4-1.8-0.7-3.6-1.1-5.3
			c-0.3,0-0.6-0.1-0.9-0.1c2.3-3.5,4.5-7,6.8-10.4c0,29.7,0,59.4,0.1,89.1C574.8,464.1,575.2,468.5,575.3,472.9z"/>
		<path fill="#272727" d="M577.7,356.1l-0.2-0.1c0,0-0.2,0-0.2,0c-0.2-0.8-0.8-1.7-0.7-2.5c0.7-6,1.5-11.9,2.3-17.9
			c0-0.4,0.1-0.9,0.1-1.3c0.5-4.2,1-8.3,1.6-12.5c0.1-0.3,0.2-0.7,0.3-1c0.8-5.7,1.6-11.4,2.3-17.1c0-0.4,0.1-0.9,0.1-1.3
			c0.5-3,1-6.1,1.6-9.1c0.3,0.1,0.6,0.1,1,0.2c-2.8,20.4-5.6,40.8-8.3,61.2C577.6,355,577.7,355.6,577.7,356.1z"/>
		<path fill="#272727" d="M597.1,209.5c-1.6,12.4-3.1,24.9-4.7,37.3c-0.4-0.1-0.8-0.1-1.2-0.2c1.6-12.1,3.2-24.2,4.9-36.2
			C596.4,210.1,596.7,209.8,597.1,209.5z"/>
		<path fill="#272727" d="M496.5,188.5c0.2,0.5,0.5,1.1,0.7,1.6c-0.7,1.9-1.5,3.8-2.2,5.7c-0.6,1.1-1.3,2.3-1.9,3.4
			c-0.5,1.2-1,2.4-1.6,3.6c-0.4,0.9-0.8,1.8-1.2,2.7c-3.1,5.5-6.1,11-9.2,16.5c-0.3-0.2-0.6-0.3-0.9-0.5c0.2-0.4,0.4-0.8,0.6-1.3
			c5-10.2,10-20.3,15-30.5C496,189.4,496.3,188.9,496.5,188.5z"/>
		<path fill="#272727" d="M586.6,280.1c1.2-10.1,2.5-20.2,4.1-30.2c0.4,0.1,0.7,0.1,1.1,0.2c-1.4,10-2.8,20-4.2,30.1
			C587.3,280.1,586.9,280.1,586.6,280.1z"/>
		<path fill="#EC6DDD" d="M395.5,201.2c1.5-4.9,3.1-9.8,4.6-14.7c0.2,0.6,0.7,1.4,0.5,1.9c-1.6,5-0.3,9.9,1,14.7
			C399.6,202.4,397.5,201.8,395.5,201.2z"/>
		<path fill="#141414" d="M600.4,157.5c0.3,0,0.5,0,0.8-0.1c0.1,5.1,0.2,10.3,0.4,15.4c-0.1,2-0.2,4.1-0.2,6.1
			c0,0.4-0.1,0.8-0.1,1.2c-0.4,2.9-0.7,5.8-1.1,8.7l-0.2-0.1c-0.3,0-0.7,0-1,0C599.4,178.4,599.9,167.9,600.4,157.5z"/>
		<path fill="#272727" d="M599,188.8c0.3,0,0.7,0,1,0c-0.1,1.2-0.2,2.5-0.4,3.7c0,0.4,0,0.8,0,1.2c-0.4,2.4-0.7,4.8-1.1,7.3
			c0,0.5-0.1,0.9-0.1,1.4c-0.5,1.5-0.9,3.1-1.4,4.6c-0.1,0-0.2,0-0.3,0.1c0.5-4.7,0.9-9.3,1.5-14C598.2,191.8,598.7,190.3,599,188.8
			z"/>
		<path fill="#921283" d="M470.1,236.2c-1.4,1.3-2.9,2.5-4.3,3.8c1.1-1.6,2.3-3.2,3.4-4.9c0.6-1,1.1-2.1,1.7-3.1c0,0-0.1,0-0.1,0
			c0.3-0.3,0.5-0.6,0.8-0.9c1.6-1.4,3.2-2.8,4.8-4.3c0.3,0.2,0.5,0.5,0.8,0.7c-0.1,0.2-0.1,0.4-0.2,0.6
			C474.6,230.9,472.3,233.6,470.1,236.2z"/>
		<path fill="#FE7EEF" d="M470.8,232c-0.6,1-1.1,2.1-1.7,3.1c-1.1,1.7-2.2,3.3-3.4,4.9c0,0,0,0,0,0c-1.9,1.2-3.9,2.5-5.8,3.7
			c0.9-1.3,1.6-2.8,2.7-3.9C465.3,237.1,468.1,234.6,470.8,232z"/>
		<path fill="#921283" d="M459.9,243.7c1.9-1.2,3.9-2.5,5.8-3.7c-2,2.6-3.9,5.2-6,8c-0.6-0.4-1.2-0.7-1.8-1.1c0.6-1,1.1-1.9,1.6-2.9
			C459.7,243.9,459.8,243.8,459.9,243.7z"/>
		<path fill="#EC6DDD" d="M470.1,236.2c2.3-2.7,4.5-5.3,6.8-8c0,0.9,0.5,2.1,0.1,2.7c-1.9,2.3-4.1,4.5-6.2,6.7
			C470.5,237.1,470.3,236.7,470.1,236.2z"/>
		<path fill="#141414" d="M586.6,280.1c0.3,0,0.6,0,1,0c-0.6,4.3-1.2,8.7-1.8,13c-0.3,0-0.7-0.1-1-0.1
			C585.4,288.7,586,284.4,586.6,280.1z"/>
		<path fill="#FEFEFE" d="M473.8,288.7c0.5,0.7,1.1,1.3,1.6,2c0.8,1.2,1.7,2.4,2.3,3.7c0.4,0.8,0.3,1.8,0.5,2.8
			c-0.3,0.1-0.6,0.1-1,0.2c-1.1-2.1-2.2-4.2-3.3-6.3C473.8,290.2,473.8,289.5,473.8,288.7z"/>
		<path fill="#EBEBEB" d="M600.2,188.9c0.4-2.9,0.7-5.8,1.1-8.7C602.3,183.3,601.7,186.1,600.2,188.9z"/>
		<path fill="#EBEBEB" d="M601.3,179c0.1-2,0.2-4.1,0.2-6.1C603.2,175,603.1,177,601.3,179z"/>
		<path fill="#D1D1D1" d="M497.2,341c-1.7-0.2-3.3-0.3-5-0.5C493.9,340,495.7,338.7,497.2,341z"/>
		<path fill="#D1D1D1" d="M593.3,352.7c-0.6-0.5-1.2-1-1.7-1.5c0.1-0.3,0.3-0.6,0.4-0.8c1.1,0.6,2.1,1.1,3.2,1.7
			C594.6,352.3,594,352.5,593.3,352.7z"/>
		<path fill="#D1D1D1" d="M526.1,405.2c-0.2-2.3-0.4-4.6-0.5-6.8C525.7,400.6,525.9,402.9,526.1,405.2z"/>
		<path fill="#D1D1D1" d="M477.5,224.5c0.6-0.5,1.2-1,1.8-1.5c0.2,0.2,0.4,0.5,0.6,0.7c-0.6,0.5-1.2,1-1.7,1.5
			C478,225,477.8,224.7,477.5,224.5z"/>
		<path fill="#D1D1D1" d="M473.8,288.7c0,0.8,0,1.6,0.1,2.4c-0.2,0.2-0.5,0.5-0.7,0.7c-0.2-1-0.4-2.1-0.6-3.1
			C472.9,288.7,473.3,288.7,473.8,288.7z"/>
		<path fill="#D1D1D1" d="M493.1,199.2c0.6-1.1,1.3-2.3,1.9-3.4C495.5,197.6,495.7,199.2,493.1,199.2z"/>
		<path fill="#D1D1D1" d="M577.7,356.1c-0.1-0.5-0.2-1.1-0.2-1.6c1,0,2,0.1,3,0.1C579.6,355.1,578.6,355.6,577.7,356.1z"/>
		<path fill="#D1D1D1" d="M596.6,207.2c0.1-0.1,0.2-0.2,0.3-0.1c0.1,0.8,0.1,1.6,0.2,2.4c-0.4,0.3-0.7,0.6-1.1,0.9
			C596.2,209.3,596.4,208.3,596.6,207.2z"/>
		<path fill="#D1D1D1" d="M477,227.6c-0.3-0.2-0.5-0.5-0.8-0.7c0.4-0.3,0.8-0.6,1.2-0.9C477.3,226.5,477.2,227.1,477,227.6z"/>
		<path fill="#D1D1D1" d="M605.3,346.8c0.1-0.2,0.1-0.5,0.2-0.7c0.3-0.1,0.6-0.2,1-0.4c0,0.5,0,0.9,0,1.4
			C606.1,347,605.7,346.9,605.3,346.8z"/>
		<path fill="#D1D1D1" d="M605.1,354.6c-0.9,0.2-1.7,0.3-2.6,0.5C603.4,355,604.2,354.8,605.1,354.6z"/>
		<path fill="#D1D1D1" d="M569.9,386.5c0,1.3,0,2.6,0,3.9C569.9,389.1,569.9,387.8,569.9,386.5z"/>
		<path fill="#D1D1D1" d="M490.3,205.5c0.4-0.9,0.8-1.8,1.2-2.7C491.1,203.7,490.7,204.6,490.3,205.5z"/>
		<path fill="#D1D1D1" d="M514.8,147.6c0.3-0.6,0.6-1.2,0.9-1.8C515.4,146.3,515.1,147,514.8,147.6z"/>
		<path fill="#D1D1D1" d="M513.6,150.7c0.3-0.6,0.6-1.2,0.8-1.8C514.1,149.4,513.8,150,513.6,150.7z"/>
		<path fill="#D1D1D1" d="M512.3,153.7c0.3-0.6,0.6-1.2,0.8-1.8C514.2,153.1,513.7,153.6,512.3,153.7z"/>
		<path fill="#D1D1D1" d="M506.9,167.3c0.4-0.8,0.8-1.5,1.2-2.3C507.7,165.8,507.3,166.5,506.9,167.3z"/>
		<path fill="#D1D1D1" d="M501.9,179.6c0.3-0.6,0.5-1.2,0.8-1.8C502.4,178.4,502.1,179,501.9,179.6z"/>
		<path fill="#D1D1D1" d="M500.6,182.6c0.3-0.6,0.6-1.2,0.8-1.8C502.5,182.1,502,182.5,500.6,182.6z"/>
		<path fill="#D1D1D1" d="M469.4,283.2c0-1,0-2,0-3.1C469.4,281.1,469.4,282.1,469.4,283.2z"/>
		<path fill="#D1D1D1" d="M496.6,353.3c0.2-1,0.3-2.1,0.5-3.1C497,351.3,496.8,352.3,496.6,353.3z"/>
		<path fill="#D1D1D1" d="M599.7,150.2c-0.2-0.4-0.3-0.9-0.5-1.3c0.4,0.2,0.8,0.4,1.1,0.5C600.1,149.6,599.9,149.9,599.7,150.2z"/>
		<path fill="#D1D1D1" d="M599.5,193.8c0-0.4,0-0.8,0-1.2c0.3,0.2,0.5,0.4,0.8,0.6C600.1,193.4,599.8,193.6,599.5,193.8z"/>
		<path fill="#D1D1D1" d="M504.4,173.5c0.2-0.5,0.3-0.9,0.5-1.4C504.7,172.6,504.5,173,504.4,173.5z"/>
		<path fill="#D1D1D1" d="M503.1,176.5c0.2-0.5,0.3-0.9,0.5-1.4c0.2,0.3,0.4,0.5,0.6,0.8C503.9,176.1,503.5,176.3,503.1,176.5z"/>
		<path fill="#D1D1D1" d="M583.3,302.2c0,0.4-0.1,0.9-0.1,1.3C583.3,303.1,583.3,302.7,583.3,302.2z"/>
		<path fill="#D1D1D1" d="M579,334.3c0,0.4-0.1,0.9-0.1,1.3C579,335.1,579,334.7,579,334.3z"/>
		<path fill="#D1D1D1" d="M511.3,381.8c-0.2-0.8-0.3-1.7-0.5-2.5C511,380.1,511.1,380.9,511.3,381.8z"/>
		<path fill="#D1D1D1" d="M598.3,202.5c0-0.5,0.1-0.9,0.1-1.4C598.4,201.5,598.3,202,598.3,202.5z"/>
		<path fill="#D1D1D1" d="M505.6,170.4c0.3-0.6,0.6-1.2,0.9-1.8C506.3,169.2,506,169.8,505.6,170.4z"/>
		<path fill="#D1D1D1" d="M479.3,306c-0.2-0.6-0.3-1.2-0.5-1.9C478.9,304.7,479.1,305.3,479.3,306z"/>
		<path fill="#D1D1D1" d="M502.7,347.2c0.6-0.2,1.2-0.3,1.9-0.5C503.9,346.8,503.3,347,502.7,347.2z"/>
		<path fill="#D1D1D1" d="M596.9,356.4c-0.2,0.6-0.4,1.3-0.5,1.9C596.6,357.7,596.8,357.1,596.9,356.4z"/>
		<path fill="#D1D1D1" d="M498.3,359c-0.2-0.2-0.4-0.4-0.7-0.7c0.1-0.4,0.1-0.8,0.2-1.3C498,357.7,498.2,358.4,498.3,359z"/>
		<path fill="#D1D1D1" d="M460.3,267.1c-0.6,0-1.3,0-1.9,0C459,267.1,459.6,267.1,460.3,267.1z"/>
		<path fill="#D1D1D1" d="M500.8,362.1c-0.4-0.4-0.9-0.8-1.3-1.3C500,361.2,500.4,361.6,500.8,362.1z"/>
		<path fill="#D1D1D1" d="M473.7,294.9c-0.2-0.4-0.3-0.8-0.5-1.3C473.4,294,473.6,294.5,473.7,294.9z"/>
		<path fill="#D1D1D1" d="M473.7,281.2c0.1,0.2,0.1,0.3,0.2,0.5c-0.2-0.1-0.5-0.2-0.7-0.3C473.3,281.3,473.5,281.2,473.7,281.2z"/>
		<path fill="#FE7EEF" d="M473.7,281.2c-0.2,0-0.4,0.1-0.6,0.1c-0.2-0.2-0.4-0.4-0.6-0.7c0,0,0.1-0.1,0.1-0.1
			C473,280.8,473.3,281,473.7,281.2z"/>
		<path fill="#D1D1D1" d="M545.8,404.6c-0.2-0.4-0.3-0.9-0.5-1.3C545.5,403.7,545.6,404.1,545.8,404.6z"/>
		<path fill="#D1D1D1" d="M473.2,293c0-0.2,0-0.4,0-0.6c0.1,0.1,0.1,0.3,0.2,0.4C473.4,292.8,473.3,292.9,473.2,293z"/>
		<path fill="#D1D1D1" d="M556.4,403.3c-0.2,0.2-0.4,0.3-0.7,0.5C555.9,403.6,556.2,403.4,556.4,403.3z"/>
		<path fill="#FE7EEF" d="M471.5,231.2c-0.3,0.3-0.5,0.6-0.8,0.9C471,231.8,471.2,231.5,471.5,231.2z"/>
		<path fill="#D1D1D1" d="M462.1,262.1c0.2,0.2,0.4,0.4,0.5,0.6C462.5,262.5,462.3,262.3,462.1,262.1z"/>
		<path fill="#D1D1D1" d="M575.4,362.6c0,0.2,0,0.5,0.1,0.7C575.5,363.1,575.4,362.9,575.4,362.6z"/>
		<path fill="#D1D1D1" d="M575.4,363.8c-0.2,0.2-0.4,0.5-0.6,0.7C575,364.3,575.2,364.1,575.4,363.8z"/>
		<path fill="#D1D1D1" d="M462.7,262.8c0.2,0.2,0.4,0.4,0.6,0.5C463.1,263.2,462.9,263,462.7,262.8z"/>
		<path fill="#D1D1D1" d="M470,258.4c-0.2-0.2-0.3-0.3-0.5-0.5C469.7,258.1,469.9,258.2,470,258.4z"/>
		<path fill="#D1D1D1" d="M580.9,320.7c-0.1,0.3-0.2,0.7-0.3,1C580.7,321.4,580.8,321.1,580.9,320.7z"/>
		<path fill="#D1D1D1" d="M471.3,286.9c-0.2-0.2-0.4-0.4-0.5-0.6C470.9,286.4,471.1,286.6,471.3,286.9z"/>
	</g>
</g>
</svg>
