<?xml version="1.0" encoding="UTF-8" standalone="no"?>
<svg
   xmlns:dc="http://purl.org/dc/elements/1.1/"
   xmlns:cc="http://creativecommons.org/ns#"
   xmlns:rdf="http://www.w3.org/1999/02/22-rdf-syntax-ns#"
   xmlns:svg="http://www.w3.org/2000/svg"
   xmlns="http://www.w3.org/2000/svg"
   viewBox="0 0 960 960"
   height="960"
   width="960"
   xml:space="preserve"
   id="svg2"
   version="1.1"><metadata
     id="metadata8"><rdf:RDF><cc:Work
         rdf:about=""><dc:format>image/svg+xml</dc:format><dc:type
           rdf:resource="http://purl.org/dc/dcmitype/StillImage" /></cc:Work></rdf:RDF></metadata><defs
     id="defs6" /><g
     transform="matrix(1.3333333,0,0,-1.3333333,0,960)"
     id="g10"><path
       id="path12"
       style="fill:#ffffff;fill-opacity:1;fill-rule:nonzero;stroke:none"
       d="M 0,0 H 720 V 720 H 0 Z" /><g
       transform="translate(166.1643,720)"
       id="g14"><path
         id="path16"
         style="fill:#005284;fill-opacity:1;fill-rule:nonzero;stroke:none"
         d="M 0,0 -166.164,-166.164 V -529.116 L 24.719,-720 h 342.35 l 186.767,186.766 v 367.652 L 388.254,0 Z" /></g><g
       transform="translate(173.2338,720)"
       id="g18"><path
         id="path20"
         style="fill:#ffffff;fill-opacity:1;fill-rule:nonzero;stroke:none"
         d="M 0,0 -173.234,-173.234 V -522.068 L 24.698,-720 H 352.93 l 193.836,193.837 v 353.534 L 374.137,0 Z" /></g><g
       transform="translate(181.506,720)"
       id="g22"><path
         id="path24"
         style="fill:#005284;fill-opacity:1;fill-rule:nonzero;stroke:none"
         d="M 0,0 -181.506,-181.506 V -515.574 L 22.919,-720 h 313.499 l 202.076,202.076 v 338.767 L 359.337,0 Z" /></g><g
       transform="translate(206.9625,720)"
       id="g26"><path
         id="path28"
         style="fill:#ffffff;fill-opacity:1;fill-rule:nonzero;stroke:none"
         d="M 0,0 -206.962,-206.963 V -490.118 L 22.919,-720 h 262.586 l 227.533,227.532 v 287.855 L 308.425,0 Z" /></g><g
       transform="translate(232.4178,720)"
       id="g30"><path
         id="path32"
         style="fill:#005284;fill-opacity:1;fill-rule:nonzero;stroke:none"
         d="M 0,0 -232.418,-232.418 V -464.663 L 22.919,-720 h 211.676 l 252.987,252.987 v 236.945 L 257.514,0 Z" /></g><g
       transform="translate(245.1458,720)"
       id="g34"><path
         id="path36"
         style="fill:#ffffff;fill-opacity:1;fill-rule:nonzero;stroke:none"
         d="M 0,0 -245.146,-245.146 V -451.934 L 22.919,-720 h 186.219 l 265.716,265.716 v 211.487 L 232.058,0 Z" /></g><g
       transform="translate(264.8583,720)"
       id="g38"><path
         id="path40"
         style="fill:#005284;fill-opacity:1;fill-rule:nonzero;stroke:none"
         d="M 0,0 -264.858,-264.858 V -437.459 L 17.682,-720 h 153.272 l 284.188,284.188 v 169.308 L 188.638,0 Z" /></g><g
       transform="translate(290.3146,720)"
       id="g42"><path
         id="path44"
         style="fill:#ffffff;fill-opacity:1;fill-rule:nonzero;stroke:none"
         d="M 0,0 -290.315,-290.314 V -412.003 L 17.682,-720 h 102.359 l 309.644,309.643 V -291.96 L 137.725,0 Z" /></g><g
       transform="translate(588.6475,393.8486)"
       id="g46"><path
         id="path48"
         style="fill:#005284;fill-opacity:1;fill-rule:nonzero;stroke:none"
         d="m 0,0 11.313,-11.314 -52.682,-52.682 -34.827,34.826 26.99,26.988 13.494,-13.494 -11.314,-11.313 -2.18,2.18 -4.362,-4.361 12.199,-12.199 z" /></g><g
       transform="translate(359.1768,536.2676)"
       id="g50"><path
         id="path52"
         style="fill:#005284;fill-opacity:1;fill-rule:nonzero;stroke:none"
         d="m 0,0 h 34.25 l 54.025,-54.025 -47.025,-47.026 44.964,-44.964 31.349,31.351 31.351,-31.351 31.351,31.351 44.136,-44.138 -9.899,-9.899 -34.237,34.238 -31.351,-31.35 -31.351,31.35 -31.349,-31.35 -64.763,64.762 47.026,47.026 L 28.451,-14 H 0 Z" /></g><g
       transform="translate(324.9268,536.2676)"
       id="g54"><path
         id="path56"
         style="fill:#005284;fill-opacity:1;fill-rule:nonzero;stroke:none"
         d="M 0,0 H 34.25 V -14 H 5.799 l -40.026,-40.025 47.026,-47.026 -64.762,-64.762 -31.35,31.35 -31.351,-31.35 -31.35,31.35 -34.238,-34.238 -9.9,9.899 44.138,44.138 31.35,-31.351 31.351,31.351 31.35,-31.351 44.963,44.964 -47.025,47.026 z" /></g><g
       transform="translate(359.1768,516.6328)"
       id="g58"><path
         id="path60"
         style="fill:#005284;fill-opacity:1;fill-rule:nonzero;stroke:none"
         d="M 0,0 H 21.71 L 56.925,-35.216 23.76,-68.381 13.86,-58.48 37.126,-35.216 15.911,-14 H 0 Z" /></g><g
       transform="translate(337.4668,516.6328)"
       id="g62"><path
         id="path64"
         style="fill:#005284;fill-opacity:1;fill-rule:nonzero;stroke:none"
         d="M 0,0 H 21.71 V -14 H 5.799 L -15.416,-35.216 7.85,-58.48 l -9.901,-9.901 -33.164,33.165 z" /></g><g
       transform="translate(414.0791,391.707)"
       id="g66"><path
         id="path68"
         style="fill:#005284;fill-opacity:1;fill-rule:nonzero;stroke:none"
         d="M 0,0 61.907,-62.778 94.028,-31.525 141.19,-77.699 129.997,-89.132 93.993,-53.883 61.674,-85.329 -0.079,-22.707 -5.271,-27.899 9.754,-42.925 -1.56,-54.238 -27.899,-27.899 Z" /></g><g
       transform="translate(476.7402,390.2529)"
       id="g70"><path
         id="path72"
         style="fill:#005284;fill-opacity:1;fill-rule:nonzero;stroke:none"
         d="M 0,0 25.574,-25.574 4.949,-46.199 -4.95,-36.3 5.775,-25.574 0,-19.799 l -76.314,-76.313 44.219,-44.22 -46.667,-46.218 h -38.801 v 14 h 33.042 l 32.58,32.266 -44.172,44.172 z" /></g><g
       transform="translate(241.6133,390.2529)"
       id="g74"><path
         id="path76"
         style="fill:#005284;fill-opacity:1;fill-rule:nonzero;stroke:none"
         d="M 0,0 96.112,-96.112 52.146,-140.079 84.75,-172.55 h 32.813 v -14 H 78.969 L 32.325,-140.1 76.313,-96.112 0,-19.799 -5.775,-25.574 4.95,-36.3 l -9.9,-9.899 -20.624,20.625 z" /></g><g
       transform="translate(382.6006,284.1953)"
       id="g78"><path
         id="path80"
         style="fill:#005284;fill-opacity:1;fill-rule:nonzero;stroke:none"
         d="M 0,0 33.592,-33.592 2.914,-63.173 h -26.338 v 14 h 20.688 l 16.347,15.764 -23.51,23.51 z" /></g><g
       transform="translate(335.752,284.1953)"
       id="g82"><path
         id="path84"
         style="fill:#005284;fill-opacity:1;fill-rule:nonzero;stroke:none"
         d="m 0,0 9.9,-9.899 -23.51,-23.51 16.347,-15.764 h 20.688 v -14 H -2.913 l -30.678,29.582 z" /></g><g
       transform="translate(129.707,393.8486)"
       id="g86"><path
         id="path88"
         style="fill:#005284;fill-opacity:1;fill-rule:nonzero;stroke:none"
         d="m 0,0 41.368,-41.369 12.199,12.199 -4.361,4.361 -2.182,-2.181 -11.312,11.314 13.494,13.494 26.988,-26.988 -34.826,-34.826 -52.682,52.682 z" /></g><g
       transform="translate(304.2734,391.707)"
       id="g90"><path
         id="path92"
         style="fill:#005284;fill-opacity:1;fill-rule:nonzero;stroke:none"
         d="m 0,0 27.899,-27.899 -26.337,-26.339 -11.315,11.313 15.025,15.026 -5.192,5.192 -61.752,-62.622 -32.321,31.447 -36.003,-35.249 -11.193,11.433 47.161,46.173 32.122,-31.253 z" /></g><g
       transform="translate(241.6133,391.667)"
       id="g94"><path
         id="path96"
         style="fill:#005284;fill-opacity:1;fill-rule:nonzero;stroke:none"
         d="M 0,0 37.008,-37.007 25.693,-48.32 0,-22.627 -4.361,-26.988 5.657,-37.007 -5.657,-48.32 -26.988,-26.988 Z" /></g><g
       transform="translate(379.2256,563.7842)"
       id="g98"><path
         id="path100"
         style="fill:#005284;fill-opacity:1;fill-rule:nonzero;stroke:none"
         d="M 0,0 -20.049,20.049 -40.098,0 -37.441,-5.312 H -2.656 Z M -20.049,42.676 19.468,3.16 7.232,-21.312 H -47.33 L -59.566,3.16 Z" /></g><g
       transform="translate(376.5693,182.7725)"
       id="g102"><path
         id="path104"
         style="fill:#005284;fill-opacity:1;fill-rule:nonzero;stroke:none"
         d="m 0,0 h -34.785 l -2.656,-5.312 20.048,-20.049 20.049,20.049 z M -44.674,16 H 9.889 L 22.124,-8.472 -17.393,-47.988 -56.91,-8.472 Z" /></g><g
       transform="translate(508.0898,333.3213)"
       id="g106"><path
         id="path108"
         style="fill:#005284;fill-opacity:1;fill-rule:nonzero;stroke:none"
         d="m 0,0 24.639,-24.638 -137.155,-137.153 -11.313,11.313 125.84,125.84 -2.011,2.01 -32.221,-32.221 -31.35,31.351 -37.014,-37.015 -11.313,11.314 48.327,48.328 31.35,-31.351 z" /></g><g
       transform="translate(209.6533,333.3213)"
       id="g110"><path
         id="path112"
         style="fill:#005284;fill-opacity:1;fill-rule:nonzero;stroke:none"
         d="M 0,0 32.222,-32.221 63.571,-0.87 111.899,-49.199 100.585,-60.513 63.571,-23.498 32.222,-54.848 0,-22.627 -2.011,-24.638 123.83,-150.478 112.516,-161.791 -24.638,-24.638 Z" /></g><g
       transform="translate(397.0107,568.7617)"
       id="g114"><path
         id="path116"
         style="fill:#005284;fill-opacity:1;fill-rule:nonzero;stroke:none"
         d="m 0,0 142.222,-142.223 -29.951,-29.952 -33.035,33.035 -31.824,-30.779 -47.266,47.266 11.313,11.314 36.141,-36.14 31.824,30.779 32.847,-32.848 7.324,7.325 -130.908,130.909 z" /></g><g
       transform="translate(321.2988,568.7617)"
       id="g118"><path
         id="path120"
         style="fill:#005284;fill-opacity:1;fill-rule:nonzero;stroke:none"
         d="m 0,0 11.314,-11.314 -130.909,-130.909 7.324,-7.325 32.847,32.848 31.824,-30.779 36.14,36.14 11.314,-11.314 -47.266,-47.266 -31.824,30.779 -33.035,-33.035 -29.951,29.952 z" /></g><g
       transform="translate(386.2842,392.4336)"
       id="g122"><path
         id="path124"
         style="fill:#005284;fill-opacity:1;fill-rule:nonzero;stroke:none"
         d="M 0,0 8.485,-8.484 -10.785,-27.755 8.485,-47.024 0,-55.51 -27.755,-27.755 Z" /></g><g
       transform="translate(332.0684,392.4336)"
       id="g126"><path
         id="path128"
         style="fill:#005284;fill-opacity:1;fill-rule:nonzero;stroke:none"
         d="M 0,0 27.756,-27.755 0,-55.51 l -8.484,8.486 19.269,19.269 -19.269,19.271 z" /></g><g
       transform="translate(359.1768,357.4893)"
       id="g130"><path
         id="path132"
         style="fill:#005284;fill-opacity:1;fill-rule:nonzero;stroke:none"
         d="M 0,0 27.755,-27.756 19.27,-36.241 0,-16.971 l -19.271,-19.27 -8.484,8.485 z" /></g><g
       transform="translate(359.1768,338.3311)"
       id="g134"><path
         id="path136"
         style="fill:#005284;fill-opacity:1;fill-rule:nonzero;stroke:none"
         d="M 0,0 27.755,-27.756 19.27,-36.241 0,-16.971 l -19.271,-19.27 -8.484,8.485 z" /></g><g
       transform="translate(359.1768,318.3018)"
       id="g138"><path
         id="path140"
         style="fill:#005284;fill-opacity:1;fill-rule:nonzero;stroke:none"
         d="M 0,0 19.918,-19.918 11.433,-28.403 0,-16.971 l -11.432,-11.432 -8.486,8.485 z" /></g><g
       transform="translate(339.9062,408.1084)"
       id="g142"><path
         id="path144"
         style="fill:#005284;fill-opacity:1;fill-rule:nonzero;stroke:none"
         d="M 0,0 19.271,-19.27 38.541,0 47.026,-8.484 19.271,-36.24 -8.484,-8.484 Z" /></g><g
       transform="translate(339.9062,427.2676)"
       id="g146"><path
         id="path148"
         style="fill:#005284;fill-opacity:1;fill-rule:nonzero;stroke:none"
         d="M 0,0 19.271,-19.27 38.541,0 47.026,-8.484 19.271,-36.24 -8.484,-8.484 Z" /></g><g
       transform="translate(370.6094,439.46)"
       id="g150"><path
         id="path152"
         style="fill:#005284;fill-opacity:1;fill-rule:nonzero;stroke:none"
         d="m 0,0 8.485,-8.486 -19.918,-19.917 -19.917,19.918 8.485,8.484 11.432,-11.432 z" /></g><g
       transform="translate(421.1084,473.2588)"
       id="g154"><path
         id="path156"
         style="fill:#005284;fill-opacity:1;fill-rule:nonzero;stroke:none"
         d="M 0,0 25.851,-25.85 45.662,-6.509 55.442,-16.526 25.732,-45.531 -9.899,-9.9 Z" /></g><g
       transform="translate(442.0459,486.7354)"
       id="g158"><path
         id="path160"
         style="fill:#005284;fill-opacity:1;fill-rule:nonzero;stroke:none"
         d="m 0,0 19.211,-19.21 -15.866,-15.867 -19.211,19.211 7.071,7.07 12.14,-12.139 1.724,1.725 -12.14,12.14 z" /></g><g
       transform="translate(276.3076,486.7354)"
       id="g162"><path
         id="path164"
         style="fill:#005284;fill-opacity:1;fill-rule:nonzero;stroke:none"
         d="m 0,0 7.07,-7.07 -12.138,-12.14 1.724,-1.725 12.14,12.139 7.07,-7.07 -19.21,-19.211 -15.867,15.867 z" /></g><g
       transform="translate(297.3906,473.2588)"
       id="g166"><path
         id="path168"
         style="fill:#005284;fill-opacity:1;fill-rule:nonzero;stroke:none"
         d="m 0,0 9.898,-9.9 -35.631,-35.63 -29.709,29.004 9.779,10.017 19.812,-19.342 z" /></g><g
       transform="translate(443.9619,305.7227)"
       id="g170"><path
         id="path172"
         style="fill:#005284;fill-opacity:1;fill-rule:nonzero;stroke:none"
         d="m 0,0 27.696,-27.039 -9.78,-10.018 -17.798,17.376 -23.349,-23.349 -9.9,9.899 z" /></g><g
       transform="translate(442.3418,280.7461)"
       id="g174"><path
         id="path176"
         style="fill:#005284;fill-opacity:1;fill-rule:nonzero;stroke:none"
         d="m 0,0 15.867,-15.866 -19.211,-19.211 -7.071,7.071 12.14,12.14 -1.725,1.724 -12.14,-12.139 -7.071,7.071 z" /></g><g
       transform="translate(276.0986,280.7471)"
       id="g178"><path
         id="path180"
         style="fill:#005284;fill-opacity:1;fill-rule:nonzero;stroke:none"
         d="M 0,0 19.21,-19.21 12.14,-26.281 0,-14.142 l -1.725,-1.724 12.14,-12.14 -7.07,-7.071 -19.212,19.211 z" /></g><g
       transform="translate(273.999,305.7227)"
       id="g182"><path
         id="path184"
         style="fill:#005284;fill-opacity:1;fill-rule:nonzero;stroke:none"
         d="m 0,0 33.131,-33.131 -9.901,-9.899 -23.349,23.349 -17.798,-17.375 -9.779,10.018 z" /></g><g
       transform="translate(359.1763,298.6201)"
       id="g186"><path
         id="path188"
         style="fill:#005284;fill-opacity:1;fill-rule:nonzero;stroke:none"
         d="m 0,0 18.666,-18.665 h -37.33 z" /></g><g
       transform="translate(340.3359,449.9248)"
       id="g190"><path
         id="path192"
         style="fill:#005284;fill-opacity:1;fill-rule:nonzero;stroke:none"
         d="M 0,0 H 37.333 L 18.667,-18.664 Z" /></g><path
       id="path194"
       style="fill:#005284;fill-opacity:1;fill-rule:nonzero;stroke:none"
       d="m 353.177,262.791 h 12 v -15.676 h -12 z" /><path
       id="path196"
       style="fill:#005284;fill-opacity:1;fill-rule:nonzero;stroke:none"
       d="m 353.177,482.242 h 12 v -15.675 h -12 z" /><g
       transform="translate(599.2881,371.7246)"
       id="g198"><path
         id="path200"
         style="fill:#005284;fill-opacity:1;fill-rule:nonzero;stroke:none"
         d="M 0,0 -240.111,240.11 -480.222,0 -240.111,-240.11 Z M -240.111,259.909 19.799,0 -240.111,-259.909 -500.021,0 Z" /></g><g
       transform="translate(622.8008,371.7246)"
       id="g202"><path
         id="path204"
         style="fill:#005284;fill-opacity:1;fill-rule:nonzero;stroke:none"
         d="M 0,0 -263.624,263.623 -527.247,0 -263.624,-263.623 Z M -263.624,283.422 19.799,0 -263.624,-283.422 -547.046,0 Z" /></g><g
       transform="translate(628.3008,324.1309)"
       id="g206"><path
         id="path208"
         style="fill:#005284;fill-opacity:1;fill-rule:nonzero;stroke:none"
         d="m 0,0 8.485,-8.485 -18.386,-18.387 41.487,-41.487 -38.657,-38.659 -19.801,19.8 18.858,18.859 -21.687,21.687 -18.387,-18.387 -8.485,8.486 26.872,26.872 38.658,-38.658 -18.858,-18.859 2.83,-2.829 21.686,21.688 -41.487,41.487 z" /></g><g
       transform="translate(575.499,271.3291)"
       id="g210"><path
         id="path212"
         style="fill:#005284;fill-opacity:1;fill-rule:nonzero;stroke:none"
         d="m 0,0 8.485,-8.485 -18.386,-18.388 41.487,-41.487 -38.658,-38.659 -19.8,19.801 18.857,18.858 -21.687,21.687 -18.387,-18.387 -8.485,8.486 26.872,26.872 38.658,-38.658 -18.857,-18.858 2.829,-2.83 21.687,21.688 -41.487,41.487 z" /></g><g
       transform="translate(518.9248,214.7549)"
       id="g214"><path
         id="path216"
         style="fill:#005284;fill-opacity:1;fill-rule:nonzero;stroke:none"
         d="m 0,0 8.485,-8.485 -18.386,-18.387 41.487,-41.488 -38.658,-38.659 -19.8,19.801 18.857,18.858 -21.687,21.687 -18.387,-18.387 -8.485,8.486 26.872,26.872 38.658,-38.658 -18.857,-18.858 2.829,-2.83 21.687,21.688 -41.487,41.488 z" /></g><g
       transform="translate(466.1221,161.9521)"
       id="g218"><path
         id="path220"
         style="fill:#005284;fill-opacity:1;fill-rule:nonzero;stroke:none"
         d="m 0,0 8.485,-8.485 -18.386,-18.387 41.487,-41.487 -38.657,-38.659 -19.801,19.8 18.858,18.859 -21.687,21.687 -18.387,-18.387 -8.485,8.486 26.872,26.872 38.658,-38.658 -18.858,-18.859 2.83,-2.829 21.686,21.688 -41.487,41.487 z" /></g><g
       transform="translate(382.6755,78.507)"
       id="g222"><path
         id="path224"
         style="fill:#005284;fill-opacity:1;fill-rule:nonzero;stroke:none"
         d="m 0,0 41.488,-41.488 -21.687,-21.687 -2.83,2.829 18.858,18.858 -38.658,38.657 -26.871,-26.872 8.484,-8.485 18.387,18.387 L 18.859,-41.487 0,-60.346 18.162,-78.507 H 21.44 L 58.46,-41.488 16.971,0 35.358,18.387 26.873,26.872 Z" /></g><g
       transform="translate(674.6836,370.5127)"
       id="g226"><path
         id="path228"
         style="fill:#005284;fill-opacity:1;fill-rule:nonzero;stroke:none"
         d="m 0,0 8.484,-8.485 -10.08,-10.08 41.488,-41.488 -38.659,-38.658 -19.799,19.8 18.857,18.858 -21.687,21.687 -18.387,-18.387 -8.486,8.485 26.873,26.872 38.658,-38.657 -18.858,-18.858 2.829,-2.829 21.688,21.687 -41.487,41.488 z" /></g><g
       transform="translate(88.0918,324.1318)"
       id="g230"><path
         id="path232"
         style="fill:#005284;fill-opacity:1;fill-rule:nonzero;stroke:none"
         d="M 0,0 26.873,-26.872 -14.614,-68.36 7.073,-90.048 9.902,-87.218 -8.955,-68.36 29.703,-29.702 56.575,-56.574 48.089,-65.06 29.703,-46.673 8.016,-68.36 26.873,-87.218 7.073,-107.019 -31.585,-68.36 9.902,-26.872 -8.484,-8.485 Z" /></g><g
       transform="translate(140.8945,271.3291)"
       id="g234"><path
         id="path236"
         style="fill:#005284;fill-opacity:1;fill-rule:nonzero;stroke:none"
         d="m 0,0 26.873,-26.872 -41.487,-41.487 21.686,-21.688 2.83,2.829 -18.858,18.859 38.658,38.658 26.872,-26.873 -8.484,-8.486 -18.388,18.388 -21.687,-21.687 18.858,-18.859 -19.801,-19.8 -38.657,38.659 41.487,41.487 -18.386,18.387 z" /></g><g
       transform="translate(197.4687,214.7549)"
       id="g238"><path
         id="path240"
         style="fill:#005284;fill-opacity:1;fill-rule:nonzero;stroke:none"
         d="m 0,0 26.873,-26.872 -41.488,-41.487 21.687,-21.688 2.83,2.829 -18.858,18.859 38.658,38.658 26.872,-26.872 -8.484,-8.486 -18.388,18.387 -21.687,-21.687 18.858,-18.859 -19.801,-19.8 -38.658,38.659 41.488,41.487 -18.386,18.387 z" /></g><g
       transform="translate(250.2705,161.9531)"
       id="g242"><path
         id="path244"
         style="fill:#005284;fill-opacity:1;fill-rule:nonzero;stroke:none"
         d="M 0,0 26.873,-26.872 -14.614,-68.36 7.073,-90.048 9.902,-87.218 -8.955,-68.36 29.703,-29.702 56.575,-56.574 48.089,-65.06 29.703,-46.673 8.016,-68.36 26.873,-87.218 7.073,-107.019 -31.585,-68.36 9.902,-26.872 -8.484,-8.485 Z" /></g><g
       transform="translate(298.3599,96.894)"
       id="g246"><path
         id="path248"
         style="fill:#005284;fill-opacity:1;fill-rule:nonzero;stroke:none"
         d="M 0,0 18.387,-18.387 -23.1,-59.874 13.919,-96.894 h 3.278 l 18.161,18.161 -18.858,18.859 21.687,21.686 21.388,-21.387 8.484,8.486 -29.872,29.872 -38.659,-38.657 18.859,-18.859 -2.829,-2.829 -21.687,21.688 41.487,41.487 L 8.485,8.485 Z" /></g><g
       transform="translate(36.7119,374.2842)"
       id="g250"><path
         id="path252"
         style="fill:#005284;fill-opacity:1;fill-rule:nonzero;stroke:none"
         d="m 0,0 23.706,-22.194 -41.629,-41.63 21.688,-21.688 2.829,2.829 -18.858,18.859 38.659,38.658 26.872,-26.872 -8.485,-8.485 L 26.395,-42.137 4.707,-63.824 23.564,-82.683 3.765,-102.482 -34.894,-63.824 6.452,-22.479 -8.201,-8.76 Z" /></g><g
       transform="translate(621.2295,517.4297)"
       id="g254"><path
         id="path256"
         style="fill:#005284;fill-opacity:1;fill-rule:nonzero;stroke:none"
         d="M 0,0 38.658,-38.658 -2.829,-80.146 15.558,-98.532 7.072,-107.019 -19.8,-80.146 21.687,-38.658 0,-16.971 l -2.829,-2.83 18.857,-18.857 -38.658,-38.658 -26.872,26.871 8.485,8.486 18.387,-18.387 21.688,21.688 -18.858,18.857 z" /></g><g
       transform="translate(568.4268,570.2314)"
       id="g258"><path
         id="path260"
         style="fill:#005284;fill-opacity:1;fill-rule:nonzero;stroke:none"
         d="M 0,0 38.658,-38.658 -2.829,-80.146 15.558,-98.533 7.072,-107.018 -19.8,-80.146 21.687,-38.658 0,-16.971 -2.829,-19.8 l 18.858,-18.858 -38.658,-38.658 -26.872,26.873 8.485,8.484 18.387,-18.387 21.688,21.688 L -19.8,-19.8 Z" /></g><g
       transform="translate(511.8535,626.8057)"
       id="g262"><path
         id="path264"
         style="fill:#005284;fill-opacity:1;fill-rule:nonzero;stroke:none"
         d="M 0,0 38.658,-38.658 -2.83,-80.146 15.558,-98.533 7.072,-107.018 -19.801,-80.146 21.687,-38.658 0,-16.971 -2.83,-19.8 16.028,-38.658 -22.63,-77.316 l -26.872,26.873 8.485,8.484 18.387,-18.387 21.688,21.688 -18.859,18.858 z" /></g><g
       transform="translate(459.0508,679.6084)"
       id="g266"><path
         id="path268"
         style="fill:#005284;fill-opacity:1;fill-rule:nonzero;stroke:none"
         d="M 0,0 38.658,-38.658 -2.829,-80.146 15.558,-98.532 7.072,-107.019 -19.8,-80.146 21.687,-38.658 0,-16.971 l -2.829,-2.83 18.857,-18.857 -38.658,-38.658 -26.872,26.871 8.485,8.486 18.387,-18.387 21.688,21.688 -18.858,18.857 z" /></g><g
       transform="translate(386.2944,720)"
       id="g270"><path
         id="path272"
         style="fill:#005284;fill-opacity:1;fill-rule:nonzero;stroke:none"
         d="m 0,0 -3.618,-3.618 18.858,-18.859 -21.687,-21.686 -18.387,18.387 -8.485,-8.487 26.872,-26.87 38.657,38.656 -18.857,18.859 2.829,2.829 21.687,-21.688 -41.487,-41.487 26.872,-26.872 8.485,8.484 -18.386,18.388 41.488,41.487 L 32.364,0 Z" /></g><g
       transform="translate(675.918,462.7412)"
       id="g274"><path
         id="path276"
         style="fill:#005284;fill-opacity:1;fill-rule:nonzero;stroke:none"
         d="M 0,0 38.658,-38.658 -2.83,-80.146 12.073,-95.049 3.588,-103.535 -19.801,-80.146 21.687,-38.658 0,-16.971 -2.83,-19.8 16.028,-38.658 -22.63,-77.316 l -26.872,26.873 8.485,8.484 18.387,-18.387 21.688,21.688 -18.859,18.858 z" /></g><g
       transform="translate(95.165,517.4297)"
       id="g278"><path
         id="path280"
         style="fill:#005284;fill-opacity:1;fill-rule:nonzero;stroke:none"
         d="M 0,0 19.8,-19.801 0.942,-38.658 22.63,-60.346 41.017,-41.96 49.501,-50.444 22.63,-77.316 -16.028,-38.658 2.829,-19.801 0,-16.971 -21.687,-38.658 19.8,-80.146 l -26.873,-26.873 -8.485,8.487 18.387,18.386 -41.487,41.488 z" /></g><g
       transform="translate(147.9668,570.2314)"
       id="g282"><path
         id="path284"
         style="fill:#005284;fill-opacity:1;fill-rule:nonzero;stroke:none"
         d="M 0,0 19.801,-19.8 0.942,-38.658 22.63,-60.346 41.018,-41.959 49.502,-50.443 22.63,-77.316 -16.028,-38.658 2.83,-19.8 0,-16.971 l -21.687,-21.687 41.488,-41.488 -26.873,-26.872 -8.485,8.485 18.387,18.387 -41.487,41.488 z" /></g><g
       transform="translate(204.541,626.8057)"
       id="g286"><path
         id="path288"
         style="fill:#005284;fill-opacity:1;fill-rule:nonzero;stroke:none"
         d="M 0,0 19.801,-19.8 0.942,-38.658 22.63,-60.346 41.018,-41.959 49.502,-50.443 22.63,-77.316 -16.028,-38.658 2.83,-19.8 0,-16.971 l -21.687,-21.687 41.488,-41.488 -26.873,-26.872 -8.485,8.485 18.387,18.387 -41.488,41.488 z" /></g><g
       transform="translate(257.3437,679.6084)"
       id="g290"><path
         id="path292"
         style="fill:#005284;fill-opacity:1;fill-rule:nonzero;stroke:none"
         d="M 0,0 19.8,-19.801 0.942,-38.658 22.63,-60.346 41.017,-41.96 49.501,-50.444 22.63,-77.316 -16.028,-38.658 2.829,-19.801 0,-16.971 -21.687,-38.658 19.8,-80.146 l -26.873,-26.873 -8.485,8.487 18.387,18.386 -41.487,41.488 z" /></g><g
       transform="translate(297.7362,720)"
       id="g294"><path
         id="path296"
         style="fill:#005284;fill-opacity:1;fill-rule:nonzero;stroke:none"
         d="M 0,0 -22.477,-22.477 19.011,-63.964 0.624,-82.352 9.109,-90.836 35.982,-63.964 -5.505,-22.477 16.182,-0.789 19.011,-3.618 0.152,-22.477 38.811,-61.133 68.684,-31.262 60.198,-22.776 38.811,-44.163 17.123,-22.477 35.982,-3.618 32.364,0 Z" /></g><g
       transform="translate(40.4766,462.7412)"
       id="g298"><path
         id="path300"
         style="fill:#005284;fill-opacity:1;fill-rule:nonzero;stroke:none"
         d="M 0,0 19.8,-19.8 0.942,-38.658 22.63,-60.346 41.018,-41.959 49.502,-50.443 22.63,-77.316 -16.028,-38.658 2.829,-19.8 0,-16.971 -21.687,-38.658 19.8,-80.146 l -20.178,-20.178 -8.486,8.485 11.693,11.693 -41.487,41.488 z" /></g><g
       transform="translate(676.0656,366.5808)"
       id="g302"><path
         id="path304"
         style="fill:#005284;fill-opacity:1;fill-rule:nonzero;stroke:none"
         d="m 0,0 41.737,-41.738 2.197,2.197 V -22.57 L 41.737,-24.767 16.97,0 41.738,24.766 43.934,22.57 v 16.971 l -2.196,2.196 z" /></g><g
       transform="translate(700.1343,367.9254)"
       id="g306"><path
         id="path308"
         style="fill:#005284;fill-opacity:1;fill-rule:nonzero;stroke:none"
         d="m 0,0 19.57,-19.57 0.296,0.297 V -2.302 L 19.57,-2.598 16.971,0 19.57,2.598 19.866,2.303 v 16.97 l -0.296,0.296 z" /></g><g
       transform="translate(0,388.0944)"
       id="g310"><path
         id="path312"
         style="fill:#005284;fill-opacity:1;fill-rule:nonzero;stroke:none"
         d="M 0,0 21.514,-21.514 0,-43.027 V -59.998 L 38.484,-21.514 0,16.97 Z" /></g><g
       transform="translate(0,369.1724)"
       id="g314"><path
         id="path316"
         style="fill:#005284;fill-opacity:1;fill-rule:nonzero;stroke:none"
         d="M 0,0 1.247,-1.247 0,-2.494 v -16.97 L 18.218,-1.247 0,16.97 Z" /></g><g
       transform="translate(708.3261,565.0524)"
       id="g318"><path
         id="path320"
         style="fill:#005284;fill-opacity:1;fill-rule:nonzero;stroke:none"
         d="m 0,0 8.485,-8.484 3.189,3.188 v 16.97 z" /></g><g
       transform="translate(685.4967,587.8809)"
       id="g322"><path
         id="path324"
         style="fill:#005284;fill-opacity:1;fill-rule:nonzero;stroke:none"
         d="m 0,0 8.486,-8.484 26.017,26.017 v 16.97 z" /></g><g
       transform="translate(709.8652,657.9077)"
       id="g326"><path
         id="path328"
         style="fill:#005284;fill-opacity:1;fill-rule:nonzero;stroke:none"
         d="m 0,0 8.485,-8.484 -47.197,-47.198 -8.485,8.485 z" /></g><g
       transform="translate(687.0361,680.7368)"
       id="g330"><path
         id="path332"
         style="fill:#005284;fill-opacity:1;fill-rule:nonzero;stroke:none"
         d="m 0,0 8.485,-8.484 -47.197,-47.198 -8.485,8.485 z" /></g><g
       transform="translate(664.207,703.5649)"
       id="g334"><path
         id="path336"
         style="fill:#005284;fill-opacity:1;fill-rule:nonzero;stroke:none"
         d="m 0,0 8.485,-8.484 -47.197,-47.198 -8.485,8.485 z" /></g><g
       transform="translate(634.985,720)"
       id="g338"><path
         id="path340"
         style="fill:#005284;fill-opacity:1;fill-rule:nonzero;stroke:none"
         d="m 0,0 -40.804,-40.803 8.485,-8.485 L 14.879,-2.091 12.788,0 Z" /></g><g
       transform="translate(589.3266,720)"
       id="g342"><path
         id="path344"
         style="fill:#005284;fill-opacity:1;fill-rule:nonzero;stroke:none"
         d="M 0,0 -17.974,-17.974 -9.489,-26.458 16.97,0 Z" /></g><g
       transform="translate(553.3786,720)"
       id="g346"><path
         id="path348"
         style="fill:#005284;fill-opacity:1;fill-rule:nonzero;stroke:none"
         d="M 0,0 3.63,-3.63 7.26,0 Z" /></g><g
       transform="translate(163.8018,720)"
       id="g350"><path
         id="path352"
         style="fill:#005284;fill-opacity:1;fill-rule:nonzero;stroke:none"
         d="M 0,0 3.63,-3.63 7.259,0 Z" /></g><g
       transform="translate(118.1439,720)"
       id="g354"><path
         id="path356"
         style="fill:#005284;fill-opacity:1;fill-rule:nonzero;stroke:none"
         d="m 0,0 26.458,-26.458 8.484,8.484 L 16.969,0 Z" /></g><g
       transform="translate(76.6665,720)"
       id="g358"><path
         id="path360"
         style="fill:#005284;fill-opacity:1;fill-rule:nonzero;stroke:none"
         d="M 0,0 -2.091,-2.091 45.106,-49.288 53.59,-40.803 12.787,0 Z" /></g><g
       transform="translate(60.231,703.5649)"
       id="g362"><path
         id="path364"
         style="fill:#005284;fill-opacity:1;fill-rule:nonzero;stroke:none"
         d="M 0,0 47.197,-47.197 38.713,-55.682 -8.484,-8.484 Z" /></g><g
       transform="translate(37.4019,680.7368)"
       id="g366"><path
         id="path368"
         style="fill:#005284;fill-opacity:1;fill-rule:nonzero;stroke:none"
         d="M 0,0 47.197,-47.197 38.713,-55.682 -8.484,-8.484 Z" /></g><g
       transform="translate(14.5737,657.9077)"
       id="g370"><path
         id="path372"
         style="fill:#005284;fill-opacity:1;fill-rule:nonzero;stroke:none"
         d="M 0,0 47.197,-47.197 38.713,-55.682 -8.484,-8.484 Z" /></g><g
       transform="translate(0,609.8544)"
       id="g374"><path
         id="path376"
         style="fill:#005284;fill-opacity:1;fill-rule:nonzero;stroke:none"
         d="m 0,0 30.458,-30.458 8.484,8.484 L 0,16.969 Z" /></g><g
       transform="translate(0,564.1965)"
       id="g378"><path
         id="path380"
         style="fill:#005284;fill-opacity:1;fill-rule:nonzero;stroke:none"
         d="M 0,0 7.628,-7.628 16.113,0.856 0,16.969 Z" /></g><g
       transform="translate(708.3261,178.5672)"
       id="g382"><path
         id="path384"
         style="fill:#005284;fill-opacity:1;fill-rule:nonzero;stroke:none"
         d="M 0,0 11.674,-11.674 V 5.297 L 8.485,8.485 Z" /></g><g
       transform="translate(685.4967,155.7387)"
       id="g386"><path
         id="path388"
         style="fill:#005284;fill-opacity:1;fill-rule:nonzero;stroke:none"
         d="m 0,0 34.503,-34.503 v 16.97 L 8.486,8.485 Z" /></g><g
       transform="translate(671.1533,141.3945)"
       id="g390"><path
         id="path392"
         style="fill:#005284;fill-opacity:1;fill-rule:nonzero;stroke:none"
         d="M 0,0 47.197,-47.197 38.712,-55.683 -8.485,-8.485 Z" /></g><g
       transform="translate(648.3242,118.5654)"
       id="g394"><path
         id="path396"
         style="fill:#005284;fill-opacity:1;fill-rule:nonzero;stroke:none"
         d="M 0,0 47.197,-47.197 38.712,-55.683 -8.485,-8.485 Z" /></g><g
       transform="translate(625.4951,95.7363)"
       id="g398"><path
         id="path400"
         style="fill:#005284;fill-opacity:1;fill-rule:nonzero;stroke:none"
         d="M 0,0 47.197,-47.197 38.712,-55.683 -8.485,-8.485 Z" /></g><g
       transform="translate(602.666,72.9072)"
       id="g402"><path
         id="path404"
         style="fill:#005284;fill-opacity:1;fill-rule:nonzero;stroke:none"
         d="M 0,0 47.198,-47.197 38.713,-55.683 -8.485,-8.485 Z" /></g><g
       transform="translate(571.3524,41.5935)"
       id="g406"><path
         id="path408"
         style="fill:#005284;fill-opacity:1;fill-rule:nonzero;stroke:none"
         d="m 0,0 41.594,-41.594 h 11.207 l 2.882,2.882 L 8.485,8.485 Z" /></g><g
       transform="translate(548.523,18.765)"
       id="g410"><path
         id="path412"
         style="fill:#005284;fill-opacity:1;fill-rule:nonzero;stroke:none"
         d="M 0,0 18.765,-18.765 H 35.736 L 8.486,8.485 Z" /></g><g
       transform="translate(529.7589)"
       id="g414"><path
         id="path416"
         style="fill:#005284;fill-opacity:1;fill-rule:nonzero;stroke:none"
         d="M 0,0 H 4.59 L 2.295,2.295 Z" /></g><g
       transform="translate(140.1813)"
       id="g418"><path
         id="path420"
         style="fill:#005284;fill-opacity:1;fill-rule:nonzero;stroke:none"
         d="M 0,0 H 16.97 L 35.735,18.765 27.25,27.25 Z" /></g><g
       transform="translate(97.4052,2.8818)"
       id="g422"><path
         id="path424"
         style="fill:#005284;fill-opacity:1;fill-rule:nonzero;stroke:none"
         d="m 0,0 2.882,-2.882 h 11.206 l 41.593,41.594 -8.484,8.485 z" /></g><g
       transform="translate(121.7729,72.9082)"
       id="g426"><path
         id="path428"
         style="fill:#005284;fill-opacity:1;fill-rule:nonzero;stroke:none"
         d="m 0,0 8.484,-8.485 -47.197,-47.199 -8.484,8.486 z" /></g><g
       transform="translate(98.9438,95.7363)"
       id="g430"><path
         id="path432"
         style="fill:#005284;fill-opacity:1;fill-rule:nonzero;stroke:none"
         d="m 0,0 8.484,-8.485 -47.197,-47.198 -8.484,8.486 z" /></g><g
       transform="translate(76.1147,118.5654)"
       id="g434"><path
         id="path436"
         style="fill:#005284;fill-opacity:1;fill-rule:nonzero;stroke:none"
         d="m 0,0 8.484,-8.485 -47.197,-47.198 -8.484,8.486 z" /></g><g
       transform="translate(53.2866,141.3945)"
       id="g438"><path
         id="path440"
         style="fill:#005284;fill-opacity:1;fill-rule:nonzero;stroke:none"
         d="m 0,0 8.484,-8.485 -47.197,-47.198 -8.484,8.486 z" /></g><g
       transform="translate(0,133.7661)"
       id="g442"><path
         id="path444"
         style="fill:#005284;fill-opacity:1;fill-rule:nonzero;stroke:none"
         d="m 0,0 v -16.969 l 38.942,38.942 -8.484,8.485 z" /></g><g
       transform="translate(0,179.424)"
       id="g446"><path
         id="path448"
         style="fill:#005284;fill-opacity:1;fill-rule:nonzero;stroke:none"
         d="M 0,0 V -16.969 L 16.113,-0.857 7.628,7.628 Z" /></g><g
       transform="translate(183.771)"
       id="g450"><path
         id="path452"
         style="fill:#005284;fill-opacity:1;fill-rule:nonzero;stroke:none"
         d="M 0,0 H 11.014 L 5.507,5.507 Z" /></g></g></svg>