<svg xmlns="http://www.w3.org/2000/svg" viewBox="0 0 960.53 766.87"><title>WY002-01</title><g id="图层_2" data-name="图层 2"><rect x="121.76" y="23.98" width="719.96" height="719.96" style="fill:#121423"/></g><g id="图层_3" data-name="图层 3"><rect x="468.65" y="24.87" width="25" height="719.96" style="fill:#fe2e1b"/><rect x="348.81" y="24.87" width="25" height="719.96" style="fill:#fe2e1b"/><rect x="228.98" y="24.87" width="25" height="719.96" style="fill:#fe2e1b"/><rect x="109.15" y="24.87" width="25" height="719.96" style="fill:#fe2e1b"/><rect x="588.48" y="24.87" width="25" height="719.96" style="fill:#fe2e1b"/><rect x="708.31" y="24.87" width="25" height="719.96" style="fill:#fe2e1b"/><rect x="828.15" y="23.87" width="25" height="719.96" style="fill:#fe2e1b"/></g><g id="图层_5" data-name="图层 5"><rect x="36.8" y="266.65" width="3.19" height="3.23" rx="1.29" ry="1.29" transform="translate(400.22 416.65) rotate(125.5)" style="fill:#cbc6b7"/><rect x="30.37" y="275.66" width="3.19" height="3.23" rx="1.29" ry="1.29" transform="translate(397.41 436.14) rotate(125.5)" style="fill:#cbc6b7"/><rect x="23.95" y="284.68" width="3.19" height="3.23" rx="1.29" ry="1.29" transform="translate(394.6 455.62) rotate(125.5)" style="fill:#cbc6b7"/><rect x="17.53" y="293.7" width="3.19" height="3.23" rx="1.29" ry="1.29" transform="translate(391.79 475.1) rotate(125.5)" style="fill:#cbc6b7"/><rect x="11.1" y="302.71" width="3.19" height="3.23" rx="1.29" ry="1.29" transform="translate(388.98 494.59) rotate(125.5)" style="fill:#cbc6b7"/><rect x="4.68" y="311.73" width="3.19" height="3.23" rx="1.29" ry="1.29" transform="matrix(-0.58, 0.81, -0.81, -0.58, 386.16, 514.07)" style="fill:#cbc6b7"/><rect x="-1.74" y="320.75" width="3.19" height="3.23" rx="1.29" ry="1.29" transform="translate(383.35 533.55) rotate(125.5)" style="fill:#cbc6b7"/><rect x="88.18" y="194.51" width="3.19" height="3.23" rx="1.29" ry="1.29" transform="translate(422.72 260.79) rotate(125.5)" style="fill:#cbc6b7"/><rect x="81.76" y="203.52" width="3.19" height="3.23" rx="1.29" ry="1.29" transform="translate(419.91 280.27) rotate(125.5)" style="fill:#cbc6b7"/><rect x="75.33" y="212.54" width="3.19" height="3.23" rx="1.29" ry="1.29" transform="translate(417.09 299.76) rotate(125.5)" style="fill:#cbc6b7"/><rect x="68.91" y="221.56" width="3.19" height="3.23" rx="1.29" ry="1.29" transform="matrix(-0.58, 0.81, -0.81, -0.58, 414.28, 319.24)" style="fill:#cbc6b7"/><rect x="62.49" y="230.58" width="3.19" height="3.23" rx="1.29" ry="1.29" transform="translate(411.47 338.72) rotate(125.5)" style="fill:#cbc6b7"/><rect x="120.3" y="149.42" width="3.19" height="3.23" rx="1.29" ry="1.29" transform="translate(436.78 163.38) rotate(125.5)" style="fill:#cbc6b7"/><rect x="113.87" y="158.44" width="3.19" height="3.23" rx="1.29" ry="1.29" transform="translate(433.97 182.86) rotate(125.5)" style="fill:#cbc6b7"/><rect x="107.45" y="167.45" width="3.19" height="3.23" rx="1.29" ry="1.29" transform="translate(431.15 202.34) rotate(125.5)" style="fill:#cbc6b7"/><rect x="101.03" y="176.47" width="3.19" height="3.23" rx="1.29" ry="1.29" transform="translate(428.34 221.82) rotate(125.5)" style="fill:#cbc6b7"/><rect x="94.6" y="185.49" width="3.19" height="3.23" rx="1.29" ry="1.29" transform="translate(425.53 241.31) rotate(125.5)" style="fill:#cbc6b7"/><rect x="56.06" y="239.59" width="3.19" height="3.23" rx="1.29" ry="1.29" transform="translate(408.66 358.21) rotate(125.5)" style="fill:#cbc6b7"/><rect x="49.64" y="248.61" width="3.19" height="3.23" rx="1.29" ry="1.29" transform="translate(405.85 377.69) rotate(125.5)" style="fill:#cbc6b7"/><rect x="43.22" y="257.63" width="3.19" height="3.23" rx="1.29" ry="1.29" transform="translate(403.04 397.17) rotate(125.5)" style="fill:#cbc6b7"/><rect x="270.37" y="275.66" width="3.19" height="3.23" rx="1.29" ry="1.29" transform="translate(776.78 240.75) rotate(125.5)" style="fill:#cbc6b7"/><rect x="263.95" y="284.68" width="3.19" height="3.23" rx="1.29" ry="1.29" transform="translate(773.97 260.23) rotate(125.5)" style="fill:#cbc6b7"/><rect x="257.53" y="293.7" width="3.19" height="3.23" rx="1.29" ry="1.29" transform="translate(771.16 279.72) rotate(125.5)" style="fill:#cbc6b7"/><rect x="251.1" y="302.71" width="3.19" height="3.23" rx="1.29" ry="1.29" transform="translate(768.34 299.2) rotate(125.5)" style="fill:#cbc6b7"/><rect x="244.68" y="311.73" width="3.19" height="3.23" rx="1.29" ry="1.29" transform="matrix(-0.58, 0.81, -0.81, -0.58, 765.53, 318.68)" style="fill:#cbc6b7"/><rect x="239.26" y="317.75" width="3.19" height="3.23" rx="1.29" ry="1.29" transform="matrix(-0.56, -0.83, 0.83, -0.56, 231.5, 721.35)" style="fill:#cbc6b7"/><rect x="321.76" y="203.52" width="3.19" height="3.23" rx="1.29" ry="1.29" transform="translate(799.28 84.89) rotate(125.5)" style="fill:#cbc6b7"/><rect x="315.33" y="212.54" width="3.19" height="3.23" rx="1.29" ry="1.29" transform="translate(796.46 104.37) rotate(125.5)" style="fill:#cbc6b7"/><rect x="308.91" y="221.56" width="3.19" height="3.23" rx="1.29" ry="1.29" transform="translate(793.65 123.85) rotate(125.5)" style="fill:#cbc6b7"/><rect x="302.49" y="230.58" width="3.19" height="3.23" rx="1.29" ry="1.29" transform="translate(790.84 143.33) rotate(125.5)" style="fill:#cbc6b7"/><rect x="296.06" y="239.59" width="3.19" height="3.23" rx="1.29" ry="1.29" transform="translate(788.03 162.82) rotate(125.5)" style="fill:#cbc6b7"/><rect x="353.87" y="158.44" width="3.19" height="3.23" rx="1.29" ry="1.29" transform="translate(813.33 -12.53) rotate(125.5)" style="fill:#cbc6b7"/><rect x="347.45" y="167.45" width="3.19" height="3.23" rx="1.29" ry="1.29" transform="translate(810.52 6.95) rotate(125.5)" style="fill:#cbc6b7"/><rect x="341.03" y="176.47" width="3.19" height="3.23" rx="1.29" ry="1.29" transform="translate(807.71 26.44) rotate(125.5)" style="fill:#cbc6b7"/><rect x="334.6" y="185.49" width="3.19" height="3.23" rx="1.29" ry="1.29" transform="translate(804.9 45.92) rotate(125.5)" style="fill:#cbc6b7"/><rect x="328.18" y="194.51" width="3.19" height="3.23" rx="1.29" ry="1.29" transform="translate(802.09 65.4) rotate(125.5)" style="fill:#cbc6b7"/><rect x="289.64" y="248.61" width="3.19" height="3.23" rx="1.29" ry="1.29" transform="translate(785.22 182.3) rotate(125.5)" style="fill:#cbc6b7"/><rect x="283.22" y="257.63" width="3.19" height="3.23" rx="1.29" ry="1.29" transform="translate(782.4 201.78) rotate(125.5)" style="fill:#cbc6b7"/><rect x="276.8" y="266.65" width="3.19" height="3.23" rx="1.29" ry="1.29" transform="translate(779.59 221.27) rotate(125.5)" style="fill:#cbc6b7"/><rect x="156.8" y="203.52" width="3.19" height="3.23" rx="1.29" ry="1.29" transform="translate(204.51 477.08) rotate(-125.5)" style="fill:#cbc6b7"/><rect x="150.37" y="194.51" width="3.19" height="3.23" rx="1.29" ry="1.29" transform="translate(201.7 457.59) rotate(-125.5)" style="fill:#cbc6b7"/><rect x="143.95" y="185.49" width="3.19" height="3.23" rx="1.29" ry="1.29" transform="translate(198.89 438.11) rotate(-125.5)" style="fill:#cbc6b7"/><rect x="137.53" y="176.47" width="3.19" height="3.23" rx="1.29" ry="1.29" transform="translate(196.07 418.63) rotate(-125.5)" style="fill:#cbc6b7"/><rect x="131.1" y="167.45" width="3.19" height="3.23" rx="1.29" ry="1.29" transform="translate(193.26 399.15) rotate(-125.5)" style="fill:#cbc6b7"/><rect x="124.68" y="158.44" width="3.19" height="3.23" rx="1.29" ry="1.29" transform="translate(190.45 379.66) rotate(-125.5)" style="fill:#cbc6b7"/><rect x="208.18" y="275.66" width="3.19" height="3.23" rx="1.29" ry="1.29" transform="translate(227 632.94) rotate(-125.5)" style="fill:#cbc6b7"/><rect x="201.76" y="266.65" width="3.19" height="3.23" rx="1.29" ry="1.29" transform="translate(224.19 613.46) rotate(-125.5)" style="fill:#cbc6b7"/><rect x="195.33" y="257.63" width="3.19" height="3.23" rx="1.29" ry="1.29" transform="translate(221.38 593.98) rotate(-125.5)" style="fill:#cbc6b7"/><rect x="188.91" y="248.61" width="3.19" height="3.23" rx="1.29" ry="1.29" transform="translate(218.57 574.49) rotate(-125.5)" style="fill:#cbc6b7"/><rect x="182.49" y="239.59" width="3.19" height="3.23" rx="1.29" ry="1.29" transform="matrix(-0.58, -0.81, 0.81, -0.58, 215.76, 555.01)" style="fill:#cbc6b7"/><rect x="233.87" y="311.73" width="3.19" height="3.23" rx="1.29" ry="1.29" transform="translate(238.25 710.87) rotate(-125.5)" style="fill:#cbc6b7"/><rect x="227.45" y="302.71" width="3.19" height="3.23" rx="1.29" ry="1.29" transform="translate(235.44 691.39) rotate(-125.5)" style="fill:#cbc6b7"/><rect x="221.03" y="293.7" width="3.19" height="3.23" rx="1.29" ry="1.29" transform="translate(232.63 671.91) rotate(-125.5)" style="fill:#cbc6b7"/><rect x="214.6" y="284.68" width="3.19" height="3.23" rx="1.29" ry="1.29" transform="translate(229.82 652.42) rotate(-125.5)" style="fill:#cbc6b7"/><rect x="176.06" y="230.58" width="3.19" height="3.23" rx="1.29" ry="1.29" transform="translate(212.95 535.53) rotate(-125.5)" style="fill:#cbc6b7"/><rect x="169.64" y="221.56" width="3.19" height="3.23" rx="1.29" ry="1.29" transform="translate(210.13 516.04) rotate(-125.5)" style="fill:#cbc6b7"/><rect x="163.22" y="212.54" width="3.19" height="3.23" rx="1.29" ry="1.29" transform="translate(207.32 496.56) rotate(-125.5)" style="fill:#cbc6b7"/><rect x="514.8" y="266.65" width="3.19" height="3.23" rx="1.29" ry="1.29" transform="translate(1155.8 27.51) rotate(125.5)" style="fill:#cbc6b7"/><rect x="508.37" y="275.66" width="3.19" height="3.23" rx="1.29" ry="1.29" transform="translate(1152.99 46.99) rotate(125.5)" style="fill:#cbc6b7"/><rect x="501.95" y="284.68" width="3.19" height="3.23" rx="1.29" ry="1.29" transform="translate(1150.18 66.47) rotate(125.5)" style="fill:#cbc6b7"/><rect x="495.53" y="293.7" width="3.19" height="3.23" rx="1.29" ry="1.29" transform="translate(1147.36 85.96) rotate(125.5)" style="fill:#cbc6b7"/><rect x="489.1" y="302.71" width="3.19" height="3.23" rx="1.29" ry="1.29" transform="translate(1144.55 105.44) rotate(125.5)" style="fill:#cbc6b7"/><rect x="482.68" y="311.73" width="3.19" height="3.23" rx="1.29" ry="1.29" transform="translate(1141.74 124.92) rotate(125.5)" style="fill:#cbc6b7"/><rect x="479.26" y="318.75" width="3.19" height="3.23" rx="1.29" ry="1.29" transform="translate(1142.04 138.8) rotate(125.5)" style="fill:#cbc6b7"/><rect x="566.18" y="194.51" width="3.19" height="3.23" rx="1.29" ry="1.29" transform="translate(1178.29 -128.36) rotate(125.5)" style="fill:#cbc6b7"/><rect x="559.76" y="203.52" width="3.19" height="3.23" rx="1.29" ry="1.29" transform="translate(1175.48 -108.87) rotate(125.5)" style="fill:#cbc6b7"/><rect x="553.33" y="212.54" width="3.19" height="3.23" rx="1.29" ry="1.29" transform="translate(1172.67 -89.39) rotate(125.5)" style="fill:#cbc6b7"/><rect x="546.91" y="221.56" width="3.19" height="3.23" rx="1.29" ry="1.29" transform="translate(1169.86 -69.91) rotate(125.5)" style="fill:#cbc6b7"/><rect x="540.49" y="230.58" width="3.19" height="3.23" rx="1.29" ry="1.29" transform="translate(1167.05 -50.43) rotate(125.5)" style="fill:#cbc6b7"/><rect x="598.3" y="149.42" width="3.19" height="3.23" rx="1.29" ry="1.29" transform="translate(1192.35 -225.77) rotate(125.5)" style="fill:#cbc6b7"/><rect x="591.87" y="158.44" width="3.19" height="3.23" rx="1.29" ry="1.29" transform="translate(1189.54 -206.29) rotate(125.5)" style="fill:#cbc6b7"/><rect x="585.45" y="167.45" width="3.19" height="3.23" rx="1.29" ry="1.29" transform="translate(1186.73 -186.81) rotate(125.5)" style="fill:#cbc6b7"/><rect x="579.03" y="176.47" width="3.19" height="3.23" rx="1.29" ry="1.29" transform="translate(1183.92 -167.32) rotate(125.5)" style="fill:#cbc6b7"/><rect x="572.6" y="185.49" width="3.19" height="3.23" rx="1.29" ry="1.29" transform="translate(1181.11 -147.84) rotate(125.5)" style="fill:#cbc6b7"/><rect x="534.06" y="239.59" width="3.19" height="3.23" rx="1.29" ry="1.29" transform="translate(1164.23 -30.94) rotate(125.5)" style="fill:#cbc6b7"/><rect x="527.64" y="248.61" width="3.19" height="3.23" rx="1.29" ry="1.29" transform="translate(1161.42 -11.46) rotate(125.5)" style="fill:#cbc6b7"/><rect x="521.22" y="257.63" width="3.19" height="3.23" rx="1.29" ry="1.29" transform="translate(1158.61 8.02) rotate(125.5)" style="fill:#cbc6b7"/><rect x="718.26" y="320.75" width="3.19" height="3.23" rx="1.29" ry="1.29" transform="translate(1521.46 -52.61) rotate(125.5)" style="fill:#cbc6b7"/><rect x="636.8" y="203.52" width="3.19" height="3.23" rx="1.29" ry="1.29" transform="translate(963.25 867.85) rotate(-125.5)" style="fill:#cbc6b7"/><rect x="630.37" y="194.51" width="3.19" height="3.23" rx="1.29" ry="1.29" transform="translate(960.43 848.37) rotate(-125.5)" style="fill:#cbc6b7"/><rect x="623.95" y="185.49" width="3.19" height="3.23" rx="1.29" ry="1.29" transform="matrix(-0.58, -0.81, 0.81, -0.58, 957.62, 828.89)" style="fill:#cbc6b7"/><rect x="617.53" y="176.47" width="3.19" height="3.23" rx="1.29" ry="1.29" transform="translate(954.81 809.4) rotate(-125.5)" style="fill:#cbc6b7"/><rect x="611.1" y="167.45" width="3.19" height="3.23" rx="1.29" ry="1.29" transform="translate(952 789.92) rotate(-125.5)" style="fill:#cbc6b7"/><rect x="604.68" y="158.44" width="3.19" height="3.23" rx="1.29" ry="1.29" transform="translate(949.19 770.44) rotate(-125.5)" style="fill:#cbc6b7"/><rect x="688.18" y="275.66" width="3.19" height="3.23" rx="1.29" ry="1.29" transform="translate(985.74 1023.72) rotate(-125.5)" style="fill:#cbc6b7"/><rect x="681.76" y="266.65" width="3.19" height="3.23" rx="1.29" ry="1.29" transform="translate(982.93 1004.23) rotate(-125.5)" style="fill:#cbc6b7"/><rect x="675.33" y="257.63" width="3.19" height="3.23" rx="1.29" ry="1.29" transform="translate(980.12 984.75) rotate(-125.5)" style="fill:#cbc6b7"/><rect x="668.91" y="248.61" width="3.19" height="3.23" rx="1.29" ry="1.29" transform="translate(977.31 965.27) rotate(-125.5)" style="fill:#cbc6b7"/><rect x="662.49" y="239.59" width="3.19" height="3.23" rx="1.29" ry="1.29" transform="translate(974.49 945.79) rotate(-125.5)" style="fill:#cbc6b7"/><rect x="713.87" y="311.73" width="3.19" height="3.23" rx="1.29" ry="1.29" transform="translate(996.99 1101.65) rotate(-125.5)" style="fill:#cbc6b7"/><rect x="707.45" y="302.71" width="3.19" height="3.23" rx="1.29" ry="1.29" transform="translate(994.18 1082.17) rotate(-125.5)" style="fill:#cbc6b7"/><rect x="701.03" y="293.7" width="3.19" height="3.23" rx="1.29" ry="1.29" transform="translate(991.37 1062.68) rotate(-125.5)" style="fill:#cbc6b7"/><rect x="694.6" y="284.68" width="3.19" height="3.23" rx="1.29" ry="1.29" transform="translate(988.55 1043.2) rotate(-125.5)" style="fill:#cbc6b7"/><rect x="656.06" y="230.58" width="3.19" height="3.23" rx="1.29" ry="1.29" transform="translate(971.68 926.3) rotate(-125.5)" style="fill:#cbc6b7"/><rect x="649.64" y="221.56" width="3.19" height="3.23" rx="1.29" ry="1.29" transform="translate(968.87 906.82) rotate(-125.5)" style="fill:#cbc6b7"/><rect x="643.22" y="212.54" width="3.19" height="3.23" rx="1.29" ry="1.29" transform="matrix(-0.58, -0.81, 0.81, -0.58, 966.06, 887.34)" style="fill:#cbc6b7"/><rect x="360.3" y="149.42" width="3.19" height="3.23" rx="1.29" ry="1.29" transform="translate(816.15 -32.01) rotate(125.5)" style="fill:#cbc6b7"/><rect x="398.8" y="203.52" width="3.19" height="3.23" rx="1.29" ry="1.29" transform="translate(587.04 674.09) rotate(-125.5)" style="fill:#cbc6b7"/><rect x="392.37" y="194.51" width="3.19" height="3.23" rx="1.29" ry="1.29" transform="translate(584.23 654.61) rotate(-125.5)" style="fill:#cbc6b7"/><rect x="385.95" y="185.49" width="3.19" height="3.23" rx="1.29" ry="1.29" transform="translate(581.42 635.13) rotate(-125.5)" style="fill:#cbc6b7"/><rect x="379.53" y="176.47" width="3.19" height="3.23" rx="1.29" ry="1.29" transform="translate(578.6 615.65) rotate(-125.5)" style="fill:#cbc6b7"/><rect x="373.1" y="167.45" width="3.19" height="3.23" rx="1.29" ry="1.29" transform="matrix(-0.58, -0.81, 0.81, -0.58, 575.79, 596.16)" style="fill:#cbc6b7"/><rect x="366.68" y="158.44" width="3.19" height="3.23" rx="1.29" ry="1.29" transform="translate(572.98 576.68) rotate(-125.5)" style="fill:#cbc6b7"/><rect x="450.18" y="275.66" width="3.19" height="3.23" rx="1.29" ry="1.29" transform="translate(609.53 829.96) rotate(-125.5)" style="fill:#cbc6b7"/><rect x="443.76" y="266.65" width="3.19" height="3.23" rx="1.29" ry="1.29" transform="translate(606.72 810.47) rotate(-125.5)" style="fill:#cbc6b7"/><rect x="437.33" y="257.63" width="3.19" height="3.23" rx="1.29" ry="1.29" transform="translate(603.91 790.99) rotate(-125.5)" style="fill:#cbc6b7"/><rect x="430.91" y="248.61" width="3.19" height="3.23" rx="1.29" ry="1.29" transform="translate(601.1 771.51) rotate(-125.5)" style="fill:#cbc6b7"/><rect x="424.49" y="239.59" width="3.19" height="3.23" rx="1.29" ry="1.29" transform="translate(598.29 752.03) rotate(-125.5)" style="fill:#cbc6b7"/><rect x="475.87" y="311.73" width="3.19" height="3.23" rx="1.29" ry="1.29" transform="translate(620.78 907.89) rotate(-125.5)" style="fill:#cbc6b7"/><rect x="469.45" y="302.71" width="3.19" height="3.23" rx="1.29" ry="1.29" transform="translate(617.97 888.41) rotate(-125.5)" style="fill:#cbc6b7"/><rect x="463.03" y="293.7" width="3.19" height="3.23" rx="1.29" ry="1.29" transform="translate(615.16 868.92) rotate(-125.5)" style="fill:#cbc6b7"/><rect x="456.6" y="284.68" width="3.19" height="3.23" rx="1.29" ry="1.29" transform="translate(612.35 849.44) rotate(-125.5)" style="fill:#cbc6b7"/><rect x="418.06" y="230.58" width="3.19" height="3.23" rx="1.29" ry="1.29" transform="translate(595.48 732.54) rotate(-125.5)" style="fill:#cbc6b7"/><rect x="411.64" y="221.56" width="3.19" height="3.23" rx="1.29" ry="1.29" transform="translate(592.66 713.06) rotate(-125.5)" style="fill:#cbc6b7"/><rect x="405.22" y="212.54" width="3.19" height="3.23" rx="1.29" ry="1.29" transform="translate(589.85 693.58) rotate(-125.5)" style="fill:#cbc6b7"/><rect x="36.8" y="450.52" width="3.19" height="3.23" rx="1.29" ry="1.29" transform="translate(-186.26 769.82) rotate(-125.5)" style="fill:#cbc6b7"/><rect x="30.37" y="441.51" width="3.19" height="3.23" rx="1.29" ry="1.29" transform="translate(-189.07 750.33) rotate(-125.5)" style="fill:#cbc6b7"/><rect x="23.95" y="432.49" width="3.19" height="3.23" rx="1.29" ry="1.29" transform="translate(-191.89 730.85) rotate(-125.5)" style="fill:#cbc6b7"/><rect x="17.53" y="423.47" width="3.19" height="3.23" rx="1.29" ry="1.29" transform="translate(-194.7 711.37) rotate(-125.5)" style="fill:#cbc6b7"/><rect x="11.1" y="414.45" width="3.19" height="3.23" rx="1.29" ry="1.29" transform="translate(-197.51 691.89) rotate(-125.5)" style="fill:#cbc6b7"/><rect x="4.68" y="405.44" width="3.19" height="3.23" rx="1.29" ry="1.29" transform="translate(-200.32 672.4) rotate(-125.5)" style="fill:#cbc6b7"/><rect x="-1.74" y="396.42" width="3.19" height="3.23" rx="1.29" ry="1.29" transform="translate(-203.13 652.92) rotate(-125.5)" style="fill:#cbc6b7"/><rect x="88.18" y="522.66" width="3.19" height="3.23" rx="1.29" ry="1.29" transform="translate(-163.77 925.68) rotate(-125.5)" style="fill:#cbc6b7"/><rect x="81.76" y="513.65" width="3.19" height="3.23" rx="1.29" ry="1.29" transform="translate(-166.58 906.2) rotate(-125.5)" style="fill:#cbc6b7"/><rect x="75.33" y="504.63" width="3.19" height="3.23" rx="1.29" ry="1.29" transform="translate(-169.39 886.71) rotate(-125.5)" style="fill:#cbc6b7"/><rect x="68.91" y="495.61" width="3.19" height="3.23" rx="1.29" ry="1.29" transform="translate(-172.2 867.23) rotate(-125.5)" style="fill:#cbc6b7"/><rect x="62.49" y="486.59" width="3.19" height="3.23" rx="1.29" ry="1.29" transform="translate(-175.01 847.75) rotate(-125.5)" style="fill:#cbc6b7"/><rect x="120.3" y="567.75" width="3.19" height="3.23" rx="1.29" ry="1.29" transform="translate(-149.71 1023.1) rotate(-125.5)" style="fill:#cbc6b7"/><rect x="113.87" y="558.73" width="3.19" height="3.23" rx="1.29" ry="1.29" transform="translate(-152.52 1003.61) rotate(-125.5)" style="fill:#cbc6b7"/><rect x="107.45" y="549.71" width="3.19" height="3.23" rx="1.29" ry="1.29" transform="translate(-155.33 984.13) rotate(-125.5)" style="fill:#cbc6b7"/><rect x="101.03" y="540.7" width="3.19" height="3.23" rx="1.29" ry="1.29" transform="translate(-158.14 964.65) rotate(-125.5)" style="fill:#cbc6b7"/><rect x="94.6" y="531.68" width="3.19" height="3.23" rx="1.29" ry="1.29" transform="translate(-160.95 945.16) rotate(-125.5)" style="fill:#cbc6b7"/><rect x="56.06" y="477.58" width="3.19" height="3.23" rx="1.29" ry="1.29" transform="translate(-177.83 828.27) rotate(-125.5)" style="fill:#cbc6b7"/><rect x="49.64" y="468.56" width="3.19" height="3.23" rx="1.29" ry="1.29" transform="translate(-180.64 808.78) rotate(-125.5)" style="fill:#cbc6b7"/><rect x="43.22" y="459.54" width="3.19" height="3.23" rx="1.29" ry="1.29" transform="translate(-183.45 789.3) rotate(-125.5)" style="fill:#cbc6b7"/><rect x="270.37" y="441.51" width="3.19" height="3.23" rx="1.29" ry="1.29" transform="translate(190.3 945.72) rotate(-125.5)" style="fill:#cbc6b7"/><rect x="263.95" y="432.49" width="3.19" height="3.23" rx="1.29" ry="1.29" transform="translate(187.48 926.24) rotate(-125.5)" style="fill:#cbc6b7"/><rect x="257.53" y="423.47" width="3.19" height="3.23" rx="1.29" ry="1.29" transform="translate(184.67 906.76) rotate(-125.5)" style="fill:#cbc6b7"/><rect x="251.1" y="414.45" width="3.19" height="3.23" rx="1.29" ry="1.29" transform="translate(181.86 887.27) rotate(-125.5)" style="fill:#cbc6b7"/><rect x="244.68" y="405.44" width="3.19" height="3.23" rx="1.29" ry="1.29" transform="translate(179.05 867.79) rotate(-125.5)" style="fill:#cbc6b7"/><rect x="239.26" y="399.42" width="3.19" height="3.23" rx="1.29" ry="1.29" transform="translate(829.18 448.97) rotate(123.94)" style="fill:#cbc6b7"/><rect x="321.76" y="513.65" width="3.19" height="3.23" rx="1.29" ry="1.29" transform="translate(212.79 1101.59) rotate(-125.5)" style="fill:#cbc6b7"/><rect x="315.33" y="504.63" width="3.19" height="3.23" rx="1.29" ry="1.29" transform="translate(209.98 1082.1) rotate(-125.5)" style="fill:#cbc6b7"/><rect x="308.91" y="495.61" width="3.19" height="3.23" rx="1.29" ry="1.29" transform="translate(207.17 1062.62) rotate(-125.5)" style="fill:#cbc6b7"/><rect x="302.49" y="486.59" width="3.19" height="3.23" rx="1.29" ry="1.29" transform="translate(204.35 1043.14) rotate(-125.5)" style="fill:#cbc6b7"/><rect x="296.06" y="477.58" width="3.19" height="3.23" rx="1.29" ry="1.29" transform="translate(201.54 1023.65) rotate(-125.5)" style="fill:#cbc6b7"/><rect x="353.87" y="558.73" width="3.19" height="3.23" rx="1.29" ry="1.29" transform="translate(226.85 1199) rotate(-125.5)" style="fill:#cbc6b7"/><rect x="347.45" y="549.71" width="3.19" height="3.23" rx="1.29" ry="1.29" transform="translate(224.04 1179.52) rotate(-125.5)" style="fill:#cbc6b7"/><rect x="341.03" y="540.7" width="3.19" height="3.23" rx="1.29" ry="1.29" transform="translate(221.23 1160.03) rotate(-125.5)" style="fill:#cbc6b7"/><rect x="334.6" y="531.68" width="3.19" height="3.23" rx="1.29" ry="1.29" transform="translate(218.41 1140.55) rotate(-125.5)" style="fill:#cbc6b7"/><rect x="328.18" y="522.66" width="3.19" height="3.23" rx="1.29" ry="1.29" transform="translate(215.6 1121.07) rotate(-125.5)" style="fill:#cbc6b7"/><rect x="289.64" y="468.56" width="3.19" height="3.23" rx="1.29" ry="1.29" transform="translate(198.73 1004.17) rotate(-125.5)" style="fill:#cbc6b7"/><rect x="283.22" y="459.54" width="3.19" height="3.23" rx="1.29" ry="1.29" transform="translate(195.92 984.69) rotate(-125.5)" style="fill:#cbc6b7"/><rect x="276.8" y="450.52" width="3.19" height="3.23" rx="1.29" ry="1.29" transform="translate(193.11 965.21) rotate(-125.5)" style="fill:#cbc6b7"/><rect x="156.8" y="513.65" width="3.19" height="3.23" rx="1.29" ry="1.29" transform="translate(790.99 709.39) rotate(125.5)" style="fill:#cbc6b7"/><rect x="150.37" y="522.66" width="3.19" height="3.23" rx="1.29" ry="1.29" transform="translate(788.18 728.88) rotate(125.5)" style="fill:#cbc6b7"/><rect x="143.95" y="531.68" width="3.19" height="3.23" rx="1.29" ry="1.29" transform="translate(785.37 748.36) rotate(125.5)" style="fill:#cbc6b7"/><rect x="137.53" y="540.7" width="3.19" height="3.23" rx="1.29" ry="1.29" transform="translate(782.56 767.84) rotate(125.5)" style="fill:#cbc6b7"/><rect x="131.1" y="549.71" width="3.19" height="3.23" rx="1.29" ry="1.29" transform="translate(779.75 787.33) rotate(125.5)" style="fill:#cbc6b7"/><rect x="124.68" y="558.73" width="3.19" height="3.23" rx="1.29" ry="1.29" transform="translate(776.94 806.81) rotate(125.5)" style="fill:#cbc6b7"/><rect x="208.18" y="441.51" width="3.19" height="3.23" rx="1.29" ry="1.29" transform="translate(813.49 553.53) rotate(125.5)" style="fill:#cbc6b7"/><rect x="201.76" y="450.52" width="3.19" height="3.23" rx="1.29" ry="1.29" transform="translate(810.68 573.01) rotate(125.5)" style="fill:#cbc6b7"/><rect x="195.33" y="459.54" width="3.19" height="3.23" rx="1.29" ry="1.29" transform="translate(807.87 592.5) rotate(125.5)" style="fill:#cbc6b7"/><rect x="188.91" y="468.56" width="3.19" height="3.23" rx="1.29" ry="1.29" transform="translate(805.05 611.98) rotate(125.5)" style="fill:#cbc6b7"/><rect x="182.49" y="477.58" width="3.19" height="3.23" rx="1.29" ry="1.29" transform="translate(802.24 631.46) rotate(125.5)" style="fill:#cbc6b7"/><rect x="233.87" y="405.44" width="3.19" height="3.23" rx="1.29" ry="1.29" transform="translate(824.74 475.6) rotate(125.5)" style="fill:#cbc6b7"/><rect x="227.45" y="414.45" width="3.19" height="3.23" rx="1.29" ry="1.29" transform="translate(821.93 495.08) rotate(125.5)" style="fill:#cbc6b7"/><rect x="221.03" y="423.47" width="3.19" height="3.23" rx="1.29" ry="1.29" transform="translate(819.11 514.56) rotate(125.5)" style="fill:#cbc6b7"/><rect x="214.6" y="432.49" width="3.19" height="3.23" rx="1.29" ry="1.29" transform="translate(816.3 534.05) rotate(125.5)" style="fill:#cbc6b7"/><rect x="176.06" y="486.59" width="3.19" height="3.23" rx="1.29" ry="1.29" transform="translate(799.43 650.94) rotate(125.5)" style="fill:#cbc6b7"/><rect x="169.64" y="495.61" width="3.19" height="3.23" rx="1.29" ry="1.29" transform="translate(796.62 670.43) rotate(125.5)" style="fill:#cbc6b7"/><rect x="163.22" y="504.63" width="3.19" height="3.23" rx="1.29" ry="1.29" transform="translate(793.81 689.91) rotate(125.5)" style="fill:#cbc6b7"/><rect x="514.8" y="450.52" width="3.19" height="3.23" rx="1.29" ry="1.29" transform="translate(569.31 1158.96) rotate(-125.5)" style="fill:#cbc6b7"/><rect x="508.37" y="441.51" width="3.19" height="3.23" rx="1.29" ry="1.29" transform="translate(566.5 1139.48) rotate(-125.5)" style="fill:#cbc6b7"/><rect x="501.95" y="432.49" width="3.19" height="3.23" rx="1.29" ry="1.29" transform="translate(563.69 1120) rotate(-125.5)" style="fill:#cbc6b7"/><rect x="495.53" y="423.47" width="3.19" height="3.23" rx="1.29" ry="1.29" transform="matrix(-0.58, -0.81, 0.81, -0.58, 560.88, 1100.52)" style="fill:#cbc6b7"/><rect x="489.1" y="414.45" width="3.19" height="3.23" rx="1.29" ry="1.29" transform="translate(558.07 1081.03) rotate(-125.5)" style="fill:#cbc6b7"/><rect x="482.68" y="405.44" width="3.19" height="3.23" rx="1.29" ry="1.29" transform="translate(555.25 1061.55) rotate(-125.5)" style="fill:#cbc6b7"/><rect x="479.26" y="398.42" width="3.19" height="3.23" rx="1.29" ry="1.29" transform="translate(555.56 1047.67) rotate(-125.5)" style="fill:#cbc6b7"/><rect x="566.18" y="522.66" width="3.19" height="3.23" rx="1.29" ry="1.29" transform="translate(591.81 1314.83) rotate(-125.5)" style="fill:#cbc6b7"/><rect x="559.76" y="513.65" width="3.19" height="3.23" rx="1.29" ry="1.29" transform="translate(589 1295.35) rotate(-125.5)" style="fill:#cbc6b7"/><rect x="553.33" y="504.63" width="3.19" height="3.23" rx="1.29" ry="1.29" transform="translate(586.19 1275.86) rotate(-125.5)" style="fill:#cbc6b7"/><rect x="546.91" y="495.61" width="3.19" height="3.23" rx="1.29" ry="1.29" transform="matrix(-0.58, -0.81, 0.81, -0.58, 583.37, 1256.38)" style="fill:#cbc6b7"/><rect x="540.49" y="486.59" width="3.19" height="3.23" rx="1.29" ry="1.29" transform="translate(580.56 1236.9) rotate(-125.5)" style="fill:#cbc6b7"/><rect x="598.3" y="567.75" width="3.19" height="3.23" rx="1.29" ry="1.29" transform="translate(605.87 1412.24) rotate(-125.5)" style="fill:#cbc6b7"/><rect x="591.87" y="558.73" width="3.19" height="3.23" rx="1.29" ry="1.29" transform="translate(603.06 1392.76) rotate(-125.5)" style="fill:#cbc6b7"/><rect x="585.45" y="549.71" width="3.19" height="3.23" rx="1.29" ry="1.29" transform="translate(600.24 1373.28) rotate(-125.5)" style="fill:#cbc6b7"/><rect x="579.03" y="540.7" width="3.19" height="3.23" rx="1.29" ry="1.29" transform="translate(597.43 1353.79) rotate(-125.5)" style="fill:#cbc6b7"/><rect x="572.6" y="531.68" width="3.19" height="3.23" rx="1.29" ry="1.29" transform="translate(594.62 1334.31) rotate(-125.5)" style="fill:#cbc6b7"/><rect x="534.06" y="477.58" width="3.19" height="3.23" rx="1.29" ry="1.29" transform="translate(577.75 1217.41) rotate(-125.5)" style="fill:#cbc6b7"/><rect x="527.64" y="468.56" width="3.19" height="3.23" rx="1.29" ry="1.29" transform="translate(574.94 1197.93) rotate(-125.5)" style="fill:#cbc6b7"/><rect x="521.22" y="459.54" width="3.19" height="3.23" rx="1.29" ry="1.29" transform="translate(572.13 1178.45) rotate(-125.5)" style="fill:#cbc6b7"/><rect x="718.26" y="396.42" width="3.19" height="3.23" rx="1.29" ry="1.29" transform="translate(934.97 1239.08) rotate(-125.5)" style="fill:#cbc6b7"/><rect x="636.8" y="513.65" width="3.19" height="3.23" rx="1.29" ry="1.29" transform="translate(1549.73 318.62) rotate(125.5)" style="fill:#cbc6b7"/><rect x="630.37" y="522.66" width="3.19" height="3.23" rx="1.29" ry="1.29" transform="translate(1546.92 338.1) rotate(125.5)" style="fill:#cbc6b7"/><rect x="623.95" y="531.68" width="3.19" height="3.23" rx="1.29" ry="1.29" transform="translate(1544.11 357.58) rotate(125.5)" style="fill:#cbc6b7"/><rect x="617.53" y="540.7" width="3.19" height="3.23" rx="1.29" ry="1.29" transform="translate(1541.3 377.07) rotate(125.5)" style="fill:#cbc6b7"/><rect x="611.1" y="549.71" width="3.19" height="3.23" rx="1.29" ry="1.29" transform="translate(1538.48 396.55) rotate(125.5)" style="fill:#cbc6b7"/><rect x="604.68" y="558.73" width="3.19" height="3.23" rx="1.29" ry="1.29" transform="translate(1535.67 416.03) rotate(125.5)" style="fill:#cbc6b7"/><rect x="688.18" y="441.51" width="3.19" height="3.23" rx="1.29" ry="1.29" transform="translate(1572.23 162.75) rotate(125.5)" style="fill:#cbc6b7"/><rect x="681.76" y="450.52" width="3.19" height="3.23" rx="1.29" ry="1.29" transform="translate(1569.41 182.24) rotate(125.5)" style="fill:#cbc6b7"/><rect x="675.33" y="459.54" width="3.19" height="3.23" rx="1.29" ry="1.29" transform="translate(1566.6 201.72) rotate(125.5)" style="fill:#cbc6b7"/><rect x="668.91" y="468.56" width="3.19" height="3.23" rx="1.29" ry="1.29" transform="matrix(-0.58, 0.81, -0.81, -0.58, 1563.79, 221.2)" style="fill:#cbc6b7"/><rect x="662.49" y="477.58" width="3.19" height="3.23" rx="1.29" ry="1.29" transform="translate(1560.98 240.69) rotate(125.5)" style="fill:#cbc6b7"/><rect x="713.87" y="405.44" width="3.19" height="3.23" rx="1.29" ry="1.29" transform="translate(1583.47 84.82) rotate(125.5)" style="fill:#cbc6b7"/><rect x="707.45" y="414.45" width="3.19" height="3.23" rx="1.29" ry="1.29" transform="translate(1580.66 104.31) rotate(125.5)" style="fill:#cbc6b7"/><rect x="701.03" y="423.47" width="3.19" height="3.23" rx="1.29" ry="1.29" transform="translate(1577.85 123.79) rotate(125.5)" style="fill:#cbc6b7"/><rect x="694.6" y="432.49" width="3.19" height="3.23" rx="1.29" ry="1.29" transform="translate(1575.04 143.27) rotate(125.5)" style="fill:#cbc6b7"/><rect x="656.06" y="486.59" width="3.19" height="3.23" rx="1.29" ry="1.29" transform="translate(1558.17 260.17) rotate(125.5)" style="fill:#cbc6b7"/><rect x="649.64" y="495.61" width="3.19" height="3.23" rx="1.29" ry="1.29" transform="translate(1555.36 279.65) rotate(125.5)" style="fill:#cbc6b7"/><rect x="643.22" y="504.63" width="3.19" height="3.23" rx="1.29" ry="1.29" transform="translate(1552.54 299.13) rotate(125.5)" style="fill:#cbc6b7"/><rect x="360.3" y="567.75" width="3.19" height="3.23" rx="1.29" ry="1.29" transform="translate(229.66 1218.48) rotate(-125.5)" style="fill:#cbc6b7"/><rect x="398.8" y="513.65" width="3.19" height="3.23" rx="1.29" ry="1.29" transform="translate(1173.52 512.38) rotate(125.5)" style="fill:#cbc6b7"/><rect x="392.37" y="522.66" width="3.19" height="3.23" rx="1.29" ry="1.29" transform="translate(1170.71 531.86) rotate(125.5)" style="fill:#cbc6b7"/><rect x="385.95" y="531.68" width="3.19" height="3.23" rx="1.29" ry="1.29" transform="translate(1167.9 551.34) rotate(125.5)" style="fill:#cbc6b7"/><rect x="379.53" y="540.7" width="3.19" height="3.23" rx="1.29" ry="1.29" transform="translate(1165.09 570.83) rotate(125.5)" style="fill:#cbc6b7"/><rect x="373.1" y="549.71" width="3.19" height="3.23" rx="1.29" ry="1.29" transform="translate(1162.28 590.31) rotate(125.5)" style="fill:#cbc6b7"/><rect x="366.68" y="558.73" width="3.19" height="3.23" rx="1.29" ry="1.29" transform="translate(1159.47 609.79) rotate(125.5)" style="fill:#cbc6b7"/><rect x="450.18" y="441.51" width="3.19" height="3.23" rx="1.29" ry="1.29" transform="matrix(-0.58, 0.81, -0.81, -0.58, 1196.02, 356.51)" style="fill:#cbc6b7"/><rect x="443.76" y="450.52" width="3.19" height="3.23" rx="1.29" ry="1.29" transform="translate(1193.21 376) rotate(125.5)" style="fill:#cbc6b7"/><rect x="437.33" y="459.54" width="3.19" height="3.23" rx="1.29" ry="1.29" transform="translate(1190.4 395.48) rotate(125.5)" style="fill:#cbc6b7"/><rect x="430.91" y="468.56" width="3.19" height="3.23" rx="1.29" ry="1.29" transform="translate(1187.58 414.96) rotate(125.5)" style="fill:#cbc6b7"/><rect x="424.49" y="477.58" width="3.19" height="3.23" rx="1.29" ry="1.29" transform="translate(1184.77 434.45) rotate(125.5)" style="fill:#cbc6b7"/><rect x="475.87" y="405.44" width="3.19" height="3.23" rx="1.29" ry="1.29" transform="translate(1207.27 278.58) rotate(125.5)" style="fill:#cbc6b7"/><rect x="469.45" y="414.45" width="3.19" height="3.23" rx="1.29" ry="1.29" transform="translate(1204.46 298.06) rotate(125.5)" style="fill:#cbc6b7"/><rect x="463.03" y="423.47" width="3.19" height="3.23" rx="1.29" ry="1.29" transform="translate(1201.64 317.55) rotate(125.5)" style="fill:#cbc6b7"/><rect x="456.6" y="432.49" width="3.19" height="3.23" rx="1.29" ry="1.29" transform="translate(1198.83 337.03) rotate(125.5)" style="fill:#cbc6b7"/><rect x="36.8" y="647.52" width="3.19" height="3.23" rx="1.29" ry="1.29" transform="matrix(-0.58, -0.81, 0.81, -0.58, -346.64, 1081.22)" style="fill:#cbc6b7"/><rect x="30.37" y="638.51" width="3.19" height="3.23" rx="1.29" ry="1.29" transform="translate(-349.45 1061.73) rotate(-125.5)" style="fill:#cbc6b7"/><rect x="23.95" y="629.49" width="3.19" height="3.23" rx="1.29" ry="1.29" transform="translate(-352.27 1042.25) rotate(-125.5)" style="fill:#cbc6b7"/><rect x="17.53" y="620.47" width="3.19" height="3.23" rx="1.29" ry="1.29" transform="translate(-355.08 1022.77) rotate(-125.5)" style="fill:#cbc6b7"/><rect x="11.1" y="611.45" width="3.19" height="3.23" rx="1.29" ry="1.29" transform="translate(-357.89 1003.28) rotate(-125.5)" style="fill:#cbc6b7"/><rect x="4.68" y="602.44" width="3.19" height="3.23" rx="1.29" ry="1.29" transform="translate(-360.7 983.8) rotate(-125.5)" style="fill:#cbc6b7"/><rect x="-1.74" y="593.42" width="3.19" height="3.23" rx="1.29" ry="1.29" transform="translate(-363.51 964.32) rotate(-125.5)" style="fill:#cbc6b7"/><rect x="49.64" y="665.56" width="3.19" height="3.23" rx="1.29" ry="1.29" transform="translate(-341.02 1120.18) rotate(-125.5)" style="fill:#cbc6b7"/><rect x="43.22" y="656.54" width="3.19" height="3.23" rx="1.29" ry="1.29" transform="translate(-343.83 1100.7) rotate(-125.5)" style="fill:#cbc6b7"/><rect x="270.37" y="638.51" width="3.19" height="3.23" rx="1.29" ry="1.29" transform="translate(29.91 1257.12) rotate(-125.5)" style="fill:#cbc6b7"/><rect x="263.95" y="629.49" width="3.19" height="3.23" rx="1.29" ry="1.29" transform="translate(27.1 1237.64) rotate(-125.5)" style="fill:#cbc6b7"/><rect x="257.53" y="620.47" width="3.19" height="3.23" rx="1.29" ry="1.29" transform="translate(24.29 1218.15) rotate(-125.5)" style="fill:#cbc6b7"/><rect x="251.1" y="611.45" width="3.19" height="3.23" rx="1.29" ry="1.29" transform="translate(21.48 1198.67) rotate(-125.5)" style="fill:#cbc6b7"/><rect x="244.68" y="602.44" width="3.19" height="3.23" rx="1.29" ry="1.29" transform="translate(18.67 1179.19) rotate(-125.5)" style="fill:#cbc6b7"/><rect x="239.26" y="596.42" width="3.19" height="3.23" rx="1.29" ry="1.29" transform="matrix(-0.56, 0.83, -0.83, -0.56, 992.62, 755.95)" style="fill:#cbc6b7"/><rect x="289.64" y="665.56" width="3.19" height="3.23" rx="1.29" ry="1.29" transform="translate(38.35 1315.57) rotate(-125.5)" style="fill:#cbc6b7"/><rect x="283.22" y="656.54" width="3.19" height="3.23" rx="1.29" ry="1.29" transform="translate(35.54 1296.09) rotate(-125.5)" style="fill:#cbc6b7"/><rect x="276.8" y="647.52" width="3.19" height="3.23" rx="1.29" ry="1.29" transform="translate(32.73 1276.6) rotate(-125.5)" style="fill:#cbc6b7"/><rect x="208.18" y="638.51" width="3.19" height="3.23" rx="1.29" ry="1.29" transform="translate(973.87 864.93) rotate(125.5)" style="fill:#cbc6b7"/><rect x="201.76" y="647.52" width="3.19" height="3.23" rx="1.29" ry="1.29" transform="translate(971.06 884.41) rotate(125.5)" style="fill:#cbc6b7"/><rect x="195.33" y="656.54" width="3.19" height="3.23" rx="1.29" ry="1.29" transform="translate(968.25 903.89) rotate(125.5)" style="fill:#cbc6b7"/><rect x="188.91" y="665.56" width="3.19" height="3.23" rx="1.29" ry="1.29" transform="matrix(-0.58, 0.81, -0.81, -0.58, 965.43, 923.38)" style="fill:#cbc6b7"/><rect x="233.87" y="602.44" width="3.19" height="3.23" rx="1.29" ry="1.29" transform="translate(985.12 787) rotate(125.5)" style="fill:#cbc6b7"/><rect x="227.45" y="611.45" width="3.19" height="3.23" rx="1.29" ry="1.29" transform="translate(982.31 806.48) rotate(125.5)" style="fill:#cbc6b7"/><rect x="221.03" y="620.47" width="3.19" height="3.23" rx="1.29" ry="1.29" transform="translate(979.49 825.96) rotate(125.5)" style="fill:#cbc6b7"/><rect x="214.6" y="629.49" width="3.19" height="3.23" rx="1.29" ry="1.29" transform="translate(976.68 845.45) rotate(125.5)" style="fill:#cbc6b7"/><rect x="514.8" y="647.52" width="3.19" height="3.23" rx="1.29" ry="1.29" transform="translate(408.93 1470.36) rotate(-125.5)" style="fill:#cbc6b7"/><rect x="508.37" y="638.51" width="3.19" height="3.23" rx="1.29" ry="1.29" transform="translate(406.12 1450.88) rotate(-125.5)" style="fill:#cbc6b7"/><rect x="501.95" y="629.49" width="3.19" height="3.23" rx="1.29" ry="1.29" transform="translate(403.31 1431.4) rotate(-125.5)" style="fill:#cbc6b7"/><rect x="495.53" y="620.47" width="3.19" height="3.23" rx="1.29" ry="1.29" transform="translate(400.5 1411.91) rotate(-125.5)" style="fill:#cbc6b7"/><rect x="489.1" y="611.45" width="3.19" height="3.23" rx="1.29" ry="1.29" transform="translate(397.69 1392.43) rotate(-125.5)" style="fill:#cbc6b7"/><rect x="482.68" y="602.44" width="3.19" height="3.23" rx="1.29" ry="1.29" transform="translate(394.87 1372.95) rotate(-125.5)" style="fill:#cbc6b7"/><rect x="479.26" y="595.42" width="3.19" height="3.23" rx="1.29" ry="1.29" transform="translate(395.18 1359.07) rotate(-125.5)" style="fill:#cbc6b7"/><rect x="527.64" y="665.56" width="3.19" height="3.23" rx="1.29" ry="1.29" transform="translate(414.56 1509.33) rotate(-125.5)" style="fill:#cbc6b7"/><rect x="521.22" y="656.54" width="3.19" height="3.23" rx="1.29" ry="1.29" transform="translate(411.75 1489.85) rotate(-125.5)" style="fill:#cbc6b7"/><rect x="718.26" y="593.42" width="3.19" height="3.23" rx="1.29" ry="1.29" transform="translate(774.59 1550.48) rotate(-125.5)" style="fill:#cbc6b7"/><rect x="688.18" y="638.51" width="3.19" height="3.23" rx="1.29" ry="1.29" transform="translate(1732.61 474.15) rotate(125.5)" style="fill:#cbc6b7"/><rect x="681.76" y="647.52" width="3.19" height="3.23" rx="1.29" ry="1.29" transform="translate(1729.8 493.64) rotate(125.5)" style="fill:#cbc6b7"/><rect x="675.33" y="656.54" width="3.19" height="3.23" rx="1.29" ry="1.29" transform="translate(1726.98 513.12) rotate(125.5)" style="fill:#cbc6b7"/><rect x="668.91" y="665.56" width="3.19" height="3.23" rx="1.29" ry="1.29" transform="matrix(-0.58, 0.81, -0.81, -0.58, 1724.17, 532.6)" style="fill:#cbc6b7"/><rect x="713.87" y="602.44" width="3.19" height="3.23" rx="1.29" ry="1.29" transform="translate(1743.85 396.22) rotate(125.5)" style="fill:#cbc6b7"/><rect x="707.45" y="611.45" width="3.19" height="3.23" rx="1.29" ry="1.29" transform="translate(1741.04 415.7) rotate(125.5)" style="fill:#cbc6b7"/><rect x="701.03" y="620.47" width="3.19" height="3.23" rx="1.29" ry="1.29" transform="translate(1738.23 435.19) rotate(125.5)" style="fill:#cbc6b7"/><rect x="694.6" y="629.49" width="3.19" height="3.23" rx="1.29" ry="1.29" transform="translate(1735.42 454.67) rotate(125.5)" style="fill:#cbc6b7"/><rect x="450.18" y="638.51" width="3.19" height="3.23" rx="1.29" ry="1.29" transform="translate(1356.4 667.91) rotate(125.5)" style="fill:#cbc6b7"/><rect x="443.76" y="647.52" width="3.19" height="3.23" rx="1.29" ry="1.29" transform="translate(1353.59 687.39) rotate(125.5)" style="fill:#cbc6b7"/><rect x="437.33" y="656.54" width="3.19" height="3.23" rx="1.29" ry="1.29" transform="translate(1350.78 706.88) rotate(125.5)" style="fill:#cbc6b7"/><rect x="430.91" y="665.56" width="3.19" height="3.23" rx="1.29" ry="1.29" transform="translate(1347.96 726.36) rotate(125.5)" style="fill:#cbc6b7"/><rect x="475.87" y="602.44" width="3.19" height="3.23" rx="1.29" ry="1.29" transform="translate(1367.65 589.98) rotate(125.5)" style="fill:#cbc6b7"/><rect x="469.45" y="611.45" width="3.19" height="3.23" rx="1.29" ry="1.29" transform="translate(1364.84 609.46) rotate(125.5)" style="fill:#cbc6b7"/><rect x="11.1" y="651.45" width="3.19" height="3.23" rx="1.29" ry="1.29" transform="translate(-390.45 1066.51) rotate(-125.5)" style="fill:#cbc6b7"/><rect x="4.68" y="642.44" width="3.19" height="3.23" rx="1.29" ry="1.29" transform="translate(-393.27 1047.03) rotate(-125.5)" style="fill:#cbc6b7"/><rect x="-1.74" y="633.42" width="3.19" height="3.23" rx="1.29" ry="1.29" transform="translate(-396.08 1027.55) rotate(-125.5)" style="fill:#cbc6b7"/><rect x="251.1" y="651.45" width="3.19" height="3.23" rx="1.29" ry="1.29" transform="translate(-11.09 1261.9) rotate(-125.5)" style="fill:#cbc6b7"/><rect x="244.68" y="642.44" width="3.19" height="3.23" rx="1.29" ry="1.29" transform="translate(-13.9 1242.42) rotate(-125.5)" style="fill:#cbc6b7"/><rect x="239.26" y="636.42" width="3.19" height="3.23" rx="1.29" ry="1.29" transform="translate(1025.81 818.28) rotate(123.94)" style="fill:#cbc6b7"/><rect x="233.87" y="642.44" width="3.19" height="3.23" rx="1.29" ry="1.29" transform="translate(1017.68 850.22) rotate(125.5)" style="fill:#cbc6b7"/><rect x="227.45" y="651.45" width="3.19" height="3.23" rx="1.29" ry="1.29" transform="translate(1014.87 869.71) rotate(125.5)" style="fill:#cbc6b7"/><rect x="489.1" y="651.45" width="3.19" height="3.23" rx="1.29" ry="1.29" transform="translate(365.12 1455.66) rotate(-125.5)" style="fill:#cbc6b7"/><rect x="482.68" y="642.44" width="3.19" height="3.23" rx="1.29" ry="1.29" transform="translate(362.31 1436.18) rotate(-125.5)" style="fill:#cbc6b7"/><rect x="479.26" y="635.42" width="3.19" height="3.23" rx="1.29" ry="1.29" transform="translate(362.61 1422.3) rotate(-125.5)" style="fill:#cbc6b7"/><rect x="718.26" y="633.42" width="3.19" height="3.23" rx="1.29" ry="1.29" transform="translate(742.03 1613.71) rotate(-125.5)" style="fill:#cbc6b7"/><rect x="713.87" y="642.44" width="3.19" height="3.23" rx="1.29" ry="1.29" transform="translate(1776.42 459.45) rotate(125.5)" style="fill:#cbc6b7"/><rect x="707.45" y="651.45" width="3.19" height="3.23" rx="1.29" ry="1.29" transform="translate(1773.61 478.93) rotate(125.5)" style="fill:#cbc6b7"/><rect x="475.87" y="642.44" width="3.19" height="3.23" rx="1.29" ry="1.29" transform="translate(1400.21 653.21) rotate(125.5)" style="fill:#cbc6b7"/><rect x="469.45" y="651.45" width="3.19" height="3.23" rx="1.29" ry="1.29" transform="translate(1397.4 672.69) rotate(125.5)" style="fill:#cbc6b7"/><rect x="463.03" y="620.47" width="3.19" height="3.23" rx="1.29" ry="1.29" transform="translate(1362.02 628.95) rotate(125.5)" style="fill:#cbc6b7"/><rect x="456.6" y="629.49" width="3.19" height="3.23" rx="1.29" ry="1.29" transform="translate(1359.21 648.43) rotate(125.5)" style="fill:#cbc6b7"/><rect x="36.8" y="64.45" width="3.19" height="3.23" rx="1.29" ry="1.29" transform="translate(235.62 97.05) rotate(125.5)" style="fill:#cbc6b7"/><rect x="30.37" y="73.47" width="3.19" height="3.23" rx="1.29" ry="1.29" transform="translate(232.8 116.53) rotate(125.5)" style="fill:#cbc6b7"/><rect x="23.95" y="82.49" width="3.19" height="3.23" rx="1.29" ry="1.29" transform="translate(229.99 136.02) rotate(125.5)" style="fill:#cbc6b7"/><rect x="17.53" y="91.51" width="3.19" height="3.23" rx="1.29" ry="1.29" transform="translate(227.18 155.5) rotate(125.5)" style="fill:#cbc6b7"/><rect x="11.1" y="100.52" width="3.19" height="3.23" rx="1.29" ry="1.29" transform="translate(224.37 174.98) rotate(125.5)" style="fill:#cbc6b7"/><rect x="4.68" y="109.54" width="3.19" height="3.23" rx="1.29" ry="1.29" transform="translate(221.56 194.47) rotate(125.5)" style="fill:#cbc6b7"/><rect x="-1.74" y="118.56" width="3.19" height="3.23" rx="1.29" ry="1.29" transform="translate(218.75 213.95) rotate(125.5)" style="fill:#cbc6b7"/><rect x="49.64" y="46.42" width="3.19" height="3.23" rx="1.29" ry="1.29" transform="translate(241.24 58.08) rotate(125.5)" style="fill:#cbc6b7"/><rect x="43.22" y="55.44" width="3.19" height="3.23" rx="1.29" ry="1.29" transform="matrix(-0.58, 0.81, -0.81, -0.58, 238.43, 77.57)" style="fill:#cbc6b7"/><rect x="270.37" y="73.47" width="3.19" height="3.23" rx="1.29" ry="1.29" transform="translate(612.17 -78.85) rotate(125.5)" style="fill:#cbc6b7"/><rect x="263.95" y="82.49" width="3.19" height="3.23" rx="1.29" ry="1.29" transform="translate(609.36 -59.37) rotate(125.5)" style="fill:#cbc6b7"/><rect x="257.53" y="91.51" width="3.19" height="3.23" rx="1.29" ry="1.29" transform="translate(606.55 -39.89) rotate(125.5)" style="fill:#cbc6b7"/><rect x="251.1" y="100.52" width="3.19" height="3.23" rx="1.29" ry="1.29" transform="translate(603.74 -20.41) rotate(125.5)" style="fill:#cbc6b7"/><rect x="244.68" y="109.54" width="3.19" height="3.23" rx="1.29" ry="1.29" transform="translate(600.93 -0.92) rotate(125.5)" style="fill:#cbc6b7"/><rect x="239.26" y="115.56" width="3.19" height="3.23" rx="1.29" ry="1.29" transform="translate(399.25 406.28) rotate(-123.94)" style="fill:#cbc6b7"/><rect x="289.64" y="46.42" width="3.19" height="3.23" rx="1.29" ry="1.29" transform="translate(620.61 -137.3) rotate(125.5)" style="fill:#cbc6b7"/><rect x="283.22" y="55.44" width="3.19" height="3.23" rx="1.29" ry="1.29" transform="translate(617.8 -117.82) rotate(125.5)" style="fill:#cbc6b7"/><rect x="276.8" y="64.45" width="3.19" height="3.23" rx="1.29" ry="1.29" transform="translate(614.99 -98.34) rotate(125.5)" style="fill:#cbc6b7"/><rect x="208.18" y="73.47" width="3.19" height="3.23" rx="1.29" ry="1.29" transform="translate(391.61 313.34) rotate(-125.5)" style="fill:#cbc6b7"/><rect x="201.76" y="64.45" width="3.19" height="3.23" rx="1.29" ry="1.29" transform="translate(388.8 293.85) rotate(-125.5)" style="fill:#cbc6b7"/><rect x="195.33" y="55.44" width="3.19" height="3.23" rx="1.29" ry="1.29" transform="translate(385.99 274.37) rotate(-125.5)" style="fill:#cbc6b7"/><rect x="188.91" y="46.42" width="3.19" height="3.23" rx="1.29" ry="1.29" transform="translate(383.18 254.89) rotate(-125.5)" style="fill:#cbc6b7"/><rect x="233.87" y="109.54" width="3.19" height="3.23" rx="1.29" ry="1.29" transform="translate(402.86 391.27) rotate(-125.5)" style="fill:#cbc6b7"/><rect x="227.45" y="100.52" width="3.19" height="3.23" rx="1.29" ry="1.29" transform="translate(400.05 371.79) rotate(-125.5)" style="fill:#cbc6b7"/><rect x="221.03" y="91.51" width="3.19" height="3.23" rx="1.29" ry="1.29" transform="translate(397.24 352.3) rotate(-125.5)" style="fill:#cbc6b7"/><rect x="214.6" y="82.49" width="3.19" height="3.23" rx="1.29" ry="1.29" transform="translate(394.42 332.82) rotate(-125.5)" style="fill:#cbc6b7"/><rect x="514.8" y="64.45" width="3.19" height="3.23" rx="1.29" ry="1.29" transform="translate(991.19 -292.1) rotate(125.5)" style="fill:#cbc6b7"/><rect x="508.37" y="73.47" width="3.19" height="3.23" rx="1.29" ry="1.29" transform="translate(988.38 -272.61) rotate(125.5)" style="fill:#cbc6b7"/><rect x="501.95" y="82.49" width="3.19" height="3.23" rx="1.29" ry="1.29" transform="translate(985.57 -253.13) rotate(125.5)" style="fill:#cbc6b7"/><rect x="495.53" y="91.51" width="3.19" height="3.23" rx="1.29" ry="1.29" transform="translate(982.76 -233.65) rotate(125.5)" style="fill:#cbc6b7"/><rect x="489.1" y="100.52" width="3.19" height="3.23" rx="1.29" ry="1.29" transform="translate(979.94 -214.17) rotate(125.5)" style="fill:#cbc6b7"/><rect x="482.68" y="109.54" width="3.19" height="3.23" rx="1.29" ry="1.29" transform="translate(977.13 -194.68) rotate(125.5)" style="fill:#cbc6b7"/><rect x="479.26" y="116.56" width="3.19" height="3.23" rx="1.29" ry="1.29" transform="translate(977.43 -180.8) rotate(125.5)" style="fill:#cbc6b7"/><rect x="527.64" y="46.42" width="3.19" height="3.23" rx="1.29" ry="1.29" transform="translate(996.82 -331.06) rotate(125.5)" style="fill:#cbc6b7"/><rect x="521.22" y="55.44" width="3.19" height="3.23" rx="1.29" ry="1.29" transform="translate(994 -311.58) rotate(125.5)" style="fill:#cbc6b7"/><rect x="718.26" y="118.56" width="3.19" height="3.23" rx="1.29" ry="1.29" transform="translate(1356.85 -372.22) rotate(125.5)" style="fill:#cbc6b7"/><rect x="688.18" y="73.47" width="3.19" height="3.23" rx="1.29" ry="1.29" transform="translate(1150.35 704.11) rotate(-125.5)" style="fill:#cbc6b7"/><rect x="681.76" y="64.45" width="3.19" height="3.23" rx="1.29" ry="1.29" transform="translate(1147.54 684.63) rotate(-125.5)" style="fill:#cbc6b7"/><rect x="675.33" y="55.44" width="3.19" height="3.23" rx="1.29" ry="1.29" transform="translate(1144.72 665.15) rotate(-125.5)" style="fill:#cbc6b7"/><rect x="668.91" y="46.42" width="3.19" height="3.23" rx="1.29" ry="1.29" transform="translate(1141.91 645.66) rotate(-125.5)" style="fill:#cbc6b7"/><rect x="713.87" y="109.54" width="3.19" height="3.23" rx="1.29" ry="1.29" transform="translate(1161.6 782.05) rotate(-125.5)" style="fill:#cbc6b7"/><rect x="707.45" y="100.52" width="3.19" height="3.23" rx="1.29" ry="1.29" transform="translate(1158.78 762.56) rotate(-125.5)" style="fill:#cbc6b7"/><rect x="701.03" y="91.51" width="3.19" height="3.23" rx="1.29" ry="1.29" transform="translate(1155.97 743.08) rotate(-125.5)" style="fill:#cbc6b7"/><rect x="694.6" y="82.49" width="3.19" height="3.23" rx="1.29" ry="1.29" transform="translate(1153.16 723.6) rotate(-125.5)" style="fill:#cbc6b7"/><rect x="450.18" y="73.47" width="3.19" height="3.23" rx="1.29" ry="1.29" transform="translate(774.14 510.35) rotate(-125.5)" style="fill:#cbc6b7"/><rect x="443.76" y="64.45" width="3.19" height="3.23" rx="1.29" ry="1.29" transform="translate(771.33 490.87) rotate(-125.5)" style="fill:#cbc6b7"/><rect x="437.33" y="55.44" width="3.19" height="3.23" rx="1.29" ry="1.29" transform="translate(768.52 471.39) rotate(-125.5)" style="fill:#cbc6b7"/><rect x="430.91" y="46.42" width="3.19" height="3.23" rx="1.29" ry="1.29" transform="translate(765.71 451.9) rotate(-125.5)" style="fill:#cbc6b7"/><rect x="475.87" y="109.54" width="3.19" height="3.23" rx="1.29" ry="1.29" transform="translate(785.39 588.29) rotate(-125.5)" style="fill:#cbc6b7"/><rect x="469.45" y="100.52" width="3.19" height="3.23" rx="1.29" ry="1.29" transform="translate(782.58 568.8) rotate(-125.5)" style="fill:#cbc6b7"/><rect x="11.1" y="60.52" width="3.19" height="3.23" rx="1.29" ry="1.29" transform="translate(191.8 111.75) rotate(125.5)" style="fill:#cbc6b7"/><rect x="4.68" y="69.54" width="3.19" height="3.23" rx="1.29" ry="1.29" transform="translate(188.99 131.24) rotate(125.5)" style="fill:#cbc6b7"/><rect x="-1.74" y="78.56" width="3.19" height="3.23" rx="1.29" ry="1.29" transform="translate(186.18 150.72) rotate(125.5)" style="fill:#cbc6b7"/><rect x="251.1" y="60.52" width="3.19" height="3.23" rx="1.29" ry="1.29" transform="matrix(-0.58, 0.81, -0.81, -0.58, 571.17, -83.63)" style="fill:#cbc6b7"/><rect x="244.68" y="69.54" width="3.19" height="3.23" rx="1.29" ry="1.29" transform="translate(568.36 -64.15) rotate(125.5)" style="fill:#cbc6b7"/><rect x="239.26" y="75.56" width="3.19" height="3.23" rx="1.29" ry="1.29" transform="translate(432.44 343.95) rotate(-123.94)" style="fill:#cbc6b7"/><rect x="233.87" y="69.54" width="3.19" height="3.23" rx="1.29" ry="1.29" transform="translate(435.42 328.04) rotate(-125.5)" style="fill:#cbc6b7"/><rect x="227.45" y="60.52" width="3.19" height="3.23" rx="1.29" ry="1.29" transform="translate(432.61 308.56) rotate(-125.5)" style="fill:#cbc6b7"/><rect x="489.1" y="60.52" width="3.19" height="3.23" rx="1.29" ry="1.29" transform="translate(947.38 -277.39) rotate(125.5)" style="fill:#cbc6b7"/><rect x="482.68" y="69.54" width="3.19" height="3.23" rx="1.29" ry="1.29" transform="matrix(-0.58, 0.81, -0.81, -0.58, 944.57, -257.91)" style="fill:#cbc6b7"/><rect x="479.26" y="76.56" width="3.19" height="3.23" rx="1.29" ry="1.29" transform="translate(944.87 -244.03) rotate(125.5)" style="fill:#cbc6b7"/><rect x="718.26" y="78.56" width="3.19" height="3.23" rx="1.29" ry="1.29" transform="translate(1324.29 -435.44) rotate(125.5)" style="fill:#cbc6b7"/><rect x="713.87" y="69.54" width="3.19" height="3.23" rx="1.29" ry="1.29" transform="translate(1194.16 718.82) rotate(-125.5)" style="fill:#cbc6b7"/><rect x="707.45" y="60.52" width="3.19" height="3.23" rx="1.29" ry="1.29" transform="translate(1191.35 699.33) rotate(-125.5)" style="fill:#cbc6b7"/><rect x="475.87" y="69.54" width="3.19" height="3.23" rx="1.29" ry="1.29" transform="translate(817.95 525.06) rotate(-125.5)" style="fill:#cbc6b7"/><rect x="469.45" y="60.52" width="3.19" height="3.23" rx="1.29" ry="1.29" transform="translate(815.14 505.57) rotate(-125.5)" style="fill:#cbc6b7"/><rect x="463.03" y="91.51" width="3.19" height="3.23" rx="1.29" ry="1.29" transform="translate(779.77 549.32) rotate(-125.5)" style="fill:#cbc6b7"/><rect x="456.6" y="82.49" width="3.19" height="3.23" rx="1.29" ry="1.29" transform="translate(776.95 529.84) rotate(-125.5)" style="fill:#cbc6b7"/><rect x="418.06" y="486.59" width="3.19" height="3.23" rx="1.29" ry="1.29" transform="translate(1181.96 453.93) rotate(125.5)" style="fill:#cbc6b7"/><rect x="411.64" y="495.61" width="3.19" height="3.23" rx="1.29" ry="1.29" transform="translate(1179.15 473.41) rotate(125.5)" style="fill:#cbc6b7"/><rect x="405.22" y="504.63" width="3.19" height="3.23" rx="1.29" ry="1.29" transform="translate(1176.34 492.89) rotate(125.5)" style="fill:#cbc6b7"/><path d="M270.12,41H209.88A10.87,10.87,0,0,1,201,23.9l30.12-43.13A10.88,10.88,0,0,1,240-23.87a10.88,10.88,0,0,1,8.91,4.65L279,23.9A10.87,10.87,0,0,1,270.12,41ZM240-15.87a2.85,2.85,0,0,0-2.35,1.23h0L207.52,28.49A2.87,2.87,0,0,0,209.88,33h60.24a2.87,2.87,0,0,0,2.35-4.52L242.35-14.64A2.85,2.85,0,0,0,240-15.87Z" transform="translate(121.15 23.87)" style="fill:#cbc6b7"/><path d="M258,40.83H222a6.1,6.1,0,0,1-5-9.59L235,5.51h0a6.1,6.1,0,0,1,10,0l18,25.73a6.1,6.1,0,0,1-5,9.59Zm-32.3-8h28.65L240,12.32Z" transform="translate(121.15 23.87)" style="fill:#cbc6b7"/><path d="M510.12,41H449.88A10.87,10.87,0,0,1,441,23.9l30.12-43.13A10.88,10.88,0,0,1,480-23.87a10.88,10.88,0,0,1,8.91,4.65L519,23.9A10.87,10.87,0,0,1,510.12,41ZM480-15.87a2.85,2.85,0,0,0-2.35,1.23h0L447.52,28.49A2.87,2.87,0,0,0,449.88,33h60.24a2.87,2.87,0,0,0,2.35-4.52L482.35-14.64A2.85,2.85,0,0,0,480-15.87Z" transform="translate(121.15 23.87)" style="fill:#cbc6b7"/><path d="M498,40.83H462a6.1,6.1,0,0,1-5-9.59L475,5.51a6.1,6.1,0,0,1,10,0l18,25.73a6.1,6.1,0,0,1-5,9.59Zm-32.3-8h28.66L480,12.32Z" transform="translate(121.15 23.87)" style="fill:#cbc6b7"/><path d="M751.12,41H690.88A10.87,10.87,0,0,1,682,23.9l30.12-43.13A10.88,10.88,0,0,1,721-23.87a10.88,10.88,0,0,1,8.91,4.65L760,23.9A10.87,10.87,0,0,1,751.12,41ZM721-15.87a2.85,2.85,0,0,0-2.35,1.23h0L688.52,28.49A2.87,2.87,0,0,0,690.88,33h60.24a2.87,2.87,0,0,0,2.35-4.52L723.35-14.64A2.85,2.85,0,0,0,721-15.87Z" transform="translate(121.15 23.87)" style="fill:#cbc6b7"/><path d="M739,40.83H703a6.1,6.1,0,0,1-5-9.59L716,5.51a6.1,6.1,0,0,1,10,0l18,25.73a6.1,6.1,0,0,1-5,9.59Zm-32.3-8h28.66L721,12.32Z" transform="translate(121.15 23.87)" style="fill:#cbc6b7"/><path d="M30.12,41H-30.12a10.84,10.84,0,0,1-9.64-5.85A10.84,10.84,0,0,1-39,23.9L-8.91-19.22A10.88,10.88,0,0,1,0-23.87a10.88,10.88,0,0,1,8.91,4.65L39,23.9A10.87,10.87,0,0,1,30.12,41ZM0-15.87a2.85,2.85,0,0,0-2.35,1.23h0L-32.48,28.49a2.81,2.81,0,0,0-.19,3A2.81,2.81,0,0,0-30.12,33H30.12a2.87,2.87,0,0,0,2.35-4.52L2.35-14.64A2.85,2.85,0,0,0,0-15.87Z" transform="translate(121.15 23.87)" style="fill:#cbc6b7"/><path d="M18,40.83H-18a6.08,6.08,0,0,1-5.41-3.28A6.08,6.08,0,0,1-23,31.24L-5,5.51h0A6.1,6.1,0,0,1,0,2.9,6.1,6.1,0,0,1,5,5.51L23,31.24a6.1,6.1,0,0,1-5,9.59Zm-32.3-8H14.33L0,12.32Z" transform="translate(121.15 23.87)" style="fill:#cbc6b7"/><path d="M240,743a10.88,10.88,0,0,1-8.91-4.65h0L201,695.22a10.87,10.87,0,0,1,8.91-17.1h60.24a10.87,10.87,0,0,1,8.91,17.1l-30.12,43.13A10.88,10.88,0,0,1,240,743Zm-2.35-9.23a2.87,2.87,0,0,0,4.71,0l30.12-43.13a2.87,2.87,0,0,0-2.35-4.52H209.88a2.87,2.87,0,0,0-2.35,4.52l30.12,43.13Z" transform="translate(121.15 23.87)" style="fill:#cbc6b7"/><path d="M240,716.23a6.1,6.1,0,0,1-5-2.61l-18-25.73a6.1,6.1,0,0,1,5-9.59H258a6.1,6.1,0,0,1,5,9.59l-18,25.73A6.1,6.1,0,0,1,240,716.23Zm1.56-7.19h0ZM225.67,686.3,240,706.81l14.33-20.51Z" transform="translate(121.15 23.87)" style="fill:#cbc6b7"/><path d="M480,743a10.88,10.88,0,0,1-8.91-4.65L441,695.22a10.87,10.87,0,0,1,8.91-17.1h60.24a10.87,10.87,0,0,1,8.91,17.1l-30.12,43.13A10.88,10.88,0,0,1,480,743Zm-2.35-9.23a2.87,2.87,0,0,0,4.71,0l30.12-43.13a2.87,2.87,0,0,0-2.35-4.52H449.88a2.87,2.87,0,0,0-2.35,4.52Z" transform="translate(121.15 23.87)" style="fill:#cbc6b7"/><path d="M480,716.23a6.11,6.11,0,0,1-5-2.61h0l-18-25.73a6.1,6.1,0,0,1,5-9.59H498a6.1,6.1,0,0,1,5,9.59l-18,25.73A6.1,6.1,0,0,1,480,716.23Zm1.55-7.19h0ZM465.67,686.3,480,706.81l14.33-20.51Z" transform="translate(121.15 23.87)" style="fill:#cbc6b7"/><path d="M721,743a10.88,10.88,0,0,1-8.91-4.65L682,695.22a10.87,10.87,0,0,1,8.91-17.1h60.24a10.87,10.87,0,0,1,8.91,17.1l-30.12,43.13A10.88,10.88,0,0,1,721,743Zm-2.35-9.23a2.87,2.87,0,0,0,4.71,0l30.12-43.13a2.87,2.87,0,0,0-2.35-4.52H690.88a2.87,2.87,0,0,0-2.35,4.52Z" transform="translate(121.15 23.87)" style="fill:#cbc6b7"/><path d="M721,716.23a6.11,6.11,0,0,1-5-2.61h0l-18-25.73a6.1,6.1,0,0,1,5-9.59H739a6.1,6.1,0,0,1,5,9.59l-18,25.73A6.1,6.1,0,0,1,721,716.23Zm1.55-7.19h0ZM706.67,686.3,721,706.81l14.33-20.51Z" transform="translate(121.15 23.87)" style="fill:#cbc6b7"/><path d="M0,743a10.88,10.88,0,0,1-8.91-4.65h0L-39,695.22A10.84,10.84,0,0,1-39.76,684a10.84,10.84,0,0,1,9.64-5.85H30.12A10.87,10.87,0,0,1,39,695.22L8.91,738.35A10.88,10.88,0,0,1,0,743Zm-2.35-9.23A2.85,2.85,0,0,0,0,735a2.85,2.85,0,0,0,2.35-1.23l30.12-43.13a2.87,2.87,0,0,0-2.35-4.52H-30.12a2.81,2.81,0,0,0-2.55,1.54,2.81,2.81,0,0,0,.19,3l30.12,43.13Z" transform="translate(121.15 23.87)" style="fill:#cbc6b7"/><path d="M0,716.23a6.1,6.1,0,0,1-5-2.61l-18-25.73a6.08,6.08,0,0,1-.41-6.31A6.08,6.08,0,0,1-18,678.3H18a6.1,6.1,0,0,1,5,9.59L5,713.62A6.1,6.1,0,0,1,0,716.23ZM1.56,709h0ZM-14.33,686.3,0,706.81,14.33,686.3Z" transform="translate(121.15 23.87)" style="fill:#cbc6b7"/></g><g id="图层_4" data-name="图层 4"><path d="M478.32,362.11l-115.19,163a3.69,3.69,0,0,1-6,0l-115.19-163a3.69,3.69,0,0,1,0-4.26l115.19-163a3.69,3.69,0,0,1,6,0l115.19,163A3.69,3.69,0,0,1,478.32,362.11Z" transform="translate(121.15 23.87)" style="fill:#121423"/><path d="M360.12,530.66a7.71,7.71,0,0,1-6.28-3.25l-115.19-163a7.71,7.71,0,0,1,0-8.88l115.19-163a7.71,7.71,0,0,1,6.28-3.25h0a7.71,7.71,0,0,1,6.28,3.25l115.19,163a7.71,7.71,0,0,1,0,8.88l-115.19,163A7.7,7.7,0,0,1,360.12,530.66ZM245.3,360,360.12,522.43,474.93,360,360.12,197.53Zm229.76-.18h0Z" transform="translate(121.15 23.87)" style="fill:#cbc6b7"/><path d="M121.12,530.66a7.71,7.71,0,0,1-6.28-3.25L-.36,364.42a7.71,7.71,0,0,1,0-8.88l115.19-163a7.71,7.71,0,0,1,6.28-3.25h0a7.71,7.71,0,0,1,6.28,3.25l115.19,163a7.71,7.71,0,0,1,0,8.88l-115.19,163A7.7,7.7,0,0,1,121.12,530.66ZM6.3,360,121.12,522.43,235.93,360,121.12,197.53Zm229.76-.18h0Z" transform="translate(121.15 23.87)" style="fill:#cbc6b7"/><path d="M479.62,283.43a8.45,8.45,0,0,1-6.89-3.56L360.47,121a.43.43,0,0,0-.71,0L247.5,279.87a8.43,8.43,0,0,1-13.77,0L121.47,121a.43.43,0,0,0-.71,0L8.5,279.87a8.43,8.43,0,0,1-13.77,0l-115.88-164,6.53-4.62,115.88,164a.4.4,0,0,0,.35.18.41.41,0,0,0,.35-.18L114.23,116.41a8.43,8.43,0,0,1,13.77,0L240.26,275.25a.43.43,0,0,0,.71,0L353.23,116.41a8.45,8.45,0,0,1,6.89-3.57h0a8.44,8.44,0,0,1,6.89,3.57L479.26,275.25a.43.43,0,0,0,.71,0L592.23,116.41a8.45,8.45,0,0,1,6.89-3.57h0a8.44,8.44,0,0,1,6.88,3.57L717.26,273.83a.43.43,0,0,0,.71,0L832.85,111.29l6.53,4.62L724.5,278.45a8.43,8.43,0,0,1-13.77,0L599.47,121a.43.43,0,0,0-.71,0L486.5,279.87A8.44,8.44,0,0,1,479.62,283.43Z" transform="translate(121.15 23.87)" style="fill:#cbc6b7"/><path d="M479.62,168.28a10,10,0,0,1-8.17-4.23L361.75,8.84a2,2,0,0,0-3.27,0L248.79,164.05a10,10,0,0,1-16.34,0L122.75,8.84a2,2,0,0,0-3.27,0L9.79,164.05a10,10,0,0,1-16.34,0L-121.15,1.91l6.53-4.62L0,159.44a2,2,0,0,0,1.64.85,2,2,0,0,0,1.64-.85L112.95,4.23a10,10,0,0,1,16.34,0L239,159.44a2,2,0,0,0,3.27,0L351.95,4.23a10,10,0,0,1,16.34,0L478,159.44a2,2,0,0,0,3.27,0L590.95,4.23a10,10,0,0,1,16.34,0L716,158a2,2,0,0,0,3.27,0L832.85-2.71l6.53,4.62L725.79,162.64a10,10,0,0,1-16.34,0L600.75,8.84a2,2,0,0,0-3.27,0L487.79,164.05A10,10,0,0,1,479.62,168.28Z" transform="translate(121.15 23.87)" style="fill:#cbc6b7"/><path d="M832.85,611,718.31,448.92a.82.82,0,0,0-.69-.36h0a.82.82,0,0,0-.69.36L606.34,605.39a8.85,8.85,0,0,1-14.45,0L480.31,447.51a.85.85,0,0,0-1.39,0L367.34,605.39a8.85,8.85,0,0,1-14.45,0L241.31,447.51a.85.85,0,0,0-1.39,0L128.34,605.39a8.86,8.86,0,0,1-7.23,3.74h0a8.86,8.86,0,0,1-7.23-3.74L2.31,447.51a.82.82,0,0,0-.69-.36.82.82,0,0,0-.69.36L-114.62,611l-6.53-4.62L-5.61,442.89a8.85,8.85,0,0,1,14.45,0L120.43,600.77a.85.85,0,0,0,1.39,0L233.39,442.89a8.85,8.85,0,0,1,14.45,0L359.43,600.77a.85.85,0,0,0,1.39,0L472.39,442.89a8.86,8.86,0,0,1,7.23-3.74h0a8.86,8.86,0,0,1,7.22,3.74L598.42,600.77a.85.85,0,0,0,1.39,0L710.39,444.31a8.86,8.86,0,0,1,7.23-3.74h0a8.86,8.86,0,0,1,7.22,3.74L839.38,606.37Z" transform="translate(121.15 23.87)" style="fill:#cbc6b7"/><path d="M832.85,725,721.14,566.93a4.31,4.31,0,0,0-7,0L609.17,715.38a12.31,12.31,0,0,1-20.11,0L483.14,565.51a4.31,4.31,0,0,0-7,0L370.17,715.38a12.33,12.33,0,0,1-10.05,5.21h0a12.33,12.33,0,0,1-10.05-5.21L244.14,565.51a4.31,4.31,0,0,0-7,0L131.17,715.38a12.31,12.31,0,0,1-20.11,0L5.14,565.51a4.26,4.26,0,0,0-3.52-1.82,4.26,4.26,0,0,0-3.52,1.82L-114.62,725l-6.53-4.62L-8.44,560.89a12.31,12.31,0,0,1,20.11,0L117.6,710.77a4.31,4.31,0,0,0,7,0L230.56,560.89a12.31,12.31,0,0,1,20.11,0L356.6,710.77a4.26,4.26,0,0,0,3.52,1.82h0a4.26,4.26,0,0,0,3.52-1.82L469.56,560.89a12.31,12.31,0,0,1,20.11,0L595.6,710.77a4.31,4.31,0,0,0,7,0L707.56,562.31a12.31,12.31,0,0,1,20.11,0L839.38,720.37Z" transform="translate(121.15 23.87)" style="fill:#cbc6b7"/><path d="M479.83,283" transform="translate(121.15 23.87)" style="fill:none;stroke:#cbc6b7;stroke-miterlimit:10;stroke-width:8px"/><path d="M240.83,283" transform="translate(121.15 23.87)" style="fill:none;stroke:#cbc6b7;stroke-miterlimit:10;stroke-width:8px"/><path d="M1.83,283" transform="translate(121.15 23.87)" style="fill:none;stroke:#cbc6b7;stroke-miterlimit:10;stroke-width:8px"/><path d="M600.12,530.66a7.7,7.7,0,0,1-6.28-3.25l-115.19-163a7.71,7.71,0,0,1,0-8.88l115.19-163a7.69,7.69,0,0,1,12.57,0l115.19,163a7.71,7.71,0,0,1,0,8.88l-115.19,163A7.7,7.7,0,0,1,600.12,530.66ZM485.3,360,600.12,522.43,714.93,360,600.12,197.53Z" transform="translate(121.15 23.87)" style="fill:#cbc6b7"/><path d="M600.12,360.94a5.15,5.15,0,0,1-4.39-2.47L558,297.62a5.55,5.55,0,0,1,0-5.81L595.73,231a5.13,5.13,0,0,1,8.77,0l37.77,60.84a5.55,5.55,0,0,1,0,5.81h0L604.5,358.46A5.15,5.15,0,0,1,600.12,360.94Zm-34.55-66.22,34.55,55.65,34.54-55.65-34.55-55.65Zm69.91-1.31h0Z" transform="translate(121.15 23.87)" style="fill:#cbc6b7"/><path d="M600.12,325.7a4.49,4.49,0,0,1-3.83-2.14l-16.38-26.39a4.68,4.68,0,0,1,0-4.91l16.38-26.38a4.49,4.49,0,0,1,7.65,0l16.38,26.39a4.7,4.7,0,0,1,0,4.9h0l-16.38,26.39A4.49,4.49,0,0,1,600.12,325.7Zm-12.31-31,12.31,19.84,12.31-19.84-12.31-19.84Zm-1.09,1.76h0Zm0-3.53h0Z" transform="translate(121.15 23.87)" style="fill:#cbc6b7"/><path d="M600.12,488.58a5.15,5.15,0,0,1-4.39-2.47L558,425.27a5.55,5.55,0,0,1,0-5.81l37.77-60.85a5.13,5.13,0,0,1,8.77,0l37.77,60.84a5.55,5.55,0,0,1,0,5.81L604.5,486.11A5.15,5.15,0,0,1,600.12,488.58Zm-34.55-66.22L600.12,478l34.54-55.65-34.55-55.65ZM635.48,421h0Z" transform="translate(121.15 23.87)" style="fill:#cbc6b7"/><path d="M600.12,454.47a4.51,4.51,0,0,1-3.85-2.16l-17.06-27.49a4.71,4.71,0,0,1,0-4.94l17.07-27.49a4.51,4.51,0,0,1,7.69,0L621,419.89a4.71,4.71,0,0,1,0,4.94L604,452.32A4.5,4.5,0,0,1,600.12,454.47Zm-13-32.11,13,21,13-21-13-21ZM586,420.61h0Z" transform="translate(121.15 23.87)" style="fill:#cbc6b7"/><path d="M520.12,417.69a5.22,5.22,0,0,1-4.26-2.2L478.09,362a5.22,5.22,0,0,1,0-6l37.77-53.44a5.21,5.21,0,0,1,8.51,0L562.14,356a5.22,5.22,0,0,1,0,6h0l-37.77,53.44A5.22,5.22,0,0,1,520.12,417.69ZM485.76,359l34.36,48.61L554.47,359l-34.36-48.61Z" transform="translate(121.15 23.87)" style="fill:#cbc6b7"/><path d="M680.12,420.69a5.22,5.22,0,0,1-4.26-2.2L638.09,365a5.22,5.22,0,0,1,0-6l37.77-53.44a5.21,5.21,0,0,1,8.51,0L722.14,359a5.22,5.22,0,0,1,0,6h0l-37.77,53.44A5.22,5.22,0,0,1,680.12,420.69ZM645.76,362l34.36,48.61L714.47,362l-34.35-48.61Z" transform="translate(121.15 23.87)" style="fill:#cbc6b7"/><path d="M479.12,502.62a4.63,4.63,0,0,1-3.77-2l-19.44-27.5a4.62,4.62,0,0,1,0-5.34l19.43-27.5a4.62,4.62,0,0,1,7.55,0l19.44,27.5a4.63,4.63,0,0,1,0,5.34l-19.44,27.5A4.63,4.63,0,0,1,479.12,502.62Zm-15.3-32.12,15.3,21.65,15.3-21.65-15.3-21.65Zm32,1.95h0Zm-33.35,0h0Zm0-3.9h0Zm33.37,0h0Z" transform="translate(121.15 23.87)" style="fill:#cbc6b7"/><path d="M240.12,502.62a4.63,4.63,0,0,1-3.78-2l-19.43-27.5a4.62,4.62,0,0,1,0-5.34l19.43-27.5a4.62,4.62,0,0,1,7.55,0l19.43,27.5a4.62,4.62,0,0,1,0,5.34l-19.43,27.5A4.63,4.63,0,0,1,240.12,502.62Zm-15.3-32.12,15.3,21.65,15.3-21.65-15.3-21.65Zm32,1.95h0Zm-33.35,0h0Zm0-3.9h0Z" transform="translate(121.15 23.87)" style="fill:#cbc6b7"/><path d="M1.12,502.62a4.63,4.63,0,0,1-3.78-2l-19.43-27.5a4.62,4.62,0,0,1,0-5.34l19.43-27.5a4.62,4.62,0,0,1,7.55,0l19.43,27.5a4.62,4.62,0,0,1,0,5.34L4.89,500.67A4.63,4.63,0,0,1,1.12,502.62Zm-15.3-32.12,15.3,21.65,15.3-21.65L1.12,448.85Zm32,1.95h0Zm-33.35,0h0Zm0-3.9h0Z" transform="translate(121.15 23.87)" style="fill:#cbc6b7"/><path d="M718.12,502.62a4.63,4.63,0,0,1-3.77-2l-19.44-27.5a4.62,4.62,0,0,1,0-5.34l19.43-27.5a4.62,4.62,0,0,1,7.55,0l19.44,27.5a4.63,4.63,0,0,1,0,5.34l-19.44,27.5A4.63,4.63,0,0,1,718.12,502.62Zm-15.3-32.12,15.3,21.65,15.3-21.65-15.3-21.65Zm32,1.95h0Zm-33.35,0h0Zm0-3.9h0Zm33.37,0h0Z" transform="translate(121.15 23.87)" style="fill:#cbc6b7"/><path d="M479.12,283.62a4.63,4.63,0,0,1-3.77-1.95l-19.44-27.51a4.63,4.63,0,0,1,0-5.33l19.44-27.5a4.62,4.62,0,0,1,7.55,0l19.44,27.51a4.63,4.63,0,0,1,0,5.33h0l-19.44,27.5A4.64,4.64,0,0,1,479.12,283.62Zm-15.3-32.12,15.3,21.65,15.3-21.65-15.3-21.65Zm32-1.95Z" transform="translate(121.15 23.87)" style="fill:#cbc6b7"/><path d="M240.12,283.62a4.63,4.63,0,0,1-3.78-2l-19.44-27.5a4.63,4.63,0,0,1,0-5.33l19.44-27.5a4.62,4.62,0,0,1,7.55,0l19.44,27.5a4.63,4.63,0,0,1,0,5.33h0l-19.44,27.5A4.63,4.63,0,0,1,240.12,283.62Zm-15.3-32.12,15.3,21.65,15.3-21.65-15.3-21.65Zm32-1.95Z" transform="translate(121.15 23.87)" style="fill:#cbc6b7"/><path d="M1.12,283.62a4.63,4.63,0,0,1-3.78-2l-19.44-27.5a4.63,4.63,0,0,1,0-5.33l19.44-27.5a4.62,4.62,0,0,1,7.55,0l19.44,27.5a4.63,4.63,0,0,1,0,5.33h0L4.89,281.67A4.63,4.63,0,0,1,1.12,283.62Zm-15.3-32.12,15.3,21.65,15.3-21.65L1.12,229.85Zm32-1.95Z" transform="translate(121.15 23.87)" style="fill:#cbc6b7"/><path d="M718.12,283.62a4.63,4.63,0,0,1-3.77-1.95l-19.44-27.51a4.63,4.63,0,0,1,0-5.33l19.44-27.5a4.62,4.62,0,0,1,7.55,0l19.44,27.51a4.63,4.63,0,0,1,0,5.33h0l-19.44,27.5A4.64,4.64,0,0,1,718.12,283.62Zm-15.3-32.12,15.3,21.65,15.3-21.65-15.3-21.65Zm32-1.95Z" transform="translate(121.15 23.87)" style="fill:#cbc6b7"/><path d="M599.12,64.62a4.63,4.63,0,0,1-3.77-1.95L575.91,35.17a4.63,4.63,0,0,1,0-5.33l19.44-27.5a4.62,4.62,0,0,1,7.55,0l19.44,27.51a4.63,4.63,0,0,1,0,5.33h0l-19.44,27.5A4.64,4.64,0,0,1,599.12,64.62ZM583.82,32.5l15.3,21.65,15.3-21.65-15.3-21.65Zm32-1.95Z" transform="translate(121.15 23.87)" style="fill:#cbc6b7"/><path d="M360.12,64.62a4.63,4.63,0,0,1-3.78-2l-19.44-27.5a4.63,4.63,0,0,1,0-5.33l19.44-27.5a4.62,4.62,0,0,1,7.55,0l19.44,27.5a4.63,4.63,0,0,1,0,5.33h0l-19.44,27.5A4.63,4.63,0,0,1,360.12,64.62ZM344.82,32.5l15.3,21.65,15.3-21.65-15.3-21.65Z" transform="translate(121.15 23.87)" style="fill:#cbc6b7"/><path d="M121.12,64.62a4.63,4.63,0,0,1-3.78-2L97.91,35.17a4.63,4.63,0,0,1,0-5.33l19.44-27.5a4.62,4.62,0,0,1,7.55,0l19.44,27.5a4.63,4.63,0,0,1,0,5.33h0l-19.44,27.5A4.63,4.63,0,0,1,121.12,64.62ZM105.82,32.5l15.3,21.65,15.3-21.65-15.3-21.65Zm32-1.95Z" transform="translate(121.15 23.87)" style="fill:#cbc6b7"/><path d="M599.12,723.62a4.63,4.63,0,0,1-3.77-2l-19.44-27.5a4.62,4.62,0,0,1,0-5.34l19.43-27.5a4.62,4.62,0,0,1,7.55,0l19.44,27.5a4.63,4.63,0,0,1,0,5.34l-19.44,27.5A4.63,4.63,0,0,1,599.12,723.62Zm-15.3-32.12,15.3,21.65,15.3-21.65-15.3-21.65Zm32,1.95h0Zm-33.35,0h0Zm0-3.9h0Zm33.37,0h0Z" transform="translate(121.15 23.87)" style="fill:#cbc6b7"/><path d="M360.12,723.62a4.63,4.63,0,0,1-3.78-2l-19.43-27.5a4.62,4.62,0,0,1,0-5.34l19.43-27.5a4.62,4.62,0,0,1,7.55,0l19.44,27.5a4.63,4.63,0,0,1,0,5.34l-19.44,27.5A4.62,4.62,0,0,1,360.12,723.62Zm-15.3-32.12,15.3,21.65,15.3-21.65-15.3-21.65Zm32,1.95h0Zm-33.35,0h0Zm0-3.9h0Z" transform="translate(121.15 23.87)" style="fill:#cbc6b7"/><path d="M121.12,723.62a4.63,4.63,0,0,1-3.78-2l-19.43-27.5a4.62,4.62,0,0,1,0-5.34l19.43-27.5a4.62,4.62,0,0,1,7.55,0l19.43,27.5a4.62,4.62,0,0,1,0,5.34l-19.43,27.5A4.63,4.63,0,0,1,121.12,723.62Zm-15.3-32.12,15.3,21.65,15.3-21.65-15.3-21.65Zm32,1.95h0Zm-33.35,0h0Zm0-3.9h0Z" transform="translate(121.15 23.87)" style="fill:#cbc6b7"/><path d="M121.12,360.94a5.15,5.15,0,0,1-4.39-2.47L79,297.62a5.55,5.55,0,0,1,0-5.81L116.73,231a5.13,5.13,0,0,1,8.77,0l37.77,60.84a5.55,5.55,0,0,1,0,5.81h0l-37.77,60.84A5.15,5.15,0,0,1,121.12,360.94ZM86.57,294.71l34.54,55.65,34.55-55.65-34.55-55.65Zm69.9-1.31h0Z" transform="translate(121.15 23.87)" style="fill:#cbc6b7"/><path d="M121.12,325.7h0a4.48,4.48,0,0,1-3.83-2.15l-16.38-26.38a4.69,4.69,0,0,1,0-4.91l16.38-26.39a4.48,4.48,0,0,1,3.82-2.14h0a4.49,4.49,0,0,1,3.83,2.14l16.38,26.39a4.69,4.69,0,0,1,0,4.91h0l-16.38,26.39A4.48,4.48,0,0,1,121.12,325.7Zm-12.31-31,12.31,19.84,12.31-19.84-12.31-19.84Z" transform="translate(121.15 23.87)" style="fill:#cbc6b7"/><path d="M121.12,488.58a5.15,5.15,0,0,1-4.39-2.47L79,425.27a5.54,5.54,0,0,1,0-5.81l37.77-60.84a5.13,5.13,0,0,1,8.77,0l37.77,60.85a5.55,5.55,0,0,1,0,5.81l-37.77,60.84A5.15,5.15,0,0,1,121.12,488.58ZM86.57,422.36,121.12,478l34.55-55.65-34.55-55.65ZM156.48,421h0Z" transform="translate(121.15 23.87)" style="fill:#cbc6b7"/><path d="M121.12,454.47a4.51,4.51,0,0,1-3.85-2.16l-17.06-27.49a4.71,4.71,0,0,1,0-4.94l17.07-27.49a4.51,4.51,0,0,1,7.69,0L142,419.89a4.71,4.71,0,0,1,0,4.94L125,452.32A4.5,4.5,0,0,1,121.12,454.47Zm-13-32.11,13,21,13-21-13-21ZM107,420.61h0Zm28.23,0h0Z" transform="translate(121.15 23.87)" style="fill:#cbc6b7"/><path d="M41.12,417.69a5.22,5.22,0,0,1-4.25-2.2L-.91,362a5.22,5.22,0,0,1,0-6l37.77-53.44a5.21,5.21,0,0,1,8.51,0L83.14,356a5.22,5.22,0,0,1,0,6h0L45.37,415.48A5.22,5.22,0,0,1,41.12,417.69ZM6.76,359l34.35,48.61L75.47,359,41.12,310.43Z" transform="translate(121.15 23.87)" style="fill:#cbc6b7"/><path d="M200.12,417.69a5.22,5.22,0,0,1-4.25-2.2L158.09,362a5.22,5.22,0,0,1,0-6l37.77-53.44a5.21,5.21,0,0,1,8.51,0L242.14,356a5.22,5.22,0,0,1,0,6h0l-37.77,53.44A5.22,5.22,0,0,1,200.12,417.69ZM165.76,359l34.35,48.61L234.47,359l-34.35-48.61Z" transform="translate(121.15 23.87)" style="fill:#cbc6b7"/><path d="M526.91,359.36l-5,6.29a2.31,2.31,0,0,1-3.77,0l-5-6.29a4,4,0,0,1,0-4.71l5-6.29a2.31,2.31,0,0,1,3.77,0l5,6.29A4,4,0,0,1,526.91,359.36Z" transform="translate(121.15 23.87)" style="fill:#cbc6b7"/><path d="M686.91,359.36l-5,6.29a2.31,2.31,0,0,1-3.77,0l-5-6.29a4,4,0,0,1,0-4.71l5-6.29a2.31,2.31,0,0,1,3.77,0l5,6.29A4,4,0,0,1,686.91,359.36Z" transform="translate(121.15 23.87)" style="fill:#cbc6b7"/><path d="M47.91,359.36l-5,6.29a2.31,2.31,0,0,1-3.77,0l-5-6.29a4,4,0,0,1,0-4.71l5-6.29a2.31,2.31,0,0,1,3.77,0l5,6.29A4,4,0,0,1,47.91,359.36Z" transform="translate(121.15 23.87)" style="fill:#cbc6b7"/><path d="M207.91,359.36l-5,6.29a2.31,2.31,0,0,1-3.77,0l-5-6.29a4,4,0,0,1,0-4.71l5-6.29a2.31,2.31,0,0,1,3.77,0l5,6.29A4,4,0,0,1,207.91,359.36Z" transform="translate(121.15 23.87)" style="fill:#cbc6b7"/><path d="M363.7,289.25,387,248.39A3.61,3.61,0,0,0,383.9,243H337.24a3.61,3.61,0,0,0-3.13,5.39l23.33,40.86A3.61,3.61,0,0,0,363.7,289.25Z" transform="translate(121.15 23.87)" style="fill:#fe2e1b"/><path d="M329,344.06l25.66-45.68a3.61,3.61,0,0,0-3.14-5.37H300.21a3.61,3.61,0,0,0-3.14,5.37l25.66,45.68A3.61,3.61,0,0,0,329,344.06Z" transform="translate(121.15 23.87)" style="fill:#fe2e1b"/><path d="M398.41,344.06l25.66-45.68a3.61,3.61,0,0,0-3.14-5.37H369.6a3.61,3.61,0,0,0-3.14,5.37l25.66,45.68A3.61,3.61,0,0,0,398.41,344.06Z" transform="translate(121.15 23.87)" style="fill:#fe2e1b"/><path d="M362.7,424.75,386,465.61A3.61,3.61,0,0,1,382.9,471H336.24a3.61,3.61,0,0,1-3.13-5.39l23.33-40.86A3.61,3.61,0,0,1,362.7,424.75Z" transform="translate(121.15 23.87)" style="fill:#fe2e1b"/><path d="M328,369.94l25.66,45.68a3.61,3.61,0,0,1-3.14,5.37H299.21a3.61,3.61,0,0,1-3.14-5.37l25.66-45.68A3.61,3.61,0,0,1,328,369.94Z" transform="translate(121.15 23.87)" style="fill:#fe2e1b"/><path d="M397.41,369.94l25.66,45.68a3.61,3.61,0,0,1-3.14,5.37H368.6a3.61,3.61,0,0,1-3.14-5.37l25.66-45.68A3.61,3.61,0,0,1,397.41,369.94Z" transform="translate(121.15 23.87)" style="fill:#fe2e1b"/><path d="M376,361.12l-13.48,20.59a2.66,2.66,0,0,1-4.45,0l-13.48-20.59a8.18,8.18,0,0,1,0-8.24l13.48-20.59a2.66,2.66,0,0,1,4.45,0L376,352.88A8.18,8.18,0,0,1,376,361.12Z" transform="translate(121.15 23.87)" style="fill:#fe2e1b"/><rect x="383.15" y="370.87" width="50" height="22" rx="11" ry="11" style="fill:#fe2e1b"/><rect x="529.15" y="370.87" width="50" height="22" rx="11" ry="11" style="fill:#fe2e1b"/><path d="M86.75,133.59a11.71,11.71,0,0,1-9.4-4.66L51.82,95.42l6.36-4.85,25.53,33.51a3.8,3.8,0,0,0,3,1.51h.07A3.8,3.8,0,0,0,89.89,124l2.52-3.57a3.82,3.82,0,0,0-.09-4.54L76.33,95a11.78,11.78,0,0,1-.28-14l2.67-3.78a11.83,11.83,0,0,1,18.91-.57l28.5,35.88-6.26,5L91.38,81.62a3.75,3.75,0,0,0-3.1-1.43,3.8,3.8,0,0,0-3,1.62L82.59,85.6a3.82,3.82,0,0,0,.09,4.54l16,20.85a11.78,11.78,0,0,1,.28,14l-2.52,3.57a11.72,11.72,0,0,1-9.45,5Z" transform="translate(121.15 23.87)" style="fill:#cbc6b7"/><path d="M155.25,133.59H155a11.72,11.72,0,0,1-9.45-5L143.06,125a11.78,11.78,0,0,1,.28-14l16-20.85a3.82,3.82,0,0,0,.09-4.54l-2.67-3.78a3.83,3.83,0,0,0-6.12-.18l-28.48,35.85-6.26-5,28.49-35.86a11.83,11.83,0,0,1,18.92.56L165.94,81a11.78,11.78,0,0,1-.28,14l-16,20.85a3.82,3.82,0,0,0-.09,4.54l2.52,3.57a3.8,3.8,0,0,0,3.06,1.62h.07a3.8,3.8,0,0,0,3-1.51l25.53-33.51,6.36,4.85-25.53,33.51A11.71,11.71,0,0,1,155.25,133.59Z" transform="translate(121.15 23.87)" style="fill:#cbc6b7"/><path d="M325.75,133.59a11.71,11.71,0,0,1-9.4-4.66L290.82,95.42l6.36-4.85,25.53,33.51a3.9,3.9,0,0,0,3.12,1.51,3.8,3.8,0,0,0,3.06-1.62l2.52-3.57a3.82,3.82,0,0,0-.09-4.54L315.33,95a11.78,11.78,0,0,1-.28-14l2.67-3.78a11.83,11.83,0,0,1,18.91-.57l28.5,35.88-6.26,5L330.38,81.62a3.75,3.75,0,0,0-3.1-1.43,3.8,3.8,0,0,0-3,1.62l-2.67,3.78a3.82,3.82,0,0,0,.09,4.54l16,20.85a11.78,11.78,0,0,1,.28,14l-2.52,3.57a11.72,11.72,0,0,1-9.45,5Z" transform="translate(121.15 23.87)" style="fill:#cbc6b7"/><path d="M394.25,133.59H394a11.72,11.72,0,0,1-9.45-5L382.06,125a11.78,11.78,0,0,1,.28-14l16-20.85a3.82,3.82,0,0,0,.09-4.54l-2.67-3.78a3.8,3.8,0,0,0-3-1.62,3.75,3.75,0,0,0-3.11,1.44l-28.48,35.85-6.26-5,28.49-35.86a11.83,11.83,0,0,1,18.92.56L404.94,81a11.78,11.78,0,0,1-.28,14l-16,20.85a3.82,3.82,0,0,0-.09,4.54l2.52,3.57a3.8,3.8,0,0,0,3.06,1.62,3.9,3.9,0,0,0,3.12-1.51l25.53-33.51,6.36,4.85-25.53,33.51A11.71,11.71,0,0,1,394.25,133.59Z" transform="translate(121.15 23.87)" style="fill:#cbc6b7"/><path d="M564.75,133.59a11.71,11.71,0,0,1-9.4-4.66L529.82,95.42l6.36-4.85,25.53,33.51a3.91,3.91,0,0,0,3.12,1.51,3.8,3.8,0,0,0,3.06-1.62l2.52-3.57a3.82,3.82,0,0,0-.09-4.54L554.33,95a11.78,11.78,0,0,1-.28-14l2.67-3.78a11.83,11.83,0,0,1,18.91-.57l28.5,35.88-6.26,5L569.38,81.62a3.83,3.83,0,0,0-6.12.19l-2.67,3.78a3.82,3.82,0,0,0,.09,4.54l16,20.85a11.78,11.78,0,0,1,.28,14l-2.52,3.57a11.72,11.72,0,0,1-9.45,5Z" transform="translate(121.15 23.87)" style="fill:#cbc6b7"/><path d="M633.25,133.59H633a11.72,11.72,0,0,1-9.45-5L621.06,125a11.78,11.78,0,0,1,.28-14l16-20.85a3.82,3.82,0,0,0,.09-4.54l-2.67-3.78a3.8,3.8,0,0,0-3-1.62,3.76,3.76,0,0,0-3.11,1.44l-28.48,35.85-6.26-5,28.49-35.86a11.83,11.83,0,0,1,18.92.56L643.94,81a11.78,11.78,0,0,1-.28,14l-16,20.85a3.82,3.82,0,0,0-.09,4.54l2.52,3.57a3.8,3.8,0,0,0,3.06,1.62,3.93,3.93,0,0,0,3.12-1.51l25.53-33.51,6.36,4.85-25.53,33.51A11.71,11.71,0,0,1,633.25,133.59Z" transform="translate(121.15 23.87)" style="fill:#cbc6b7"/><path d="M-32.25,573.59a11.71,11.71,0,0,1-9.4-4.66l-25.53-33.51,6.36-4.85,25.53,33.51a3.68,3.68,0,0,0,3.12,1.51A3.79,3.79,0,0,0-29.11,564l2.52-3.57a3.82,3.82,0,0,0-.09-4.54l-16-20.85a11.78,11.78,0,0,1-.28-14l2.67-3.78a11.74,11.74,0,0,1,9.31-5,11.73,11.73,0,0,1,9.6,4.44l28.5,35.88-6.26,5-28.49-35.87a3.74,3.74,0,0,0-3.1-1.43,3.8,3.8,0,0,0-3,1.62l-2.67,3.78a3.82,3.82,0,0,0,.09,4.54l16,20.85a11.78,11.78,0,0,1,.28,14l-2.52,3.57a11.72,11.72,0,0,1-9.45,5Z" transform="translate(121.15 23.87)" style="fill:#cbc6b7"/><path d="M36.25,573.59H36a11.72,11.72,0,0,1-9.45-5L24.06,565a11.78,11.78,0,0,1,.28-14l16-20.85a3.82,3.82,0,0,0,.09-4.54l-2.67-3.78a3.8,3.8,0,0,0-3-1.62,3.75,3.75,0,0,0-3.11,1.44L3.13,557.49l-6.26-5,28.49-35.87a11.83,11.83,0,0,1,18.92.56L46.94,521a11.78,11.78,0,0,1-.28,14l-16,20.85a3.82,3.82,0,0,0-.09,4.54L33.11,564a3.8,3.8,0,0,0,3.06,1.62,3.7,3.7,0,0,0,3.12-1.51l25.53-33.51,6.36,4.85L45.65,568.93A11.71,11.71,0,0,1,36.25,573.59Z" transform="translate(121.15 23.87)" style="fill:#cbc6b7"/><path d="M206.75,573.59a11.71,11.71,0,0,1-9.4-4.66l-25.53-33.51,6.36-4.85,25.53,33.51a3.67,3.67,0,0,0,3.12,1.51,3.79,3.79,0,0,0,3.06-1.62l2.52-3.57a3.82,3.82,0,0,0-.09-4.54l-16-20.85a11.78,11.78,0,0,1-.28-14l2.67-3.78a11.83,11.83,0,0,1,18.91-.57l28.5,35.88-6.26,5-28.49-35.87a3.74,3.74,0,0,0-3.1-1.43,3.8,3.8,0,0,0-3,1.62l-2.67,3.78a3.82,3.82,0,0,0,.09,4.54l16,20.85a11.78,11.78,0,0,1,.28,14l-2.52,3.57a11.72,11.72,0,0,1-9.45,5Z" transform="translate(121.15 23.87)" style="fill:#cbc6b7"/><path d="M275.25,573.59H275a11.72,11.72,0,0,1-9.45-5L263.06,565a11.78,11.78,0,0,1,.28-14l16-20.85a3.82,3.82,0,0,0,.09-4.54l-2.67-3.78a3.8,3.8,0,0,0-3-1.62,3.74,3.74,0,0,0-3.11,1.44l-28.48,35.85-6.26-5,28.49-35.87a11.83,11.83,0,0,1,18.92.56l2.67,3.78a11.78,11.78,0,0,1-.28,14l-16,20.85a3.82,3.82,0,0,0-.09,4.54l2.52,3.57a3.8,3.8,0,0,0,3.06,1.62,3.67,3.67,0,0,0,3.12-1.51l25.53-33.51,6.36,4.85-25.53,33.51A11.71,11.71,0,0,1,275.25,573.59Z" transform="translate(121.15 23.87)" style="fill:#cbc6b7"/><path d="M445.75,573.59a11.71,11.71,0,0,1-9.4-4.66l-25.53-33.51,6.36-4.85,25.53,33.51a3.83,3.83,0,0,0,6.18-.11l2.52-3.57a3.82,3.82,0,0,0-.09-4.54l-16-20.85a11.78,11.78,0,0,1-.28-14l2.67-3.78a11.83,11.83,0,0,1,18.91-.57l28.5,35.88-6.26,5-28.49-35.87a3.73,3.73,0,0,0-3.1-1.43,3.8,3.8,0,0,0-3,1.62l-2.67,3.78a3.82,3.82,0,0,0,.09,4.54l16,20.85a11.78,11.78,0,0,1,.28,14l-2.52,3.57a11.72,11.72,0,0,1-9.45,5Z" transform="translate(121.15 23.87)" style="fill:#cbc6b7"/><path d="M514.25,573.59H514a11.72,11.72,0,0,1-9.45-5L502.06,565a11.78,11.78,0,0,1,.28-14l16-20.85a3.81,3.81,0,0,0,.09-4.54l-2.67-3.78a3.8,3.8,0,0,0-3-1.62,3.72,3.72,0,0,0-3.11,1.44l-28.48,35.85-6.26-5,28.49-35.87a11.83,11.83,0,0,1,18.92.56l2.67,3.78a11.78,11.78,0,0,1-.28,14l-16,20.85a3.81,3.81,0,0,0-.09,4.54l2.52,3.57a3.83,3.83,0,0,0,6.18.11l25.53-33.51,6.36,4.85-25.53,33.51A11.71,11.71,0,0,1,514.25,573.59Z" transform="translate(121.15 23.87)" style="fill:#cbc6b7"/><path d="M682.75,573.59a11.71,11.71,0,0,1-9.4-4.66l-25.53-33.51,6.36-4.85,25.53,33.51a3.83,3.83,0,0,0,6.18-.11l2.52-3.57a3.82,3.82,0,0,0-.09-4.54l-16-20.85a11.78,11.78,0,0,1-.28-14l2.67-3.78a11.83,11.83,0,0,1,18.91-.57l28.5,35.88-6.26,5-28.49-35.87a3.75,3.75,0,0,0-3.1-1.43,3.8,3.8,0,0,0-3,1.62l-2.67,3.78a3.82,3.82,0,0,0,.09,4.54l16,20.85a11.78,11.78,0,0,1,.28,14l-2.52,3.57a11.72,11.72,0,0,1-9.45,5Z" transform="translate(121.15 23.87)" style="fill:#cbc6b7"/><path d="M751.25,573.59H751a11.72,11.72,0,0,1-9.45-5L739.06,565a11.78,11.78,0,0,1,.28-14l16-20.85a3.81,3.81,0,0,0,.09-4.54l-2.67-3.78a3.8,3.8,0,0,0-3-1.62,3.73,3.73,0,0,0-3.11,1.44l-28.48,35.85-6.26-5,28.49-35.87a11.83,11.83,0,0,1,18.92.56l2.67,3.78a11.78,11.78,0,0,1-.28,14l-16,20.85a3.81,3.81,0,0,0-.09,4.54l2.52,3.57a3.83,3.83,0,0,0,6.18.11l25.53-33.51,6.36,4.85-25.53,33.51A11.71,11.71,0,0,1,751.25,573.59Z" transform="translate(121.15 23.87)" style="fill:#cbc6b7"/><path d="M-30.6,208.59H-31a11.74,11.74,0,0,1-9.31-5l-2.67-3.78a11.78,11.78,0,0,1,.28-14l16-20.85a3.82,3.82,0,0,0,.09-4.54l-2.52-3.57a3.8,3.8,0,0,0-3.06-1.62,3.76,3.76,0,0,0-3.12,1.51l-25.53,33.51-6.36-4.85,25.53-33.51A11.75,11.75,0,0,1-32,147.2a11.72,11.72,0,0,1,9.45,5l2.52,3.57a11.78,11.78,0,0,1-.28,14l-16,20.85a3.82,3.82,0,0,0-.09,4.54l2.67,3.78a3.8,3.8,0,0,0,3,1.62,3.77,3.77,0,0,0,3.11-1.44L.87,163.3l6.26,5-28.49,35.86A11.74,11.74,0,0,1-30.6,208.59Z" transform="translate(121.15 23.87)" style="fill:#cbc6b7"/><path d="M34.6,208.59a11.73,11.73,0,0,1-9.23-4.44l-28.5-35.87,6.26-5,28.49,35.86a3.83,3.83,0,0,0,6.12-.19l2.67-3.78a3.82,3.82,0,0,0-.09-4.54l-16-20.85a11.78,11.78,0,0,1-.28-14l2.52-3.57a11.83,11.83,0,0,1,19.08-.35l25.53,33.51-6.36,4.85L39.29,156.71a3.83,3.83,0,0,0-6.18.11l-2.52,3.57a3.82,3.82,0,0,0,.09,4.54l16,20.85a11.78,11.78,0,0,1,.28,14l-2.67,3.78a11.74,11.74,0,0,1-9.31,5Z" transform="translate(121.15 23.87)" style="fill:#cbc6b7"/><path d="M208.4,208.59H208a11.74,11.74,0,0,1-9.31-5l-2.67-3.78a11.78,11.78,0,0,1,.28-14l16-20.85a3.82,3.82,0,0,0,.09-4.54l-2.52-3.57a3.83,3.83,0,0,0-6.18-.11l-25.53,33.51-6.36-4.85,25.53-33.51a11.83,11.83,0,0,1,19.08.35l2.52,3.57a11.78,11.78,0,0,1-.28,14l-16,20.85a3.82,3.82,0,0,0-.09,4.54l2.67,3.78a3.83,3.83,0,0,0,6.12.18l28.48-35.85,6.26,5-28.49,35.86A11.74,11.74,0,0,1,208.4,208.59Z" transform="translate(121.15 23.87)" style="fill:#cbc6b7"/><path d="M273.6,208.59a11.73,11.73,0,0,1-9.23-4.44l-28.5-35.87,6.26-5,28.49,35.86a3.83,3.83,0,0,0,6.12-.19l2.67-3.78a3.82,3.82,0,0,0-.09-4.54l-16-20.85a11.78,11.78,0,0,1-.28-14l2.52-3.57a11.83,11.83,0,0,1,19.08-.35l25.53,33.51-6.36,4.85-25.53-33.51a3.83,3.83,0,0,0-6.18.11l-2.52,3.57a3.82,3.82,0,0,0,.09,4.54l16,20.85a11.78,11.78,0,0,1,.28,14l-2.67,3.78a11.74,11.74,0,0,1-9.31,5Z" transform="translate(121.15 23.87)" style="fill:#cbc6b7"/><path d="M447.4,208.59H447a11.73,11.73,0,0,1-9.31-5l-2.67-3.78a11.78,11.78,0,0,1,.28-14l16-20.85a3.82,3.82,0,0,0,.09-4.54l-2.52-3.57a3.83,3.83,0,0,0-6.18-.11l-25.53,33.51-6.36-4.85,25.53-33.51a11.83,11.83,0,0,1,19.08.35l2.52,3.57a11.78,11.78,0,0,1-.28,14l-16,20.85a3.82,3.82,0,0,0-.09,4.54l2.67,3.78a3.8,3.8,0,0,0,3,1.62,3.75,3.75,0,0,0,3.11-1.44l28.48-35.85,6.26,5-28.49,35.86A11.74,11.74,0,0,1,447.4,208.59Z" transform="translate(121.15 23.87)" style="fill:#cbc6b7"/><path d="M512.6,208.59a11.73,11.73,0,0,1-9.23-4.44l-28.5-35.87,6.26-5,28.49,35.86a3.83,3.83,0,0,0,6.12-.19l2.67-3.78a3.82,3.82,0,0,0-.09-4.54l-16-20.85a11.78,11.78,0,0,1-.28-14l2.52-3.57a11.83,11.83,0,0,1,19.08-.35l25.53,33.51-6.36,4.85-25.53-33.51a3.79,3.79,0,0,0-3-1.51h-.07a3.8,3.8,0,0,0-3.06,1.62l-2.52,3.57a3.82,3.82,0,0,0,.09,4.54l16,20.85a11.78,11.78,0,0,1,.28,14l-2.67,3.78a11.73,11.73,0,0,1-9.31,5Z" transform="translate(121.15 23.87)" style="fill:#cbc6b7"/><path d="M88.4,652.59H88a11.74,11.74,0,0,1-9.31-5l-2.67-3.78a11.78,11.78,0,0,1,.28-14l16-20.85a3.82,3.82,0,0,0,.09-4.54l-2.52-3.57a3.8,3.8,0,0,0-3.06-1.62,3.71,3.71,0,0,0-3.12,1.51L58.18,634.21l-6.36-4.85,25.53-33.51a11.83,11.83,0,0,1,19.08.35l2.52,3.57a11.78,11.78,0,0,1-.28,14l-16,20.85a3.82,3.82,0,0,0-.09,4.54L85.26,643a3.8,3.8,0,0,0,3,1.62,3.73,3.73,0,0,0,3.11-1.44l28.48-35.85,6.26,5L97.64,648.14A11.73,11.73,0,0,1,88.4,652.59Z" transform="translate(121.15 23.87)" style="fill:#cbc6b7"/><path d="M153.6,652.59a11.72,11.72,0,0,1-9.23-4.44l-28.5-35.88,6.26-5,28.49,35.87a3.74,3.74,0,0,0,3.1,1.43,3.8,3.8,0,0,0,3-1.62l2.67-3.78a3.82,3.82,0,0,0-.09-4.54l-16-20.85a11.78,11.78,0,0,1-.28-14l2.52-3.57a11.83,11.83,0,0,1,19.08-.35l25.53,33.51-6.36,4.85-25.53-33.51a3.68,3.68,0,0,0-3.12-1.51,3.8,3.8,0,0,0-3.06,1.62l-2.52,3.57a3.82,3.82,0,0,0,.09,4.54l16,20.85a11.78,11.78,0,0,1,.28,14l-2.67,3.78a11.74,11.74,0,0,1-9.31,5Z" transform="translate(121.15 23.87)" style="fill:#cbc6b7"/><path d="M327.4,652.59H327a11.74,11.74,0,0,1-9.31-5l-2.67-3.78a11.78,11.78,0,0,1,.28-14l16-20.85a3.82,3.82,0,0,0,.09-4.54l-2.52-3.57a3.8,3.8,0,0,0-3.06-1.62,3.69,3.69,0,0,0-3.12,1.51l-25.53,33.51-6.36-4.85,25.53-33.51a11.83,11.83,0,0,1,19.08.35l2.52,3.57a11.78,11.78,0,0,1-.28,14l-16,20.85a3.82,3.82,0,0,0-.09,4.54l2.67,3.78a3.8,3.8,0,0,0,3,1.62,3.74,3.74,0,0,0,3.11-1.44l28.48-35.85,6.26,5-28.49,35.87A11.73,11.73,0,0,1,327.4,652.59Z" transform="translate(121.15 23.87)" style="fill:#cbc6b7"/><path d="M392.6,652.59a11.72,11.72,0,0,1-9.23-4.44l-28.5-35.88,6.26-5,28.49,35.87a3.71,3.71,0,0,0,3.1,1.43,3.8,3.8,0,0,0,3-1.62l2.67-3.78a3.82,3.82,0,0,0-.09-4.54l-16-20.85a11.78,11.78,0,0,1-.28-14l2.52-3.57a11.83,11.83,0,0,1,19.08-.35l25.53,33.51-6.36,4.85-25.53-33.51a3.71,3.71,0,0,0-3.12-1.51,3.8,3.8,0,0,0-3.06,1.62l-2.52,3.57a3.81,3.81,0,0,0,.09,4.54l16,20.85a11.78,11.78,0,0,1,.28,14l-2.67,3.78a11.73,11.73,0,0,1-9.31,5Z" transform="translate(121.15 23.87)" style="fill:#cbc6b7"/><path d="M566.4,652.59H566a11.74,11.74,0,0,1-9.31-5l-2.67-3.78a11.78,11.78,0,0,1,.28-14l16-20.85a3.81,3.81,0,0,0,.09-4.54l-2.52-3.57a3.79,3.79,0,0,0-3.06-1.62,3.71,3.71,0,0,0-3.12,1.51l-25.53,33.51-6.36-4.85,25.53-33.51A11.86,11.86,0,0,1,565,591.2a11.72,11.72,0,0,1,9.45,5l2.52,3.57a11.78,11.78,0,0,1-.28,14l-16,20.85a3.81,3.81,0,0,0-.09,4.54l2.67,3.78a3.8,3.8,0,0,0,3,1.62,3.72,3.72,0,0,0,3.11-1.44l28.48-35.85,6.26,5-28.49,35.87A11.73,11.73,0,0,1,566.4,652.59Z" transform="translate(121.15 23.87)" style="fill:#cbc6b7"/><path d="M631.6,652.59a11.72,11.72,0,0,1-9.23-4.44l-28.5-35.88,6.26-5,28.49,35.87a3.71,3.71,0,0,0,3.1,1.43,3.8,3.8,0,0,0,3-1.62l2.67-3.78a3.82,3.82,0,0,0-.09-4.54l-16-20.85a11.78,11.78,0,0,1-.28-14l2.52-3.57a11.83,11.83,0,0,1,19.08-.35l25.53,33.51-6.36,4.85-25.53-33.51a3.73,3.73,0,0,0-3.12-1.51,3.8,3.8,0,0,0-3.06,1.62l-2.52,3.57a3.81,3.81,0,0,0,.09,4.54l16,20.85a11.78,11.78,0,0,1,.28,14l-2.67,3.78a11.73,11.73,0,0,1-9.31,5Z" transform="translate(121.15 23.87)" style="fill:#cbc6b7"/><path d="M684.4,208.59H684a11.73,11.73,0,0,1-9.31-5l-2.67-3.78a11.78,11.78,0,0,1,.28-14l16-20.85a3.82,3.82,0,0,0,.09-4.54l-2.52-3.57a3.83,3.83,0,0,0-6.18-.11l-25.53,33.51-6.36-4.85,25.53-33.51a11.83,11.83,0,0,1,19.08.35l2.52,3.57a11.78,11.78,0,0,1-.28,14l-16,20.85a3.82,3.82,0,0,0-.09,4.54l2.67,3.78a3.83,3.83,0,0,0,6.12.18l28.48-35.85,6.26,5-28.49,35.86A11.74,11.74,0,0,1,684.4,208.59Z" transform="translate(121.15 23.87)" style="fill:#cbc6b7"/><path d="M749.6,208.59a11.73,11.73,0,0,1-9.23-4.44l-28.5-35.87,6.26-5,28.49,35.86a3.83,3.83,0,0,0,6.12-.19l2.67-3.78a3.82,3.82,0,0,0-.09-4.54l-16-20.85a11.78,11.78,0,0,1-.28-14l2.52-3.57a11.83,11.83,0,0,1,19.08-.35l25.53,33.51-6.36,4.85-25.53-33.51a3.79,3.79,0,0,0-3-1.51h-.07a3.8,3.8,0,0,0-3.06,1.62l-2.52,3.57a3.82,3.82,0,0,0,.09,4.54l16,20.85a11.78,11.78,0,0,1,.28,14l-2.67,3.78a11.73,11.73,0,0,1-9.31,5Z" transform="translate(121.15 23.87)" style="fill:#cbc6b7"/></g></svg>