<svg xmlns="http://www.w3.org/2000/svg" viewBox="0 0 274 392.47"><title>资源 1</title><g id="图层_2" data-name="图层 2"><g id="图层_1-2" data-name="图层 1"><rect x="8.04" y="11.52" width="257.91" height="369.42" style="fill:#ea888b"/><path d="M16.34,23.39V369.08H257.65V23.39ZM250.6,359H23.4V33.52H250.6Z" style="fill:#921979"/><path d="M0,0V392.47H274V0ZM266,381H8V11.49H266Z" style="fill:#ff00b3"/><rect x="23.4" y="33.52" width="227.19" height="325.43" style="fill:#9fb9b9"/><polygon points="137.79 33.52 23.4 193.74 141.81 358.95 250.6 196.24 137.79 33.52" style="fill:#93278f"/><polygon points="137.87 54.71 38.43 193.98 141.37 337.6 235.93 196.15 137.87 54.71" style="fill:#ecd7d3"/><polygon points="138.01 92.6 65.32 194.42 140.57 299.41 209.7 196 138.01 92.6" style="fill:#d70182"/><polygon points="138.22 147.41 104.2 195.06 139.41 244.18 171.76 195.79 138.22 147.41" style="fill:#ea888b"/><polygon points="23.4 34.53 23.4 119.22 86.64 119.22 23.4 34.53" style="fill:#ff00b3"/><polygon points="250.6 33.52 250.6 118.21 187.36 118.21 250.6 33.52" style="fill:#ff00b3"/><polygon points="250.42 358.95 250.6 274.26 187.36 274.08 250.42 358.95" style="fill:#ff00b3"/><polygon points="23.58 358.95 23.4 274.26 86.64 274.08 23.58 358.95" style="fill:#ff00b3"/></g></g></svg>