<svg id="图层_1" data-name="图层 1" xmlns="http://www.w3.org/2000/svg" viewBox="0 0 3401.57 5669.29"><title>Song-02降版 [转换]</title><rect x="1339.06" y="2478.34" width="727.5" height="717.06" style="fill:#cee7d2"/><rect x="1664" y="2798" width="103.05" height="40.57" style="fill:#cee7d2"/><polygon points="1664 2684.82 1664 2746.48 1715.52 2684.82 1664 2684.82" style="fill:#c81783"/><polygon points="1664 2746.48 1715.52 2746.48 1715.52 2684.82 1664 2746.48" style="fill:#951c5b"/><polygon points="1715.52 2798 1767.05 2798 1767.05 2746.48 1715.52 2798" style="fill:#c81783"/><polygon points="1715.52 2746.48 1715.52 2798 1767.05 2746.48 1715.52 2746.48" style="fill:#951c5b"/><polygon points="1664 2798 1715.52 2798 1664 2746.48 1664 2798" style="fill:#faebaf"/><polygon points="1664 2746.48 1715.52 2798 1715.52 2746.48 1664 2746.48" style="fill:#cee7d2"/><polygon points="1715.52 2684.82 1767.05 2746.48 1767.05 2684.82 1715.52 2684.82" style="fill:#faebaf"/><polygon points="1715.52 2746.48 1767.05 2746.48 1715.52 2684.82 1715.52 2746.48" style="fill:#cee7d2"/><polygon points="1767.05 2951.75 1767.05 2890.1 1715.52 2951.75 1767.05 2951.75" style="fill:#c81783"/><polygon points="1767.05 2890.1 1715.52 2890.1 1715.52 2951.75 1767.05 2890.1" style="fill:#cee7d2"/><polygon points="1715.52 2838.57 1664 2838.57 1664 2890.1 1715.52 2838.57" style="fill:#c81783"/><polygon points="1715.52 2890.1 1715.52 2838.57 1664 2890.1 1715.52 2890.1" style="fill:#cee7d2"/><polygon points="1767.05 2838.57 1715.52 2838.57 1767.05 2890.1 1767.05 2838.57" style="fill:#faebaf"/><polygon points="1767.05 2890.1 1715.52 2838.57 1715.52 2890.1 1767.05 2890.1" style="fill:#951c5b"/><polygon points="1715.52 2951.75 1664 2890.1 1664 2951.75 1715.52 2951.75" style="fill:#faebaf"/><polygon points="1715.52 2890.1 1664 2890.1 1715.52 2951.75 1715.52 2890.1" style="fill:#951c5b"/><polygon points="1715.52 2798 1701.48 2818.38 1715.52 2838.75 1729.57 2818.38 1715.52 2798" style="fill:#2468b3"/><rect x="1711.34" y="2814.1" width="8.38" height="8.38" style="fill:#c81783"/><rect x="2015.03" y="2798" width="103.05" height="40.57" style="fill:#cee7d2"/><polygon points="2015.03 2684.82 2015.03 2746.48 2066.56 2684.82 2015.03 2684.82" style="fill:#c81783"/><polygon points="2015.03 2746.48 2066.56 2746.48 2066.56 2684.82 2015.03 2746.48" style="fill:#951c5b"/><polygon points="2066.56 2798 2118.08 2798 2118.08 2746.48 2066.56 2798" style="fill:#c81783"/><polygon points="2066.56 2746.48 2066.56 2798 2118.08 2746.48 2066.56 2746.48" style="fill:#951c5b"/><polygon points="2015.03 2798 2066.56 2798 2015.03 2746.48 2015.03 2798" style="fill:#faebaf"/><polygon points="2015.03 2746.48 2066.56 2798 2066.56 2746.48 2015.03 2746.48" style="fill:#cee7d2"/><polygon points="2066.56 2684.82 2118.08 2746.48 2118.08 2684.82 2066.56 2684.82" style="fill:#faebaf"/><polygon points="2066.56 2746.48 2118.08 2746.48 2066.56 2684.82 2066.56 2746.48" style="fill:#cee7d2"/><polygon points="2118.08 2951.75 2118.08 2890.1 2066.56 2951.75 2118.08 2951.75" style="fill:#c81783"/><polygon points="2118.08 2890.1 2066.56 2890.1 2066.56 2951.75 2118.08 2890.1" style="fill:#cee7d2"/><polygon points="2066.56 2838.57 2015.03 2838.57 2015.03 2890.1 2066.56 2838.57" style="fill:#c81783"/><polygon points="2066.56 2890.1 2066.56 2838.57 2015.03 2890.1 2066.56 2890.1" style="fill:#cee7d2"/><polygon points="2118.08 2838.57 2066.56 2838.57 2118.08 2890.1 2118.08 2838.57" style="fill:#faebaf"/><polygon points="2118.08 2890.1 2066.56 2838.57 2066.56 2890.1 2118.08 2890.1" style="fill:#951c5b"/><polygon points="2066.56 2951.75 2015.03 2890.1 2015.03 2951.75 2066.56 2951.75" style="fill:#faebaf"/><polygon points="2066.56 2890.1 2015.03 2890.1 2066.56 2951.75 2066.56 2890.1" style="fill:#951c5b"/><polygon points="2066.56 2798 2052.51 2818.38 2066.56 2838.75 2080.6 2818.38 2066.56 2798" style="fill:#2468b3"/><rect x="2062.37" y="2814.1" width="8.37" height="8.38" style="fill:#c81783"/><rect x="1851.22" y="3081.99" width="103.05" height="40.57" style="fill:#cee7d2"/><polygon points="1851.22 2968.81 1851.22 3030.47 1902.74 2968.81 1851.22 2968.81" style="fill:#c81783"/><polygon points="1851.22 3030.47 1902.74 3030.47 1902.74 2968.81 1851.22 3030.47" style="fill:#951c5b"/><polygon points="1902.74 3081.99 1954.27 3081.99 1954.27 3030.47 1902.74 3081.99" style="fill:#c81783"/><polygon points="1902.74 3030.47 1902.74 3081.99 1954.27 3030.47 1902.74 3030.47" style="fill:#951c5b"/><polygon points="1851.22 3081.99 1902.74 3081.99 1851.22 3030.47 1851.22 3081.99" style="fill:#faebaf"/><polygon points="1851.22 3030.47 1902.74 3081.99 1902.74 3030.47 1851.22 3030.47" style="fill:#cee7d2"/><polygon points="1902.74 2968.81 1954.27 3030.47 1954.27 2968.81 1902.74 2968.81" style="fill:#faebaf"/><polygon points="1902.74 3030.47 1954.27 3030.47 1902.74 2968.81 1902.74 3030.47" style="fill:#cee7d2"/><polygon points="1954.27 3235.74 1954.27 3174.09 1902.74 3235.74 1954.27 3235.74" style="fill:#c81783"/><polygon points="1954.27 3174.09 1902.74 3174.09 1902.74 3235.74 1954.27 3174.09" style="fill:#cee7d2"/><polygon points="1902.74 3122.56 1851.22 3122.56 1851.22 3174.09 1902.74 3122.56" style="fill:#c81783"/><polygon points="1902.74 3174.09 1902.74 3122.56 1851.22 3174.09 1902.74 3174.09" style="fill:#cee7d2"/><polygon points="1954.27 3122.56 1902.74 3122.56 1954.27 3174.09 1954.27 3122.56" style="fill:#faebaf"/><polygon points="1954.27 3174.09 1902.74 3122.56 1902.74 3174.09 1954.27 3174.09" style="fill:#951c5b"/><polygon points="1902.74 3235.74 1851.22 3174.09 1851.22 3235.74 1902.74 3235.74" style="fill:#faebaf"/><polygon points="1902.74 3174.09 1851.22 3174.09 1902.74 3235.74 1902.74 3174.09" style="fill:#951c5b"/><polygon points="1902.74 3081.99 1888.7 3102.37 1902.74 3122.74 1916.79 3102.37 1902.74 3081.99" style="fill:#2468b3"/><rect x="1898.56" y="3098.09" width="8.37" height="8.38" style="fill:#c81783"/><rect x="1300.14" y="2798" width="103.05" height="40.57" style="fill:#cee7d2"/><polygon points="1300.14 2684.82 1300.14 2746.48 1351.67 2684.82 1300.14 2684.82" style="fill:#c81783"/><polygon points="1300.14 2746.48 1351.67 2746.48 1351.67 2684.82 1300.14 2746.48" style="fill:#951c5b"/><polygon points="1351.67 2798 1403.19 2798 1403.19 2746.48 1351.67 2798" style="fill:#c81783"/><polygon points="1351.67 2746.48 1351.67 2798 1403.19 2746.48 1351.67 2746.48" style="fill:#951c5b"/><polygon points="1300.14 2798 1351.67 2798 1300.14 2746.48 1300.14 2798" style="fill:#faebaf"/><polygon points="1300.14 2746.48 1351.67 2798 1351.67 2746.48 1300.14 2746.48" style="fill:#cee7d2"/><polygon points="1351.67 2684.82 1403.19 2746.48 1403.19 2684.82 1351.67 2684.82" style="fill:#faebaf"/><polygon points="1351.67 2746.48 1403.19 2746.48 1351.67 2684.82 1351.67 2746.48" style="fill:#cee7d2"/><polygon points="1403.19 2951.75 1403.19 2890.1 1351.67 2951.75 1403.19 2951.75" style="fill:#c81783"/><polygon points="1403.19 2890.1 1351.67 2890.1 1351.67 2951.75 1403.19 2890.1" style="fill:#cee7d2"/><polygon points="1351.67 2838.57 1300.14 2838.57 1300.14 2890.1 1351.67 2838.57" style="fill:#c81783"/><polygon points="1351.67 2890.1 1351.67 2838.57 1300.14 2890.1 1351.67 2890.1" style="fill:#cee7d2"/><polygon points="1403.19 2838.57 1351.67 2838.57 1403.19 2890.1 1403.19 2838.57" style="fill:#faebaf"/><polygon points="1403.19 2890.1 1351.67 2838.57 1351.67 2890.1 1403.19 2890.1" style="fill:#951c5b"/><polygon points="1351.67 2951.75 1300.14 2890.1 1300.14 2951.75 1351.67 2951.75" style="fill:#faebaf"/><polygon points="1351.67 2890.1 1300.14 2890.1 1351.67 2951.75 1351.67 2890.1" style="fill:#951c5b"/><polygon points="1351.67 2798 1337.62 2818.38 1351.67 2838.75 1365.71 2818.38 1351.67 2798" style="fill:#2468b3"/><rect x="1347.48" y="2814.1" width="8.38" height="8.38" style="fill:#c81783"/><rect x="1472.59" y="3077.81" width="103.05" height="40.57" style="fill:#cee7d2"/><polygon points="1472.59 3231.56 1472.59 3169.9 1524.12 3231.56 1472.59 3231.56" style="fill:#c81783"/><polygon points="1472.59 3169.9 1524.12 3169.9 1524.12 3231.56 1472.59 3169.9" style="fill:#951c5b"/><polygon points="1524.12 3118.37 1575.64 3118.37 1575.64 3169.9 1524.12 3118.37" style="fill:#c81783"/><polygon points="1524.12 3169.9 1524.12 3118.37 1575.64 3169.9 1524.12 3169.9" style="fill:#951c5b"/><polygon points="1472.59 3118.37 1524.12 3118.37 1472.59 3169.9 1472.59 3118.37" style="fill:#faebaf"/><polygon points="1472.59 3169.9 1524.12 3118.37 1524.12 3169.9 1472.59 3169.9" style="fill:#cee7d2"/><polygon points="1524.12 3231.56 1575.64 3169.9 1575.64 3231.56 1524.12 3231.56" style="fill:#faebaf"/><polygon points="1524.12 3169.9 1575.64 3169.9 1524.12 3231.56 1524.12 3169.9" style="fill:#cee7d2"/><polygon points="1575.64 2964.63 1575.64 3026.28 1524.12 2964.63 1575.64 2964.63" style="fill:#c81783"/><polygon points="1575.64 3026.28 1524.12 3026.28 1524.12 2964.63 1575.64 3026.28" style="fill:#cee7d2"/><polygon points="1524.12 3077.81 1472.59 3077.81 1472.59 3026.28 1524.12 3077.81" style="fill:#c81783"/><polygon points="1524.12 3026.28 1524.12 3077.81 1472.59 3026.28 1524.12 3026.28" style="fill:#cee7d2"/><polygon points="1575.64 3077.81 1524.12 3077.81 1575.64 3026.28 1575.64 3077.81" style="fill:#faebaf"/><polygon points="1575.64 3026.28 1524.12 3077.81 1524.12 3026.28 1575.64 3026.28" style="fill:#951c5b"/><polygon points="1524.12 2964.63 1472.59 3026.28 1472.59 2964.63 1524.12 2964.63" style="fill:#faebaf"/><polygon points="1524.12 3026.28 1472.59 3026.28 1524.12 2964.63 1524.12 3026.28" style="fill:#951c5b"/><polygon points="1524.12 3118.37 1510.08 3098 1524.12 3077.63 1538.16 3098 1524.12 3118.37" style="fill:#2468b3"/><rect x="1519.93" y="3093.9" width="8.38" height="8.38" style="fill:#c81783"/><rect x="1472.59" y="2510.79" width="103.05" height="40.57" style="fill:#cee7d2"/><polygon points="1472.59 2397.61 1472.59 2459.27 1524.12 2397.61 1472.59 2397.61" style="fill:#c81783"/><polygon points="1472.59 2459.27 1524.12 2459.27 1524.12 2397.61 1472.59 2459.27" style="fill:#951c5b"/><polygon points="1524.12 2510.79 1575.64 2510.79 1575.64 2459.27 1524.12 2510.79" style="fill:#c81783"/><polygon points="1524.12 2459.27 1524.12 2510.79 1575.64 2459.27 1524.12 2459.27" style="fill:#951c5b"/><polygon points="1472.59 2510.79 1524.12 2510.79 1472.59 2459.27 1472.59 2510.79" style="fill:#faebaf"/><polygon points="1472.59 2459.27 1524.12 2510.79 1524.12 2459.27 1472.59 2459.27" style="fill:#cee7d2"/><polygon points="1524.12 2397.61 1575.64 2459.27 1575.64 2397.61 1524.12 2397.61" style="fill:#faebaf"/><polygon points="1524.12 2459.27 1575.64 2459.27 1524.12 2397.61 1524.12 2459.27" style="fill:#cee7d2"/><polygon points="1575.64 2664.54 1575.64 2602.89 1524.12 2664.54 1575.64 2664.54" style="fill:#faebaf"/><polygon points="1575.64 2602.89 1524.12 2602.89 1524.12 2664.54 1575.64 2602.89" style="fill:#951c5b"/><polygon points="1524.12 2551.36 1472.59 2551.36 1472.59 2602.89 1524.12 2551.36" style="fill:#faebaf"/><polygon points="1524.12 2602.89 1524.12 2551.36 1472.59 2602.89 1524.12 2602.89" style="fill:#951c5b"/><polygon points="1575.64 2551.36 1524.12 2551.36 1575.64 2602.89 1575.64 2551.36" style="fill:#c81783"/><polygon points="1575.64 2602.89 1524.12 2551.36 1524.12 2602.89 1575.64 2602.89" style="fill:#cee7d2"/><polygon points="1524.12 2664.54 1472.59 2602.89 1472.59 2664.54 1524.12 2664.54" style="fill:#c81783"/><polygon points="1524.12 2602.89 1472.59 2602.89 1524.12 2664.54 1524.12 2602.89" style="fill:#cee7d2"/><polygon points="1524.12 2510.79 1510.08 2531.16 1524.12 2551.54 1538.16 2531.16 1524.12 2510.79" style="fill:#2468b3"/><rect x="1519.93" y="2526.89" width="8.38" height="8.38" style="fill:#c81783"/><rect x="1851.22" y="2510.88" width="103.05" height="40.57" style="fill:#cee7d2"/><polygon points="1851.22 2397.7 1851.22 2459.36 1902.74 2397.7 1851.22 2397.7" style="fill:#c81783"/><polygon points="1851.22 2459.36 1902.74 2459.36 1902.74 2397.7 1851.22 2459.36" style="fill:#951c5b"/><polygon points="1902.74 2510.88 1954.27 2510.88 1954.27 2459.36 1902.74 2510.88" style="fill:#c81783"/><polygon points="1902.74 2459.36 1902.74 2510.88 1954.27 2459.36 1902.74 2459.36" style="fill:#951c5b"/><polygon points="1851.22 2510.88 1902.74 2510.88 1851.22 2459.36 1851.22 2510.88" style="fill:#faebaf"/><polygon points="1851.22 2459.36 1902.74 2510.88 1902.74 2459.36 1851.22 2459.36" style="fill:#cee7d2"/><polygon points="1902.74 2397.7 1954.27 2459.36 1954.27 2397.7 1902.74 2397.7" style="fill:#faebaf"/><polygon points="1902.74 2459.36 1954.27 2459.36 1902.74 2397.7 1902.74 2459.36" style="fill:#cee7d2"/><polygon points="1954.27 2664.63 1954.27 2602.97 1902.74 2664.63 1954.27 2664.63" style="fill:#faebaf"/><polygon points="1954.27 2602.97 1902.74 2602.97 1902.74 2664.63 1954.27 2602.97" style="fill:#951c5b"/><polygon points="1902.74 2551.45 1851.22 2551.45 1851.22 2602.97 1902.74 2551.45" style="fill:#faebaf"/><polygon points="1902.74 2602.97 1902.74 2551.45 1851.22 2602.97 1902.74 2602.97" style="fill:#951c5b"/><polygon points="1954.27 2551.45 1902.74 2551.45 1954.27 2602.97 1954.27 2551.45" style="fill:#c81783"/><polygon points="1954.27 2602.97 1902.74 2551.45 1902.74 2602.97 1954.27 2602.97" style="fill:#cee7d2"/><polygon points="1902.74 2664.63 1851.22 2602.97 1851.22 2664.63 1902.74 2664.63" style="fill:#c81783"/><polygon points="1902.74 2602.97 1851.22 2602.97 1902.74 2664.63 1902.74 2602.97" style="fill:#cee7d2"/><polygon points="1902.74 2510.88 1888.7 2531.25 1902.74 2551.62 1916.79 2531.25 1902.74 2510.88" style="fill:#2468b3"/><rect x="1898.56" y="2526.98" width="8.37" height="8.38" style="fill:#c81783"/><rect x="1433.16" y="2695.86" width="181.91" height="248.81" style="fill:#faebaf"/><rect x="1438.95" y="2703.78" width="170.34" height="232.98" style="fill:#c81783"/><rect x="1444.37" y="2711.19" width="159.5" height="218.15" style="fill:#faebaf"/><rect x="1449.44" y="2718.13" width="149.35" height="204.27" style="fill:#951c5b"/><rect x="1454.19" y="2724.63" width="139.85" height="191.28" style="fill:#cee7d2"/><rect x="1433.16" y="2695.86" width="181.91" height="248.81" style="fill:#faebaf"/><rect x="1438.95" y="2703.78" width="170.34" height="232.98" style="fill:#c81783"/><rect x="1444.37" y="2711.19" width="159.5" height="218.15" style="fill:#faebaf"/><rect x="1449.44" y="2718.13" width="149.35" height="204.27" style="fill:#951c5b"/><rect x="1454.19" y="2724.63" width="139.85" height="191.28" style="fill:#cee7d2"/><polygon points="1524.12 2724.63 1454.19 2820.26 1524.12 2915.9 1594.04 2820.26 1524.12 2724.63" style="fill:#faebaf"/><polygon points="1524.12 2739.72 1465.23 2820.26 1524.12 2900.8 1583 2820.26 1524.12 2739.72" style="fill:#951c5b"/><polygon points="1524.12 2755.55 1476.81 2820.26 1524.12 2884.97 1571.43 2820.26 1524.12 2755.55" style="fill:#cee7d2"/><polygon points="1524.12 2768.29 1486.12 2820.26 1524.12 2872.24 1562.12 2820.26 1524.12 2768.29" style="fill:#c81783"/><polygon points="1524.12 2782.73 1496.68 2820.26 1524.12 2857.8 1551.56 2820.26 1524.12 2782.73" style="fill:#faebaf"/><polygon points="1524.12 2782.73 1496.68 2820.26 1524.12 2857.8 1551.56 2820.26 1524.12 2782.73" style="fill:#faebaf"/><polygon points="1524.12 2802.05 1510.8 2820.26 1524.12 2838.48 1537.44 2820.26 1524.12 2802.05" style="fill:#cee7d2"/><polygon points="1501.02 2771.46 1496.92 2767.35 1477.61 2748.04 1454.47 2724.9 1454.19 2724.63 1454.19 2771.46 1454.47 2771.46 1493.75 2771.46 1501.02 2771.46" style="fill:#c81783"/><polygon points="1594.04 2724.63 1589.94 2728.73 1570.63 2748.04 1547.49 2771.18 1547.21 2771.46 1594.04 2771.46 1594.04 2771.18 1594.04 2731.9 1594.04 2724.63" style="fill:#c81783"/><polygon points="1547.21 2869.07 1551.32 2873.17 1570.63 2892.49 1593.77 2915.62 1594.04 2915.9 1594.04 2869.07 1593.77 2869.07 1554.49 2869.07 1547.21 2869.07" style="fill:#c81783"/><polygon points="1454.19 2915.9 1458.3 2911.8 1477.61 2892.49 1500.74 2869.35 1501.02 2869.07 1454.19 2869.07 1454.19 2869.35 1454.19 2908.63 1454.19 2915.9" style="fill:#c81783"/><rect x="1275.3" y="2406.85" width="181.91" height="248.81" style="fill:#faebaf"/><rect x="1281.09" y="2414.76" width="170.34" height="232.98" style="fill:#c81783"/><rect x="1286.5" y="2422.18" width="159.5" height="218.15" style="fill:#faebaf"/><rect x="1291.58" y="2429.12" width="149.35" height="204.27" style="fill:#951c5b"/><rect x="1296.33" y="2435.61" width="139.85" height="191.28" style="fill:#cee7d2"/><rect x="1275.3" y="2406.85" width="181.91" height="248.81" style="fill:#faebaf"/><rect x="1281.09" y="2414.76" width="170.34" height="232.98" style="fill:#c81783"/><rect x="1286.5" y="2422.18" width="159.5" height="218.15" style="fill:#faebaf"/><rect x="1291.58" y="2429.12" width="149.35" height="204.27" style="fill:#951c5b"/><rect x="1296.33" y="2435.61" width="139.85" height="191.28" style="fill:#cee7d2"/><polygon points="1366.26 2435.61 1296.33 2531.25 1366.26 2626.89 1436.18 2531.25 1366.26 2435.61" style="fill:#faebaf"/><polygon points="1366.26 2450.71 1307.37 2531.25 1366.26 2611.79 1425.14 2531.25 1366.26 2450.71" style="fill:#951c5b"/><polygon points="1366.26 2466.54 1318.94 2531.25 1366.26 2595.96 1413.57 2531.25 1366.26 2466.54" style="fill:#cee7d2"/><polygon points="1366.26 2479.28 1328.25 2531.25 1366.26 2583.23 1404.26 2531.25 1366.26 2479.28" style="fill:#c81783"/><polygon points="1366.26 2493.72 1338.81 2531.25 1366.26 2568.78 1393.7 2531.25 1366.26 2493.72" style="fill:#faebaf"/><polygon points="1366.26 2493.72 1338.81 2531.25 1366.26 2568.78 1393.7 2531.25 1366.26 2493.72" style="fill:#faebaf"/><polygon points="1366.26 2513.04 1352.94 2531.25 1366.26 2549.47 1379.57 2531.25 1366.26 2513.04" style="fill:#cee7d2"/><polygon points="1343.16 2482.44 1339.06 2478.34 1319.74 2459.03 1296.61 2435.89 1296.33 2435.61 1296.33 2482.44 1296.61 2482.44 1335.89 2482.44 1343.16 2482.44" style="fill:#c81783"/><polygon points="1436.18 2435.61 1432.08 2439.72 1412.77 2459.03 1389.63 2482.17 1389.35 2482.44 1436.18 2482.44 1436.18 2482.17 1436.18 2442.89 1436.18 2435.61" style="fill:#c81783"/><polygon points="1389.35 2580.06 1393.45 2584.16 1412.77 2603.48 1435.9 2626.61 1436.18 2626.89 1436.18 2580.06 1435.9 2580.06 1396.62 2580.06 1389.35 2580.06" style="fill:#c81783"/><polygon points="1296.33 2626.89 1300.43 2622.79 1319.74 2603.48 1342.88 2580.34 1343.16 2580.06 1296.33 2580.06 1296.33 2580.34 1296.33 2619.62 1296.33 2626.89" style="fill:#c81783"/><rect x="1975.6" y="2406.85" width="181.91" height="248.81" style="fill:#faebaf"/><rect x="1981.39" y="2414.76" width="170.34" height="232.98" style="fill:#c81783"/><rect x="1986.81" y="2422.18" width="159.5" height="218.15" style="fill:#faebaf"/><rect x="1991.88" y="2429.12" width="149.35" height="204.27" style="fill:#951c5b"/><rect x="1996.63" y="2435.61" width="139.85" height="191.28" style="fill:#cee7d2"/><rect x="1975.6" y="2406.85" width="181.91" height="248.81" style="fill:#faebaf"/><rect x="1981.39" y="2414.76" width="170.34" height="232.98" style="fill:#c81783"/><rect x="1986.81" y="2422.18" width="159.5" height="218.15" style="fill:#faebaf"/><rect x="1991.88" y="2429.12" width="149.35" height="204.27" style="fill:#951c5b"/><rect x="1996.63" y="2435.61" width="139.85" height="191.28" style="fill:#cee7d2"/><polygon points="2066.56 2435.61 1996.63 2531.25 2066.56 2626.89 2136.48 2531.25 2066.56 2435.61" style="fill:#faebaf"/><polygon points="2066.56 2450.71 2007.67 2531.25 2066.56 2611.79 2125.44 2531.25 2066.56 2450.71" style="fill:#951c5b"/><polygon points="2066.56 2466.54 2019.24 2531.25 2066.56 2595.96 2113.87 2531.25 2066.56 2466.54" style="fill:#cee7d2"/><polygon points="2066.56 2479.28 2028.56 2531.25 2066.56 2583.23 2104.56 2531.25 2066.56 2479.28" style="fill:#c81783"/><polygon points="2066.56 2493.72 2039.12 2531.25 2066.56 2568.78 2094 2531.25 2066.56 2493.72" style="fill:#faebaf"/><polygon points="2066.56 2493.72 2039.12 2531.25 2066.56 2568.78 2094 2531.25 2066.56 2493.72" style="fill:#faebaf"/><polygon points="2066.56 2513.04 2053.24 2531.25 2066.56 2549.47 2079.87 2531.25 2066.56 2513.04" style="fill:#cee7d2"/><polygon points="2043.46 2482.44 2039.36 2478.34 2020.05 2459.03 1996.91 2435.89 1996.63 2435.61 1996.63 2482.44 1996.91 2482.44 2036.19 2482.44 2043.46 2482.44" style="fill:#c81783"/><polygon points="2136.48 2435.61 2132.38 2439.72 2113.07 2459.03 2089.93 2482.17 2089.65 2482.44 2136.48 2482.44 2136.48 2482.17 2136.48 2442.89 2136.48 2435.61" style="fill:#c81783"/><polygon points="2089.65 2580.06 2093.75 2584.16 2113.07 2603.48 2136.2 2626.61 2136.48 2626.89 2136.48 2580.06 2136.2 2580.06 2096.93 2580.06 2089.65 2580.06" style="fill:#c81783"/><polygon points="1996.63 2626.89 2000.73 2622.79 2020.05 2603.48 2043.18 2580.34 2043.46 2580.06 1996.63 2580.06 1996.63 2580.34 1996.63 2619.62 1996.63 2626.89" style="fill:#c81783"/><rect x="1975.6" y="2975.36" width="181.91" height="248.81" style="fill:#faebaf"/><rect x="1981.39" y="2983.27" width="170.34" height="232.98" style="fill:#c81783"/><rect x="1986.81" y="2990.68" width="159.5" height="218.15" style="fill:#faebaf"/><rect x="1991.88" y="2997.62" width="149.35" height="204.27" style="fill:#951c5b"/><rect x="1996.63" y="3004.12" width="139.85" height="191.28" style="fill:#cee7d2"/><rect x="1975.6" y="2975.36" width="181.91" height="248.81" style="fill:#faebaf"/><rect x="1981.39" y="2983.27" width="170.34" height="232.98" style="fill:#c81783"/><rect x="1986.81" y="2990.68" width="159.5" height="218.15" style="fill:#faebaf"/><rect x="1991.88" y="2997.62" width="149.35" height="204.27" style="fill:#951c5b"/><rect x="1996.63" y="3004.12" width="139.85" height="191.28" style="fill:#cee7d2"/><polygon points="2066.56 3004.12 1996.63 3099.76 2066.56 3195.4 2136.48 3099.76 2066.56 3004.12" style="fill:#faebaf"/><polygon points="2066.56 3019.22 2007.67 3099.76 2066.56 3180.3 2125.44 3099.76 2066.56 3019.22" style="fill:#951c5b"/><polygon points="2066.56 3035.05 2019.24 3099.76 2066.56 3164.47 2113.87 3099.76 2066.56 3035.05" style="fill:#cee7d2"/><polygon points="2066.56 3047.79 2028.56 3099.76 2066.56 3151.74 2104.56 3099.76 2066.56 3047.79" style="fill:#c81783"/><polygon points="2066.56 3062.23 2039.12 3099.76 2066.56 3137.29 2094 3099.76 2066.56 3062.23" style="fill:#faebaf"/><polygon points="2066.56 3062.23 2039.12 3099.76 2066.56 3137.29 2094 3099.76 2066.56 3062.23" style="fill:#faebaf"/><polygon points="2066.56 3081.55 2053.24 3099.76 2066.56 3117.98 2079.87 3099.76 2066.56 3081.55" style="fill:#cee7d2"/><polygon points="2043.46 3050.95 2039.36 3046.85 2020.05 3027.54 1996.91 3004.4 1996.63 3004.12 1996.63 3050.95 1996.91 3050.95 2036.19 3050.95 2043.46 3050.95" style="fill:#c81783"/><polygon points="2136.48 3004.12 2132.38 3008.22 2113.07 3027.54 2089.93 3050.68 2089.65 3050.95 2136.48 3050.95 2136.48 3050.68 2136.48 3011.4 2136.48 3004.12" style="fill:#c81783"/><polygon points="2089.65 3148.57 2093.75 3152.67 2113.07 3171.98 2136.2 3195.12 2136.48 3195.4 2136.48 3148.57 2136.2 3148.57 2096.93 3148.57 2089.65 3148.57" style="fill:#c81783"/><polygon points="1996.63 3195.4 2000.73 3191.3 2020.05 3171.98 2043.18 3148.85 2043.46 3148.57 1996.63 3148.57 1996.63 3148.85 1996.63 3188.13 1996.63 3195.4" style="fill:#c81783"/><rect x="1612.62" y="2370.42" width="208.55" height="285.24" style="fill:#faebaf"/><rect x="1619.26" y="2379.49" width="195.28" height="267.09" style="fill:#c81783"/><rect x="1625.47" y="2387.99" width="182.86" height="250.1" style="fill:#faebaf"/><rect x="1631.29" y="2395.95" width="171.22" height="234.18" style="fill:#951c5b"/><rect x="1636.73" y="2403.4" width="160.33" height="219.28" style="fill:#cee7d2"/><rect x="1612.62" y="2370.42" width="208.55" height="285.24" style="fill:#faebaf"/><rect x="1619.26" y="2379.49" width="195.28" height="267.09" style="fill:#c81783"/><rect x="1625.47" y="2387.99" width="182.86" height="250.1" style="fill:#faebaf"/><rect x="1631.29" y="2395.95" width="171.22" height="234.18" style="fill:#951c5b"/><rect x="1636.73" y="2403.4" width="160.33" height="219.28" style="fill:#cee7d2"/><polygon points="1716.9 2403.4 1636.73 2513.04 1716.9 2622.68 1797.06 2513.04 1716.9 2403.4" style="fill:#faebaf"/><polygon points="1716.9 2420.7 1649.39 2513.04 1716.9 2605.37 1784.41 2513.04 1716.9 2420.7" style="fill:#951c5b"/><polygon points="1716.9 2438.85 1662.66 2513.04 1716.9 2587.22 1771.14 2513.04 1716.9 2438.85" style="fill:#cee7d2"/><polygon points="1716.9 2453.45 1673.33 2513.04 1716.9 2572.62 1760.46 2513.04 1716.9 2453.45" style="fill:#c81783"/><polygon points="1716.9 2470.01 1685.44 2513.04 1716.9 2556.06 1748.36 2513.04 1716.9 2470.01" style="fill:#faebaf"/><polygon points="1716.9 2470.01 1685.44 2513.04 1716.9 2556.06 1748.36 2513.04 1716.9 2470.01" style="fill:#faebaf"/><polygon points="1716.9 2492.15 1701.63 2513.04 1716.9 2533.92 1732.17 2513.04 1716.9 2492.15" style="fill:#cee7d2"/><polygon points="1690.42 2457.08 1685.72 2452.38 1663.58 2430.24 1637.05 2403.71 1636.73 2403.4 1636.73 2457.08 1637.05 2457.08 1682.08 2457.08 1690.42 2457.08" style="fill:#c81783"/><polygon points="1797.06 2403.4 1792.36 2408.1 1770.22 2430.24 1743.69 2456.76 1743.38 2457.08 1797.06 2457.08 1797.06 2456.76 1797.06 2411.74 1797.06 2403.4" style="fill:#c81783"/><polygon points="1743.38 2568.99 1748.08 2573.7 1770.22 2595.84 1796.74 2622.36 1797.06 2622.68 1797.06 2568.99 1796.74 2568.99 1751.71 2568.99 1743.38 2568.99" style="fill:#c81783"/><polygon points="1636.73 2622.68 1641.44 2617.98 1663.58 2595.84 1690.1 2569.31 1690.42 2568.99 1636.73 2568.99 1636.73 2569.31 1636.73 2614.34 1636.73 2622.68" style="fill:#c81783"/><rect x="1612.62" y="2975.76" width="208.55" height="285.24" style="fill:#faebaf"/><rect x="1619.26" y="2984.83" width="195.28" height="267.09" style="fill:#c81783"/><rect x="1625.47" y="2993.33" width="182.86" height="250.1" style="fill:#faebaf"/><rect x="1631.29" y="3001.28" width="171.22" height="234.18" style="fill:#951c5b"/><rect x="1636.73" y="3008.73" width="160.33" height="219.28" style="fill:#cee7d2"/><rect x="1612.62" y="2975.76" width="208.55" height="285.24" style="fill:#faebaf"/><rect x="1619.26" y="2984.83" width="195.28" height="267.09" style="fill:#c81783"/><rect x="1625.47" y="2993.33" width="182.86" height="250.1" style="fill:#faebaf"/><rect x="1631.29" y="3001.28" width="171.22" height="234.18" style="fill:#951c5b"/><rect x="1636.73" y="3008.73" width="160.33" height="219.28" style="fill:#cee7d2"/><polygon points="1716.9 3008.73 1636.73 3118.37 1716.9 3228.02 1797.06 3118.37 1716.9 3008.73" style="fill:#faebaf"/><polygon points="1716.9 3026.04 1649.39 3118.37 1716.9 3210.71 1784.41 3118.37 1716.9 3026.04" style="fill:#951c5b"/><polygon points="1716.9 3044.19 1662.66 3118.37 1716.9 3192.56 1771.14 3118.37 1716.9 3044.19" style="fill:#cee7d2"/><polygon points="1716.9 3058.79 1673.33 3118.37 1716.9 3177.96 1760.46 3118.37 1716.9 3058.79" style="fill:#c81783"/><polygon points="1716.9 3075.35 1685.44 3118.37 1716.9 3161.4 1748.36 3118.37 1716.9 3075.35" style="fill:#faebaf"/><polygon points="1716.9 3075.35 1685.44 3118.37 1716.9 3161.4 1748.36 3118.37 1716.9 3075.35" style="fill:#faebaf"/><polygon points="1716.9 3097.49 1701.63 3118.37 1716.9 3139.26 1732.17 3118.37 1716.9 3097.49" style="fill:#cee7d2"/><polygon points="1690.42 3062.42 1685.72 3057.72 1663.58 3035.58 1637.05 3009.05 1636.73 3008.73 1636.73 3062.42 1637.05 3062.42 1682.08 3062.42 1690.42 3062.42" style="fill:#c81783"/><polygon points="1797.06 3008.73 1792.36 3013.43 1770.22 3035.58 1743.69 3062.1 1743.38 3062.42 1797.06 3062.42 1797.06 3062.1 1797.06 3017.07 1797.06 3008.73" style="fill:#c81783"/><polygon points="1743.38 3174.33 1748.08 3179.03 1770.22 3201.17 1796.74 3227.7 1797.06 3228.02 1797.06 3174.33 1796.74 3174.33 1751.71 3174.33 1743.38 3174.33" style="fill:#c81783"/><polygon points="1636.73 3228.02 1641.44 3223.31 1663.58 3201.17 1690.1 3174.65 1690.42 3174.33 1636.73 3174.33 1636.73 3174.65 1636.73 3219.68 1636.73 3228.02" style="fill:#c81783"/><rect x="1275.3" y="2975.36" width="181.91" height="248.81" style="fill:#faebaf"/><rect x="1281.09" y="2983.27" width="170.34" height="232.98" style="fill:#c81783"/><rect x="1286.5" y="2990.68" width="159.5" height="218.15" style="fill:#faebaf"/><rect x="1291.58" y="2997.62" width="149.35" height="204.27" style="fill:#951c5b"/><rect x="1296.33" y="3004.12" width="139.85" height="191.28" style="fill:#cee7d2"/><rect x="1275.3" y="2975.36" width="181.91" height="248.81" style="fill:#faebaf"/><rect x="1281.09" y="2983.27" width="170.34" height="232.98" style="fill:#c81783"/><rect x="1286.5" y="2990.68" width="159.5" height="218.15" style="fill:#faebaf"/><rect x="1291.58" y="2997.62" width="149.35" height="204.27" style="fill:#951c5b"/><rect x="1296.33" y="3004.12" width="139.85" height="191.28" style="fill:#cee7d2"/><polygon points="1366.26 3004.12 1296.33 3099.76 1366.26 3195.4 1436.18 3099.76 1366.26 3004.12" style="fill:#faebaf"/><polygon points="1366.26 3019.22 1307.37 3099.76 1366.26 3180.3 1425.14 3099.76 1366.26 3019.22" style="fill:#951c5b"/><polygon points="1366.26 3035.05 1318.94 3099.76 1366.26 3164.47 1413.57 3099.76 1366.26 3035.05" style="fill:#cee7d2"/><polygon points="1366.26 3047.79 1328.25 3099.76 1366.26 3151.74 1404.26 3099.76 1366.26 3047.79" style="fill:#c81783"/><polygon points="1366.26 3062.23 1338.81 3099.76 1366.26 3137.29 1393.7 3099.76 1366.26 3062.23" style="fill:#faebaf"/><polygon points="1366.26 3062.23 1338.81 3099.76 1366.26 3137.29 1393.7 3099.76 1366.26 3062.23" style="fill:#faebaf"/><polygon points="1366.26 3081.55 1352.94 3099.76 1366.26 3117.98 1379.57 3099.76 1366.26 3081.55" style="fill:#cee7d2"/><polygon points="1343.16 3050.95 1339.06 3046.85 1319.74 3027.54 1296.61 3004.4 1296.33 3004.12 1296.33 3050.95 1296.61 3050.95 1335.89 3050.95 1343.16 3050.95" style="fill:#c81783"/><polygon points="1436.18 3004.12 1432.08 3008.22 1412.77 3027.54 1389.63 3050.68 1389.35 3050.95 1436.18 3050.95 1436.18 3050.68 1436.18 3011.4 1436.18 3004.12" style="fill:#c81783"/><polygon points="1389.35 3148.57 1393.45 3152.67 1412.77 3171.98 1435.9 3195.12 1436.18 3195.4 1436.18 3148.57 1435.9 3148.57 1396.62 3148.57 1389.35 3148.57" style="fill:#c81783"/><polygon points="1296.33 3195.4 1300.43 3191.3 1319.74 3171.98 1342.88 3148.85 1343.16 3148.57 1296.33 3148.57 1296.33 3148.85 1296.33 3188.13 1296.33 3195.4" style="fill:#c81783"/><rect x="1811.79" y="2695.86" width="181.91" height="248.81" style="fill:#faebaf"/><rect x="1817.57" y="2703.78" width="170.34" height="232.98" style="fill:#c81783"/><rect x="1822.99" y="2711.19" width="159.5" height="218.15" style="fill:#faebaf"/><rect x="1828.07" y="2718.13" width="149.35" height="204.27" style="fill:#951c5b"/><rect x="1832.82" y="2724.63" width="139.85" height="191.28" style="fill:#cee7d2"/><rect x="1811.79" y="2695.86" width="181.91" height="248.81" style="fill:#faebaf"/><rect x="1817.57" y="2703.78" width="170.34" height="232.98" style="fill:#c81783"/><rect x="1822.99" y="2711.19" width="159.5" height="218.15" style="fill:#faebaf"/><rect x="1828.07" y="2718.13" width="149.35" height="204.27" style="fill:#951c5b"/><rect x="1832.82" y="2724.63" width="139.85" height="191.28" style="fill:#cee7d2"/><polygon points="1902.74 2724.63 1832.82 2820.26 1902.74 2915.9 1972.67 2820.26 1902.74 2724.63" style="fill:#faebaf"/><polygon points="1902.74 2739.72 1843.86 2820.26 1902.74 2900.8 1961.63 2820.26 1902.74 2739.72" style="fill:#951c5b"/><polygon points="1902.74 2755.55 1855.43 2820.26 1902.74 2884.97 1950.06 2820.26 1902.74 2755.55" style="fill:#cee7d2"/><polygon points="1902.74 2768.29 1864.74 2820.26 1902.74 2872.24 1940.74 2820.26 1902.74 2768.29" style="fill:#c81783"/><polygon points="1902.74 2782.73 1875.3 2820.26 1902.74 2857.8 1930.18 2820.26 1902.74 2782.73" style="fill:#faebaf"/><polygon points="1902.74 2782.73 1875.3 2820.26 1902.74 2857.8 1930.18 2820.26 1902.74 2782.73" style="fill:#faebaf"/><polygon points="1902.74 2802.05 1889.43 2820.26 1902.74 2838.48 1916.06 2820.26 1902.74 2802.05" style="fill:#cee7d2"/><polygon points="1879.65 2771.46 1875.55 2767.35 1856.23 2748.04 1833.1 2724.9 1832.82 2724.63 1832.82 2771.46 1833.1 2771.46 1872.38 2771.46 1879.65 2771.46" style="fill:#c81783"/><polygon points="1972.67 2724.63 1968.57 2728.73 1949.25 2748.04 1926.12 2771.18 1925.84 2771.46 1972.67 2771.46 1972.67 2771.18 1972.67 2731.9 1972.67 2724.63" style="fill:#c81783"/><polygon points="1925.84 2869.07 1929.94 2873.17 1949.25 2892.49 1972.39 2915.62 1972.67 2915.9 1972.67 2869.07 1972.39 2869.07 1933.11 2869.07 1925.84 2869.07" style="fill:#c81783"/><polygon points="1832.82 2915.9 1836.92 2911.8 1856.23 2892.49 1879.37 2869.35 1879.65 2869.07 1832.82 2869.07 1832.82 2869.35 1832.82 2908.63 1832.82 2915.9" style="fill:#c81783"/></svg>