<?xml version="1.0" encoding="utf-8"?>
<!-- Generator: Adobe Illustrator 21.1.0, SVG Export Plug-In . SVG Version: 6.00 Build 0)  -->
<svg version="1.1" id="图层_1" xmlns="http://www.w3.org/2000/svg" xmlns:xlink="http://www.w3.org/1999/xlink" x="0px" y="0px"
	 viewBox="0 0 720 720" style="enable-background:new 0 0 720 720;" xml:space="preserve">
<style type="text/css">
	.st0{fill:#D9088D;}
	.st1{fill:#9E005D;}
	.st2{fill:#FFEFB0;}
	.st3{fill:#D1EFD7;}
	.st4{fill:#0D6FD8;}
</style>
<g id="_x30_b0">
	<polygon class="st0" points="320,256.4 320,305.3 360.9,256.4 	"/>
	<polygon class="st1" points="320,305.3 360.9,305.3 360.9,256.4 	"/>
	<polygon class="st0" points="360.9,346.2 401.8,346.2 401.8,305.3 	"/>
	<polygon class="st1" points="360.9,305.3 360.9,346.2 401.8,305.3 	"/>
	<polygon class="st2" points="320,346.2 360.9,346.2 320,305.3 	"/>
	<polygon class="st3" points="320,305.3 360.9,346.2 360.9,305.3 	"/>
	<polygon class="st2" points="360.9,256.4 401.8,305.3 401.8,256.4 	"/>
	<polygon class="st3" points="360.9,305.3 401.8,305.3 360.9,256.4 	"/>
</g>
<g id="_x30_b1">
	<polygon class="st0" points="691,468.6 691,419.7 650.1,468.6 	"/>
	<polygon class="st3" points="691,419.7 650.1,419.7 650.1,468.6 	"/>
	<polygon class="st0" points="650.1,378.8 609.2,378.8 609.2,419.7 	"/>
	<polygon class="st3" points="650.1,419.7 650.1,378.8 609.2,419.7 	"/>
	<polygon class="st2" points="691,378.8 650.1,378.8 691,419.7 	"/>
	<polygon class="st1" points="691,419.7 650.1,378.8 650.1,419.7 	"/>
	<polygon class="st2" points="650.1,468.6 609.2,419.7 609.2,468.6 	"/>
	<polygon class="st1" points="650.1,419.7 609.2,419.7 650.1,468.6 	"/>
</g>
<g id="_x30_b2">
	<polygon class="st0" points="112.9,468.2 112.9,419.3 72,468.2 	"/>
	<polygon class="st3" points="112.9,419.3 72,419.3 72,468.2 	"/>
	<polygon class="st0" points="72,378.4 31.1,378.4 31.1,419.3 	"/>
	<polygon class="st3" points="72,419.3 72,378.4 31.1,419.3 	"/>
	<polygon class="st2" points="112.9,378.4 72,378.4 112.9,419.3 	"/>
	<polygon class="st1" points="112.9,419.3 72,378.4 72,419.3 	"/>
	<polygon class="st2" points="72,468.2 31.1,419.3 31.1,468.2 	"/>
	<polygon class="st1" points="72,419.3 31.1,419.3 72,468.2 	"/>
</g>
<g id="_x30_b3">
	<polygon class="st3" points="208.9,690.3 208.9,641.5 249.8,641.5 	"/>
	<polygon class="st0" points="168,641.5 168,600.5 208.9,600.5 	"/>
	<polygon class="st2" points="249.8,641.5 208.9,600.5 249.8,600.5 	"/>
	<polygon class="st2" points="168,690.3 168,641.5 208.9,690.3 	"/>
	<g>
		<polygon class="st0" points="208.9,690.3 249.8,641.5 249.8,690.3 		"/>
		<polygon class="st3" points="168,641.5 208.9,600.5 208.9,641.5 		"/>
		<polygon class="st1" points="208.9,641.5 208.9,600.5 249.8,641.5 		"/>
		<polygon class="st1" points="208.9,690.3 168,641.5 208.9,641.5 		"/>
	</g>
</g>
<g id="_x30_b4">
	<polygon class="st0" points="168,28.4 168,77.3 208.9,28.4 	"/>
	<polygon class="st0" points="208.9,118.2 249.8,118.2 249.8,77.3 	"/>
	<polygon class="st1" points="208.9,77.3 208.9,118.2 249.8,77.3 	"/>
	<polygon class="st2" points="168,118.2 208.9,118.2 168,77.3 	"/>
	<polygon class="st2" points="208.9,28.4 249.8,77.3 249.8,28.4 	"/>
	<g>
		<polygon class="st1" points="168,77.3 208.9,77.3 208.9,28.4 		"/>
		<polygon class="st3" points="168,77.3 208.9,118.2 208.9,77.3 		"/>
		<polygon class="st3" points="208.9,77.3 249.8,77.3 208.9,28.4 		"/>
	</g>
</g>
<g id="_x30_b5">
	<polygon class="st0" points="550.4,693.6 550.4,644.6 509.5,693.6 	"/>
	<polygon class="st0" points="509.5,603.8 468.6,603.8 468.6,644.6 	"/>
	<polygon class="st2" points="550.4,603.8 509.5,603.8 550.4,644.6 	"/>
	<polygon class="st2" points="509.5,693.6 468.6,644.6 468.6,693.6 	"/>
	<g>
		<polygon class="st3" points="550.4,644.6 509.5,644.6 509.5,693.6 		"/>
		<polygon class="st3" points="509.5,644.6 509.5,603.8 468.6,644.6 		"/>
		<polygon class="st1" points="550.4,644.6 509.5,603.8 509.5,644.6 		"/>
		<polygon class="st1" points="509.5,644.6 468.6,644.6 509.5,693.6 		"/>
	</g>
</g>
<g id="_x30_b6">
	<polygon class="st0" points="468.6,28.4 468.6,77.4 509.5,28.4 	"/>
	<polygon class="st1" points="468.6,77.4 509.5,77.4 509.5,28.4 	"/>
	<polygon class="st0" points="509.5,118.3 550.4,118.3 550.4,77.4 	"/>
	<polygon class="st1" points="509.5,77.4 509.5,118.3 550.4,77.4 	"/>
	<polygon class="st2" points="468.6,118.3 509.5,118.3 468.6,77.4 	"/>
	<polygon class="st3" points="468.6,77.4 509.5,118.3 509.5,77.4 	"/>
	<polygon class="st2" points="509.5,28.4 550.4,77.4 550.4,28.4 	"/>
	<polygon class="st3" points="509.5,77.4 550.4,77.4 509.5,28.4 	"/>
</g>
<g id="_x31_b0">
	<polygon class="st0" points="468.6,482.2 468.6,531.1 509.5,482.2 	"/>
	<polygon class="st0" points="509.5,572 550.4,572 550.4,531.1 	"/>
	<polygon class="st2" points="468.6,572 509.5,572 468.6,531.1 	"/>
	<polygon class="st2" points="509.5,482.2 550.4,531.1 550.4,482.2 	"/>
	<g>
		<polygon class="st1" points="468.6,531.1 509.5,531.1 509.5,482.2 		"/>
		<polygon class="st1" points="509.5,531.1 509.5,572 550.4,531.1 		"/>
		<polygon class="st3" points="468.6,531.1 509.5,572 509.5,531.1 		"/>
		<polygon class="st3" points="509.5,531.1 550.4,531.1 509.5,482.2 		"/>
	</g>
</g>
<g id="_x31_b1">
	<polygon class="st2" points="550.4,240.7 550.4,191.8 509.5,240.7 	"/>
	<polygon class="st1" points="550.4,191.8 509.5,191.8 509.5,240.7 	"/>
	<polygon class="st2" points="509.5,150.9 468.6,150.9 468.6,191.8 	"/>
	<polygon class="st1" points="509.5,191.8 509.5,150.9 468.6,191.8 	"/>
	<polygon class="st0" points="550.4,150.9 509.5,150.9 550.4,191.8 	"/>
	<polygon class="st3" points="550.4,191.8 509.5,150.9 509.5,191.8 	"/>
	<polygon class="st0" points="509.5,240.7 468.6,191.8 468.6,240.7 	"/>
	<polygon class="st3" points="509.5,191.8 468.6,191.8 509.5,240.7 	"/>
</g>
<g id="_x31_b2">
	<polygon class="st0" points="609.2,256.8 609.2,305.7 650.1,256.8 	"/>
	<polygon class="st1" points="609.2,305.7 650.1,305.7 650.1,256.8 	"/>
	<polygon class="st0" points="650.1,346.6 691,346.6 691,305.7 	"/>
	<polygon class="st1" points="650.1,305.7 650.1,346.6 691,305.7 	"/>
	<polygon class="st2" points="609.2,346.6 650.1,346.6 609.2,305.7 	"/>
	<polygon class="st3" points="609.2,305.7 650.1,346.6 650.1,305.7 	"/>
	<polygon class="st2" points="650.1,256.8 691,305.7 691,256.8 	"/>
	<polygon class="st3" points="650.1,305.7 691,305.7 650.1,256.8 	"/>
</g>
<g id="_x31_b3">
	<polygon class="st0" points="31.1,256.8 31.1,305.7 72,256.8 	"/>
	<polygon class="st1" points="31.1,305.7 72,305.7 72,256.8 	"/>
	<polygon class="st0" points="72,346.6 112.9,346.6 112.9,305.7 	"/>
	<polygon class="st1" points="72,305.7 72,346.6 112.9,305.7 	"/>
	<polygon class="st2" points="31.1,346.6 72,346.6 31.1,305.7 	"/>
	<polygon class="st3" points="31.1,305.7 72,346.6 72,305.7 	"/>
	<polygon class="st2" points="72,256.8 112.9,305.7 112.9,256.8 	"/>
	<polygon class="st3" points="72,305.7 112.9,305.7 72,256.8 	"/>
</g>
<g id="_x31_b4">
	<polygon class="st0" points="208.9,478.9 168,527.9 168,478.9 	"/>
	<polygon class="st1" points="208.9,478.9 208.9,527.9 168,527.9 	"/>
	<polygon class="st0" points="249.8,527.9 249.8,568.8 208.9,568.8 	"/>
	<polygon class="st1" points="249.8,527.9 208.9,568.8 208.9,527.9 	"/>
	<polygon class="st2" points="168,527.9 208.9,568.8 168,568.8 	"/>
	<polygon class="st3" points="208.9,527.9 208.9,568.8 168,527.9 	"/>
	<polygon class="st2" points="249.8,478.9 249.8,527.9 208.9,478.9 	"/>
	<polygon class="st3" points="208.9,478.9 249.8,527.9 208.9,527.9 	"/>
</g>
<g id="_x31_b5">
	<polygon class="st2" points="249.8,240.7 249.8,191.7 208.9,240.7 	"/>
	<polygon class="st1" points="208.9,191.7 208.9,150.8 168,191.7 	"/>
	<polygon class="st3" points="249.8,191.7 208.9,150.8 208.9,191.7 	"/>
	<polygon class="st0" points="208.9,240.7 168,191.7 168,240.7 	"/>
	<g>
		<polygon class="st1" points="249.8,191.7 208.9,191.7 208.9,240.7 		"/>
		<polygon class="st2" points="208.9,150.8 168,150.8 168,191.7 		"/>
		<polygon class="st0" points="249.8,150.8 208.9,150.8 249.8,191.7 		"/>
		<polygon class="st3" points="208.9,191.7 168,191.7 208.9,240.7 		"/>
	</g>
</g>
<g id="_x31_b6">
	<polygon class="st0" points="401.8,468.6 401.8,419.7 360.9,468.6 	"/>
	<polygon class="st3" points="401.8,419.7 360.9,419.7 360.9,468.6 	"/>
	<polygon class="st0" points="360.9,378.8 320,378.8 320,419.7 	"/>
	<polygon class="st3" points="360.9,419.7 360.9,378.8 320,419.7 	"/>
	<polygon class="st2" points="401.8,378.8 360.9,378.8 401.8,419.7 	"/>
	<polygon class="st1" points="401.8,419.7 360.9,378.8 360.9,419.7 	"/>
	<polygon class="st2" points="360.9,468.6 320,419.7 320,468.6 	"/>
	<polygon class="st1" points="360.9,419.7 320,419.7 360.9,468.6 	"/>
</g>
<g>
	<rect x="136.7" y="265.5" class="st2" width="144.4" height="197.5"/>
	<rect x="141.3" y="271.8" class="st0" width="135.2" height="184.9"/>
	<rect x="145.6" y="277.7" class="st2" width="126.6" height="173.2"/>
	<rect x="149.6" y="283.2" class="st1" width="118.6" height="162.1"/>
	<rect x="153.4" y="288.4" class="st3" width="111" height="151.8"/>
	<rect x="136.7" y="265.5" class="st2" width="144.4" height="197.5"/>
	<rect x="141.3" y="271.8" class="st0" width="135.2" height="184.9"/>
	<rect x="145.6" y="277.7" class="st2" width="126.6" height="173.2"/>
	<rect x="149.6" y="283.2" class="st1" width="118.6" height="162.1"/>
	<rect x="153.4" y="288.4" class="st3" width="111" height="151.8"/>
</g>
<polygon class="st2" points="208.9,334.5 187.1,364.3 208.9,394.1 230.7,364.3 "/>
<g>
	<polygon class="st2" points="208.9,288.4 153.4,364.3 208.9,440.2 264.4,364.3 	"/>
	<polygon class="st1" points="208.9,300.3 162.2,364.3 208.9,428.2 255.7,364.3 	"/>
	<polygon class="st3" points="208.9,312.9 171.4,364.3 208.9,415.6 246.5,364.3 	"/>
	<polygon class="st0" points="208.9,323 178.8,364.3 208.9,405.5 239.1,364.3 	"/>
	<polygon class="st2" points="208.9,334.5 187.1,364.3 208.9,394.1 230.7,364.3 	"/>
	<polygon class="st3" points="208.9,349.8 198.4,364.3 208.9,378.7 219.5,364.3 	"/>
</g>
<g>
	<polygon class="st0" points="190.6,325.5 187.3,322.3 172,306.9 153.6,288.6 153.4,288.4 153.4,325.5 153.6,325.5 184.8,325.5 	"/>
	<polygon class="st0" points="264.4,288.4 261.2,291.6 245.8,306.9 227.5,325.3 227.2,325.5 264.4,325.5 264.4,325.3 264.4,294.1 	
		"/>
	<polygon class="st0" points="227.2,403 230.5,406.3 245.8,421.6 264.2,440 264.4,440.2 264.4,403 264.2,403 233,403 	"/>
	<polygon class="st0" points="153.4,440.2 156.7,436.9 172,421.6 190.4,403.2 190.6,403 153.4,403 153.4,403.2 153.4,434.4 	"/>
</g>
<g>
	<rect x="437.3" y="265.5" class="st2" width="144.4" height="197.5"/>
	<rect x="441.9" y="271.8" class="st0" width="135.2" height="184.9"/>
	<rect x="446.2" y="277.7" class="st2" width="126.6" height="173.2"/>
	<rect x="450.2" y="283.2" class="st1" width="118.6" height="162.1"/>
	<rect x="454" y="288.4" class="st3" width="111" height="151.8"/>
</g>
<g>
	<g>
		<polygon class="st2" points="509.5,288.4 454,364.3 509.5,440.2 565,364.3 		"/>
		<polygon class="st1" points="509.5,300.3 462.7,364.3 509.5,428.2 556.2,364.3 		"/>
		<polygon class="st3" points="509.5,312.9 471.9,364.3 509.5,415.6 547,364.3 		"/>
		<polygon class="st0" points="509.5,323 479.3,364.3 509.5,405.5 539.6,364.3 		"/>
		<polygon class="st2" points="509.5,334.5 487.7,364.3 509.5,394.1 531.3,364.3 		"/>
	</g>
	<polygon class="st3" points="509.5,349.8 498.9,364.3 509.5,378.7 520,364.3 	"/>
</g>
<g>
	<rect x="279.2" y="7.2" class="st2" width="165.5" height="226.4"/>
	<rect x="284.4" y="14.4" class="st0" width="155" height="212"/>
	<rect x="289.4" y="21.1" class="st2" width="145.1" height="198.5"/>
	<rect x="294" y="27.5" class="st1" width="135.9" height="185.9"/>
	<rect x="298.3" y="33.4" class="st3" width="127.3" height="174.1"/>
	<rect x="279.2" y="7.2" class="st2" width="165.5" height="226.4"/>
	<rect x="284.4" y="14.4" class="st0" width="155" height="212"/>
	<rect x="289.4" y="21.1" class="st2" width="145.1" height="198.5"/>
	<rect x="294" y="27.5" class="st1" width="135.9" height="185.9"/>
	<rect x="298.3" y="33.4" class="st3" width="127.3" height="174.1"/>
</g>
<polygon class="st2" points="362,86.2 337,120.4 362,154.6 386.9,120.4 "/>
<g>
	<polygon class="st2" points="362,33.4 298.3,120.4 362,207.4 425.6,120.4 	"/>
	<polygon class="st1" points="362,47.1 308.4,120.4 362,193.7 415.5,120.4 	"/>
	<polygon class="st3" points="362,61.5 318.9,120.4 362,179.3 405,120.4 	"/>
	<polygon class="st0" points="362,73.1 327.4,120.4 362,167.7 396.5,120.4 	"/>
	<polygon class="st2" points="362,86.2 337,120.4 362,154.6 386.9,120.4 	"/>
	<polygon class="st3" points="362,103.8 349.8,120.4 362,137 374.1,120.4 	"/>
</g>
<g>
	<polygon class="st0" points="340.9,76 337.2,72.2 319.6,54.7 298.6,33.6 298.3,33.4 298.3,76 298.6,76 334.3,76 	"/>
	<polygon class="st0" points="425.6,33.4 421.9,37.1 404.3,54.7 383.2,75.7 383,76 425.6,76 425.6,75.7 425.6,40 	"/>
	<polygon class="st0" points="383,164.8 386.7,168.5 404.3,186.1 425.3,207.2 425.6,207.4 425.6,164.8 425.3,164.8 389.6,164.8 	"/>
	<polygon class="st0" points="298.3,207.4 302,203.7 319.6,186.1 340.7,165.1 340.9,164.8 298.3,164.8 298.3,165.1 298.3,200.8 	"/>
</g>
<g>
	<rect x="279.2" y="487.7" class="st2" width="165.5" height="226.4"/>
	<rect x="284.4" y="494.9" class="st0" width="155" height="212"/>
	<rect x="289.4" y="501.6" class="st2" width="145.1" height="198.5"/>
	<rect x="294" y="508" class="st1" width="135.9" height="185.9"/>
	<rect x="298.3" y="513.9" class="st3" width="127.3" height="174.1"/>
	<rect x="279.2" y="487.7" class="st2" width="165.5" height="226.4"/>
	<rect x="284.4" y="494.9" class="st0" width="155" height="212"/>
	<rect x="289.4" y="501.6" class="st2" width="145.1" height="198.5"/>
	<rect x="294" y="508" class="st1" width="135.9" height="185.9"/>
	<rect x="298.3" y="513.9" class="st3" width="127.3" height="174.1"/>
</g>
<polygon class="st2" points="362,566.8 337,600.9 362,635.1 386.9,600.9 "/>
<g>
	<polygon class="st2" points="362,513.9 298.3,600.9 362,687.9 425.6,600.9 	"/>
	<polygon class="st1" points="362,527.6 308.4,600.9 362,674.2 415.5,600.9 	"/>
	<polygon class="st3" points="362,542 318.9,600.9 362,659.8 405,600.9 	"/>
	<polygon class="st0" points="362,553.6 327.4,600.9 362,648.2 396.5,600.9 	"/>
	<polygon class="st2" points="362,566.8 337,600.9 362,635.1 386.9,600.9 	"/>
	<polygon class="st3" points="362,584.3 349.8,600.9 362,617.5 374.1,600.9 	"/>
</g>
<g>
	<polygon class="st0" points="340.9,556.5 337.2,552.8 319.6,535.2 298.6,514.1 298.3,513.9 298.3,556.5 298.6,556.5 334.3,556.5 	
		"/>
	<polygon class="st0" points="425.6,513.9 421.9,517.6 404.3,535.2 383.2,556.2 383,556.5 425.6,556.5 425.6,556.2 425.6,520.5 	"/>
	<polygon class="st0" points="383,645.3 386.7,649.1 404.3,666.6 425.3,687.7 425.6,687.9 425.6,645.3 425.3,645.3 389.6,645.3 	"/>
	<polygon class="st0" points="298.3,687.9 302,684.2 319.6,666.6 340.7,645.6 340.9,645.3 298.3,645.3 298.3,645.6 298.3,681.3 	"/>
</g>
<g>
	<rect x="11.4" y="36.1" class="st2" width="144.4" height="197.5"/>
	<rect x="16" y="42.4" class="st0" width="135.2" height="184.9"/>
	<rect x="20.3" y="48.3" class="st2" width="126.6" height="173.2"/>
	<rect x="24.3" y="53.8" class="st1" width="118.6" height="162.1"/>
	<rect x="28.1" y="58.9" class="st3" width="111" height="151.8"/>
	<rect x="11.4" y="36.1" class="st2" width="144.4" height="197.5"/>
	<rect x="16" y="42.4" class="st0" width="135.2" height="184.9"/>
	<rect x="20.3" y="48.3" class="st2" width="126.6" height="173.2"/>
	<rect x="24.3" y="53.8" class="st1" width="118.6" height="162.1"/>
	<rect x="28.1" y="58.9" class="st3" width="111" height="151.8"/>
</g>
<polygon class="st2" points="83.6,105.1 61.8,134.9 83.6,164.6 105.4,134.9 "/>
<g>
	<polygon class="st2" points="83.6,58.9 28.1,134.9 83.6,210.8 139.1,134.9 	"/>
	<polygon class="st1" points="83.6,70.9 36.9,134.9 83.6,198.8 130.4,134.9 	"/>
	<polygon class="st3" points="83.6,83.5 46,134.9 83.6,186.2 121.2,134.9 	"/>
	<polygon class="st0" points="83.6,93.6 53.5,134.9 83.6,176.1 113.8,134.9 	"/>
	<polygon class="st2" points="83.6,105.1 61.8,134.9 83.6,164.6 105.4,134.9 	"/>
	<polygon class="st3" points="83.6,120.4 73,134.9 83.6,149.3 94.2,134.9 	"/>
</g>
<g>
	<polygon class="st0" points="139.1,58.9 135.9,62.2 120.5,77.5 102.2,95.9 101.9,96.1 139.1,96.1 139.1,95.9 139.1,64.7 	"/>
	<polygon class="st0" points="101.9,173.6 105.2,176.9 120.5,192.2 138.9,210.6 139.1,210.8 139.1,173.6 138.9,173.6 107.7,173.6 	
		"/>
	<polygon class="st0" points="28.1,210.8 31.4,207.5 46.7,192.2 65.1,173.8 65.3,173.6 28.1,173.6 28.1,173.8 28.1,205 	"/>
	<polygon class="st0" points="65.3,96.1 62,92.8 46.7,77.5 28.3,59.2 28.1,58.9 28.1,96.1 28.3,96.1 59.5,96.1 	"/>
</g>
<g>
	<rect x="567.3" y="487.4" class="st2" width="144.4" height="197.5"/>
	<rect x="571.9" y="493.7" class="st0" width="135.2" height="184.9"/>
	<rect x="576.2" y="499.5" class="st2" width="126.6" height="173.2"/>
	<rect x="580.2" y="505.1" class="st1" width="118.6" height="162.1"/>
	<rect x="584" y="510.2" class="st3" width="111" height="151.8"/>
	<rect x="567.3" y="487.4" class="st2" width="144.4" height="197.5"/>
	<rect x="571.9" y="493.7" class="st0" width="135.2" height="184.9"/>
	<rect x="576.2" y="499.5" class="st2" width="126.6" height="173.2"/>
	<rect x="580.2" y="505.1" class="st1" width="118.6" height="162.1"/>
	<rect x="584" y="510.2" class="st3" width="111" height="151.8"/>
</g>
<g>
	<polygon class="st2" points="639.5,510.9 584,586.8 639.5,662.7 695,586.8 	"/>
	<polygon class="st1" points="639.5,522.9 592.8,586.8 639.5,650.8 686.2,586.8 	"/>
	<polygon class="st3" points="639.5,535.5 602,586.8 639.5,638.2 677.1,586.8 	"/>
	<polygon class="st0" points="639.5,545.6 609.3,586.8 639.5,628.1 669.7,586.8 	"/>
	<polygon class="st2" points="639.5,557 617.7,586.8 639.5,616.6 661.3,586.8 	"/>
	<polygon class="st3" points="639.5,572.4 628.9,586.8 639.5,601.3 650.1,586.8 	"/>
</g>
<g>
	<polygon class="st0" points="621.2,547.4 617.9,544.1 602.6,528.8 584.2,510.4 584,510.2 584,547.4 584.2,547.4 615.4,547.4 	"/>
	<polygon class="st0" points="695,510.2 691.8,513.5 676.4,528.8 658.1,547.2 657.8,547.4 695,547.4 695,547.2 695,516 	"/>
	<polygon class="st0" points="657.8,624.9 661.1,628.1 676.4,643.5 694.8,661.8 695,662 695,624.9 694.8,624.9 663.6,624.9 	"/>
	<polygon class="st0" points="584,662 587.3,658.8 602.6,643.5 621,625.1 621.2,624.9 584,624.9 584,625.1 584,656.3 	"/>
</g>
<rect x="584" y="58.9" class="st3" width="111" height="151.8"/>
<g>
	<rect x="567.3" y="36.1" class="st2" width="144.4" height="197.5"/>
	<rect x="571.9" y="42.4" class="st0" width="135.2" height="184.9"/>
	<rect x="576.2" y="48.3" class="st2" width="126.6" height="173.2"/>
	<rect x="580.2" y="53.8" class="st1" width="118.6" height="162.1"/>
	<rect x="567.3" y="36.1" class="st2" width="144.4" height="197.5"/>
	<rect x="571.9" y="42.4" class="st0" width="135.2" height="184.9"/>
	<rect x="576.2" y="48.3" class="st2" width="126.6" height="173.2"/>
	<rect x="580.2" y="53.8" class="st1" width="118.6" height="162.1"/>
	<rect x="584" y="58.9" class="st3" width="111" height="151.8"/>
</g>
<g>
	<polygon class="st2" points="639.5,58.9 584,134.9 639.5,210.8 695,134.9 	"/>
	<polygon class="st1" points="639.5,70.9 592.8,134.9 639.5,198.8 686.2,134.9 	"/>
	<polygon class="st3" points="639.5,83.5 602,134.9 639.5,186.2 677.1,134.9 	"/>
	<polygon class="st0" points="639.5,93.6 609.3,134.9 639.5,176.1 669.7,134.9 	"/>
	<polygon class="st2" points="639.5,105.1 617.7,134.9 639.5,164.6 661.3,134.9 	"/>
	<polygon class="st3" points="639.5,120.4 628.9,134.9 639.5,149.3 650.1,134.9 	"/>
</g>
<g>
	<polygon class="st0" points="621.2,96.1 617.9,92.8 602.6,77.5 584.2,59.2 584,58.9 584,96.1 584.2,96.1 615.4,96.1 	"/>
	<polygon class="st0" points="695,58.9 691.8,62.2 676.4,77.5 658.1,95.9 657.8,96.1 695,96.1 695,95.9 695,64.7 	"/>
	<polygon class="st0" points="657.8,173.6 661.1,176.9 676.4,192.2 694.8,210.6 695,210.8 695,173.6 694.8,173.6 663.6,173.6 	"/>
	<polygon class="st0" points="584,210.8 587.3,207.5 602.6,192.2 621,173.8 621.2,173.6 584,173.6 584,173.8 584,205 	"/>
</g>
<g>
	<rect x="11.4" y="487.4" class="st2" width="144.4" height="197.5"/>
	<rect x="16" y="493.7" class="st0" width="135.2" height="184.9"/>
	<rect x="20.3" y="499.5" class="st2" width="126.6" height="173.2"/>
	<rect x="24.3" y="505.1" class="st1" width="118.6" height="162.1"/>
	<rect x="28.1" y="510.2" class="st3" width="111" height="151.8"/>
	<rect x="11.4" y="487.4" class="st2" width="144.4" height="197.5"/>
	<rect x="16" y="493.7" class="st0" width="135.2" height="184.9"/>
	<rect x="20.3" y="499.5" class="st2" width="126.6" height="173.2"/>
	<rect x="24.3" y="505.1" class="st1" width="118.6" height="162.1"/>
	<rect x="28.1" y="510.2" class="st3" width="111" height="151.8"/>
</g>
<g>
	<polygon class="st2" points="84.2,510.3 28.7,586.2 84.2,662.1 139.7,586.2 	"/>
	<polygon class="st1" points="84.2,522.3 37.5,586.2 84.2,650.2 131,586.2 	"/>
	<polygon class="st3" points="84.2,534.9 46.6,586.2 84.2,637.6 121.8,586.2 	"/>
	<polygon class="st0" points="84.2,545 54.1,586.2 84.2,627.5 114.4,586.2 	"/>
	<polygon class="st2" points="84.2,556.4 62.4,586.2 84.2,616 106,586.2 	"/>
	<polygon class="st3" points="84.2,571.8 73.6,586.2 84.2,600.7 94.8,586.2 	"/>
</g>
<g>
	<polygon class="st0" points="65.3,547.4 62,544.1 46.7,528.8 28.3,510.4 28.1,510.2 28.1,547.4 28.3,547.4 59.5,547.4 	"/>
	<polygon class="st0" points="139.1,510.2 135.9,513.5 120.5,528.8 102.2,547.2 101.9,547.4 139.1,547.4 139.1,547.2 139.1,516 	"/>
	<polygon class="st0" points="101.9,624.9 105.2,628.1 120.5,643.5 138.9,661.8 139.1,662 139.1,624.9 138.9,624.9 107.7,624.9 	"/>
	<polygon class="st0" points="28.1,662 31.4,658.8 46.7,643.5 65.1,625.1 65.3,624.9 28.1,624.9 28.1,625.1 28.1,656.3 	"/>
</g>
<g id="_x36_b0">
	<rect x="320" y="346.6" class="st3" width="81.8" height="32.2"/>
</g>
<g id="_x36_b1">
	<rect x="609.2" y="346.6" class="st3" width="81.8" height="32.2"/>
</g>
<g id="_x36_b2">
	<rect x="468.6" y="572" class="st3" width="81.8" height="32.2"/>
</g>
<g id="_x36_b3">
	<rect x="31.1" y="346.6" class="st3" width="81.8" height="32.2"/>
</g>
<g id="_x36_b4">
	<rect x="168" y="568.7" class="st3" width="81.8" height="32.2"/>
</g>
<g id="_x36_b5">
	<rect x="168" y="118.6" class="st3" width="81.8" height="32.2"/>
</g>
<g id="_x36_b6">
	<rect x="468.6" y="118.7" class="st3" width="81.8" height="32.2"/>
</g>
<g id="_x37_b0">
	<polygon class="st4" points="360.9,346.6 349.7,362.8 360.9,378.9 372,362.8 	"/>
	<rect x="357.5" y="359.4" class="st0" width="6.6" height="6.6"/>
</g>
<g id="_x37_b1">
	<polygon class="st4" points="650.1,346.6 638.9,362.8 650.1,378.9 661.2,362.8 	"/>
	<rect x="646.8" y="359.4" class="st0" width="6.7" height="6.6"/>
</g>
<g id="_x37_b2">
	<polygon class="st4" points="509.5,572 498.3,588.2 509.5,604.4 520.6,588.2 	"/>
	<rect x="506.1" y="584.8" class="st0" width="6.6" height="6.7"/>
</g>
<g id="_x37_b3">
	<polygon class="st4" points="72,346.6 60.9,362.8 72,378.9 83.2,362.8 	"/>
	<rect x="68.7" y="359.4" class="st0" width="6.7" height="6.6"/>
</g>
<g id="_x37_b4">
	<polygon class="st4" points="208.9,600.9 197.8,584.7 208.9,568.6 220.1,584.7 	"/>
	<rect x="205.6" y="581.5" class="st0" width="6.6" height="6.7"/>
</g>
<g id="_x37_b5">
	<polygon class="st4" points="208.9,118.6 197.8,134.8 208.9,150.9 220.1,134.8 	"/>
	<rect x="205.6" y="131.4" class="st0" width="6.6" height="6.6"/>
</g>
<g id="_x37_b6">
	<polygon class="st4" points="509.5,118.7 498.3,134.9 509.5,151 520.6,134.9 	"/>
	<rect x="506.1" y="131.5" class="st0" width="6.6" height="6.6"/>
</g>
<g>
	<polygon class="st0" points="491.1,325.5 487.9,322.3 472.6,306.9 454.2,288.6 454,288.4 454,325.5 454.2,325.5 485.4,325.5 	"/>
	<polygon class="st0" points="565,288.4 561.7,291.6 546.4,306.9 528,325.3 527.8,325.5 565,325.5 565,325.3 565,294.1 	"/>
	<polygon class="st0" points="527.8,403 531.1,406.3 546.4,421.6 564.8,440 565,440.2 565,403 564.8,403 533.6,403 	"/>
	<polygon class="st0" points="454,440.2 457.2,436.9 472.6,421.6 490.9,403.2 491.1,403 454,403 454,403.2 454,434.4 	"/>
</g>
</svg>
